<svg width="309" height="188" viewBox="0 0 309 188" fill="none" xmlns="http://www.w3.org/2000/svg">
<rect x="110" width="88" height="88" rx="44" fill="url(#paint0_linear_2_1521)"/>
<path d="M86.448 130C86.288 130 86.152 129.944 86.04 129.832C85.928 129.72 85.872 129.584 85.872 129.424V113.8C85.872 113.624 85.92 113.48 86.016 113.368C86.128 113.256 86.272 113.2 86.448 113.2H93.408C95.28 113.2 96.672 113.616 97.584 114.448C98.512 115.264 98.976 116.384 98.976 117.808C98.976 118.64 98.768 119.352 98.352 119.944C97.952 120.52 97.48 120.936 96.936 121.192C97.608 121.496 98.168 121.992 98.616 122.68C99.08 123.368 99.312 124.152 99.312 125.032C99.312 126.52 98.808 127.72 97.8 128.632C96.808 129.544 95.408 130 93.6 130H86.448ZM92.976 120.088C93.808 120.088 94.44 119.888 94.872 119.488C95.304 119.088 95.52 118.552 95.52 117.88C95.52 117.192 95.304 116.664 94.872 116.296C94.44 115.912 93.808 115.72 92.976 115.72H89.208V120.088H92.976ZM93.216 127.456C94.048 127.456 94.696 127.232 95.16 126.784C95.624 126.32 95.856 125.736 95.856 125.032C95.856 124.312 95.624 123.728 95.16 123.28C94.696 122.816 94.048 122.584 93.216 122.584H89.208V127.456H93.216ZM108.133 130.24C106.357 130.24 104.941 129.728 103.885 128.704C102.845 127.664 102.293 126.208 102.229 124.336L102.205 123.736L102.229 123.136C102.309 121.312 102.869 119.88 103.909 118.84C104.965 117.8 106.373 117.28 108.133 117.28C110.021 117.28 111.477 117.856 112.501 119.008C113.541 120.16 114.061 121.696 114.061 123.616V124.12C114.061 124.28 114.005 124.416 113.893 124.528C113.781 124.64 113.637 124.696 113.461 124.696H105.493V124.888C105.525 125.768 105.765 126.512 106.213 127.12C106.677 127.712 107.309 128.008 108.109 128.008C109.053 128.008 109.813 127.64 110.389 126.904C110.533 126.728 110.645 126.616 110.725 126.568C110.821 126.52 110.957 126.496 111.133 126.496H113.197C113.341 126.496 113.461 126.544 113.557 126.64C113.669 126.72 113.725 126.824 113.725 126.952C113.725 127.336 113.493 127.792 113.029 128.32C112.581 128.832 111.933 129.28 111.085 129.664C110.237 130.048 109.253 130.24 108.133 130.24ZM110.797 122.68V122.608C110.797 121.664 110.557 120.904 110.077 120.328C109.613 119.752 108.965 119.464 108.133 119.464C107.301 119.464 106.653 119.752 106.189 120.328C105.725 120.904 105.493 121.664 105.493 122.608V122.68H110.797ZM122.057 130.24C120.857 130.24 119.849 130.064 119.033 129.712C118.217 129.344 117.609 128.92 117.209 128.44C116.825 127.944 116.633 127.52 116.633 127.168C116.633 127.008 116.689 126.88 116.801 126.784C116.913 126.688 117.041 126.64 117.185 126.64H119.081C119.225 126.64 119.345 126.696 119.441 126.808C119.505 126.856 119.673 127 119.945 127.24C120.217 127.496 120.537 127.696 120.905 127.84C121.273 127.984 121.681 128.056 122.129 128.056C122.769 128.056 123.297 127.928 123.713 127.672C124.129 127.416 124.337 127.064 124.337 126.616C124.337 126.28 124.241 126.008 124.049 125.8C123.873 125.592 123.545 125.408 123.065 125.248C122.585 125.072 121.873 124.888 120.929 124.696C119.569 124.408 118.561 123.968 117.905 123.376C117.265 122.784 116.945 122 116.945 121.024C116.945 120.384 117.137 119.784 117.521 119.224C117.905 118.648 118.473 118.184 119.225 117.832C119.993 117.464 120.905 117.28 121.961 117.28C123.033 117.28 123.961 117.456 124.745 117.808C125.529 118.144 126.121 118.552 126.521 119.032C126.937 119.496 127.145 119.912 127.145 120.28C127.145 120.424 127.089 120.552 126.977 120.664C126.881 120.76 126.761 120.808 126.617 120.808H124.841C124.713 120.808 124.577 120.752 124.433 120.64C124.321 120.56 124.145 120.408 123.905 120.184C123.665 119.96 123.385 119.784 123.065 119.656C122.745 119.528 122.369 119.464 121.937 119.464C121.345 119.464 120.881 119.592 120.545 119.848C120.225 120.104 120.065 120.44 120.065 120.856C120.065 121.16 120.145 121.408 120.305 121.6C120.465 121.792 120.777 121.976 121.241 122.152C121.705 122.328 122.401 122.504 123.329 122.68C124.865 122.984 125.961 123.456 126.617 124.096C127.289 124.736 127.625 125.52 127.625 126.448C127.625 127.568 127.137 128.48 126.161 129.184C125.185 129.888 123.817 130.24 122.057 130.24ZM136.415 130C134.959 130 133.863 129.624 133.127 128.872C132.407 128.104 132.047 126.984 132.047 125.512V120.064H130.151C129.991 120.064 129.855 120.008 129.743 119.896C129.631 119.768 129.575 119.624 129.575 119.464V118.096C129.575 117.936 129.631 117.8 129.743 117.688C129.855 117.576 129.991 117.52 130.151 117.52H132.047V113.536C132.047 113.36 132.103 113.224 132.215 113.128C132.327 113.016 132.463 112.96 132.623 112.96H134.567C134.743 112.96 134.879 113.016 134.975 113.128C135.087 113.224 135.143 113.36 135.143 113.536V117.52H138.143C138.319 117.52 138.455 117.576 138.551 117.688C138.663 117.784 138.719 117.92 138.719 118.096V119.464C138.719 119.64 138.663 119.784 138.551 119.896C138.439 120.008 138.303 120.064 138.143 120.064H135.143V125.272C135.143 125.96 135.263 126.48 135.503 126.832C135.743 127.184 136.143 127.36 136.703 127.36H138.359C138.519 127.36 138.655 127.416 138.767 127.528C138.879 127.64 138.935 127.776 138.935 127.936V129.424C138.935 129.584 138.879 129.72 138.767 129.832C138.671 129.944 138.535 130 138.359 130H136.415ZM152.54 130C152.076 130 151.772 129.776 151.628 129.328L146.492 113.92L146.444 113.704C146.444 113.56 146.492 113.44 146.588 113.344C146.684 113.248 146.804 113.2 146.948 113.2H149.06C149.268 113.2 149.428 113.256 149.54 113.368C149.668 113.464 149.756 113.584 149.804 113.728L153.86 126.088L157.916 113.728C157.948 113.6 158.028 113.48 158.156 113.368C158.284 113.256 158.452 113.2 158.66 113.2H160.772C160.9 113.2 161.012 113.248 161.108 113.344C161.22 113.44 161.276 113.56 161.276 113.704L161.228 113.92L156.092 129.328C155.948 129.776 155.644 130 155.18 130H152.54ZM166.489 130.24C165.673 130.24 164.921 130.08 164.233 129.76C163.561 129.424 163.025 128.976 162.625 128.416C162.241 127.856 162.049 127.24 162.049 126.568C162.049 125.48 162.489 124.6 163.369 123.928C164.249 123.256 165.457 122.8 166.993 122.56L170.281 122.08V121.576C170.281 120.872 170.105 120.344 169.753 119.992C169.401 119.64 168.833 119.464 168.049 119.464C167.521 119.464 167.089 119.568 166.753 119.776C166.433 119.968 166.177 120.16 165.985 120.352C165.793 120.56 165.665 120.696 165.601 120.76C165.537 120.952 165.417 121.048 165.241 121.048H163.393C163.249 121.048 163.121 121 163.009 120.904C162.913 120.808 162.865 120.68 162.865 120.52C162.881 120.12 163.073 119.664 163.441 119.152C163.825 118.64 164.409 118.2 165.193 117.832C165.977 117.464 166.937 117.28 168.073 117.28C169.961 117.28 171.337 117.704 172.201 118.552C173.065 119.4 173.497 120.512 173.497 121.888V129.424C173.497 129.584 173.441 129.72 173.329 129.832C173.233 129.944 173.097 130 172.921 130H170.977C170.817 130 170.681 129.944 170.569 129.832C170.457 129.72 170.401 129.584 170.401 129.424V128.488C170.049 129 169.545 129.424 168.889 129.76C168.249 130.08 167.449 130.24 166.489 130.24ZM167.305 127.96C168.185 127.96 168.905 127.672 169.465 127.096C170.025 126.52 170.305 125.68 170.305 124.576V124.072L167.905 124.456C166.977 124.6 166.273 124.832 165.793 125.152C165.329 125.472 165.097 125.864 165.097 126.328C165.097 126.84 165.313 127.24 165.745 127.528C166.177 127.816 166.697 127.96 167.305 127.96ZM177.896 130C177.736 130 177.6 129.944 177.488 129.832C177.376 129.72 177.32 129.584 177.32 129.424V113.536C177.32 113.36 177.376 113.224 177.488 113.128C177.6 113.016 177.736 112.96 177.896 112.96H179.888C180.064 112.96 180.2 113.016 180.296 113.128C180.408 113.224 180.464 113.36 180.464 113.536V129.424C180.464 129.584 180.408 129.72 180.296 129.832C180.2 129.944 180.064 130 179.888 130H177.896ZM188.999 130.24C187.527 130.24 186.367 129.76 185.519 128.8C184.671 127.824 184.247 126.504 184.247 124.84V118.096C184.247 117.936 184.303 117.8 184.415 117.688C184.527 117.576 184.663 117.52 184.823 117.52H186.935C187.111 117.52 187.247 117.576 187.343 117.688C187.455 117.784 187.511 117.92 187.511 118.096V124.696C187.511 126.68 188.383 127.672 190.127 127.672C190.959 127.672 191.615 127.408 192.095 126.88C192.591 126.352 192.839 125.624 192.839 124.696V118.096C192.839 117.936 192.895 117.8 193.007 117.688C193.119 117.576 193.255 117.52 193.415 117.52H195.527C195.703 117.52 195.839 117.576 195.935 117.688C196.047 117.784 196.103 117.92 196.103 118.096V129.424C196.103 129.584 196.047 129.72 195.935 129.832C195.839 129.944 195.703 130 195.527 130H193.583C193.423 130 193.287 129.944 193.175 129.832C193.063 129.72 193.007 129.584 193.007 129.424V128.44C192.111 129.64 190.775 130.24 188.999 130.24ZM205.37 130.24C203.594 130.24 202.178 129.728 201.122 128.704C200.082 127.664 199.53 126.208 199.466 124.336L199.442 123.736L199.466 123.136C199.546 121.312 200.106 119.88 201.146 118.84C202.202 117.8 203.61 117.28 205.37 117.28C207.258 117.28 208.714 117.856 209.738 119.008C210.778 120.16 211.298 121.696 211.298 123.616V124.12C211.298 124.28 211.242 124.416 211.13 124.528C211.018 124.64 210.874 124.696 210.698 124.696H202.73V124.888C202.762 125.768 203.002 126.512 203.45 127.12C203.914 127.712 204.546 128.008 205.346 128.008C206.29 128.008 207.05 127.64 207.626 126.904C207.77 126.728 207.882 126.616 207.962 126.568C208.058 126.52 208.194 126.496 208.37 126.496H210.434C210.578 126.496 210.698 126.544 210.794 126.64C210.906 126.72 210.962 126.824 210.962 126.952C210.962 127.336 210.73 127.792 210.266 128.32C209.818 128.832 209.17 129.28 208.322 129.664C207.474 130.048 206.49 130.24 205.37 130.24ZM208.034 122.68V122.608C208.034 121.664 207.794 120.904 207.314 120.328C206.85 119.752 206.202 119.464 205.37 119.464C204.538 119.464 203.89 119.752 203.426 120.328C202.962 120.904 202.73 121.664 202.73 122.608V122.68H208.034ZM219.293 130.24C218.093 130.24 217.085 130.064 216.269 129.712C215.453 129.344 214.845 128.92 214.445 128.44C214.061 127.944 213.869 127.52 213.869 127.168C213.869 127.008 213.925 126.88 214.037 126.784C214.149 126.688 214.277 126.64 214.421 126.64H216.317C216.461 126.64 216.581 126.696 216.677 126.808C216.741 126.856 216.909 127 217.181 127.24C217.453 127.496 217.773 127.696 218.141 127.84C218.509 127.984 218.917 128.056 219.365 128.056C220.005 128.056 220.533 127.928 220.949 127.672C221.365 127.416 221.573 127.064 221.573 126.616C221.573 126.28 221.477 126.008 221.285 125.8C221.109 125.592 220.781 125.408 220.301 125.248C219.821 125.072 219.109 124.888 218.165 124.696C216.805 124.408 215.797 123.968 215.141 123.376C214.501 122.784 214.181 122 214.181 121.024C214.181 120.384 214.373 119.784 214.757 119.224C215.141 118.648 215.709 118.184 216.461 117.832C217.229 117.464 218.141 117.28 219.197 117.28C220.269 117.28 221.197 117.456 221.981 117.808C222.765 118.144 223.357 118.552 223.757 119.032C224.173 119.496 224.381 119.912 224.381 120.28C224.381 120.424 224.325 120.552 224.213 120.664C224.117 120.76 223.997 120.808 223.853 120.808H222.077C221.949 120.808 221.813 120.752 221.669 120.64C221.557 120.56 221.381 120.408 221.141 120.184C220.901 119.96 220.621 119.784 220.301 119.656C219.981 119.528 219.605 119.464 219.173 119.464C218.581 119.464 218.117 119.592 217.781 119.848C217.461 120.104 217.301 120.44 217.301 120.856C217.301 121.16 217.381 121.408 217.541 121.6C217.701 121.792 218.013 121.976 218.477 122.152C218.941 122.328 219.637 122.504 220.565 122.68C222.101 122.984 223.197 123.456 223.853 124.096C224.525 124.736 224.861 125.52 224.861 126.448C224.861 127.568 224.373 128.48 223.397 129.184C222.421 129.888 221.053 130.24 219.293 130.24Z" fill="#616161"/>
<path d="M6.03663 163.12C5.03663 163.12 4.16663 162.9 3.42663 162.46C2.69663 162.02 2.13163 161.395 1.73163 160.585C1.33163 159.775 1.13163 158.82 1.13163 157.72C1.13163 156.61 1.32663 155.65 1.71663 154.84C2.11663 154.02 2.68663 153.395 3.42663 152.965C4.16663 152.525 5.03663 152.305 6.03663 152.305C7.04663 152.305 7.92163 152.525 8.66163 152.965C9.40163 153.395 9.96663 154.02 10.3566 154.84C10.7566 155.65 10.9566 156.605 10.9566 157.705C10.9566 158.805 10.7566 159.765 10.3566 160.585C9.96663 161.395 9.40163 162.02 8.66163 162.46C7.92163 162.9 7.04663 163.12 6.03663 163.12ZM6.03663 161.86C7.09663 161.86 7.92163 161.5 8.51163 160.78C9.10163 160.06 9.39663 159.035 9.39663 157.705C9.39663 156.375 9.10163 155.355 8.51163 154.645C7.93163 153.925 7.10663 153.565 6.03663 153.565C4.98663 153.565 4.16663 153.925 3.57663 154.645C2.99663 155.355 2.70663 156.375 2.70663 157.705C2.70663 159.035 2.99663 160.06 3.57663 160.78C4.16663 161.5 4.98663 161.86 6.03663 161.86ZM19.0039 155.53C19.2339 155.53 19.4139 155.595 19.5439 155.725C19.6839 155.855 19.7539 156.035 19.7539 156.265V162.37C19.7539 162.58 19.6839 162.75 19.5439 162.88C19.4039 163.01 19.2189 163.075 18.9889 163.075C18.7789 163.075 18.6089 163.015 18.4789 162.895C18.3489 162.765 18.2839 162.595 18.2839 162.385V161.815C18.0539 162.235 17.7339 162.555 17.3239 162.775C16.9239 162.995 16.4739 163.105 15.9739 163.105C14.1939 163.105 13.3039 162.125 13.3039 160.165V156.265C13.3039 156.035 13.3689 155.855 13.4989 155.725C13.6389 155.595 13.8289 155.53 14.0689 155.53C14.2989 155.53 14.4789 155.595 14.6089 155.725C14.7489 155.855 14.8189 156.035 14.8189 156.265V160.15C14.8189 160.74 14.9389 161.175 15.1789 161.455C15.4189 161.735 15.7889 161.875 16.2889 161.875C16.8789 161.875 17.3489 161.685 17.6989 161.305C18.0589 160.925 18.2389 160.42 18.2389 159.79V156.265C18.2389 156.045 18.3089 155.87 18.4489 155.74C18.5889 155.6 18.7739 155.53 19.0039 155.53ZM26.1639 155.53C26.6439 155.5 26.8839 155.705 26.8839 156.145C26.8839 156.365 26.8289 156.53 26.7189 156.64C26.6089 156.75 26.4189 156.815 26.1489 156.835L25.6989 156.88C25.0689 156.94 24.5989 157.16 24.2889 157.54C23.9889 157.92 23.8389 158.38 23.8389 158.92V162.355C23.8389 162.595 23.7689 162.775 23.6289 162.895C23.4889 163.015 23.3089 163.075 23.0889 163.075C22.8689 163.075 22.6839 163.015 22.5339 162.895C22.3939 162.775 22.3239 162.595 22.3239 162.355V156.25C22.3239 156.02 22.3939 155.845 22.5339 155.725C22.6839 155.595 22.8689 155.53 23.0889 155.53C23.2889 155.53 23.4539 155.595 23.5839 155.725C23.7239 155.845 23.7939 156.015 23.7939 156.235V156.955C23.9939 156.515 24.2839 156.18 24.6639 155.95C25.0439 155.72 25.4739 155.585 25.9539 155.545L26.1639 155.53ZM36.1222 153.58C35.6222 153.62 35.2522 153.78 35.0122 154.06C34.7722 154.33 34.6522 154.73 34.6522 155.26V155.68H36.1372C36.3472 155.68 36.5072 155.735 36.6172 155.845C36.7372 155.945 36.7972 156.085 36.7972 156.265C36.7972 156.445 36.7372 156.59 36.6172 156.7C36.5072 156.8 36.3472 156.85 36.1372 156.85H34.6522V162.34C34.6522 162.58 34.5772 162.765 34.4272 162.895C34.2872 163.015 34.1072 163.075 33.8872 163.075C33.6672 163.075 33.4872 163.015 33.3472 162.895C33.2072 162.765 33.1372 162.58 33.1372 162.34V156.85H32.2372C32.0272 156.85 31.8622 156.8 31.7422 156.7C31.6322 156.59 31.5772 156.445 31.5772 156.265C31.5772 156.085 31.6322 155.945 31.7422 155.845C31.8622 155.735 32.0272 155.68 32.2372 155.68H33.1372V155.485C33.1372 154.565 33.3722 153.845 33.8422 153.325C34.3122 152.795 34.9772 152.5 35.8372 152.44L36.2272 152.41C36.5472 152.39 36.7772 152.425 36.9172 152.515C37.0672 152.605 37.1422 152.75 37.1422 152.95C37.1422 153.3 36.9322 153.5 36.5122 153.55L36.1222 153.58ZM42.0891 155.53C42.5691 155.5 42.8091 155.705 42.8091 156.145C42.8091 156.365 42.7541 156.53 42.6441 156.64C42.5341 156.75 42.3441 156.815 42.0741 156.835L41.6241 156.88C40.9941 156.94 40.5241 157.16 40.2141 157.54C39.9141 157.92 39.7641 158.38 39.7641 158.92V162.355C39.7641 162.595 39.6941 162.775 39.5541 162.895C39.4141 163.015 39.2341 163.075 39.0141 163.075C38.7941 163.075 38.6091 163.015 38.4591 162.895C38.3191 162.775 38.2491 162.595 38.2491 162.355V156.25C38.2491 156.02 38.3191 155.845 38.4591 155.725C38.6091 155.595 38.7941 155.53 39.0141 155.53C39.2141 155.53 39.3791 155.595 39.5091 155.725C39.6491 155.845 39.7191 156.015 39.7191 156.235V156.955C39.9191 156.515 40.2091 156.18 40.5891 155.95C40.9691 155.72 41.3991 155.585 41.8791 155.545L42.0891 155.53ZM49.8623 155.53C50.0923 155.53 50.2723 155.595 50.4023 155.725C50.5423 155.855 50.6123 156.035 50.6123 156.265V162.37C50.6123 162.58 50.5423 162.75 50.4023 162.88C50.2623 163.01 50.0773 163.075 49.8473 163.075C49.6373 163.075 49.4673 163.015 49.3373 162.895C49.2073 162.765 49.1423 162.595 49.1423 162.385V161.815C48.9123 162.235 48.5923 162.555 48.1823 162.775C47.7823 162.995 47.3323 163.105 46.8323 163.105C45.0523 163.105 44.1623 162.125 44.1623 160.165V156.265C44.1623 156.035 44.2273 155.855 44.3573 155.725C44.4973 155.595 44.6873 155.53 44.9273 155.53C45.1573 155.53 45.3373 155.595 45.4673 155.725C45.6073 155.855 45.6773 156.035 45.6773 156.265V160.15C45.6773 160.74 45.7973 161.175 46.0373 161.455C46.2773 161.735 46.6473 161.875 47.1473 161.875C47.7373 161.875 48.2073 161.685 48.5573 161.305C48.9173 160.925 49.0973 160.42 49.0973 159.79V156.265C49.0973 156.045 49.1673 155.87 49.3073 155.74C49.4473 155.6 49.6323 155.53 49.8623 155.53ZM53.9473 163.075C53.7273 163.075 53.5423 163.015 53.3923 162.895C53.2523 162.775 53.1823 162.595 53.1823 162.355V156.265C53.1823 156.025 53.2523 155.845 53.3923 155.725C53.5423 155.595 53.7273 155.53 53.9473 155.53C54.1673 155.53 54.3473 155.595 54.4873 155.725C54.6273 155.845 54.6973 156.025 54.6973 156.265V162.355C54.6973 162.595 54.6273 162.775 54.4873 162.895C54.3473 163.015 54.1673 163.075 53.9473 163.075ZM53.9473 154.06C53.6573 154.06 53.4273 153.98 53.2573 153.82C53.0873 153.66 53.0023 153.45 53.0023 153.19C53.0023 152.93 53.0873 152.725 53.2573 152.575C53.4273 152.415 53.6573 152.335 53.9473 152.335C54.2273 152.335 54.4523 152.415 54.6223 152.575C54.8023 152.725 54.8923 152.93 54.8923 153.19C54.8923 153.45 54.8073 153.66 54.6373 153.82C54.4673 153.98 54.2373 154.06 53.9473 154.06ZM61.0552 161.92C61.2752 161.94 61.4302 162 61.5202 162.1C61.6202 162.19 61.6702 162.32 61.6702 162.49C61.6702 162.69 61.5902 162.845 61.4302 162.955C61.2802 163.055 61.0552 163.095 60.7552 163.075L60.3502 163.045C59.5402 162.985 58.9352 162.74 58.5352 162.31C58.1352 161.87 57.9352 161.225 57.9352 160.375V156.85H57.0352C56.5952 156.85 56.3752 156.655 56.3752 156.265C56.3752 156.085 56.4302 155.945 56.5402 155.845C56.6602 155.735 56.8252 155.68 57.0352 155.68H57.9352V154.135C57.9352 153.905 58.0002 153.725 58.1302 153.595C58.2702 153.465 58.4552 153.4 58.6852 153.4C58.9152 153.4 59.1002 153.465 59.2402 153.595C59.3802 153.725 59.4502 153.905 59.4502 154.135V155.68H60.9352C61.1452 155.68 61.3052 155.735 61.4152 155.845C61.5352 155.945 61.5952 156.085 61.5952 156.265C61.5952 156.455 61.5352 156.6 61.4152 156.7C61.3052 156.8 61.1452 156.85 60.9352 156.85H59.4502V160.48C59.4502 160.95 59.5452 161.295 59.7352 161.515C59.9352 161.735 60.2352 161.86 60.6352 161.89L61.0552 161.92ZM65.7583 163.105C64.7383 163.105 63.9033 162.895 63.2533 162.475C63.0733 162.365 62.9433 162.25 62.8633 162.13C62.7933 162.01 62.7583 161.875 62.7583 161.725C62.7583 161.565 62.8033 161.43 62.8933 161.32C62.9833 161.21 63.0983 161.155 63.2383 161.155C63.3683 161.155 63.5733 161.235 63.8533 161.395C64.1533 161.555 64.4433 161.685 64.7233 161.785C65.0133 161.885 65.3733 161.935 65.8033 161.935C66.2833 161.935 66.6583 161.85 66.9283 161.68C67.1983 161.51 67.3333 161.27 67.3333 160.96C67.3333 160.76 67.2783 160.6 67.1683 160.48C67.0683 160.36 66.8883 160.255 66.6283 160.165C66.3683 160.065 65.9833 159.96 65.4733 159.85C64.5933 159.66 63.9583 159.405 63.5683 159.085C63.1883 158.755 62.9983 158.31 62.9983 157.75C62.9983 157.32 63.1233 156.935 63.3733 156.595C63.6233 156.245 63.9683 155.975 64.4083 155.785C64.8483 155.595 65.3483 155.5 65.9083 155.5C66.3083 155.5 66.6983 155.555 67.0783 155.665C67.4583 155.765 67.7933 155.915 68.0833 156.115C68.4133 156.335 68.5783 156.59 68.5783 156.88C68.5783 157.04 68.5283 157.175 68.4283 157.285C68.3383 157.395 68.2283 157.45 68.0983 157.45C68.0083 157.45 67.9183 157.43 67.8283 157.39C67.7383 157.35 67.6183 157.285 67.4683 157.195C67.1983 157.035 66.9433 156.91 66.7033 156.82C66.4733 156.73 66.1833 156.685 65.8333 156.685C65.4133 156.685 65.0733 156.775 64.8133 156.955C64.5633 157.135 64.4383 157.38 64.4383 157.69C64.4383 157.97 64.5533 158.19 64.7833 158.35C65.0233 158.5 65.4683 158.645 66.1183 158.785C66.7883 158.925 67.3133 159.085 67.6933 159.265C68.0733 159.445 68.3433 159.67 68.5033 159.94C68.6733 160.2 68.7583 160.535 68.7583 160.945C68.7583 161.595 68.4833 162.12 67.9333 162.52C67.3933 162.91 66.6683 163.105 65.7583 163.105ZM78.3747 155.5C79.3447 155.5 80.0647 155.745 80.5347 156.235C81.0147 156.725 81.2547 157.47 81.2547 158.47V162.355C81.2547 162.585 81.1897 162.765 81.0597 162.895C80.9297 163.015 80.7497 163.075 80.5197 163.075C80.2997 163.075 80.1247 163.01 79.9947 162.88C79.8647 162.75 79.7997 162.575 79.7997 162.355V161.8C79.6097 162.22 79.3247 162.545 78.9447 162.775C78.5747 162.995 78.1397 163.105 77.6397 163.105C77.1597 163.105 76.7197 163.01 76.3197 162.82C75.9297 162.62 75.6197 162.35 75.3897 162.01C75.1597 161.67 75.0447 161.285 75.0447 160.855C75.0347 160.315 75.1697 159.895 75.4497 159.595C75.7297 159.285 76.1847 159.065 76.8147 158.935C77.4447 158.795 78.3197 158.725 79.4397 158.725H79.7847V158.29C79.7847 157.73 79.6697 157.325 79.4397 157.075C79.2097 156.825 78.8397 156.7 78.3297 156.7C77.9797 156.7 77.6497 156.745 77.3397 156.835C77.0297 156.925 76.6897 157.055 76.3197 157.225C76.0497 157.375 75.8597 157.45 75.7497 157.45C75.5997 157.45 75.4747 157.395 75.3747 157.285C75.2847 157.175 75.2397 157.035 75.2397 156.865C75.2397 156.715 75.2797 156.585 75.3597 156.475C75.4497 156.355 75.5897 156.24 75.7797 156.13C76.1297 155.94 76.5397 155.79 77.0097 155.68C77.4797 155.56 77.9347 155.5 78.3747 155.5ZM77.9097 161.98C78.4597 161.98 78.9097 161.795 79.2597 161.425C79.6097 161.045 79.7847 160.56 79.7847 159.97V159.58H79.5147C78.7347 159.58 78.1347 159.615 77.7147 159.685C77.2947 159.755 76.9947 159.875 76.8147 160.045C76.6347 160.205 76.5447 160.44 76.5447 160.75C76.5447 161.11 76.6747 161.405 76.9347 161.635C77.1947 161.865 77.5197 161.98 77.9097 161.98ZM87.6171 155.53C88.0971 155.5 88.3371 155.705 88.3371 156.145C88.3371 156.365 88.2821 156.53 88.1721 156.64C88.0621 156.75 87.8721 156.815 87.6021 156.835L87.1521 156.88C86.5221 156.94 86.0521 157.16 85.7421 157.54C85.4421 157.92 85.2921 158.38 85.2921 158.92V162.355C85.2921 162.595 85.2221 162.775 85.0821 162.895C84.9421 163.015 84.7621 163.075 84.5421 163.075C84.3221 163.075 84.1371 163.015 83.9871 162.895C83.8471 162.775 83.7771 162.595 83.7771 162.355V156.25C83.7771 156.02 83.8471 155.845 83.9871 155.725C84.1371 155.595 84.3221 155.53 84.5421 155.53C84.7421 155.53 84.9071 155.595 85.0371 155.725C85.1771 155.845 85.2471 156.015 85.2471 156.235V156.955C85.4471 156.515 85.7371 156.18 86.1171 155.95C86.4971 155.72 86.9271 155.585 87.4071 155.545L87.6171 155.53ZM95.3037 161.155C95.4437 161.155 95.5587 161.21 95.6487 161.32C95.7387 161.43 95.7837 161.57 95.7837 161.74C95.7837 162.03 95.6037 162.275 95.2437 162.475C94.8937 162.675 94.5087 162.83 94.0887 162.94C93.6787 163.05 93.2837 163.105 92.9037 163.105C91.7437 163.105 90.8287 162.77 90.1587 162.1C89.4887 161.42 89.1537 160.495 89.1537 159.325C89.1537 158.575 89.2987 157.91 89.5887 157.33C89.8887 156.75 90.3037 156.3 90.8337 155.98C91.3737 155.66 91.9837 155.5 92.6637 155.5C93.6437 155.5 94.4187 155.815 94.9887 156.445C95.5587 157.075 95.8437 157.925 95.8437 158.995C95.8437 159.395 95.6637 159.595 95.3037 159.595H90.6687C90.7687 161.145 91.5137 161.92 92.9037 161.92C93.2737 161.92 93.5937 161.87 93.8637 161.77C94.1337 161.67 94.4187 161.54 94.7187 161.38C94.7487 161.36 94.8287 161.32 94.9587 161.26C95.0987 161.19 95.2137 161.155 95.3037 161.155ZM92.6937 156.61C92.1137 156.61 91.6487 156.795 91.2987 157.165C90.9487 157.535 90.7387 158.055 90.6687 158.725H94.5387C94.5087 158.045 94.3337 157.525 94.0137 157.165C93.7037 156.795 93.2637 156.61 92.6937 156.61ZM105.818 153.58C105.318 153.62 104.948 153.78 104.708 154.06C104.468 154.33 104.348 154.73 104.348 155.26V155.68H105.833C106.043 155.68 106.203 155.735 106.313 155.845C106.433 155.945 106.493 156.085 106.493 156.265C106.493 156.445 106.433 156.59 106.313 156.7C106.203 156.8 106.043 156.85 105.833 156.85H104.348V162.34C104.348 162.58 104.273 162.765 104.123 162.895C103.983 163.015 103.803 163.075 103.583 163.075C103.363 163.075 103.183 163.015 103.043 162.895C102.903 162.765 102.833 162.58 102.833 162.34V156.85H101.933C101.723 156.85 101.558 156.8 101.438 156.7C101.328 156.59 101.273 156.445 101.273 156.265C101.273 156.085 101.328 155.945 101.438 155.845C101.558 155.735 101.723 155.68 101.933 155.68H102.833V155.485C102.833 154.565 103.068 153.845 103.538 153.325C104.008 152.795 104.673 152.5 105.533 152.44L105.923 152.41C106.243 152.39 106.473 152.425 106.613 152.515C106.763 152.605 106.838 152.75 106.838 152.95C106.838 153.3 106.628 153.5 106.208 153.55L105.818 153.58ZM113.615 155.53C113.845 155.53 114.025 155.595 114.155 155.725C114.295 155.855 114.365 156.035 114.365 156.265V162.37C114.365 162.58 114.295 162.75 114.155 162.88C114.015 163.01 113.83 163.075 113.6 163.075C113.39 163.075 113.22 163.015 113.09 162.895C112.96 162.765 112.895 162.595 112.895 162.385V161.815C112.665 162.235 112.345 162.555 111.935 162.775C111.535 162.995 111.085 163.105 110.585 163.105C108.805 163.105 107.915 162.125 107.915 160.165V156.265C107.915 156.035 107.98 155.855 108.11 155.725C108.25 155.595 108.44 155.53 108.68 155.53C108.91 155.53 109.09 155.595 109.22 155.725C109.36 155.855 109.43 156.035 109.43 156.265V160.15C109.43 160.74 109.55 161.175 109.79 161.455C110.03 161.735 110.4 161.875 110.9 161.875C111.49 161.875 111.96 161.685 112.31 161.305C112.67 160.925 112.85 160.42 112.85 159.79V156.265C112.85 156.045 112.92 155.87 113.06 155.74C113.2 155.6 113.385 155.53 113.615 155.53ZM117.7 163.075C117.48 163.075 117.295 163.015 117.145 162.895C117.005 162.775 116.935 162.595 116.935 162.355V153.085C116.935 152.845 117.005 152.665 117.145 152.545C117.295 152.415 117.48 152.35 117.7 152.35C117.92 152.35 118.1 152.415 118.24 152.545C118.38 152.665 118.45 152.845 118.45 153.085V162.355C118.45 162.595 118.38 162.775 118.24 162.895C118.1 163.015 117.92 163.075 117.7 163.075ZM121.783 163.075C121.563 163.075 121.378 163.015 121.228 162.895C121.088 162.775 121.018 162.595 121.018 162.355V153.085C121.018 152.845 121.088 152.665 121.228 152.545C121.378 152.415 121.563 152.35 121.783 152.35C122.003 152.35 122.183 152.415 122.323 152.545C122.463 152.665 122.533 152.845 122.533 153.085V162.355C122.533 162.595 122.463 162.775 122.323 162.895C122.183 163.015 122.003 163.075 121.783 163.075ZM130.306 155.98C130.366 155.83 130.451 155.72 130.561 155.65C130.681 155.58 130.806 155.545 130.936 155.545C131.126 155.545 131.291 155.61 131.431 155.74C131.581 155.87 131.656 156.025 131.656 156.205C131.656 156.305 131.636 156.4 131.596 156.49L127.426 165.34C127.366 165.48 127.276 165.585 127.156 165.655C127.046 165.735 126.926 165.775 126.796 165.775C126.616 165.775 126.451 165.715 126.301 165.595C126.161 165.475 126.091 165.325 126.091 165.145C126.091 165.065 126.116 164.965 126.166 164.845L127.201 162.64L124.306 156.49C124.266 156.41 124.246 156.32 124.246 156.22C124.246 156.03 124.326 155.87 124.486 155.74C124.646 155.61 124.826 155.545 125.026 155.545C125.326 155.545 125.541 155.685 125.671 155.965L127.996 161.125L130.306 155.98ZM140.884 163.105C140.174 163.105 139.549 162.95 139.009 162.64C138.479 162.33 138.064 161.89 137.764 161.32C137.474 160.75 137.329 160.09 137.329 159.34C137.329 158.58 137.479 157.91 137.779 157.33C138.089 156.75 138.519 156.3 139.069 155.98C139.619 155.66 140.249 155.5 140.959 155.5C141.339 155.5 141.719 155.555 142.099 155.665C142.489 155.775 142.834 155.925 143.134 156.115C143.454 156.335 143.614 156.59 143.614 156.88C143.614 157.05 143.569 157.195 143.479 157.315C143.389 157.425 143.274 157.48 143.134 157.48C143.044 157.48 142.954 157.46 142.864 157.42C142.774 157.37 142.659 157.3 142.519 157.21C142.269 157.05 142.034 156.93 141.814 156.85C141.604 156.76 141.349 156.715 141.049 156.715C140.369 156.715 139.839 156.945 139.459 157.405C139.089 157.865 138.904 158.505 138.904 159.325C138.904 160.145 139.089 160.78 139.459 161.23C139.829 161.67 140.354 161.89 141.034 161.89C141.334 161.89 141.599 161.845 141.829 161.755C142.059 161.665 142.294 161.545 142.534 161.395C142.644 161.325 142.754 161.265 142.864 161.215C142.974 161.165 143.074 161.14 143.164 161.14C143.304 161.14 143.419 161.2 143.509 161.32C143.599 161.43 143.644 161.57 143.644 161.74C143.644 161.88 143.604 162.01 143.524 162.13C143.454 162.24 143.329 162.355 143.149 162.475C142.849 162.675 142.499 162.83 142.099 162.94C141.699 163.05 141.294 163.105 140.884 163.105ZM151.18 161.155C151.32 161.155 151.435 161.21 151.525 161.32C151.615 161.43 151.66 161.57 151.66 161.74C151.66 162.03 151.48 162.275 151.12 162.475C150.77 162.675 150.385 162.83 149.965 162.94C149.555 163.05 149.16 163.105 148.78 163.105C147.62 163.105 146.705 162.77 146.035 162.1C145.365 161.42 145.03 160.495 145.03 159.325C145.03 158.575 145.175 157.91 145.465 157.33C145.765 156.75 146.18 156.3 146.71 155.98C147.25 155.66 147.86 155.5 148.54 155.5C149.52 155.5 150.295 155.815 150.865 156.445C151.435 157.075 151.72 157.925 151.72 158.995C151.72 159.395 151.54 159.595 151.18 159.595H146.545C146.645 161.145 147.39 161.92 148.78 161.92C149.15 161.92 149.47 161.87 149.74 161.77C150.01 161.67 150.295 161.54 150.595 161.38C150.625 161.36 150.705 161.32 150.835 161.26C150.975 161.19 151.09 161.155 151.18 161.155ZM148.57 156.61C147.99 156.61 147.525 156.795 147.175 157.165C146.825 157.535 146.615 158.055 146.545 158.725H150.415C150.385 158.045 150.21 157.525 149.89 157.165C149.58 156.795 149.14 156.61 148.57 156.61ZM157.679 155.53C158.159 155.5 158.399 155.705 158.399 156.145C158.399 156.365 158.344 156.53 158.234 156.64C158.124 156.75 157.934 156.815 157.664 156.835L157.214 156.88C156.584 156.94 156.114 157.16 155.804 157.54C155.504 157.92 155.354 158.38 155.354 158.92V162.355C155.354 162.595 155.284 162.775 155.144 162.895C155.004 163.015 154.824 163.075 154.604 163.075C154.384 163.075 154.199 163.015 154.049 162.895C153.909 162.775 153.839 162.595 153.839 162.355V156.25C153.839 156.02 153.909 155.845 154.049 155.725C154.199 155.595 154.384 155.53 154.604 155.53C154.804 155.53 154.969 155.595 155.099 155.725C155.239 155.845 155.309 156.015 155.309 156.235V156.955C155.509 156.515 155.799 156.18 156.179 155.95C156.559 155.72 156.989 155.585 157.469 155.545L157.679 155.53ZM163.997 161.92C164.217 161.94 164.372 162 164.462 162.1C164.562 162.19 164.612 162.32 164.612 162.49C164.612 162.69 164.532 162.845 164.372 162.955C164.222 163.055 163.997 163.095 163.697 163.075L163.292 163.045C162.482 162.985 161.877 162.74 161.477 162.31C161.077 161.87 160.877 161.225 160.877 160.375V156.85H159.977C159.537 156.85 159.317 156.655 159.317 156.265C159.317 156.085 159.372 155.945 159.482 155.845C159.602 155.735 159.767 155.68 159.977 155.68H160.877V154.135C160.877 153.905 160.942 153.725 161.072 153.595C161.212 153.465 161.397 153.4 161.627 153.4C161.857 153.4 162.042 153.465 162.182 153.595C162.322 153.725 162.392 153.905 162.392 154.135V155.68H163.877C164.087 155.68 164.247 155.735 164.357 155.845C164.477 155.945 164.537 156.085 164.537 156.265C164.537 156.455 164.477 156.6 164.357 156.7C164.247 156.8 164.087 156.85 163.877 156.85H162.392V160.48C162.392 160.95 162.487 161.295 162.677 161.515C162.877 161.735 163.177 161.86 163.577 161.89L163.997 161.92ZM166.915 163.075C166.695 163.075 166.51 163.015 166.36 162.895C166.22 162.775 166.15 162.595 166.15 162.355V156.265C166.15 156.025 166.22 155.845 166.36 155.725C166.51 155.595 166.695 155.53 166.915 155.53C167.135 155.53 167.315 155.595 167.455 155.725C167.595 155.845 167.665 156.025 167.665 156.265V162.355C167.665 162.595 167.595 162.775 167.455 162.895C167.315 163.015 167.135 163.075 166.915 163.075ZM166.915 154.06C166.625 154.06 166.395 153.98 166.225 153.82C166.055 153.66 165.97 153.45 165.97 153.19C165.97 152.93 166.055 152.725 166.225 152.575C166.395 152.415 166.625 152.335 166.915 152.335C167.195 152.335 167.42 152.415 167.59 152.575C167.77 152.725 167.86 152.93 167.86 153.19C167.86 153.45 167.775 153.66 167.605 153.82C167.435 153.98 167.205 154.06 166.915 154.06ZM176.113 154.06C175.823 154.06 175.593 153.98 175.423 153.82C175.253 153.66 175.168 153.45 175.168 153.19C175.168 152.93 175.253 152.725 175.423 152.575C175.593 152.415 175.823 152.335 176.113 152.335C176.393 152.335 176.618 152.415 176.788 152.575C176.968 152.725 177.058 152.93 177.058 153.19C177.058 153.45 176.973 153.66 176.803 153.82C176.633 153.98 176.403 154.06 176.113 154.06ZM176.203 155.68C176.413 155.68 176.573 155.735 176.683 155.845C176.803 155.945 176.863 156.085 176.863 156.265V162.355C176.863 162.595 176.793 162.775 176.653 162.895C176.513 163.015 176.333 163.075 176.113 163.075C175.893 163.075 175.708 163.015 175.558 162.895C175.418 162.775 175.348 162.595 175.348 162.355V156.85H172.213V162.34C172.213 162.58 172.138 162.765 171.988 162.895C171.848 163.015 171.668 163.075 171.448 163.075C171.228 163.075 171.048 163.015 170.908 162.895C170.768 162.765 170.698 162.58 170.698 162.34V156.85H169.798C169.588 156.85 169.423 156.8 169.303 156.7C169.193 156.59 169.138 156.445 169.138 156.265C169.138 156.085 169.193 155.945 169.303 155.845C169.423 155.735 169.588 155.68 169.798 155.68H170.698V155.515C170.698 154.595 170.933 153.875 171.403 153.355C171.873 152.825 172.538 152.52 173.398 152.44L173.758 152.41L173.953 152.395C174.393 152.395 174.613 152.58 174.613 152.95C174.613 153.3 174.418 153.5 174.028 153.55L173.683 153.58C173.183 153.62 172.813 153.78 172.573 154.06C172.333 154.33 172.213 154.73 172.213 155.26V155.68H176.203ZM185.158 161.155C185.298 161.155 185.413 161.21 185.503 161.32C185.593 161.43 185.638 161.57 185.638 161.74C185.638 162.03 185.458 162.275 185.098 162.475C184.748 162.675 184.363 162.83 183.943 162.94C183.533 163.05 183.138 163.105 182.758 163.105C181.598 163.105 180.683 162.77 180.013 162.1C179.343 161.42 179.008 160.495 179.008 159.325C179.008 158.575 179.153 157.91 179.443 157.33C179.743 156.75 180.158 156.3 180.688 155.98C181.228 155.66 181.838 155.5 182.518 155.5C183.498 155.5 184.273 155.815 184.843 156.445C185.413 157.075 185.698 157.925 185.698 158.995C185.698 159.395 185.518 159.595 185.158 159.595H180.523C180.623 161.145 181.368 161.92 182.758 161.92C183.128 161.92 183.448 161.87 183.718 161.77C183.988 161.67 184.273 161.54 184.573 161.38C184.603 161.36 184.683 161.32 184.813 161.26C184.953 161.19 185.068 161.155 185.158 161.155ZM182.548 156.61C181.968 156.61 181.503 156.795 181.153 157.165C180.803 157.535 180.593 158.055 180.523 158.725H184.393C184.363 158.045 184.188 157.525 183.868 157.165C183.558 156.795 183.118 156.61 182.548 156.61ZM193.803 152.35C194.033 152.35 194.218 152.415 194.358 152.545C194.498 152.675 194.568 152.85 194.568 153.07V162.34C194.568 162.57 194.498 162.75 194.358 162.88C194.228 163.01 194.048 163.075 193.818 163.075C193.588 163.075 193.403 163.01 193.263 162.88C193.133 162.75 193.068 162.57 193.068 162.34V161.74C192.848 162.18 192.528 162.52 192.108 162.76C191.688 162.99 191.203 163.105 190.653 163.105C190.023 163.105 189.458 162.945 188.958 162.625C188.468 162.305 188.083 161.855 187.803 161.275C187.533 160.695 187.398 160.03 187.398 159.28C187.398 158.52 187.533 157.855 187.803 157.285C188.083 156.715 188.468 156.275 188.958 155.965C189.448 155.655 190.013 155.5 190.653 155.5C191.203 155.5 191.683 155.62 192.093 155.86C192.513 156.09 192.833 156.42 193.053 156.85V153.04C193.053 152.83 193.118 152.665 193.248 152.545C193.388 152.415 193.573 152.35 193.803 152.35ZM191.013 161.905C191.663 161.905 192.168 161.68 192.528 161.23C192.888 160.78 193.068 160.14 193.068 159.31C193.068 158.48 192.888 157.84 192.528 157.39C192.178 156.94 191.673 156.715 191.013 156.715C190.353 156.715 189.838 156.94 189.468 157.39C189.108 157.83 188.928 158.46 188.928 159.28C188.928 160.1 189.113 160.745 189.483 161.215C189.853 161.675 190.363 161.905 191.013 161.905ZM204.715 163.105C203.995 163.105 203.36 162.95 202.81 162.64C202.27 162.33 201.85 161.89 201.55 161.32C201.26 160.74 201.115 160.07 201.115 159.31C201.115 158.54 201.26 157.87 201.55 157.3C201.85 156.72 202.27 156.275 202.81 155.965C203.36 155.655 203.995 155.5 204.715 155.5C205.435 155.5 206.065 155.655 206.605 155.965C207.155 156.275 207.575 156.72 207.865 157.3C208.165 157.87 208.315 158.54 208.315 159.31C208.315 160.07 208.165 160.74 207.865 161.32C207.575 161.89 207.155 162.33 206.605 162.64C206.065 162.95 205.435 163.105 204.715 163.105ZM204.715 161.905C205.385 161.905 205.895 161.685 206.245 161.245C206.605 160.805 206.785 160.16 206.785 159.31C206.785 158.47 206.605 157.83 206.245 157.39C205.885 156.94 205.375 156.715 204.715 156.715C204.055 156.715 203.545 156.94 203.185 157.39C202.825 157.83 202.645 158.47 202.645 159.31C202.645 160.16 202.82 160.805 203.17 161.245C203.53 161.685 204.045 161.905 204.715 161.905ZM214.292 155.53C214.772 155.5 215.012 155.705 215.012 156.145C215.012 156.365 214.957 156.53 214.847 156.64C214.737 156.75 214.547 156.815 214.277 156.835L213.827 156.88C213.197 156.94 212.727 157.16 212.417 157.54C212.117 157.92 211.967 158.38 211.967 158.92V162.355C211.967 162.595 211.897 162.775 211.757 162.895C211.617 163.015 211.437 163.075 211.217 163.075C210.997 163.075 210.812 163.015 210.662 162.895C210.522 162.775 210.452 162.595 210.452 162.355V156.25C210.452 156.02 210.522 155.845 210.662 155.725C210.812 155.595 210.997 155.53 211.217 155.53C211.417 155.53 211.582 155.595 211.712 155.725C211.852 155.845 211.922 156.015 211.922 156.235V156.955C212.122 156.515 212.412 156.18 212.792 155.95C213.172 155.72 213.602 155.585 214.082 155.545L214.292 155.53ZM222.309 155.53C222.539 155.53 222.719 155.6 222.849 155.74C222.989 155.87 223.059 156.045 223.059 156.265V162.415C223.059 163.535 222.759 164.38 222.159 164.95C221.569 165.52 220.694 165.805 219.534 165.805C218.454 165.805 217.554 165.6 216.834 165.19C216.464 164.98 216.279 164.73 216.279 164.44C216.279 164.27 216.324 164.13 216.414 164.02C216.514 163.91 216.634 163.855 216.774 163.855C216.904 163.855 217.109 163.93 217.389 164.08C217.749 164.25 218.084 164.38 218.394 164.47C218.704 164.57 219.074 164.62 219.504 164.62C220.884 164.62 221.574 163.925 221.574 162.535V161.38C221.364 161.82 221.044 162.165 220.614 162.415C220.184 162.655 219.684 162.775 219.114 162.775C218.474 162.775 217.904 162.625 217.404 162.325C216.904 162.025 216.514 161.6 216.234 161.05C215.964 160.5 215.829 159.865 215.829 159.145C215.829 158.425 215.969 157.79 216.249 157.24C216.529 156.69 216.914 156.265 217.404 155.965C217.904 155.655 218.474 155.5 219.114 155.5C219.674 155.5 220.164 155.62 220.584 155.86C221.014 156.1 221.339 156.44 221.559 156.88V156.25C221.559 156.03 221.624 155.855 221.754 155.725C221.894 155.595 222.079 155.53 222.309 155.53ZM219.474 161.575C220.124 161.575 220.634 161.36 221.004 160.93C221.374 160.5 221.559 159.905 221.559 159.145C221.559 158.395 221.374 157.805 221.004 157.375C220.644 156.935 220.134 156.715 219.474 156.715C218.814 156.715 218.294 156.93 217.914 157.36C217.544 157.79 217.359 158.385 217.359 159.145C217.359 159.905 217.549 160.5 217.929 160.93C218.309 161.36 218.824 161.575 219.474 161.575ZM228.695 155.5C229.665 155.5 230.385 155.745 230.855 156.235C231.335 156.725 231.575 157.47 231.575 158.47V162.355C231.575 162.585 231.51 162.765 231.38 162.895C231.25 163.015 231.07 163.075 230.84 163.075C230.62 163.075 230.445 163.01 230.315 162.88C230.185 162.75 230.12 162.575 230.12 162.355V161.8C229.93 162.22 229.645 162.545 229.265 162.775C228.895 162.995 228.46 163.105 227.96 163.105C227.48 163.105 227.04 163.01 226.64 162.82C226.25 162.62 225.94 162.35 225.71 162.01C225.48 161.67 225.365 161.285 225.365 160.855C225.355 160.315 225.49 159.895 225.77 159.595C226.05 159.285 226.505 159.065 227.135 158.935C227.765 158.795 228.64 158.725 229.76 158.725H230.105V158.29C230.105 157.73 229.99 157.325 229.76 157.075C229.53 156.825 229.16 156.7 228.65 156.7C228.3 156.7 227.97 156.745 227.66 156.835C227.35 156.925 227.01 157.055 226.64 157.225C226.37 157.375 226.18 157.45 226.07 157.45C225.92 157.45 225.795 157.395 225.695 157.285C225.605 157.175 225.56 157.035 225.56 156.865C225.56 156.715 225.6 156.585 225.68 156.475C225.77 156.355 225.91 156.24 226.1 156.13C226.45 155.94 226.86 155.79 227.33 155.68C227.8 155.56 228.255 155.5 228.695 155.5ZM228.23 161.98C228.78 161.98 229.23 161.795 229.58 161.425C229.93 161.045 230.105 160.56 230.105 159.97V159.58H229.835C229.055 159.58 228.455 159.615 228.035 159.685C227.615 159.755 227.315 159.875 227.135 160.045C226.955 160.205 226.865 160.44 226.865 160.75C226.865 161.11 226.995 161.405 227.255 161.635C227.515 161.865 227.84 161.98 228.23 161.98ZM238.042 155.5C239.792 155.5 240.667 156.485 240.667 158.455V162.355C240.667 162.585 240.597 162.765 240.457 162.895C240.327 163.015 240.142 163.075 239.902 163.075C239.672 163.075 239.487 163.01 239.347 162.88C239.217 162.75 239.152 162.575 239.152 162.355V158.53C239.152 157.91 239.027 157.455 238.777 157.165C238.537 156.875 238.157 156.73 237.637 156.73C237.027 156.73 236.537 156.92 236.167 157.3C235.797 157.68 235.612 158.19 235.612 158.83V162.355C235.612 162.575 235.542 162.75 235.402 162.88C235.272 163.01 235.092 163.075 234.862 163.075C234.632 163.075 234.447 163.01 234.307 162.88C234.167 162.75 234.097 162.575 234.097 162.355V156.25C234.097 156.04 234.167 155.87 234.307 155.74C234.457 155.6 234.642 155.53 234.862 155.53C235.082 155.53 235.257 155.595 235.387 155.725C235.517 155.855 235.582 156.025 235.582 156.235V156.85C235.822 156.41 236.157 156.075 236.587 155.845C237.017 155.615 237.502 155.5 238.042 155.5ZM243.955 163.075C243.735 163.075 243.55 163.015 243.4 162.895C243.26 162.775 243.19 162.595 243.19 162.355V156.265C243.19 156.025 243.26 155.845 243.4 155.725C243.55 155.595 243.735 155.53 243.955 155.53C244.175 155.53 244.355 155.595 244.495 155.725C244.635 155.845 244.705 156.025 244.705 156.265V162.355C244.705 162.595 244.635 162.775 244.495 162.895C244.355 163.015 244.175 163.075 243.955 163.075ZM243.955 154.06C243.665 154.06 243.435 153.98 243.265 153.82C243.095 153.66 243.01 153.45 243.01 153.19C243.01 152.93 243.095 152.725 243.265 152.575C243.435 152.415 243.665 152.335 243.955 152.335C244.235 152.335 244.46 152.415 244.63 152.575C244.81 152.725 244.9 152.93 244.9 153.19C244.9 153.45 244.815 153.66 244.645 153.82C244.475 153.98 244.245 154.06 243.955 154.06ZM250.407 163.105C249.697 163.105 249.072 162.95 248.532 162.64C248.002 162.33 247.587 161.89 247.287 161.32C246.997 160.75 246.852 160.09 246.852 159.34C246.852 158.58 247.002 157.91 247.302 157.33C247.612 156.75 248.042 156.3 248.592 155.98C249.142 155.66 249.772 155.5 250.482 155.5C250.862 155.5 251.242 155.555 251.622 155.665C252.012 155.775 252.357 155.925 252.657 156.115C252.977 156.335 253.137 156.59 253.137 156.88C253.137 157.05 253.092 157.195 253.002 157.315C252.912 157.425 252.797 157.48 252.657 157.48C252.567 157.48 252.477 157.46 252.387 157.42C252.297 157.37 252.182 157.3 252.042 157.21C251.792 157.05 251.557 156.93 251.337 156.85C251.127 156.76 250.872 156.715 250.572 156.715C249.892 156.715 249.362 156.945 248.982 157.405C248.612 157.865 248.427 158.505 248.427 159.325C248.427 160.145 248.612 160.78 248.982 161.23C249.352 161.67 249.877 161.89 250.557 161.89C250.857 161.89 251.122 161.845 251.352 161.755C251.582 161.665 251.817 161.545 252.057 161.395C252.167 161.325 252.277 161.265 252.387 161.215C252.497 161.165 252.597 161.14 252.687 161.14C252.827 161.14 252.942 161.2 253.032 161.32C253.122 161.43 253.167 161.57 253.167 161.74C253.167 161.88 253.127 162.01 253.047 162.13C252.977 162.24 252.852 162.355 252.672 162.475C252.372 162.675 252.022 162.83 251.622 162.94C251.222 163.05 250.817 163.105 250.407 163.105ZM255.825 161.14C256.125 161.14 256.36 161.25 256.53 161.47C256.71 161.69 256.8 162.015 256.8 162.445C256.8 163.295 256.515 164.03 255.945 164.65C255.825 164.77 255.695 164.83 255.555 164.83C255.425 164.83 255.315 164.785 255.225 164.695C255.135 164.615 255.09 164.515 255.09 164.395C255.09 164.295 255.135 164.19 255.225 164.08C255.505 163.79 255.685 163.445 255.765 163.045C255.515 163.025 255.305 162.93 255.135 162.76C254.975 162.59 254.895 162.375 254.895 162.115C254.895 161.835 254.985 161.605 255.165 161.425C255.345 161.235 255.565 161.14 255.825 161.14ZM269.609 155.53C269.839 155.53 270.019 155.6 270.149 155.74C270.289 155.87 270.359 156.045 270.359 156.265V162.415C270.359 163.535 270.059 164.38 269.459 164.95C268.869 165.52 267.994 165.805 266.834 165.805C265.754 165.805 264.854 165.6 264.134 165.19C263.764 164.98 263.579 164.73 263.579 164.44C263.579 164.27 263.624 164.13 263.714 164.02C263.814 163.91 263.934 163.855 264.074 163.855C264.204 163.855 264.409 163.93 264.689 164.08C265.049 164.25 265.384 164.38 265.694 164.47C266.004 164.57 266.374 164.62 266.804 164.62C268.184 164.62 268.874 163.925 268.874 162.535V161.38C268.664 161.82 268.344 162.165 267.914 162.415C267.484 162.655 266.984 162.775 266.414 162.775C265.774 162.775 265.204 162.625 264.704 162.325C264.204 162.025 263.814 161.6 263.534 161.05C263.264 160.5 263.129 159.865 263.129 159.145C263.129 158.425 263.269 157.79 263.549 157.24C263.829 156.69 264.214 156.265 264.704 155.965C265.204 155.655 265.774 155.5 266.414 155.5C266.974 155.5 267.464 155.62 267.884 155.86C268.314 156.1 268.639 156.44 268.859 156.88V156.25C268.859 156.03 268.924 155.855 269.054 155.725C269.194 155.595 269.379 155.53 269.609 155.53ZM266.774 161.575C267.424 161.575 267.934 161.36 268.304 160.93C268.674 160.5 268.859 159.905 268.859 159.145C268.859 158.395 268.674 157.805 268.304 157.375C267.944 156.935 267.434 156.715 266.774 156.715C266.114 156.715 265.594 156.93 265.214 157.36C264.844 157.79 264.659 158.385 264.659 159.145C264.659 159.905 264.849 160.5 265.229 160.93C265.609 161.36 266.124 161.575 266.774 161.575ZM276.76 155.53C277.24 155.5 277.48 155.705 277.48 156.145C277.48 156.365 277.425 156.53 277.315 156.64C277.205 156.75 277.015 156.815 276.745 156.835L276.295 156.88C275.665 156.94 275.195 157.16 274.885 157.54C274.585 157.92 274.435 158.38 274.435 158.92V162.355C274.435 162.595 274.365 162.775 274.225 162.895C274.085 163.015 273.905 163.075 273.685 163.075C273.465 163.075 273.28 163.015 273.13 162.895C272.99 162.775 272.92 162.595 272.92 162.355V156.25C272.92 156.02 272.99 155.845 273.13 155.725C273.28 155.595 273.465 155.53 273.685 155.53C273.885 155.53 274.05 155.595 274.18 155.725C274.32 155.845 274.39 156.015 274.39 156.235V156.955C274.59 156.515 274.88 156.18 275.26 155.95C275.64 155.72 276.07 155.585 276.55 155.545L276.76 155.53ZM281.897 163.105C281.177 163.105 280.542 162.95 279.992 162.64C279.452 162.33 279.032 161.89 278.732 161.32C278.442 160.74 278.297 160.07 278.297 159.31C278.297 158.54 278.442 157.87 278.732 157.3C279.032 156.72 279.452 156.275 279.992 155.965C280.542 155.655 281.177 155.5 281.897 155.5C282.617 155.5 283.247 155.655 283.787 155.965C284.337 156.275 284.757 156.72 285.047 157.3C285.347 157.87 285.497 158.54 285.497 159.31C285.497 160.07 285.347 160.74 285.047 161.32C284.757 161.89 284.337 162.33 283.787 162.64C283.247 162.95 282.617 163.105 281.897 163.105ZM281.897 161.905C282.567 161.905 283.077 161.685 283.427 161.245C283.787 160.805 283.967 160.16 283.967 159.31C283.967 158.47 283.787 157.83 283.427 157.39C283.067 156.94 282.557 156.715 281.897 156.715C281.237 156.715 280.727 156.94 280.367 157.39C280.007 157.83 279.827 158.47 279.827 159.31C279.827 160.16 280.002 160.805 280.352 161.245C280.712 161.685 281.227 161.905 281.897 161.905ZM297.491 155.995C297.601 155.695 297.806 155.545 298.106 155.545C298.296 155.545 298.466 155.61 298.616 155.74C298.766 155.87 298.841 156.03 298.841 156.22C298.841 156.32 298.821 156.41 298.781 156.49L296.291 162.565C296.231 162.725 296.131 162.85 295.991 162.94C295.851 163.02 295.696 163.06 295.526 163.06C295.366 163.06 295.216 163.02 295.076 162.94C294.936 162.85 294.836 162.725 294.776 162.565L292.826 157.75L290.921 162.565C290.861 162.725 290.761 162.85 290.621 162.94C290.491 163.02 290.341 163.06 290.171 163.06C290.011 163.06 289.856 163.02 289.706 162.94C289.566 162.85 289.461 162.725 289.391 162.565L286.916 156.49C286.876 156.41 286.856 156.325 286.856 156.235C286.856 156.035 286.936 155.87 287.096 155.74C287.266 155.61 287.451 155.545 287.651 155.545C287.951 155.545 288.156 155.69 288.266 155.98L290.201 161.095L292.181 156.025C292.241 155.865 292.336 155.745 292.466 155.665C292.596 155.585 292.736 155.545 292.886 155.545C293.026 155.545 293.161 155.585 293.291 155.665C293.421 155.745 293.516 155.865 293.576 156.025L295.556 161.065L297.491 155.995ZM304.641 155.5C306.391 155.5 307.266 156.485 307.266 158.455V162.355C307.266 162.585 307.196 162.765 307.056 162.895C306.926 163.015 306.741 163.075 306.501 163.075C306.271 163.075 306.086 163.01 305.946 162.88C305.816 162.75 305.751 162.575 305.751 162.355V158.53C305.751 157.91 305.626 157.455 305.376 157.165C305.136 156.875 304.756 156.73 304.236 156.73C303.626 156.73 303.136 156.92 302.766 157.3C302.396 157.68 302.211 158.19 302.211 158.83V162.355C302.211 162.575 302.141 162.75 302.001 162.88C301.871 163.01 301.691 163.075 301.461 163.075C301.231 163.075 301.046 163.01 300.906 162.88C300.766 162.75 300.696 162.575 300.696 162.355V156.25C300.696 156.04 300.766 155.87 300.906 155.74C301.056 155.6 301.241 155.53 301.461 155.53C301.681 155.53 301.856 155.595 301.986 155.725C302.116 155.855 302.181 156.025 302.181 156.235V156.85C302.421 156.41 302.756 156.075 303.186 155.845C303.616 155.615 304.101 155.5 304.641 155.5ZM28.333 175.5C29.303 175.5 30.023 175.745 30.493 176.235C30.973 176.725 31.213 177.47 31.213 178.47V182.355C31.213 182.585 31.148 182.765 31.018 182.895C30.888 183.015 30.708 183.075 30.478 183.075C30.258 183.075 30.083 183.01 29.953 182.88C29.823 182.75 29.758 182.575 29.758 182.355V181.8C29.568 182.22 29.283 182.545 28.903 182.775C28.533 182.995 28.098 183.105 27.598 183.105C27.118 183.105 26.678 183.01 26.278 182.82C25.888 182.62 25.578 182.35 25.348 182.01C25.118 181.67 25.003 181.285 25.003 180.855C24.993 180.315 25.128 179.895 25.408 179.595C25.688 179.285 26.143 179.065 26.773 178.935C27.403 178.795 28.278 178.725 29.398 178.725H29.743V178.29C29.743 177.73 29.628 177.325 29.398 177.075C29.168 176.825 28.798 176.7 28.288 176.7C27.938 176.7 27.608 176.745 27.298 176.835C26.988 176.925 26.648 177.055 26.278 177.225C26.008 177.375 25.818 177.45 25.708 177.45C25.558 177.45 25.433 177.395 25.333 177.285C25.243 177.175 25.198 177.035 25.198 176.865C25.198 176.715 25.238 176.585 25.318 176.475C25.408 176.355 25.548 176.24 25.738 176.13C26.088 175.94 26.498 175.79 26.968 175.68C27.438 175.56 27.893 175.5 28.333 175.5ZM27.868 181.98C28.418 181.98 28.868 181.795 29.218 181.425C29.568 181.045 29.743 180.56 29.743 179.97V179.58H29.473C28.693 179.58 28.093 179.615 27.673 179.685C27.253 179.755 26.953 179.875 26.773 180.045C26.593 180.205 26.503 180.44 26.503 180.75C26.503 181.11 26.633 181.405 26.893 181.635C27.153 181.865 27.478 181.98 27.868 181.98ZM36.8704 183.105C36.1604 183.105 35.5354 182.95 34.9954 182.64C34.4654 182.33 34.0504 181.89 33.7504 181.32C33.4604 180.75 33.3154 180.09 33.3154 179.34C33.3154 178.58 33.4654 177.91 33.7654 177.33C34.0754 176.75 34.5054 176.3 35.0554 175.98C35.6054 175.66 36.2354 175.5 36.9454 175.5C37.3254 175.5 37.7054 175.555 38.0854 175.665C38.4754 175.775 38.8204 175.925 39.1204 176.115C39.4404 176.335 39.6004 176.59 39.6004 176.88C39.6004 177.05 39.5554 177.195 39.4654 177.315C39.3754 177.425 39.2604 177.48 39.1204 177.48C39.0304 177.48 38.9404 177.46 38.8504 177.42C38.7604 177.37 38.6454 177.3 38.5054 177.21C38.2554 177.05 38.0204 176.93 37.8004 176.85C37.5904 176.76 37.3354 176.715 37.0354 176.715C36.3554 176.715 35.8254 176.945 35.4454 177.405C35.0754 177.865 34.8904 178.505 34.8904 179.325C34.8904 180.145 35.0754 180.78 35.4454 181.23C35.8154 181.67 36.3404 181.89 37.0204 181.89C37.3204 181.89 37.5854 181.845 37.8154 181.755C38.0454 181.665 38.2804 181.545 38.5204 181.395C38.6304 181.325 38.7404 181.265 38.8504 181.215C38.9604 181.165 39.0604 181.14 39.1504 181.14C39.2904 181.14 39.4054 181.2 39.4954 181.32C39.5854 181.43 39.6304 181.57 39.6304 181.74C39.6304 181.88 39.5904 182.01 39.5104 182.13C39.4404 182.24 39.3154 182.355 39.1354 182.475C38.8354 182.675 38.4854 182.83 38.0854 182.94C37.6854 183.05 37.2804 183.105 36.8704 183.105ZM44.5713 183.105C43.8613 183.105 43.2363 182.95 42.6963 182.64C42.1663 182.33 41.7513 181.89 41.4513 181.32C41.1613 180.75 41.0163 180.09 41.0163 179.34C41.0163 178.58 41.1663 177.91 41.4663 177.33C41.7763 176.75 42.2063 176.3 42.7563 175.98C43.3063 175.66 43.9363 175.5 44.6463 175.5C45.0263 175.5 45.4063 175.555 45.7863 175.665C46.1763 175.775 46.5213 175.925 46.8213 176.115C47.1413 176.335 47.3013 176.59 47.3013 176.88C47.3013 177.05 47.2563 177.195 47.1663 177.315C47.0763 177.425 46.9613 177.48 46.8213 177.48C46.7313 177.48 46.6413 177.46 46.5513 177.42C46.4613 177.37 46.3463 177.3 46.2063 177.21C45.9563 177.05 45.7213 176.93 45.5013 176.85C45.2913 176.76 45.0363 176.715 44.7363 176.715C44.0563 176.715 43.5263 176.945 43.1463 177.405C42.7763 177.865 42.5913 178.505 42.5913 179.325C42.5913 180.145 42.7763 180.78 43.1463 181.23C43.5163 181.67 44.0413 181.89 44.7213 181.89C45.0213 181.89 45.2863 181.845 45.5163 181.755C45.7463 181.665 45.9813 181.545 46.2213 181.395C46.3313 181.325 46.4413 181.265 46.5513 181.215C46.6613 181.165 46.7613 181.14 46.8513 181.14C46.9913 181.14 47.1063 181.2 47.1963 181.32C47.2863 181.43 47.3313 181.57 47.3313 181.74C47.3313 181.88 47.2913 182.01 47.2113 182.13C47.1413 182.24 47.0163 182.355 46.8363 182.475C46.5363 182.675 46.1863 182.83 45.7863 182.94C45.3863 183.05 44.9813 183.105 44.5713 183.105ZM52.3173 183.105C51.5973 183.105 50.9623 182.95 50.4123 182.64C49.8723 182.33 49.4523 181.89 49.1523 181.32C48.8623 180.74 48.7173 180.07 48.7173 179.31C48.7173 178.54 48.8623 177.87 49.1523 177.3C49.4523 176.72 49.8723 176.275 50.4123 175.965C50.9623 175.655 51.5973 175.5 52.3173 175.5C53.0373 175.5 53.6673 175.655 54.2073 175.965C54.7573 176.275 55.1773 176.72 55.4673 177.3C55.7673 177.87 55.9173 178.54 55.9173 179.31C55.9173 180.07 55.7673 180.74 55.4673 181.32C55.1773 181.89 54.7573 182.33 54.2073 182.64C53.6673 182.95 53.0373 183.105 52.3173 183.105ZM52.3173 181.905C52.9873 181.905 53.4973 181.685 53.8473 181.245C54.2073 180.805 54.3873 180.16 54.3873 179.31C54.3873 178.47 54.2073 177.83 53.8473 177.39C53.4873 176.94 52.9773 176.715 52.3173 176.715C51.6573 176.715 51.1473 176.94 50.7873 177.39C50.4273 177.83 50.2473 178.47 50.2473 179.31C50.2473 180.16 50.4223 180.805 50.7723 181.245C51.1323 181.685 51.6473 181.905 52.3173 181.905ZM61.8941 175.53C62.3741 175.5 62.6141 175.705 62.6141 176.145C62.6141 176.365 62.5591 176.53 62.4491 176.64C62.3391 176.75 62.1491 176.815 61.8791 176.835L61.4291 176.88C60.7991 176.94 60.3291 177.16 60.0191 177.54C59.7191 177.92 59.5691 178.38 59.5691 178.92V182.355C59.5691 182.595 59.4991 182.775 59.3591 182.895C59.2191 183.015 59.0391 183.075 58.8191 183.075C58.5991 183.075 58.4141 183.015 58.2641 182.895C58.1241 182.775 58.0541 182.595 58.0541 182.355V176.25C58.0541 176.02 58.1241 175.845 58.2641 175.725C58.4141 175.595 58.5991 175.53 58.8191 175.53C59.0191 175.53 59.1841 175.595 59.3141 175.725C59.4541 175.845 59.5241 176.015 59.5241 176.235V176.955C59.7241 176.515 60.0141 176.18 60.3941 175.95C60.7741 175.72 61.2041 175.585 61.6841 175.545L61.8941 175.53ZM69.8358 172.35C70.0658 172.35 70.2508 172.415 70.3908 172.545C70.5308 172.675 70.6008 172.85 70.6008 173.07V182.34C70.6008 182.57 70.5308 182.75 70.3908 182.88C70.2608 183.01 70.0808 183.075 69.8508 183.075C69.6208 183.075 69.4358 183.01 69.2958 182.88C69.1658 182.75 69.1008 182.57 69.1008 182.34V181.74C68.8808 182.18 68.5608 182.52 68.1408 182.76C67.7208 182.99 67.2358 183.105 66.6858 183.105C66.0558 183.105 65.4908 182.945 64.9908 182.625C64.5008 182.305 64.1158 181.855 63.8358 181.275C63.5658 180.695 63.4308 180.03 63.4308 179.28C63.4308 178.52 63.5658 177.855 63.8358 177.285C64.1158 176.715 64.5008 176.275 64.9908 175.965C65.4808 175.655 66.0458 175.5 66.6858 175.5C67.2358 175.5 67.7158 175.62 68.1258 175.86C68.5458 176.09 68.8658 176.42 69.0858 176.85V173.04C69.0858 172.83 69.1508 172.665 69.2808 172.545C69.4208 172.415 69.6058 172.35 69.8358 172.35ZM67.0458 181.905C67.6958 181.905 68.2008 181.68 68.5608 181.23C68.9208 180.78 69.1008 180.14 69.1008 179.31C69.1008 178.48 68.9208 177.84 68.5608 177.39C68.2108 176.94 67.7058 176.715 67.0458 176.715C66.3858 176.715 65.8708 176.94 65.5008 177.39C65.1408 177.83 64.9608 178.46 64.9608 179.28C64.9608 180.1 65.1458 180.745 65.5158 181.215C65.8858 181.675 66.3958 181.905 67.0458 181.905ZM73.9281 183.075C73.7081 183.075 73.5231 183.015 73.3731 182.895C73.2331 182.775 73.1631 182.595 73.1631 182.355V176.265C73.1631 176.025 73.2331 175.845 73.3731 175.725C73.5231 175.595 73.7081 175.53 73.9281 175.53C74.1481 175.53 74.3281 175.595 74.4681 175.725C74.6081 175.845 74.6781 176.025 74.6781 176.265V182.355C74.6781 182.595 74.6081 182.775 74.4681 182.895C74.3281 183.015 74.1481 183.075 73.9281 183.075ZM73.9281 174.06C73.6381 174.06 73.4081 173.98 73.2381 173.82C73.0681 173.66 72.9831 173.45 72.9831 173.19C72.9831 172.93 73.0681 172.725 73.2381 172.575C73.4081 172.415 73.6381 172.335 73.9281 172.335C74.2081 172.335 74.4331 172.415 74.6031 172.575C74.7831 172.725 74.8731 172.93 74.8731 173.19C74.8731 173.45 74.7881 173.66 74.6181 173.82C74.4481 173.98 74.2181 174.06 73.9281 174.06ZM81.1909 175.5C82.9409 175.5 83.8159 176.485 83.8159 178.455V182.355C83.8159 182.585 83.7459 182.765 83.6059 182.895C83.4759 183.015 83.2909 183.075 83.0509 183.075C82.8209 183.075 82.6359 183.01 82.4959 182.88C82.3659 182.75 82.3009 182.575 82.3009 182.355V178.53C82.3009 177.91 82.1759 177.455 81.9259 177.165C81.6859 176.875 81.3059 176.73 80.7859 176.73C80.1759 176.73 79.6859 176.92 79.3159 177.3C78.9459 177.68 78.7609 178.19 78.7609 178.83V182.355C78.7609 182.575 78.6909 182.75 78.5509 182.88C78.4209 183.01 78.2409 183.075 78.0109 183.075C77.7809 183.075 77.5959 183.01 77.4559 182.88C77.3159 182.75 77.2459 182.575 77.2459 182.355V176.25C77.2459 176.04 77.3159 175.87 77.4559 175.74C77.6059 175.6 77.7909 175.53 78.0109 175.53C78.2309 175.53 78.4059 175.595 78.5359 175.725C78.6659 175.855 78.7309 176.025 78.7309 176.235V176.85C78.9709 176.41 79.3059 176.075 79.7359 175.845C80.1659 175.615 80.6509 175.5 81.1909 175.5ZM92.3985 175.53C92.6285 175.53 92.8085 175.6 92.9385 175.74C93.0785 175.87 93.1485 176.045 93.1485 176.265V182.415C93.1485 183.535 92.8485 184.38 92.2485 184.95C91.6585 185.52 90.7835 185.805 89.6235 185.805C88.5435 185.805 87.6435 185.6 86.9235 185.19C86.5535 184.98 86.3685 184.73 86.3685 184.44C86.3685 184.27 86.4135 184.13 86.5035 184.02C86.6035 183.91 86.7235 183.855 86.8635 183.855C86.9935 183.855 87.1985 183.93 87.4785 184.08C87.8385 184.25 88.1735 184.38 88.4835 184.47C88.7935 184.57 89.1635 184.62 89.5935 184.62C90.9735 184.62 91.6635 183.925 91.6635 182.535V181.38C91.4535 181.82 91.1335 182.165 90.7035 182.415C90.2735 182.655 89.7735 182.775 89.2035 182.775C88.5635 182.775 87.9935 182.625 87.4935 182.325C86.9935 182.025 86.6035 181.6 86.3235 181.05C86.0535 180.5 85.9185 179.865 85.9185 179.145C85.9185 178.425 86.0585 177.79 86.3385 177.24C86.6185 176.69 87.0035 176.265 87.4935 175.965C87.9935 175.655 88.5635 175.5 89.2035 175.5C89.7635 175.5 90.2535 175.62 90.6735 175.86C91.1035 176.1 91.4285 176.44 91.6485 176.88V176.25C91.6485 176.03 91.7135 175.855 91.8435 175.725C91.9835 175.595 92.1685 175.53 92.3985 175.53ZM89.5635 181.575C90.2135 181.575 90.7235 181.36 91.0935 180.93C91.4635 180.5 91.6485 179.905 91.6485 179.145C91.6485 178.395 91.4635 177.805 91.0935 177.375C90.7335 176.935 90.2235 176.715 89.5635 176.715C88.9035 176.715 88.3835 176.93 88.0035 177.36C87.6335 177.79 87.4485 178.385 87.4485 179.145C87.4485 179.905 87.6385 180.5 88.0185 180.93C88.3985 181.36 88.9135 181.575 89.5635 181.575ZM103.699 181.92C103.919 181.94 104.074 182 104.164 182.1C104.264 182.19 104.314 182.32 104.314 182.49C104.314 182.69 104.234 182.845 104.074 182.955C103.924 183.055 103.699 183.095 103.399 183.075L102.994 183.045C102.184 182.985 101.579 182.74 101.179 182.31C100.779 181.87 100.579 181.225 100.579 180.375V176.85H99.6795C99.2395 176.85 99.0195 176.655 99.0195 176.265C99.0195 176.085 99.0745 175.945 99.1845 175.845C99.3045 175.735 99.4695 175.68 99.6795 175.68H100.579V174.135C100.579 173.905 100.644 173.725 100.774 173.595C100.914 173.465 101.099 173.4 101.329 173.4C101.559 173.4 101.744 173.465 101.884 173.595C102.024 173.725 102.094 173.905 102.094 174.135V175.68H103.579C103.789 175.68 103.949 175.735 104.059 175.845C104.179 175.945 104.239 176.085 104.239 176.265C104.239 176.455 104.179 176.6 104.059 176.7C103.949 176.8 103.789 176.85 103.579 176.85H102.094V180.48C102.094 180.95 102.189 181.295 102.379 181.515C102.579 181.735 102.879 181.86 103.279 181.89L103.699 181.92ZM109.033 183.105C108.313 183.105 107.678 182.95 107.128 182.64C106.588 182.33 106.168 181.89 105.868 181.32C105.578 180.74 105.433 180.07 105.433 179.31C105.433 178.54 105.578 177.87 105.868 177.3C106.168 176.72 106.588 176.275 107.128 175.965C107.678 175.655 108.313 175.5 109.033 175.5C109.753 175.5 110.383 175.655 110.923 175.965C111.473 176.275 111.893 176.72 112.183 177.3C112.483 177.87 112.633 178.54 112.633 179.31C112.633 180.07 112.483 180.74 112.183 181.32C111.893 181.89 111.473 182.33 110.923 182.64C110.383 182.95 109.753 183.105 109.033 183.105ZM109.033 181.905C109.703 181.905 110.213 181.685 110.563 181.245C110.923 180.805 111.103 180.16 111.103 179.31C111.103 178.47 110.923 177.83 110.563 177.39C110.203 176.94 109.693 176.715 109.033 176.715C108.373 176.715 107.863 176.94 107.503 177.39C107.143 177.83 106.963 178.47 106.963 179.31C106.963 180.16 107.138 180.805 107.488 181.245C107.848 181.685 108.363 181.905 109.033 181.905ZM119.939 183.075C119.719 183.075 119.534 183.015 119.384 182.895C119.244 182.775 119.174 182.595 119.174 182.355V176.265C119.174 176.025 119.244 175.845 119.384 175.725C119.534 175.595 119.719 175.53 119.939 175.53C120.159 175.53 120.339 175.595 120.479 175.725C120.619 175.845 120.689 176.025 120.689 176.265V182.355C120.689 182.595 120.619 182.775 120.479 182.895C120.339 183.015 120.159 183.075 119.939 183.075ZM119.939 174.06C119.649 174.06 119.419 173.98 119.249 173.82C119.079 173.66 118.994 173.45 118.994 173.19C118.994 172.93 119.079 172.725 119.249 172.575C119.419 172.415 119.649 172.335 119.939 172.335C120.219 172.335 120.444 172.415 120.614 172.575C120.794 172.725 120.884 172.93 120.884 173.19C120.884 173.45 120.799 173.66 120.629 173.82C120.459 173.98 120.229 174.06 119.939 174.06ZM127.202 175.5C128.952 175.5 129.827 176.485 129.827 178.455V182.355C129.827 182.585 129.757 182.765 129.617 182.895C129.487 183.015 129.302 183.075 129.062 183.075C128.832 183.075 128.647 183.01 128.507 182.88C128.377 182.75 128.312 182.575 128.312 182.355V178.53C128.312 177.91 128.187 177.455 127.937 177.165C127.697 176.875 127.317 176.73 126.797 176.73C126.187 176.73 125.697 176.92 125.327 177.3C124.957 177.68 124.772 178.19 124.772 178.83V182.355C124.772 182.575 124.702 182.75 124.562 182.88C124.432 183.01 124.252 183.075 124.022 183.075C123.792 183.075 123.607 183.01 123.467 182.88C123.327 182.75 123.257 182.575 123.257 182.355V176.25C123.257 176.04 123.327 175.87 123.467 175.74C123.617 175.6 123.802 175.53 124.022 175.53C124.242 175.53 124.417 175.595 124.547 175.725C124.677 175.855 124.742 176.025 124.742 176.235V176.85C124.982 176.41 125.317 176.075 125.747 175.845C126.177 175.615 126.662 175.5 127.202 175.5ZM135.935 181.92C136.155 181.94 136.31 182 136.4 182.1C136.5 182.19 136.55 182.32 136.55 182.49C136.55 182.69 136.47 182.845 136.31 182.955C136.16 183.055 135.935 183.095 135.635 183.075L135.23 183.045C134.42 182.985 133.815 182.74 133.415 182.31C133.015 181.87 132.815 181.225 132.815 180.375V176.85H131.915C131.475 176.85 131.255 176.655 131.255 176.265C131.255 176.085 131.31 175.945 131.42 175.845C131.54 175.735 131.705 175.68 131.915 175.68H132.815V174.135C132.815 173.905 132.88 173.725 133.01 173.595C133.15 173.465 133.335 173.4 133.565 173.4C133.795 173.4 133.98 173.465 134.12 173.595C134.26 173.725 134.33 173.905 134.33 174.135V175.68H135.815C136.025 175.68 136.185 175.735 136.295 175.845C136.415 175.945 136.475 176.085 136.475 176.265C136.475 176.455 136.415 176.6 136.295 176.7C136.185 176.8 136.025 176.85 135.815 176.85H134.33V180.48C134.33 180.95 134.425 181.295 134.615 181.515C134.815 181.735 135.115 181.86 135.515 181.89L135.935 181.92ZM143.818 181.155C143.958 181.155 144.073 181.21 144.163 181.32C144.253 181.43 144.298 181.57 144.298 181.74C144.298 182.03 144.118 182.275 143.758 182.475C143.408 182.675 143.023 182.83 142.603 182.94C142.193 183.05 141.798 183.105 141.418 183.105C140.258 183.105 139.343 182.77 138.673 182.1C138.003 181.42 137.668 180.495 137.668 179.325C137.668 178.575 137.813 177.91 138.103 177.33C138.403 176.75 138.818 176.3 139.348 175.98C139.888 175.66 140.498 175.5 141.178 175.5C142.158 175.5 142.933 175.815 143.503 176.445C144.073 177.075 144.358 177.925 144.358 178.995C144.358 179.395 144.178 179.595 143.818 179.595H139.183C139.283 181.145 140.028 181.92 141.418 181.92C141.788 181.92 142.108 181.87 142.378 181.77C142.648 181.67 142.933 181.54 143.233 181.38C143.263 181.36 143.343 181.32 143.473 181.26C143.613 181.19 143.728 181.155 143.818 181.155ZM141.208 176.61C140.628 176.61 140.163 176.795 139.813 177.165C139.463 177.535 139.253 178.055 139.183 178.725H143.053C143.023 178.045 142.848 177.525 142.528 177.165C142.218 176.795 141.778 176.61 141.208 176.61ZM150.317 175.53C150.797 175.5 151.037 175.705 151.037 176.145C151.037 176.365 150.982 176.53 150.872 176.64C150.762 176.75 150.572 176.815 150.302 176.835L149.852 176.88C149.222 176.94 148.752 177.16 148.442 177.54C148.142 177.92 147.992 178.38 147.992 178.92V182.355C147.992 182.595 147.922 182.775 147.782 182.895C147.642 183.015 147.462 183.075 147.242 183.075C147.022 183.075 146.837 183.015 146.687 182.895C146.547 182.775 146.477 182.595 146.477 182.355V176.25C146.477 176.02 146.547 175.845 146.687 175.725C146.837 175.595 147.022 175.53 147.242 175.53C147.442 175.53 147.607 175.595 147.737 175.725C147.877 175.845 147.947 176.015 147.947 176.235V176.955C148.147 176.515 148.437 176.18 148.817 175.95C149.197 175.72 149.627 175.585 150.107 175.545L150.317 175.53ZM156.366 175.5C158.116 175.5 158.991 176.485 158.991 178.455V182.355C158.991 182.585 158.921 182.765 158.781 182.895C158.651 183.015 158.466 183.075 158.226 183.075C157.996 183.075 157.811 183.01 157.671 182.88C157.541 182.75 157.476 182.575 157.476 182.355V178.53C157.476 177.91 157.351 177.455 157.101 177.165C156.861 176.875 156.481 176.73 155.961 176.73C155.351 176.73 154.861 176.92 154.491 177.3C154.121 177.68 153.936 178.19 153.936 178.83V182.355C153.936 182.575 153.866 182.75 153.726 182.88C153.596 183.01 153.416 183.075 153.186 183.075C152.956 183.075 152.771 183.01 152.631 182.88C152.491 182.75 152.421 182.575 152.421 182.355V176.25C152.421 176.04 152.491 175.87 152.631 175.74C152.781 175.6 152.966 175.53 153.186 175.53C153.406 175.53 153.581 175.595 153.711 175.725C153.841 175.855 153.906 176.025 153.906 176.235V176.85C154.146 176.41 154.481 176.075 154.911 175.845C155.341 175.615 155.826 175.5 156.366 175.5ZM164.588 175.5C165.558 175.5 166.278 175.745 166.748 176.235C167.228 176.725 167.468 177.47 167.468 178.47V182.355C167.468 182.585 167.403 182.765 167.273 182.895C167.143 183.015 166.963 183.075 166.733 183.075C166.513 183.075 166.338 183.01 166.208 182.88C166.078 182.75 166.013 182.575 166.013 182.355V181.8C165.823 182.22 165.538 182.545 165.158 182.775C164.788 182.995 164.353 183.105 163.853 183.105C163.373 183.105 162.933 183.01 162.533 182.82C162.143 182.62 161.833 182.35 161.603 182.01C161.373 181.67 161.258 181.285 161.258 180.855C161.248 180.315 161.383 179.895 161.663 179.595C161.943 179.285 162.398 179.065 163.028 178.935C163.658 178.795 164.533 178.725 165.653 178.725H165.998V178.29C165.998 177.73 165.883 177.325 165.653 177.075C165.423 176.825 165.053 176.7 164.543 176.7C164.193 176.7 163.863 176.745 163.553 176.835C163.243 176.925 162.903 177.055 162.533 177.225C162.263 177.375 162.073 177.45 161.963 177.45C161.813 177.45 161.688 177.395 161.588 177.285C161.498 177.175 161.453 177.035 161.453 176.865C161.453 176.715 161.493 176.585 161.573 176.475C161.663 176.355 161.803 176.24 161.993 176.13C162.343 175.94 162.753 175.79 163.223 175.68C163.693 175.56 164.148 175.5 164.588 175.5ZM164.123 181.98C164.673 181.98 165.123 181.795 165.473 181.425C165.823 181.045 165.998 180.56 165.998 179.97V179.58H165.728C164.948 179.58 164.348 179.615 163.928 179.685C163.508 179.755 163.208 179.875 163.028 180.045C162.848 180.205 162.758 180.44 162.758 180.75C162.758 181.11 162.888 181.405 163.148 181.635C163.408 181.865 163.733 181.98 164.123 181.98ZM173.575 181.92C173.795 181.94 173.95 182 174.04 182.1C174.14 182.19 174.19 182.32 174.19 182.49C174.19 182.69 174.11 182.845 173.95 182.955C173.8 183.055 173.575 183.095 173.275 183.075L172.87 183.045C172.06 182.985 171.455 182.74 171.055 182.31C170.655 181.87 170.455 181.225 170.455 180.375V176.85H169.555C169.115 176.85 168.895 176.655 168.895 176.265C168.895 176.085 168.95 175.945 169.06 175.845C169.18 175.735 169.345 175.68 169.555 175.68H170.455V174.135C170.455 173.905 170.52 173.725 170.65 173.595C170.79 173.465 170.975 173.4 171.205 173.4C171.435 173.4 171.62 173.465 171.76 173.595C171.9 173.725 171.97 173.905 171.97 174.135V175.68H173.455C173.665 175.68 173.825 175.735 173.935 175.845C174.055 175.945 174.115 176.085 174.115 176.265C174.115 176.455 174.055 176.6 173.935 176.7C173.825 176.8 173.665 176.85 173.455 176.85H171.97V180.48C171.97 180.95 172.065 181.295 172.255 181.515C172.455 181.735 172.755 181.86 173.155 181.89L173.575 181.92ZM176.494 183.075C176.274 183.075 176.089 183.015 175.939 182.895C175.799 182.775 175.729 182.595 175.729 182.355V176.265C175.729 176.025 175.799 175.845 175.939 175.725C176.089 175.595 176.274 175.53 176.494 175.53C176.714 175.53 176.894 175.595 177.034 175.725C177.174 175.845 177.244 176.025 177.244 176.265V182.355C177.244 182.595 177.174 182.775 177.034 182.895C176.894 183.015 176.714 183.075 176.494 183.075ZM176.494 174.06C176.204 174.06 175.974 173.98 175.804 173.82C175.634 173.66 175.549 173.45 175.549 173.19C175.549 172.93 175.634 172.725 175.804 172.575C175.974 172.415 176.204 172.335 176.494 172.335C176.774 172.335 176.999 172.415 177.169 172.575C177.349 172.725 177.439 172.93 177.439 173.19C177.439 173.45 177.354 173.66 177.184 173.82C177.014 173.98 176.784 174.06 176.494 174.06ZM182.991 183.105C182.271 183.105 181.636 182.95 181.086 182.64C180.546 182.33 180.126 181.89 179.826 181.32C179.536 180.74 179.391 180.07 179.391 179.31C179.391 178.54 179.536 177.87 179.826 177.3C180.126 176.72 180.546 176.275 181.086 175.965C181.636 175.655 182.271 175.5 182.991 175.5C183.711 175.5 184.341 175.655 184.881 175.965C185.431 176.275 185.851 176.72 186.141 177.3C186.441 177.87 186.591 178.54 186.591 179.31C186.591 180.07 186.441 180.74 186.141 181.32C185.851 181.89 185.431 182.33 184.881 182.64C184.341 182.95 183.711 183.105 182.991 183.105ZM182.991 181.905C183.661 181.905 184.171 181.685 184.521 181.245C184.881 180.805 185.061 180.16 185.061 179.31C185.061 178.47 184.881 177.83 184.521 177.39C184.161 176.94 183.651 176.715 182.991 176.715C182.331 176.715 181.821 176.94 181.461 177.39C181.101 177.83 180.921 178.47 180.921 179.31C180.921 180.16 181.096 180.805 181.446 181.245C181.806 181.685 182.321 181.905 182.991 181.905ZM192.673 175.5C194.423 175.5 195.298 176.485 195.298 178.455V182.355C195.298 182.585 195.228 182.765 195.088 182.895C194.958 183.015 194.773 183.075 194.533 183.075C194.303 183.075 194.118 183.01 193.978 182.88C193.848 182.75 193.783 182.575 193.783 182.355V178.53C193.783 177.91 193.658 177.455 193.408 177.165C193.168 176.875 192.788 176.73 192.268 176.73C191.658 176.73 191.168 176.92 190.798 177.3C190.428 177.68 190.243 178.19 190.243 178.83V182.355C190.243 182.575 190.173 182.75 190.033 182.88C189.903 183.01 189.723 183.075 189.493 183.075C189.263 183.075 189.078 183.01 188.938 182.88C188.798 182.75 188.728 182.575 188.728 182.355V176.25C188.728 176.04 188.798 175.87 188.938 175.74C189.088 175.6 189.273 175.53 189.493 175.53C189.713 175.53 189.888 175.595 190.018 175.725C190.148 175.855 190.213 176.025 190.213 176.235V176.85C190.453 176.41 190.788 176.075 191.218 175.845C191.648 175.615 192.133 175.5 192.673 175.5ZM200.896 175.5C201.866 175.5 202.586 175.745 203.056 176.235C203.536 176.725 203.776 177.47 203.776 178.47V182.355C203.776 182.585 203.711 182.765 203.581 182.895C203.451 183.015 203.271 183.075 203.041 183.075C202.821 183.075 202.646 183.01 202.516 182.88C202.386 182.75 202.321 182.575 202.321 182.355V181.8C202.131 182.22 201.846 182.545 201.466 182.775C201.096 182.995 200.661 183.105 200.161 183.105C199.681 183.105 199.241 183.01 198.841 182.82C198.451 182.62 198.141 182.35 197.911 182.01C197.681 181.67 197.566 181.285 197.566 180.855C197.556 180.315 197.691 179.895 197.971 179.595C198.251 179.285 198.706 179.065 199.336 178.935C199.966 178.795 200.841 178.725 201.961 178.725H202.306V178.29C202.306 177.73 202.191 177.325 201.961 177.075C201.731 176.825 201.361 176.7 200.851 176.7C200.501 176.7 200.171 176.745 199.861 176.835C199.551 176.925 199.211 177.055 198.841 177.225C198.571 177.375 198.381 177.45 198.271 177.45C198.121 177.45 197.996 177.395 197.896 177.285C197.806 177.175 197.761 177.035 197.761 176.865C197.761 176.715 197.801 176.585 197.881 176.475C197.971 176.355 198.111 176.24 198.301 176.13C198.651 175.94 199.061 175.79 199.531 175.68C200.001 175.56 200.456 175.5 200.896 175.5ZM200.431 181.98C200.981 181.98 201.431 181.795 201.781 181.425C202.131 181.045 202.306 180.56 202.306 179.97V179.58H202.036C201.256 179.58 200.656 179.615 200.236 179.685C199.816 179.755 199.516 179.875 199.336 180.045C199.156 180.205 199.066 180.44 199.066 180.75C199.066 181.11 199.196 181.405 199.456 181.635C199.716 181.865 200.041 181.98 200.431 181.98ZM207.063 183.075C206.843 183.075 206.658 183.015 206.508 182.895C206.368 182.775 206.298 182.595 206.298 182.355V173.085C206.298 172.845 206.368 172.665 206.508 172.545C206.658 172.415 206.843 172.35 207.063 172.35C207.283 172.35 207.463 172.415 207.603 172.545C207.743 172.665 207.813 172.845 207.813 173.085V182.355C207.813 182.595 207.743 182.775 207.603 182.895C207.463 183.015 207.283 183.075 207.063 183.075ZM217.336 183.105C216.316 183.105 215.481 182.895 214.831 182.475C214.651 182.365 214.521 182.25 214.441 182.13C214.371 182.01 214.336 181.875 214.336 181.725C214.336 181.565 214.381 181.43 214.471 181.32C214.561 181.21 214.676 181.155 214.816 181.155C214.946 181.155 215.151 181.235 215.431 181.395C215.731 181.555 216.021 181.685 216.301 181.785C216.591 181.885 216.951 181.935 217.381 181.935C217.861 181.935 218.236 181.85 218.506 181.68C218.776 181.51 218.911 181.27 218.911 180.96C218.911 180.76 218.856 180.6 218.746 180.48C218.646 180.36 218.466 180.255 218.206 180.165C217.946 180.065 217.561 179.96 217.051 179.85C216.171 179.66 215.536 179.405 215.146 179.085C214.766 178.755 214.576 178.31 214.576 177.75C214.576 177.32 214.701 176.935 214.951 176.595C215.201 176.245 215.546 175.975 215.986 175.785C216.426 175.595 216.926 175.5 217.486 175.5C217.886 175.5 218.276 175.555 218.656 175.665C219.036 175.765 219.371 175.915 219.661 176.115C219.991 176.335 220.156 176.59 220.156 176.88C220.156 177.04 220.106 177.175 220.006 177.285C219.916 177.395 219.806 177.45 219.676 177.45C219.586 177.45 219.496 177.43 219.406 177.39C219.316 177.35 219.196 177.285 219.046 177.195C218.776 177.035 218.521 176.91 218.281 176.82C218.051 176.73 217.761 176.685 217.411 176.685C216.991 176.685 216.651 176.775 216.391 176.955C216.141 177.135 216.016 177.38 216.016 177.69C216.016 177.97 216.131 178.19 216.361 178.35C216.601 178.5 217.046 178.645 217.696 178.785C218.366 178.925 218.891 179.085 219.271 179.265C219.651 179.445 219.921 179.67 220.081 179.94C220.251 180.2 220.336 180.535 220.336 180.945C220.336 181.595 220.061 182.12 219.511 182.52C218.971 182.91 218.246 183.105 217.336 183.105ZM225.984 181.92C226.204 181.94 226.359 182 226.449 182.1C226.549 182.19 226.599 182.32 226.599 182.49C226.599 182.69 226.519 182.845 226.359 182.955C226.209 183.055 225.984 183.095 225.684 183.075L225.279 183.045C224.469 182.985 223.864 182.74 223.464 182.31C223.064 181.87 222.864 181.225 222.864 180.375V176.85H221.964C221.524 176.85 221.304 176.655 221.304 176.265C221.304 176.085 221.359 175.945 221.469 175.845C221.589 175.735 221.754 175.68 221.964 175.68H222.864V174.135C222.864 173.905 222.929 173.725 223.059 173.595C223.199 173.465 223.384 173.4 223.614 173.4C223.844 173.4 224.029 173.465 224.169 173.595C224.309 173.725 224.379 173.905 224.379 174.135V175.68H225.864C226.074 175.68 226.234 175.735 226.344 175.845C226.464 175.945 226.524 176.085 226.524 176.265C226.524 176.455 226.464 176.6 226.344 176.7C226.234 176.8 226.074 176.85 225.864 176.85H224.379V180.48C224.379 180.95 224.474 181.295 224.664 181.515C224.864 181.735 225.164 181.86 225.564 181.89L225.984 181.92ZM231.212 175.5C232.182 175.5 232.902 175.745 233.372 176.235C233.852 176.725 234.092 177.47 234.092 178.47V182.355C234.092 182.585 234.027 182.765 233.897 182.895C233.767 183.015 233.587 183.075 233.357 183.075C233.137 183.075 232.962 183.01 232.832 182.88C232.702 182.75 232.637 182.575 232.637 182.355V181.8C232.447 182.22 232.162 182.545 231.782 182.775C231.412 182.995 230.977 183.105 230.477 183.105C229.997 183.105 229.557 183.01 229.157 182.82C228.767 182.62 228.457 182.35 228.227 182.01C227.997 181.67 227.882 181.285 227.882 180.855C227.872 180.315 228.007 179.895 228.287 179.595C228.567 179.285 229.022 179.065 229.652 178.935C230.282 178.795 231.157 178.725 232.277 178.725H232.622V178.29C232.622 177.73 232.507 177.325 232.277 177.075C232.047 176.825 231.677 176.7 231.167 176.7C230.817 176.7 230.487 176.745 230.177 176.835C229.867 176.925 229.527 177.055 229.157 177.225C228.887 177.375 228.697 177.45 228.587 177.45C228.437 177.45 228.312 177.395 228.212 177.285C228.122 177.175 228.077 177.035 228.077 176.865C228.077 176.715 228.117 176.585 228.197 176.475C228.287 176.355 228.427 176.24 228.617 176.13C228.967 175.94 229.377 175.79 229.847 175.68C230.317 175.56 230.772 175.5 231.212 175.5ZM230.747 181.98C231.297 181.98 231.747 181.795 232.097 181.425C232.447 181.045 232.622 180.56 232.622 179.97V179.58H232.352C231.572 179.58 230.972 179.615 230.552 179.685C230.132 179.755 229.832 179.875 229.652 180.045C229.472 180.205 229.382 180.44 229.382 180.75C229.382 181.11 229.512 181.405 229.772 181.635C230.032 181.865 230.357 181.98 230.747 181.98ZM240.559 175.5C242.309 175.5 243.184 176.485 243.184 178.455V182.355C243.184 182.585 243.114 182.765 242.974 182.895C242.844 183.015 242.659 183.075 242.419 183.075C242.189 183.075 242.004 183.01 241.864 182.88C241.734 182.75 241.669 182.575 241.669 182.355V178.53C241.669 177.91 241.544 177.455 241.294 177.165C241.054 176.875 240.674 176.73 240.154 176.73C239.544 176.73 239.054 176.92 238.684 177.3C238.314 177.68 238.129 178.19 238.129 178.83V182.355C238.129 182.575 238.059 182.75 237.919 182.88C237.789 183.01 237.609 183.075 237.379 183.075C237.149 183.075 236.964 183.01 236.824 182.88C236.684 182.75 236.614 182.575 236.614 182.355V176.25C236.614 176.04 236.684 175.87 236.824 175.74C236.974 175.6 237.159 175.53 237.379 175.53C237.599 175.53 237.774 175.595 237.904 175.725C238.034 175.855 238.099 176.025 238.099 176.235V176.85C238.339 176.41 238.674 176.075 239.104 175.845C239.534 175.615 240.019 175.5 240.559 175.5ZM251.692 172.35C251.922 172.35 252.107 172.415 252.247 172.545C252.387 172.675 252.457 172.85 252.457 173.07V182.34C252.457 182.57 252.387 182.75 252.247 182.88C252.117 183.01 251.937 183.075 251.707 183.075C251.477 183.075 251.292 183.01 251.152 182.88C251.022 182.75 250.957 182.57 250.957 182.34V181.74C250.737 182.18 250.417 182.52 249.997 182.76C249.577 182.99 249.092 183.105 248.542 183.105C247.912 183.105 247.347 182.945 246.847 182.625C246.357 182.305 245.972 181.855 245.692 181.275C245.422 180.695 245.287 180.03 245.287 179.28C245.287 178.52 245.422 177.855 245.692 177.285C245.972 176.715 246.357 176.275 246.847 175.965C247.337 175.655 247.902 175.5 248.542 175.5C249.092 175.5 249.572 175.62 249.982 175.86C250.402 176.09 250.722 176.42 250.942 176.85V173.04C250.942 172.83 251.007 172.665 251.137 172.545C251.277 172.415 251.462 172.35 251.692 172.35ZM248.902 181.905C249.552 181.905 250.057 181.68 250.417 181.23C250.777 180.78 250.957 180.14 250.957 179.31C250.957 178.48 250.777 177.84 250.417 177.39C250.067 176.94 249.562 176.715 248.902 176.715C248.242 176.715 247.727 176.94 247.357 177.39C246.997 177.83 246.817 178.46 246.817 179.28C246.817 180.1 247.002 180.745 247.372 181.215C247.742 181.675 248.252 181.905 248.902 181.905ZM258.094 175.5C259.064 175.5 259.784 175.745 260.254 176.235C260.734 176.725 260.974 177.47 260.974 178.47V182.355C260.974 182.585 260.909 182.765 260.779 182.895C260.649 183.015 260.469 183.075 260.239 183.075C260.019 183.075 259.844 183.01 259.714 182.88C259.584 182.75 259.519 182.575 259.519 182.355V181.8C259.329 182.22 259.044 182.545 258.664 182.775C258.294 182.995 257.859 183.105 257.359 183.105C256.879 183.105 256.439 183.01 256.039 182.82C255.649 182.62 255.339 182.35 255.109 182.01C254.879 181.67 254.764 181.285 254.764 180.855C254.754 180.315 254.889 179.895 255.169 179.595C255.449 179.285 255.904 179.065 256.534 178.935C257.164 178.795 258.039 178.725 259.159 178.725H259.504V178.29C259.504 177.73 259.389 177.325 259.159 177.075C258.929 176.825 258.559 176.7 258.049 176.7C257.699 176.7 257.369 176.745 257.059 176.835C256.749 176.925 256.409 177.055 256.039 177.225C255.769 177.375 255.579 177.45 255.469 177.45C255.319 177.45 255.194 177.395 255.094 177.285C255.004 177.175 254.959 177.035 254.959 176.865C254.959 176.715 254.999 176.585 255.079 176.475C255.169 176.355 255.309 176.24 255.499 176.13C255.849 175.94 256.259 175.79 256.729 175.68C257.199 175.56 257.654 175.5 258.094 175.5ZM257.629 181.98C258.179 181.98 258.629 181.795 258.979 181.425C259.329 181.045 259.504 180.56 259.504 179.97V179.58H259.234C258.454 179.58 257.854 179.615 257.434 179.685C257.014 179.755 256.714 179.875 256.534 180.045C256.354 180.205 256.264 180.44 256.264 180.75C256.264 181.11 256.394 181.405 256.654 181.635C256.914 181.865 257.239 181.98 257.629 181.98ZM267.337 175.53C267.817 175.5 268.057 175.705 268.057 176.145C268.057 176.365 268.002 176.53 267.892 176.64C267.782 176.75 267.592 176.815 267.322 176.835L266.872 176.88C266.242 176.94 265.772 177.16 265.462 177.54C265.162 177.92 265.012 178.38 265.012 178.92V182.355C265.012 182.595 264.942 182.775 264.802 182.895C264.662 183.015 264.482 183.075 264.262 183.075C264.042 183.075 263.857 183.015 263.707 182.895C263.567 182.775 263.497 182.595 263.497 182.355V176.25C263.497 176.02 263.567 175.845 263.707 175.725C263.857 175.595 264.042 175.53 264.262 175.53C264.462 175.53 264.627 175.595 264.757 175.725C264.897 175.845 264.967 176.015 264.967 176.235V176.955C265.167 176.515 265.457 176.18 265.837 175.95C266.217 175.72 266.647 175.585 267.127 175.545L267.337 175.53ZM275.278 172.35C275.508 172.35 275.693 172.415 275.833 172.545C275.973 172.675 276.043 172.85 276.043 173.07V182.34C276.043 182.57 275.973 182.75 275.833 182.88C275.703 183.01 275.523 183.075 275.293 183.075C275.063 183.075 274.878 183.01 274.738 182.88C274.608 182.75 274.543 182.57 274.543 182.34V181.74C274.323 182.18 274.003 182.52 273.583 182.76C273.163 182.99 272.678 183.105 272.128 183.105C271.498 183.105 270.933 182.945 270.433 182.625C269.943 182.305 269.558 181.855 269.278 181.275C269.008 180.695 268.873 180.03 268.873 179.28C268.873 178.52 269.008 177.855 269.278 177.285C269.558 176.715 269.943 176.275 270.433 175.965C270.923 175.655 271.488 175.5 272.128 175.5C272.678 175.5 273.158 175.62 273.568 175.86C273.988 176.09 274.308 176.42 274.528 176.85V173.04C274.528 172.83 274.593 172.665 274.723 172.545C274.863 172.415 275.048 172.35 275.278 172.35ZM272.488 181.905C273.138 181.905 273.643 181.68 274.003 181.23C274.363 180.78 274.543 180.14 274.543 179.31C274.543 178.48 274.363 177.84 274.003 177.39C273.653 176.94 273.148 176.715 272.488 176.715C271.828 176.715 271.313 176.94 270.943 177.39C270.583 177.83 270.403 178.46 270.403 179.28C270.403 180.1 270.588 180.745 270.958 181.215C271.328 181.675 271.838 181.905 272.488 181.905ZM281.156 183.105C280.136 183.105 279.301 182.895 278.651 182.475C278.471 182.365 278.341 182.25 278.261 182.13C278.191 182.01 278.156 181.875 278.156 181.725C278.156 181.565 278.201 181.43 278.291 181.32C278.381 181.21 278.496 181.155 278.636 181.155C278.766 181.155 278.971 181.235 279.251 181.395C279.551 181.555 279.841 181.685 280.121 181.785C280.411 181.885 280.771 181.935 281.201 181.935C281.681 181.935 282.056 181.85 282.326 181.68C282.596 181.51 282.731 181.27 282.731 180.96C282.731 180.76 282.676 180.6 282.566 180.48C282.466 180.36 282.286 180.255 282.026 180.165C281.766 180.065 281.381 179.96 280.871 179.85C279.991 179.66 279.356 179.405 278.966 179.085C278.586 178.755 278.396 178.31 278.396 177.75C278.396 177.32 278.521 176.935 278.771 176.595C279.021 176.245 279.366 175.975 279.806 175.785C280.246 175.595 280.746 175.5 281.306 175.5C281.706 175.5 282.096 175.555 282.476 175.665C282.856 175.765 283.191 175.915 283.481 176.115C283.811 176.335 283.976 176.59 283.976 176.88C283.976 177.04 283.926 177.175 283.826 177.285C283.736 177.395 283.626 177.45 283.496 177.45C283.406 177.45 283.316 177.43 283.226 177.39C283.136 177.35 283.016 177.285 282.866 177.195C282.596 177.035 282.341 176.91 282.101 176.82C281.871 176.73 281.581 176.685 281.231 176.685C280.811 176.685 280.471 176.775 280.211 176.955C279.961 177.135 279.836 177.38 279.836 177.69C279.836 177.97 279.951 178.19 280.181 178.35C280.421 178.5 280.866 178.645 281.516 178.785C282.186 178.925 282.711 179.085 283.091 179.265C283.471 179.445 283.741 179.67 283.901 179.94C284.071 180.2 284.156 180.535 284.156 180.945C284.156 181.595 283.881 182.12 283.331 182.52C282.791 182.91 282.066 183.105 281.156 183.105Z" fill="#949494"/>
<path d="M154.5 64.75C166.236 64.75 175.75 55.2364 175.75 43.5C175.75 31.7636 166.236 22.25 154.5 22.25C142.764 22.25 133.25 31.7636 133.25 43.5C133.25 55.2364 142.764 64.75 154.5 64.75Z" stroke="white" stroke-width="4" stroke-linecap="round" stroke-linejoin="round"/>
<path d="M158.75 40.3125V35" stroke="white" stroke-width="4" stroke-linecap="round" stroke-linejoin="round"/>
<path d="M150.25 40.3125V35" stroke="white" stroke-width="4" stroke-linecap="round" stroke-linejoin="round"/>
<path d="M154.5 52C156.754 52 158.916 51.1045 160.51 49.5104C162.104 47.9163 163 45.7543 163 43.5V40.3125H146V43.5C146 45.7543 146.896 47.9163 148.49 49.5104C150.084 51.1045 152.246 52 154.5 52Z" stroke="white" stroke-width="4" stroke-linecap="round" stroke-linejoin="round"/>
<path d="M154.5 64.75V52" stroke="white" stroke-width="4" stroke-linecap="round" stroke-linejoin="round"/>
<defs>
<linearGradient id="paint0_linear_2_1521" x1="117.718" y1="9.42568e-06" x2="211.288" y2="11.4315" gradientUnits="userSpaceOnUse">
<stop stop-color="#F79E0E"/>
<stop offset="1" stop-color="#EEBD23"/>
</linearGradient>
</defs>
</svg>
