<svg width="126" height="82" viewBox="0 0 126 82" fill="none" xmlns="http://www.w3.org/2000/svg">
<path d="M36.9493 14V4.30625H38.3793V12.7762H43.178V14H36.9493ZM47.2326 14.1238C46.5542 14.1238 45.9676 13.9817 45.4726 13.6975C44.9776 13.4133 44.5926 13.0146 44.3176 12.5012C44.0517 11.9787 43.9188 11.36 43.9188 10.645C43.9188 9.93 44.0517 9.31583 44.3176 8.8025C44.5926 8.28 44.9776 7.87667 45.4726 7.5925C45.9676 7.30833 46.5542 7.16625 47.2326 7.16625C47.8926 7.16625 48.4701 7.30833 48.9651 7.5925C49.4601 7.87667 49.8451 8.28 50.1201 8.8025C50.3951 9.31583 50.5326 9.93 50.5326 10.645C50.5326 11.36 50.3951 11.9787 50.1201 12.5012C49.8451 13.0146 49.4601 13.4133 48.9651 13.6975C48.4701 13.9817 47.8926 14.1238 47.2326 14.1238ZM47.2326 13.0512C47.8009 13.0512 48.2592 12.845 48.6076 12.4325C48.9559 12.02 49.1301 11.4242 49.1301 10.645C49.1301 9.86583 48.9559 9.27458 48.6076 8.87125C48.2592 8.45875 47.8009 8.2525 47.2326 8.2525C46.6551 8.2525 46.1921 8.45875 45.8438 8.87125C45.4955 9.27458 45.3213 9.86583 45.3213 10.645C45.3213 11.4242 45.4955 12.02 45.8438 12.4325C46.1921 12.845 46.6551 13.0512 47.2326 13.0512ZM52.0922 14V7.29H53.4397V8.48625C53.7881 7.68875 54.5122 7.24417 55.6122 7.1525L56.066 7.125L56.1622 8.3075L55.3235 8.39C54.1043 8.50917 53.4947 9.13708 53.4947 10.2737V14H52.0922ZM60.2764 14.1238C59.1764 14.1238 58.3101 13.8167 57.6776 13.2025C57.0451 12.5792 56.7289 11.7312 56.7289 10.6587C56.7289 9.97125 56.8664 9.36625 57.1414 8.84375C57.4255 8.31208 57.8151 7.89958 58.3101 7.60625C58.8051 7.31292 59.3735 7.16625 60.0151 7.16625C60.941 7.16625 61.6697 7.46417 62.2014 8.06C62.733 8.64667 62.9989 9.45792 62.9989 10.4937V10.9612H58.0764C58.1772 12.3546 58.9151 13.0512 60.2901 13.0512C60.6751 13.0512 61.051 12.9917 61.4176 12.8725C61.7935 12.7533 62.1464 12.5562 62.4764 12.2812L62.8889 13.2437C62.5864 13.5187 62.1968 13.7342 61.7201 13.89C61.2435 14.0458 60.7622 14.1238 60.2764 14.1238ZM60.0701 8.1425C59.4926 8.1425 59.0343 8.32125 58.6951 8.67875C58.356 9.03625 58.1497 9.51292 58.0764 10.1087H61.8301C61.8026 9.48542 61.6376 9.00417 61.3351 8.665C61.0326 8.31667 60.611 8.1425 60.0701 8.1425ZM64.5404 14V7.29H65.8879V8.37625C66.0895 7.99125 66.3691 7.69333 66.7266 7.4825C67.0841 7.27167 67.5012 7.16625 67.9779 7.16625C69.0045 7.16625 69.6691 7.61542 69.9716 8.51375C70.1825 8.09208 70.485 7.76208 70.8791 7.52375C71.2733 7.28542 71.7225 7.16625 72.2266 7.16625C73.73 7.16625 74.4816 8.06458 74.4816 9.86125V14H73.0929V9.93C73.0929 9.36167 72.992 8.94458 72.7904 8.67875C72.5979 8.41292 72.277 8.28 71.8279 8.28C71.3237 8.28 70.925 8.45875 70.6316 8.81625C70.3383 9.16458 70.1916 9.64125 70.1916 10.2462V14H68.8029V9.93C68.8029 9.36167 68.7066 8.94458 68.5141 8.67875C68.3216 8.41292 68.0008 8.28 67.5516 8.28C67.0475 8.28 66.6487 8.45875 66.3554 8.81625C66.0712 9.16458 65.9291 9.64125 65.9291 10.2462V14H64.5404ZM80.1866 14V4.30625H81.6166V14H80.1866ZM83.7011 16.475V7.29H85.0624V8.43125C85.2549 8.04625 85.5482 7.73917 85.9424 7.51C86.3365 7.28083 86.7903 7.16625 87.3036 7.16625C87.8994 7.16625 88.4174 7.30833 88.8574 7.5925C89.3065 7.87667 89.6503 8.28 89.8886 8.8025C90.1361 9.31583 90.2599 9.93 90.2599 10.645C90.2599 11.36 90.1361 11.9787 89.8886 12.5012C89.6503 13.0237 89.3065 13.4271 88.8574 13.7112C88.4174 13.9862 87.8994 14.1238 87.3036 14.1238C86.8086 14.1238 86.364 14.0183 85.9699 13.8075C85.5849 13.5875 85.2915 13.2896 85.0899 12.9137V16.475H83.7011ZM86.9599 13.0512C87.5374 13.0512 87.9957 12.845 88.3349 12.4325C88.6832 12.02 88.8574 11.4242 88.8574 10.645C88.8574 9.86583 88.6832 9.27458 88.3349 8.87125C87.9957 8.45875 87.5374 8.2525 86.9599 8.2525C86.3824 8.2525 85.9194 8.45875 85.5711 8.87125C85.2319 9.27458 85.0624 9.86583 85.0624 10.645C85.0624 11.4242 85.2319 12.02 85.5711 12.4325C85.9194 12.845 86.3824 13.0512 86.9599 13.0512ZM94.2174 14.1238C92.5949 14.1238 91.7836 13.2208 91.7836 11.415V7.29H93.1724V11.4287C93.1724 11.9696 93.2824 12.3683 93.5024 12.625C93.7224 12.8817 94.0707 13.01 94.5474 13.01C95.0699 13.01 95.4915 12.8358 95.8124 12.4875C96.1424 12.1392 96.3074 11.6717 96.3074 11.085V7.29H97.6961V14H96.3486V12.9275C96.1286 13.3217 95.8353 13.6196 95.4686 13.8212C95.102 14.0229 94.6849 14.1238 94.2174 14.1238ZM102.005 14.1238C101.455 14.1238 100.941 14.055 100.465 13.9175C99.9878 13.7708 99.5891 13.5692 99.2683 13.3125L99.667 12.3775C100.006 12.6158 100.377 12.7992 100.781 12.9275C101.193 13.0558 101.606 13.12 102.018 13.12C102.504 13.12 102.871 13.0329 103.118 12.8587C103.366 12.6846 103.49 12.4508 103.49 12.1575C103.49 11.9192 103.407 11.7358 103.242 11.6075C103.077 11.47 102.83 11.3646 102.5 11.2912L101.193 11.03C100.038 10.7917 99.4608 10.1958 99.4608 9.2425C99.4608 8.61 99.7128 8.10583 100.217 7.73C100.721 7.35417 101.381 7.16625 102.197 7.16625C102.665 7.16625 103.109 7.235 103.531 7.3725C103.962 7.51 104.319 7.71625 104.603 7.99125L104.205 8.92625C103.93 8.68792 103.613 8.50458 103.256 8.37625C102.898 8.24792 102.545 8.18375 102.197 8.18375C101.72 8.18375 101.358 8.27542 101.111 8.45875C100.863 8.63292 100.74 8.87125 100.74 9.17375C100.74 9.63208 101.042 9.92542 101.647 10.0537L102.953 10.315C103.549 10.4342 103.998 10.6358 104.301 10.92C104.612 11.2042 104.768 11.5892 104.768 12.075C104.768 12.7167 104.516 13.2208 104.012 13.5875C103.508 13.945 102.839 14.1238 102.005 14.1238ZM108.706 14.1238C107.083 14.1238 106.272 13.2208 106.272 11.415V7.29H107.661V11.4287C107.661 11.9696 107.771 12.3683 107.991 12.625C108.211 12.8817 108.559 13.01 109.036 13.01C109.558 13.01 109.98 12.8358 110.301 12.4875C110.631 12.1392 110.796 11.6717 110.796 11.085V7.29H112.185V14H110.837V12.9275C110.617 13.3217 110.324 13.6196 109.957 13.8212C109.59 14.0229 109.173 14.1238 108.706 14.1238ZM114.169 14V7.29H115.517V8.37625C115.718 7.99125 115.998 7.69333 116.356 7.4825C116.713 7.27167 117.13 7.16625 117.607 7.16625C118.633 7.16625 119.298 7.61542 119.601 8.51375C119.811 8.09208 120.114 7.76208 120.508 7.52375C120.902 7.28542 121.351 7.16625 121.856 7.16625C123.359 7.16625 124.111 8.06458 124.111 9.86125V14H122.722V9.93C122.722 9.36167 122.621 8.94458 122.419 8.67875C122.227 8.41292 121.906 8.28 121.457 8.28C120.953 8.28 120.554 8.45875 120.261 8.81625C119.967 9.16458 119.821 9.64125 119.821 10.2462V14H118.432V9.93C118.432 9.36167 118.336 8.94458 118.143 8.67875C117.951 8.41292 117.63 8.28 117.181 8.28C116.676 8.28 116.278 8.45875 115.984 8.81625C115.7 9.16458 115.558 9.64125 115.558 10.2462V14H114.169Z" fill="white"/>
<path d="M37.1275 45.25V35.5562H38.5575V44.0262H43.3563V45.25H37.1275ZM47.4108 45.3738C46.7324 45.3738 46.1458 45.2317 45.6508 44.9475C45.1558 44.6633 44.7708 44.2646 44.4958 43.7512C44.2299 43.2287 44.097 42.61 44.097 41.895C44.097 41.18 44.2299 40.5658 44.4958 40.0525C44.7708 39.53 45.1558 39.1267 45.6508 38.8425C46.1458 38.5583 46.7324 38.4162 47.4108 38.4162C48.0708 38.4162 48.6483 38.5583 49.1433 38.8425C49.6383 39.1267 50.0233 39.53 50.2983 40.0525C50.5733 40.5658 50.7108 41.18 50.7108 41.895C50.7108 42.61 50.5733 43.2287 50.2983 43.7512C50.0233 44.2646 49.6383 44.6633 49.1433 44.9475C48.6483 45.2317 48.0708 45.3738 47.4108 45.3738ZM47.4108 44.3012C47.9791 44.3012 48.4374 44.095 48.7858 43.6825C49.1341 43.27 49.3083 42.6742 49.3083 41.895C49.3083 41.1158 49.1341 40.5246 48.7858 40.1212C48.4374 39.7087 47.9791 39.5025 47.4108 39.5025C46.8333 39.5025 46.3704 39.7087 46.022 40.1212C45.6737 40.5246 45.4995 41.1158 45.4995 41.895C45.4995 42.6742 45.6737 43.27 46.022 43.6825C46.3704 44.095 46.8333 44.3012 47.4108 44.3012ZM52.2704 45.25V38.54H53.6179V39.7362C53.9663 38.9387 54.6904 38.4942 55.7904 38.4025L56.2442 38.375L56.3404 39.5575L55.5017 39.64C54.2825 39.7592 53.6729 40.3871 53.6729 41.5237V45.25H52.2704ZM60.4546 45.3738C59.3546 45.3738 58.4883 45.0667 57.8558 44.4525C57.2233 43.8292 56.9071 42.9812 56.9071 41.9087C56.9071 41.2212 57.0446 40.6162 57.3196 40.0937C57.6038 39.5621 57.9933 39.1496 58.4883 38.8562C58.9833 38.5629 59.5517 38.4162 60.1933 38.4162C61.1192 38.4162 61.8479 38.7142 62.3796 39.31C62.9113 39.8967 63.1771 40.7079 63.1771 41.7437V42.2112H58.2546C58.3554 43.6046 59.0933 44.3012 60.4683 44.3012C60.8533 44.3012 61.2292 44.2417 61.5958 44.1225C61.9717 44.0033 62.3246 43.8062 62.6546 43.5312L63.0671 44.4937C62.7646 44.7687 62.375 44.9842 61.8983 45.14C61.4217 45.2958 60.9404 45.3738 60.4546 45.3738ZM60.2483 39.3925C59.6708 39.3925 59.2125 39.5712 58.8733 39.9287C58.5342 40.2862 58.3279 40.7629 58.2546 41.3587H62.0083C61.9808 40.7354 61.8158 40.2542 61.5133 39.915C61.2108 39.5667 60.7892 39.3925 60.2483 39.3925ZM64.7186 45.25V38.54H66.0661V39.6262C66.2678 39.2412 66.5473 38.9433 66.9048 38.7325C67.2623 38.5217 67.6794 38.4162 68.1561 38.4162C69.1828 38.4162 69.8473 38.8654 70.1498 39.7637C70.3607 39.3421 70.6632 39.0121 71.0573 38.7737C71.4515 38.5354 71.9007 38.4162 72.4048 38.4162C73.9082 38.4162 74.6598 39.3146 74.6598 41.1112V45.25H73.2711V41.18C73.2711 40.6117 73.1703 40.1946 72.9686 39.9287C72.7761 39.6629 72.4553 39.53 72.0061 39.53C71.5019 39.53 71.1032 39.7087 70.8098 40.0662C70.5165 40.4146 70.3698 40.8912 70.3698 41.4962V45.25H68.9811V41.18C68.9811 40.6117 68.8848 40.1946 68.6923 39.9287C68.4998 39.6629 68.179 39.53 67.7298 39.53C67.2257 39.53 66.8269 39.7087 66.5336 40.0662C66.2494 40.4146 66.1073 40.8912 66.1073 41.4962V45.25H64.7186ZM80.3648 45.25V35.5562H81.7948V45.25H80.3648ZM83.8793 47.725V38.54H85.2406V39.6812C85.4331 39.2962 85.7264 38.9892 86.1206 38.76C86.5147 38.5308 86.9685 38.4162 87.4818 38.4162C88.0777 38.4162 88.5956 38.5583 89.0356 38.8425C89.4847 39.1267 89.8285 39.53 90.0668 40.0525C90.3143 40.5658 90.4381 41.18 90.4381 41.895C90.4381 42.61 90.3143 43.2287 90.0668 43.7512C89.8285 44.2737 89.4847 44.6771 89.0356 44.9612C88.5956 45.2362 88.0777 45.3738 87.4818 45.3738C86.9868 45.3738 86.5422 45.2683 86.1481 45.0575C85.7631 44.8375 85.4697 44.5396 85.2681 44.1637V47.725H83.8793ZM87.1381 44.3012C87.7156 44.3012 88.1739 44.095 88.5131 43.6825C88.8614 43.27 89.0356 42.6742 89.0356 41.895C89.0356 41.1158 88.8614 40.5246 88.5131 40.1212C88.1739 39.7087 87.7156 39.5025 87.1381 39.5025C86.5606 39.5025 86.0977 39.7087 85.7493 40.1212C85.4102 40.5246 85.2406 41.1158 85.2406 41.895C85.2406 42.6742 85.4102 43.27 85.7493 43.6825C86.0977 44.095 86.5606 44.3012 87.1381 44.3012ZM94.3956 45.3738C92.7731 45.3738 91.9619 44.4708 91.9619 42.665V38.54H93.3506V42.6787C93.3506 43.2196 93.4606 43.6183 93.6806 43.875C93.9006 44.1317 94.2489 44.26 94.7256 44.26C95.2481 44.26 95.6698 44.0858 95.9906 43.7375C96.3206 43.3892 96.4856 42.9217 96.4856 42.335V38.54H97.8744V45.25H96.5269V44.1775C96.3069 44.5717 96.0135 44.8696 95.6469 45.0712C95.2802 45.2729 94.8631 45.3738 94.3956 45.3738ZM102.183 45.3738C101.633 45.3738 101.119 45.305 100.643 45.1675C100.166 45.0208 99.7673 44.8192 99.4465 44.5625L99.8452 43.6275C100.184 43.8658 100.556 44.0492 100.959 44.1775C101.371 44.3058 101.784 44.37 102.196 44.37C102.682 44.37 103.049 44.2829 103.296 44.1087C103.544 43.9346 103.668 43.7008 103.668 43.4075C103.668 43.1692 103.585 42.9858 103.42 42.8575C103.255 42.72 103.008 42.6146 102.678 42.5412L101.371 42.28C100.216 42.0417 99.639 41.4458 99.639 40.4925C99.639 39.86 99.8911 39.3558 100.395 38.98C100.899 38.6042 101.559 38.4162 102.375 38.4162C102.843 38.4162 103.287 38.485 103.709 38.6225C104.14 38.76 104.497 38.9662 104.781 39.2412L104.383 40.1762C104.108 39.9379 103.791 39.7546 103.434 39.6262C103.076 39.4979 102.724 39.4337 102.375 39.4337C101.899 39.4337 101.536 39.5254 101.289 39.7087C101.041 39.8829 100.918 40.1212 100.918 40.4237C100.918 40.8821 101.22 41.1754 101.825 41.3037L103.131 41.565C103.727 41.6842 104.176 41.8858 104.479 42.17C104.791 42.4542 104.946 42.8392 104.946 43.325C104.946 43.9667 104.694 44.4708 104.19 44.8375C103.686 45.195 103.017 45.3738 102.183 45.3738ZM108.884 45.3738C107.262 45.3738 106.45 44.4708 106.45 42.665V38.54H107.839V42.6787C107.839 43.2196 107.949 43.6183 108.169 43.875C108.389 44.1317 108.737 44.26 109.214 44.26C109.737 44.26 110.158 44.0858 110.479 43.7375C110.809 43.3892 110.974 42.9217 110.974 42.335V38.54H112.363V45.25H111.015V44.1775C110.795 44.5717 110.502 44.8696 110.135 45.0712C109.769 45.2729 109.352 45.3738 108.884 45.3738ZM114.348 45.25V38.54H115.695V39.6262C115.897 39.2412 116.176 38.9433 116.534 38.7325C116.891 38.5217 117.308 38.4162 117.785 38.4162C118.812 38.4162 119.476 38.8654 119.779 39.7637C119.99 39.3421 120.292 39.0121 120.686 38.7737C121.08 38.5354 121.53 38.4162 122.034 38.4162C123.537 38.4162 124.289 39.3146 124.289 41.1112V45.25H122.9V41.18C122.9 40.6117 122.799 40.1946 122.598 39.9287C122.405 39.6629 122.084 39.53 121.635 39.53C121.131 39.53 120.732 39.7087 120.439 40.0662C120.145 40.4146 119.999 40.8912 119.999 41.4962V45.25H118.61V41.18C118.61 40.6117 118.514 40.1946 118.321 39.9287C118.129 39.6629 117.808 39.53 117.359 39.53C116.855 39.53 116.456 39.7087 116.163 40.0662C115.878 40.4146 115.736 40.8912 115.736 41.4962V45.25H114.348Z" fill="white"/>
<path d="M35.8775 76.5V66.8062H37.3075V75.2762H42.1063V76.5H35.8775ZM46.1608 76.6238C45.4824 76.6238 44.8958 76.4817 44.4008 76.1975C43.9058 75.9133 43.5208 75.5146 43.2458 75.0012C42.9799 74.4787 42.847 73.86 42.847 73.145C42.847 72.43 42.9799 71.8158 43.2458 71.3025C43.5208 70.78 43.9058 70.3767 44.4008 70.0925C44.8958 69.8083 45.4824 69.6662 46.1608 69.6662C46.8208 69.6662 47.3983 69.8083 47.8933 70.0925C48.3883 70.3767 48.7733 70.78 49.0483 71.3025C49.3233 71.8158 49.4608 72.43 49.4608 73.145C49.4608 73.86 49.3233 74.4787 49.0483 75.0012C48.7733 75.5146 48.3883 75.9133 47.8933 76.1975C47.3983 76.4817 46.8208 76.6238 46.1608 76.6238ZM46.1608 75.5512C46.7291 75.5512 47.1874 75.345 47.5358 74.9325C47.8841 74.52 48.0583 73.9242 48.0583 73.145C48.0583 72.3658 47.8841 71.7746 47.5358 71.3712C47.1874 70.9587 46.7291 70.7525 46.1608 70.7525C45.5833 70.7525 45.1204 70.9587 44.772 71.3712C44.4237 71.7746 44.2495 72.3658 44.2495 73.145C44.2495 73.9242 44.4237 74.52 44.772 74.9325C45.1204 75.345 45.5833 75.5512 46.1608 75.5512ZM51.0204 76.5V69.79H52.3679V70.9862C52.7163 70.1887 53.4404 69.7442 54.5404 69.6525L54.9942 69.625L55.0904 70.8075L54.2517 70.89C53.0325 71.0092 52.4229 71.6371 52.4229 72.7737V76.5H51.0204ZM59.2046 76.6238C58.1046 76.6238 57.2383 76.3167 56.6058 75.7025C55.9733 75.0792 55.6571 74.2312 55.6571 73.1587C55.6571 72.4712 55.7946 71.8662 56.0696 71.3437C56.3538 70.8121 56.7433 70.3996 57.2383 70.1062C57.7333 69.8129 58.3017 69.6662 58.9433 69.6662C59.8692 69.6662 60.5979 69.9642 61.1296 70.56C61.6613 71.1467 61.9271 71.9579 61.9271 72.9937V73.4612H57.0046C57.1054 74.8546 57.8433 75.5512 59.2183 75.5512C59.6033 75.5512 59.9792 75.4917 60.3458 75.3725C60.7217 75.2533 61.0746 75.0562 61.4046 74.7812L61.8171 75.7437C61.5146 76.0187 61.125 76.2342 60.6483 76.39C60.1717 76.5458 59.6904 76.6238 59.2046 76.6238ZM58.9983 70.6425C58.4208 70.6425 57.9625 70.8212 57.6233 71.1787C57.2842 71.5362 57.0779 72.0129 57.0046 72.6087H60.7583C60.7308 71.9854 60.5658 71.5042 60.2633 71.165C59.9608 70.8167 59.5392 70.6425 58.9983 70.6425ZM63.4686 76.5V69.79H64.8161V70.8762C65.0178 70.4912 65.2973 70.1933 65.6548 69.9825C66.0123 69.7717 66.4294 69.6662 66.9061 69.6662C67.9328 69.6662 68.5973 70.1154 68.8998 71.0137C69.1107 70.5921 69.4132 70.2621 69.8073 70.0237C70.2015 69.7854 70.6507 69.6662 71.1548 69.6662C72.6582 69.6662 73.4098 70.5646 73.4098 72.3612V76.5H72.0211V72.43C72.0211 71.8617 71.9203 71.4446 71.7186 71.1787C71.5261 70.9129 71.2053 70.78 70.7561 70.78C70.2519 70.78 69.8532 70.9587 69.5598 71.3162C69.2665 71.6646 69.1198 72.1412 69.1198 72.7462V76.5H67.7311V72.43C67.7311 71.8617 67.6348 71.4446 67.4423 71.1787C67.2498 70.9129 66.929 70.78 66.4798 70.78C65.9757 70.78 65.5769 70.9587 65.2836 71.3162C64.9994 71.6646 64.8573 72.1412 64.8573 72.7462V76.5H63.4686ZM79.1148 76.5V66.8062H80.5448V76.5H79.1148ZM82.6293 78.975V69.79H83.9906V70.9312C84.1831 70.5462 84.4764 70.2392 84.8706 70.01C85.2647 69.7808 85.7185 69.6662 86.2318 69.6662C86.8277 69.6662 87.3456 69.8083 87.7856 70.0925C88.2347 70.3767 88.5785 70.78 88.8168 71.3025C89.0643 71.8158 89.1881 72.43 89.1881 73.145C89.1881 73.86 89.0643 74.4787 88.8168 75.0012C88.5785 75.5237 88.2347 75.9271 87.7856 76.2112C87.3456 76.4862 86.8277 76.6238 86.2318 76.6238C85.7368 76.6238 85.2922 76.5183 84.8981 76.3075C84.5131 76.0875 84.2197 75.7896 84.0181 75.4137V78.975H82.6293ZM85.8881 75.5512C86.4656 75.5512 86.9239 75.345 87.2631 74.9325C87.6114 74.52 87.7856 73.9242 87.7856 73.145C87.7856 72.3658 87.6114 71.7746 87.2631 71.3712C86.9239 70.9587 86.4656 70.7525 85.8881 70.7525C85.3106 70.7525 84.8477 70.9587 84.4993 71.3712C84.1602 71.7746 83.9906 72.3658 83.9906 73.145C83.9906 73.9242 84.1602 74.52 84.4993 74.9325C84.8477 75.345 85.3106 75.5512 85.8881 75.5512ZM93.1456 76.6238C91.5231 76.6238 90.7119 75.7208 90.7119 73.915V69.79H92.1006V73.9287C92.1006 74.4696 92.2106 74.8683 92.4306 75.125C92.6506 75.3817 92.9989 75.51 93.4756 75.51C93.9981 75.51 94.4198 75.3358 94.7406 74.9875C95.0706 74.6392 95.2356 74.1717 95.2356 73.585V69.79H96.6244V76.5H95.2769V75.4275C95.0569 75.8217 94.7635 76.1196 94.3969 76.3212C94.0302 76.5229 93.6131 76.6238 93.1456 76.6238ZM100.933 76.6238C100.383 76.6238 99.8694 76.555 99.3927 76.4175C98.9161 76.2708 98.5173 76.0692 98.1965 75.8125L98.5952 74.8775C98.9344 75.1158 99.3056 75.2992 99.709 75.4275C100.121 75.5558 100.534 75.62 100.946 75.62C101.432 75.62 101.799 75.5329 102.046 75.3587C102.294 75.1846 102.418 74.9508 102.418 74.6575C102.418 74.4192 102.335 74.2358 102.17 74.1075C102.005 73.97 101.758 73.8646 101.428 73.7912L100.121 73.53C98.9665 73.2917 98.389 72.6958 98.389 71.7425C98.389 71.11 98.6411 70.6058 99.1452 70.23C99.6494 69.8542 100.309 69.6662 101.125 69.6662C101.593 69.6662 102.037 69.735 102.459 69.8725C102.89 70.01 103.247 70.2162 103.531 70.4912L103.133 71.4262C102.858 71.1879 102.541 71.0046 102.184 70.8762C101.826 70.7479 101.474 70.6837 101.125 70.6837C100.649 70.6837 100.286 70.7754 100.039 70.9587C99.7915 71.1329 99.6677 71.3712 99.6677 71.6737C99.6677 72.1321 99.9702 72.4254 100.575 72.5537L101.881 72.815C102.477 72.9342 102.926 73.1358 103.229 73.42C103.541 73.7042 103.696 74.0892 103.696 74.575C103.696 75.2167 103.444 75.7208 102.94 76.0875C102.436 76.445 101.767 76.6238 100.933 76.6238ZM107.634 76.6238C106.012 76.6238 105.2 75.7208 105.2 73.915V69.79H106.589V73.9287C106.589 74.4696 106.699 74.8683 106.919 75.125C107.139 75.3817 107.487 75.51 107.964 75.51C108.487 75.51 108.908 75.3358 109.229 74.9875C109.559 74.6392 109.724 74.1717 109.724 73.585V69.79H111.113V76.5H109.765V75.4275C109.545 75.8217 109.252 76.1196 108.885 76.3212C108.519 76.5229 108.102 76.6238 107.634 76.6238ZM113.098 76.5V69.79H114.445V70.8762C114.647 70.4912 114.926 70.1933 115.284 69.9825C115.641 69.7717 116.058 69.6662 116.535 69.6662C117.562 69.6662 118.226 70.1154 118.529 71.0137C118.74 70.5921 119.042 70.2621 119.436 70.0237C119.83 69.7854 120.28 69.6662 120.784 69.6662C122.287 69.6662 123.039 70.5646 123.039 72.3612V76.5H121.65V72.43C121.65 71.8617 121.549 71.4446 121.348 71.1787C121.155 70.9129 120.834 70.78 120.385 70.78C119.881 70.78 119.482 70.9587 119.189 71.3162C118.895 71.6646 118.749 72.1412 118.749 72.7462V76.5H117.36V72.43C117.36 71.8617 117.264 71.4446 117.071 71.1787C116.879 70.9129 116.558 70.78 116.109 70.78C115.605 70.78 115.206 70.9587 114.913 71.3162C114.628 71.6646 114.486 72.1412 114.486 72.7462V76.5H113.098Z" fill="white"/>
<path d="M2.07178 8.49294L8.50035 13.75L17.0718 3.75" stroke="url(#paint0_linear_2_1464)" stroke-width="1.875" stroke-linecap="round"/>
<path d="M2.25 39.7429L8.67857 45L17.25 35" stroke="url(#paint1_linear_2_1464)" stroke-width="1.875" stroke-linecap="round"/>
<path d="M1 70.9929L7.42857 76.25L16 66.25" stroke="url(#paint2_linear_2_1464)" stroke-width="1.875" stroke-linecap="round"/>
<defs>
<linearGradient id="paint0_linear_2_1464" x1="3.38741" y1="3.75" x2="19.0488" y2="6.62006" gradientUnits="userSpaceOnUse">
<stop stop-color="#F79E0E"/>
<stop offset="1" stop-color="#EEBD23"/>
</linearGradient>
<linearGradient id="paint1_linear_2_1464" x1="3.56563" y1="35" x2="19.227" y2="37.8701" gradientUnits="userSpaceOnUse">
<stop stop-color="#F79E0E"/>
<stop offset="1" stop-color="#EEBD23"/>
</linearGradient>
<linearGradient id="paint2_linear_2_1464" x1="2.31563" y1="66.25" x2="17.977" y2="69.1201" gradientUnits="userSpaceOnUse">
<stop stop-color="#F79E0E"/>
<stop offset="1" stop-color="#EEBD23"/>
</linearGradient>
</defs>
</svg>
