<svg width="260" height="253" viewBox="0 0 260 253" fill="none" xmlns="http://www.w3.org/2000/svg">
<path d="M36.3425 14V4.177H40.411C41.47 4.177 42.2874 4.44173 42.8633 4.9712C43.4392 5.49138 43.7272 6.2252 43.7272 7.17267C43.7272 8.12942 43.4392 8.87253 42.8633 9.402C42.2874 9.92218 41.47 10.1823 40.411 10.1823H37.7916V14H36.3425ZM37.7916 9.0258H40.202C41.6139 9.0258 42.3199 8.40809 42.3199 7.17267C42.3199 5.94653 41.6139 5.33347 40.202 5.33347H37.7916V9.0258ZM45.2821 14V4.177H49.3507C50.4096 4.177 51.227 4.43244 51.8029 4.94333C52.3788 5.44493 52.6668 6.15089 52.6668 7.0612C52.6668 7.79502 52.4717 8.3988 52.0816 8.87253C51.6915 9.33698 51.1388 9.64816 50.4235 9.80607C50.8694 9.95469 51.2456 10.3123 51.5521 10.8789L53.252 14H51.6636L49.9637 10.865C49.7687 10.5027 49.5411 10.2612 49.281 10.1405C49.0302 10.0104 48.7051 9.9454 48.3057 9.9454H46.7312V14H45.2821ZM46.7312 8.8586H49.1138C50.5443 8.8586 51.2595 8.26876 51.2595 7.08907C51.2595 5.91867 50.5443 5.33347 49.1138 5.33347H46.7312V8.8586ZM54.7116 14V4.177H61.0652V5.3474H56.105V8.42667H60.7726V9.59707H56.105V12.8296H61.0652V14H54.7116ZM62.9444 14V4.177H64.1566L67.7932 10.9625L71.4158 4.177H72.6002V14H71.3044V6.79647L68.2251 12.4952H67.3473L64.2541 6.82433V14H62.9444ZM74.9177 14V4.177H76.3667V14H74.9177ZM82.6033 14.1254C81.2936 14.1254 80.2904 13.7817 79.5937 13.0943C78.9064 12.3977 78.5627 11.3805 78.5627 10.0429V4.177H80.0117V10.0151C80.0117 11.9193 80.8756 12.8714 82.6033 12.8714C84.3311 12.8714 85.1949 11.9193 85.1949 10.0151V4.177H86.6161V10.0429C86.6161 11.3805 86.2771 12.3977 85.599 13.0943C84.9209 13.7817 83.9224 14.1254 82.6033 14.1254ZM88.8789 14V4.177H90.0911L93.7277 10.9625L97.3503 4.177H98.5347V14H97.2389V6.79647L94.1596 12.4952H93.2818L90.1886 6.82433V14H88.8789ZM106.909 14V5.3892H103.426V4.177H111.827V5.3892H108.344V14H106.909ZM113.03 14V4.177H114.479V8.41273H119.983V4.177H121.418V14H119.983V9.62493H114.479V14H113.03ZM123.712 14V4.177H130.065V5.3474H125.105V8.42667H129.773V9.59707H125.105V12.8296H130.065V14H123.712ZM131.944 14V4.177H133.157L136.793 10.9625L140.416 4.177H141.6V14H140.304V6.79647L137.225 12.4952H136.347L133.254 6.82433V14H131.944ZM143.918 14V4.177H150.271V5.3474H145.311V8.42667H149.979V9.59707H145.311V12.8296H150.271V14H143.918Z" fill="white"/>
<path d="M1 8.60623L7.51429 13.9334L16.2 3.80005" stroke="url(#paint0_linear_2_1954)" stroke-width="1.9" stroke-linecap="round"/>
<path d="M36.3425 53V43.177H42.5846V44.3474H37.7916V47.4824H42.292V48.6528H37.7916V53H36.3425ZM44.0575 53V43.177H48.1261C49.185 43.177 50.0024 43.4324 50.5783 43.9433C51.1542 44.4449 51.4422 45.1509 51.4422 46.0612C51.4422 46.795 51.2471 47.3988 50.857 47.8725C50.4669 48.337 49.9142 48.6482 49.1989 48.8061C49.6448 48.9547 50.021 49.3123 50.3275 49.8789L52.0274 53H50.439L48.7391 49.865C48.5441 49.5027 48.3165 49.2612 48.0564 49.1405C47.8056 49.0104 47.4805 48.9454 47.0811 48.9454H45.5066V53H44.0575ZM45.5066 47.8586H47.8892C49.3197 47.8586 50.0349 47.2688 50.0349 46.0891C50.0349 44.9187 49.3197 44.3335 47.8892 44.3335H45.5066V47.8586ZM53.487 53V43.177H59.8406V44.3474H54.8803V47.4267H59.548V48.5971H54.8803V51.8296H59.8406V53H53.487ZM61.6919 53V43.177H68.0455V44.3474H63.0852V47.4267H67.7529V48.5971H63.0852V51.8296H68.0455V53H61.6919ZM73.557 53V43.177H77.6534C78.6752 43.177 79.4647 43.4046 80.0221 43.8597C80.5887 44.3056 80.872 44.9326 80.872 45.7407C80.872 46.2702 80.7327 46.7254 80.454 47.1062C80.1753 47.487 79.7945 47.7657 79.3115 47.9422C79.8781 48.0908 80.3193 48.3648 80.6351 48.7643C80.951 49.1637 81.1089 49.6699 81.1089 50.283C81.1089 51.1562 80.8163 51.8296 80.2311 52.3033C79.6552 52.7678 78.8517 53 77.8206 53H73.557ZM74.9503 47.4685H77.4305C78.7866 47.4685 79.4647 46.939 79.4647 45.8801C79.4647 44.8211 78.7866 44.2917 77.4305 44.2917H74.9503V47.4685ZM74.9503 51.8853H77.6534C79.0189 51.8853 79.7016 51.3326 79.7016 50.2273C79.7016 49.1312 79.0189 48.5831 77.6534 48.5831H74.9503V51.8853ZM83.0545 53V43.177H87.1231C88.182 43.177 88.9994 43.4324 89.5753 43.9433C90.1512 44.4449 90.4392 45.1509 90.4392 46.0612C90.4392 46.795 90.2441 47.3988 89.854 47.8725C89.4639 48.337 88.9112 48.6482 88.1959 48.8061C88.6418 48.9547 89.018 49.3123 89.3245 49.8789L91.0244 53H89.436L87.7361 49.865C87.5411 49.5027 87.3135 49.2612 87.0534 49.1405C86.8026 49.0104 86.4775 48.9454 86.0781 48.9454H84.5036V53H83.0545ZM84.5036 47.8586H86.8862C88.3167 47.8586 89.0319 47.2688 89.0319 46.0891C89.0319 44.9187 88.3167 44.3335 86.8862 44.3335H84.5036V47.8586ZM91.3315 53L95.7065 43.177H96.9048L101.294 53H99.8169L98.7858 50.6035H93.8116L92.7945 53H91.3315ZM96.2917 44.7793L94.3271 49.4331H98.2981L96.3196 44.7793H96.2917ZM102.58 53V43.177H103.681L109.31 50.6035V43.177H110.648V53H109.575L103.918 45.5457V53H102.58ZM112.935 53V43.177H116.404C118.021 43.177 119.265 43.5996 120.139 44.4449C121.021 45.2902 121.462 46.5024 121.462 48.0815C121.462 49.6606 121.021 50.8775 120.139 51.7321C119.265 52.5774 118.021 53 116.404 53H112.935ZM114.384 51.7878H116.321C118.745 51.7878 119.957 50.5524 119.957 48.0815C119.957 45.62 118.745 44.3892 116.321 44.3892H114.384V51.7878ZM123.399 53V43.177H129.752V44.3474H124.792V47.4267H129.46V48.5971H124.792V51.8296H129.752V53H123.399ZM131.603 53V43.177H135.073C136.689 43.177 137.934 43.5996 138.807 44.4449C139.689 45.2902 140.131 46.5024 140.131 48.0815C140.131 49.6606 139.689 50.8775 138.807 51.7321C137.934 52.5774 136.689 53 135.073 53H131.603ZM133.053 51.7878H134.989C137.414 51.7878 138.626 50.5524 138.626 48.0815C138.626 45.62 137.414 44.3892 134.989 44.3892H133.053V51.7878ZM145.727 53V43.177H147.176V51.7599H152.039V53H145.727ZM157.162 53.1254C156.224 53.1254 155.411 52.921 154.723 52.5123C154.036 52.0943 153.502 51.5091 153.121 50.7567C152.749 49.995 152.564 49.1033 152.564 48.0815C152.564 47.0505 152.749 46.1587 153.121 45.4063C153.502 44.6539 154.036 44.0734 154.723 43.6647C155.411 43.256 156.224 43.0516 157.162 43.0516C158.091 43.0516 158.899 43.256 159.586 43.6647C160.283 44.0734 160.817 44.6539 161.188 45.4063C161.569 46.1587 161.76 47.0458 161.76 48.0676C161.76 49.0987 161.569 49.995 161.188 50.7567C160.817 51.5091 160.283 52.0943 159.586 52.5123C158.899 52.921 158.091 53.1254 157.162 53.1254ZM157.162 51.8714C158.137 51.8714 158.894 51.5416 159.433 50.8821C159.981 50.2133 160.255 49.2798 160.255 48.0815C160.255 46.8833 159.986 45.9544 159.447 45.2949C158.908 44.6354 158.146 44.3056 157.162 44.3056C156.186 44.3056 155.425 44.6354 154.877 45.2949C154.338 45.9544 154.068 46.8833 154.068 48.0815C154.068 49.2798 154.338 50.2133 154.877 50.8821C155.425 51.5416 156.186 51.8714 157.162 51.8714ZM168.3 53.1254C167.232 53.1254 166.331 52.9257 165.597 52.5263C164.863 52.1176 164.306 51.537 163.925 50.7846C163.553 50.0322 163.367 49.1358 163.367 48.0955C163.367 47.0644 163.558 46.1727 163.939 45.4203C164.32 44.6586 164.872 44.0734 165.597 43.6647C166.321 43.256 167.19 43.0516 168.202 43.0516C168.899 43.0516 169.545 43.1538 170.139 43.3581C170.734 43.5625 171.231 43.8551 171.63 44.2359L171.114 45.3645C170.669 44.993 170.213 44.7282 169.749 44.5703C169.284 44.4031 168.769 44.3195 168.202 44.3195C167.116 44.3195 166.289 44.6493 165.722 45.3088C165.156 45.959 164.872 46.8879 164.872 48.0955C164.872 49.3309 165.16 50.2691 165.736 50.91C166.321 51.5509 167.194 51.8714 168.356 51.8714C169.062 51.8714 169.763 51.7553 170.46 51.5231V48.8897H168.063V47.8029H171.672V52.4287C171.254 52.6331 170.734 52.8003 170.111 52.9303C169.498 53.0604 168.894 53.1254 168.3 53.1254ZM178.157 53.1254C177.219 53.1254 176.406 52.921 175.719 52.5123C175.031 52.0943 174.497 51.5091 174.116 50.7567C173.745 49.995 173.559 49.1033 173.559 48.0815C173.559 47.0505 173.745 46.1587 174.116 45.4063C174.497 44.6539 175.031 44.0734 175.719 43.6647C176.406 43.256 177.219 43.0516 178.157 43.0516C179.086 43.0516 179.894 43.256 180.581 43.6647C181.278 44.0734 181.812 44.6539 182.184 45.4063C182.565 46.1587 182.755 47.0458 182.755 48.0676C182.755 49.0987 182.565 49.995 182.184 50.7567C181.812 51.5091 181.278 52.0943 180.581 52.5123C179.894 52.921 179.086 53.1254 178.157 53.1254ZM178.157 51.8714C179.132 51.8714 179.889 51.5416 180.428 50.8821C180.976 50.2133 181.25 49.2798 181.25 48.0815C181.25 46.8833 180.981 45.9544 180.442 45.2949C179.903 44.6354 179.142 44.3056 178.157 44.3056C177.182 44.3056 176.42 44.6354 175.872 45.2949C175.333 45.9544 175.064 46.8833 175.064 48.0815C175.064 49.2798 175.333 50.2133 175.872 50.8821C176.42 51.5416 177.182 51.8714 178.157 51.8714ZM191.297 53.1254C190.285 53.1254 189.491 52.8932 188.915 52.4287C188.339 51.9643 188.051 51.3466 188.051 50.5756C188.051 49.944 188.223 49.3959 188.566 48.9315C188.91 48.467 189.412 48.0304 190.071 47.6217L190.238 47.5242C189.839 47.1062 189.556 46.7254 189.388 46.3817C189.23 46.0287 189.152 45.6664 189.152 45.2949C189.152 44.6261 189.384 44.0873 189.848 43.6786C190.313 43.2606 190.93 43.0516 191.701 43.0516C192.398 43.0516 192.96 43.2374 193.387 43.6089C193.815 43.9805 194.028 44.4821 194.028 45.1137C194.028 45.5968 193.884 46.0473 193.596 46.4653C193.318 46.874 192.83 47.2966 192.133 47.7332L194.237 50.0461C194.423 49.6653 194.572 49.2287 194.683 48.7364C194.795 48.2348 194.864 47.7146 194.892 47.1759H196.076C196.058 47.8911 195.96 48.5692 195.784 49.2101C195.607 49.8418 195.37 50.4038 195.073 50.8961L197.094 53H195.38L194.321 51.8435C193.931 52.2522 193.476 52.5681 192.955 52.791C192.435 53.0139 191.882 53.1254 191.297 53.1254ZM191.701 44.0827C191.33 44.0827 191.028 44.1941 190.796 44.4171C190.573 44.6307 190.461 44.914 190.461 45.267C190.461 45.5364 190.522 45.7825 190.642 46.0055C190.772 46.2284 191.009 46.5349 191.353 46.9251C191.892 46.5907 192.273 46.2934 192.496 46.0333C192.718 45.7732 192.83 45.4853 192.83 45.1695C192.83 44.8258 192.723 44.561 192.509 44.3753C192.305 44.1802 192.036 44.0827 191.701 44.0827ZM191.367 51.9968C192.24 51.9968 192.96 51.6763 193.527 51.0354L191.005 48.3463L190.921 48.402C190.382 48.7457 190.001 49.0708 189.779 49.3773C189.556 49.6746 189.444 50.0368 189.444 50.4641C189.444 50.9472 189.607 51.3234 189.932 51.5927C190.266 51.8621 190.745 51.9968 191.367 51.9968ZM201.882 53V43.177H205.979C207.001 43.177 207.79 43.4046 208.348 43.8597C208.914 44.3056 209.197 44.9326 209.197 45.7407C209.197 46.2702 209.058 46.7254 208.779 47.1062C208.501 47.487 208.12 47.7657 207.637 47.9422C208.204 48.0908 208.645 48.3648 208.961 48.7643C209.276 49.1637 209.434 49.6699 209.434 50.283C209.434 51.1562 209.142 51.8296 208.557 52.3033C207.981 52.7678 207.177 53 206.146 53H201.882ZM203.276 47.4685H205.756C207.112 47.4685 207.79 46.939 207.79 45.8801C207.79 44.8211 207.112 44.2917 205.756 44.2917H203.276V47.4685ZM203.276 51.8853H205.979C207.344 51.8853 208.027 51.3326 208.027 50.2273C208.027 49.1312 207.344 48.5831 205.979 48.5831H203.276V51.8853ZM210.309 53L214.684 43.177H215.882L220.271 53H218.794L217.763 50.6035H212.789L211.772 53H210.309ZM215.269 44.7793L213.305 49.4331H217.276L215.297 44.7793H215.269ZM221.558 53V43.177H222.659L228.288 50.6035V43.177H229.625V53H228.552L222.895 45.5457V53H221.558ZM231.913 53V43.177H233.013L238.642 50.6035V43.177H239.98V53H238.907L233.25 45.5457V53H231.913ZM242.267 53V43.177H248.621V44.3474H243.661V47.4267H248.328V48.5971H243.661V51.8296H248.621V53H242.267ZM250.472 53V43.177H254.541C255.6 43.177 256.417 43.4324 256.993 43.9433C257.569 44.4449 257.857 45.1509 257.857 46.0612C257.857 46.795 257.662 47.3988 257.272 47.8725C256.882 48.337 256.329 48.6482 255.614 48.8061C256.059 48.9547 256.436 49.3123 256.742 49.8789L258.442 53H256.854L255.154 49.865C254.959 49.5027 254.731 49.2612 254.471 49.1405C254.22 49.0104 253.895 48.9454 253.496 48.9454H251.921V53H250.472ZM251.921 47.8586H254.304C255.734 47.8586 256.45 47.2688 256.45 46.0891C256.45 44.9187 255.734 44.3335 254.304 44.3335H251.921V47.8586Z" fill="white"/>
<path d="M1 47.6062L7.51429 52.9334L16.2 42.8" stroke="url(#paint1_linear_2_1954)" stroke-width="1.9" stroke-linecap="round"/>
<path d="M36.3425 92V82.177H40.411C41.47 82.177 42.2874 82.4417 42.8633 82.9712C43.4392 83.4914 43.7272 84.2252 43.7272 85.1727C43.7272 86.1294 43.4392 86.8725 42.8633 87.402C42.2874 87.9222 41.47 88.1823 40.411 88.1823H37.7916V92H36.3425ZM37.7916 87.0258H40.202C41.6139 87.0258 42.3199 86.4081 42.3199 85.1727C42.3199 83.9465 41.6139 83.3335 40.202 83.3335H37.7916V87.0258ZM45.2821 92V82.177H49.3507C50.4096 82.177 51.227 82.4324 51.8029 82.9433C52.3788 83.4449 52.6668 84.1509 52.6668 85.0612C52.6668 85.795 52.4717 86.3988 52.0816 86.8725C51.6915 87.337 51.1388 87.6482 50.4235 87.8061C50.8694 87.9547 51.2456 88.3123 51.5521 88.8789L53.252 92H51.6636L49.9637 88.865C49.7687 88.5027 49.5411 88.2612 49.281 88.1405C49.0302 88.0104 48.7051 87.9454 48.3057 87.9454H46.7312V92H45.2821ZM46.7312 86.8586H49.1138C50.5443 86.8586 51.2595 86.2688 51.2595 85.0891C51.2595 83.9187 50.5443 83.3335 49.1138 83.3335H46.7312V86.8586ZM58.9072 92.1254C57.969 92.1254 57.1562 91.921 56.4689 91.5123C55.7815 91.0943 55.2474 90.5091 54.8665 89.7567C54.495 88.995 54.3092 88.1033 54.3092 87.0815C54.3092 86.0505 54.495 85.1587 54.8665 84.4063C55.2474 83.6539 55.7815 83.0734 56.4689 82.6647C57.1562 82.256 57.969 82.0516 58.9072 82.0516C59.8361 82.0516 60.6442 82.256 61.3316 82.6647C62.0283 83.0734 62.5624 83.6539 62.9339 84.4063C63.3148 85.1587 63.5052 86.0458 63.5052 87.0676C63.5052 88.0987 63.3148 88.995 62.9339 89.7567C62.5624 90.5091 62.0283 91.0943 61.3316 91.5123C60.6442 91.921 59.8361 92.1254 58.9072 92.1254ZM58.9072 90.8714C59.8825 90.8714 60.6396 90.5416 61.1783 89.8821C61.7264 89.2133 62.0004 88.2798 62.0004 87.0815C62.0004 85.8833 61.731 84.9544 61.1923 84.2949C60.6535 83.6354 59.8918 83.3056 58.9072 83.3056C57.9319 83.3056 57.1702 83.6354 56.6221 84.2949C56.0834 84.9544 55.814 85.8833 55.814 87.0815C55.814 88.2798 56.0834 89.2133 56.6221 89.8821C57.1702 90.5416 57.9319 90.8714 58.9072 90.8714ZM65.4474 92V82.177H71.6895V83.3474H66.8964V86.4824H71.3969V87.6528H66.8964V92H65.4474ZM73.1624 92V82.177H74.6115V92H73.1624ZM79.2736 92V83.3892H75.7903V82.177H84.1921V83.3892H80.7087V92H79.2736ZM89.083 92V82.177H90.2952L93.9318 88.9625L97.5544 82.177H98.7388V92H97.443V84.7965L94.3637 90.4952H93.4859L90.3927 84.8243V92H89.083ZM100.067 92L104.442 82.177H105.64L110.029 92H108.552L107.521 89.6035H102.547L101.53 92H100.067ZM105.027 83.7793L103.063 88.4331H107.034L105.055 83.7793H105.027ZM109.997 92L113.745 86.984L110.151 82.177H111.823L114.567 85.9251L117.284 82.177H118.97L115.376 86.984L119.11 92H117.424L114.554 88.0708L111.697 92H109.997ZM120.296 92V82.177H121.745V92H120.296ZM124.039 92V82.177H125.251L128.888 88.9625L132.51 82.177H133.695V92H132.399V84.7965L129.32 90.4952H128.442L125.349 84.8243V92H124.039ZM136.012 92V82.177H137.461V92H136.012ZM139.253 92V90.9411L144.687 83.3892H139.253V82.177H146.387V83.2359L140.939 90.7878H146.596V92H139.253ZM146.902 92L151.277 82.177H152.475L156.864 92H155.387L154.356 89.6035H149.382L148.365 92H146.902ZM151.862 83.7793L149.897 88.4331H153.868L151.89 83.7793H151.862ZM159.472 92V83.3892H155.989V82.177H164.39V83.3892H160.907V92H159.472ZM165.593 92V82.177H167.042V92H165.593ZM173.571 92.1254C172.633 92.1254 171.82 91.921 171.133 91.5123C170.446 91.0943 169.912 90.5091 169.531 89.7567C169.159 88.995 168.973 88.1033 168.973 87.0815C168.973 86.0505 169.159 85.1587 169.531 84.4063C169.912 83.6539 170.446 83.0734 171.133 82.6647C171.82 82.256 172.633 82.0516 173.571 82.0516C174.5 82.0516 175.308 82.256 175.996 82.6647C176.693 83.0734 177.227 83.6539 177.598 84.4063C177.979 85.1587 178.169 86.0458 178.169 87.0676C178.169 88.0987 177.979 88.995 177.598 89.7567C177.227 90.5091 176.693 91.0943 175.996 91.5123C175.308 91.921 174.5 92.1254 173.571 92.1254ZM173.571 90.8714C174.547 90.8714 175.304 90.5416 175.843 89.8821C176.391 89.2133 176.665 88.2798 176.665 87.0815C176.665 85.8833 176.395 84.9544 175.857 84.2949C175.318 83.6354 174.556 83.3056 173.571 83.3056C172.596 83.3056 171.834 83.6354 171.286 84.2949C170.748 84.9544 170.478 85.8833 170.478 87.0815C170.478 88.2798 170.748 89.2133 171.286 89.8821C171.834 90.5416 172.596 90.8714 173.571 90.8714ZM180.112 92V82.177H181.212L186.841 89.6035V82.177H188.179V92H187.106L181.449 84.5457V92H180.112ZM193.137 92L197.512 82.177H198.711L203.1 92H201.623L200.592 89.6035H195.617L194.6 92H193.137ZM198.098 83.7793L196.133 88.4331H200.104L198.125 83.7793H198.098ZM204.386 92V82.177H208.455C209.514 82.177 210.331 82.4417 210.907 82.9712C211.483 83.4914 211.771 84.2252 211.771 85.1727C211.771 86.1294 211.483 86.8725 210.907 87.402C210.331 87.9222 209.514 88.1823 208.455 88.1823H205.835V92H204.386ZM205.835 87.0258H208.246C209.658 87.0258 210.364 86.4081 210.364 85.1727C210.364 83.9465 209.658 83.3335 208.246 83.3335H205.835V87.0258ZM213.326 92V82.177H217.394C218.453 82.177 219.271 82.4417 219.847 82.9712C220.422 83.4914 220.71 84.2252 220.71 85.1727C220.71 86.1294 220.422 86.8725 219.847 87.402C219.271 87.9222 218.453 88.1823 217.394 88.1823H214.775V92H213.326ZM214.775 87.0258H217.185C218.597 87.0258 219.303 86.4081 219.303 85.1727C219.303 83.9465 218.597 83.3335 217.185 83.3335H214.775V87.0258ZM225.54 92.1254C224.769 92.1254 224.063 92.0279 223.422 91.8328C222.781 91.6284 222.238 91.3451 221.792 90.9829L222.251 89.8403C222.716 90.1933 223.213 90.458 223.742 90.6345C224.272 90.811 224.871 90.8993 225.54 90.8993C226.329 90.8993 226.91 90.7599 227.281 90.4813C227.662 90.1933 227.853 89.8218 227.853 89.3666C227.853 88.995 227.718 88.7024 227.449 88.4888C227.179 88.2659 226.729 88.0894 226.097 87.9593L224.606 87.6528C223.724 87.467 223.064 87.1605 222.628 86.7332C222.2 86.3059 221.987 85.73 221.987 85.0055C221.987 84.4203 222.14 83.9047 222.447 83.4589C222.762 83.013 223.199 82.6693 223.756 82.4278C224.314 82.177 224.955 82.0516 225.679 82.0516C226.348 82.0516 226.966 82.1538 227.532 82.3581C228.108 82.5532 228.596 82.8412 228.995 83.222L228.521 84.3227C227.732 83.6261 226.78 83.2777 225.665 83.2777C224.978 83.2777 224.43 83.431 224.021 83.7375C223.622 84.0441 223.422 84.4528 223.422 84.9637C223.422 85.3538 223.547 85.665 223.798 85.8972C224.049 86.1294 224.467 86.3059 225.052 86.4267L226.529 86.7332C227.458 86.9283 228.15 87.2302 228.605 87.6389C229.06 88.0383 229.288 88.5817 229.288 89.2691C229.288 89.845 229.135 90.3466 228.828 90.7739C228.521 91.2012 228.09 91.5356 227.532 91.7771C226.975 92.0093 226.311 92.1254 225.54 92.1254Z" fill="white"/>
<path d="M1 86.6062L7.51429 91.9334L16.2 81.8" stroke="url(#paint2_linear_2_1954)" stroke-width="1.9" stroke-linecap="round"/>
<path d="M36.8302 131V129.788H39.0595V122.849L37.3178 123.936L36.7326 122.863L39.4775 121.177H40.4946V129.788H42.5846V131H36.8302ZM47.8878 131.125C47.2561 131.125 46.6431 131.028 46.0486 130.833C45.4634 130.628 44.9757 130.345 44.5856 129.983L45.0732 128.868C45.9278 129.556 46.8567 129.899 47.8599 129.899C48.5008 129.899 49.0024 129.727 49.3647 129.384C49.727 129.031 49.9081 128.571 49.9081 128.004C49.9081 127.419 49.7363 126.941 49.3926 126.569C49.0489 126.198 48.5705 126.012 47.9574 126.012C47.0936 126.012 46.4016 126.369 45.8814 127.085H44.8782V121.177H50.7302V122.389H46.2854V125.496C46.8056 125.041 47.4651 124.814 48.264 124.814C48.8863 124.814 49.4251 124.944 49.8802 125.204C50.3354 125.464 50.6884 125.831 50.9392 126.304C51.19 126.769 51.3154 127.312 51.3154 127.935C51.3154 128.566 51.176 129.124 50.8974 129.607C50.6187 130.08 50.2239 130.452 49.713 130.721C49.2022 130.991 48.5937 131.125 47.8878 131.125ZM59.1084 131V122.389H55.625V121.177H64.0268V122.389H60.5435V131H59.1084ZM68.881 131.125C67.9428 131.125 67.13 130.921 66.4426 130.512C65.7552 130.094 65.2211 129.509 64.8403 128.757C64.4687 127.995 64.283 127.103 64.283 126.082C64.283 125.05 64.4687 124.159 64.8403 123.406C65.2211 122.654 65.7552 122.073 66.4426 121.665C67.13 121.256 67.9428 121.052 68.881 121.052C69.8098 121.052 70.618 121.256 71.3054 121.665C72.002 122.073 72.5361 122.654 72.9077 123.406C73.2885 124.159 73.479 125.046 73.479 126.068C73.479 127.099 73.2885 127.995 72.9077 128.757C72.5361 129.509 72.002 130.094 71.3054 130.512C70.618 130.921 69.8098 131.125 68.881 131.125ZM68.881 129.871C69.8563 129.871 70.6133 129.542 71.1521 128.882C71.7001 128.213 71.9742 127.28 71.9742 126.082C71.9742 124.883 71.7048 123.954 71.166 123.295C70.6273 122.635 69.8656 122.306 68.881 122.306C67.9056 122.306 67.1439 122.635 66.5959 123.295C66.0571 123.954 65.7878 124.883 65.7878 126.082C65.7878 127.28 66.0571 128.213 66.5959 128.882C67.1439 129.542 67.9056 129.871 68.881 129.871ZM75.4211 131V121.177H79.4897C80.5486 121.177 81.366 121.442 81.9419 121.971C82.5178 122.491 82.8058 123.225 82.8058 124.173C82.8058 125.129 82.5178 125.873 81.9419 126.402C81.366 126.922 80.5486 127.182 79.4897 127.182H76.8702V131H75.4211ZM76.8702 126.026H79.2807C80.6926 126.026 81.3985 125.408 81.3985 124.173C81.3985 122.947 80.6926 122.333 79.2807 122.333H76.8702V126.026ZM91.2953 131.125C90.5244 131.125 89.8184 131.028 89.1775 130.833C88.5365 130.628 87.9931 130.345 87.5473 129.983L88.0071 128.84C88.4715 129.193 88.9685 129.458 89.4979 129.635C90.0274 129.811 90.6265 129.899 91.2953 129.899C92.0849 129.899 92.6654 129.76 93.037 129.481C93.4178 129.193 93.6083 128.822 93.6083 128.367C93.6083 127.995 93.4736 127.702 93.2042 127.489C92.9348 127.266 92.4843 127.089 91.8527 126.959L90.3618 126.653C89.4794 126.467 88.8198 126.16 88.3833 125.733C87.956 125.306 87.7423 124.73 87.7423 124.005C87.7423 123.42 87.8956 122.905 88.2021 122.459C88.518 122.013 88.9545 121.669 89.5119 121.428C90.0692 121.177 90.7101 121.052 91.4347 121.052C92.1035 121.052 92.7212 121.154 93.2878 121.358C93.8637 121.553 94.3514 121.841 94.7508 122.222L94.2771 123.323C93.4875 122.626 92.5354 122.278 91.4207 122.278C90.7334 122.278 90.1853 122.431 89.7766 122.738C89.3772 123.044 89.1775 123.453 89.1775 123.964C89.1775 124.354 89.3029 124.665 89.5537 124.897C89.8045 125.129 90.2225 125.306 90.8077 125.427L92.2846 125.733C93.2135 125.928 93.9055 126.23 94.3607 126.639C94.8158 127.038 95.0434 127.582 95.0434 128.269C95.0434 128.845 94.8901 129.347 94.5836 129.774C94.2771 130.201 93.8451 130.536 93.2878 130.777C92.7305 131.009 92.0663 131.125 91.2953 131.125ZM96.6885 131V121.177H103.042V122.347H98.0818V125.427H102.75V126.597H98.0818V129.83H103.042V131H96.6885ZM104.893 131V121.177H106.342V129.76H111.205V131H104.893ZM112.581 131V121.177H114.03V129.76H118.893V131H112.581ZM120.269 131V121.177H121.718V131H120.269ZM123.984 131V121.177H125.084L130.713 128.603V121.177H132.051V131H130.978L125.321 123.546V131H123.984ZM138.936 131.125C137.868 131.125 136.967 130.926 136.233 130.526C135.5 130.118 134.942 129.537 134.561 128.785C134.19 128.032 134.004 127.136 134.004 126.095C134.004 125.064 134.194 124.173 134.575 123.42C134.956 122.659 135.509 122.073 136.233 121.665C136.958 121.256 137.826 121.052 138.839 121.052C139.536 121.052 140.181 121.154 140.776 121.358C141.37 121.562 141.867 121.855 142.267 122.236L141.751 123.365C141.305 122.993 140.85 122.728 140.386 122.57C139.921 122.403 139.406 122.32 138.839 122.32C137.752 122.32 136.925 122.649 136.359 123.309C135.792 123.959 135.509 124.888 135.509 126.095C135.509 127.331 135.797 128.269 136.373 128.91C136.958 129.551 137.831 129.871 138.992 129.871C139.698 129.871 140.399 129.755 141.096 129.523V126.89H138.7V125.803H142.308V130.429C141.89 130.633 141.37 130.8 140.748 130.93C140.135 131.06 139.531 131.125 138.936 131.125ZM148.19 131V121.177H152.259C153.318 121.177 154.135 121.442 154.711 121.971C155.287 122.491 155.575 123.225 155.575 124.173C155.575 125.129 155.287 125.873 154.711 126.402C154.135 126.922 153.318 127.182 152.259 127.182H149.639V131H148.19ZM149.639 126.026H152.05C153.462 126.026 154.168 125.408 154.168 124.173C154.168 122.947 153.462 122.333 152.05 122.333H149.639V126.026ZM157.13 131V121.177H161.198C162.257 121.177 163.075 121.432 163.651 121.943C164.227 122.445 164.514 123.151 164.514 124.061C164.514 124.795 164.319 125.399 163.929 125.873C163.539 126.337 162.986 126.648 162.271 126.806C162.717 126.955 163.093 127.312 163.4 127.879L165.1 131H163.511L161.811 127.865C161.616 127.503 161.389 127.261 161.129 127.14C160.878 127.01 160.553 126.945 160.153 126.945H158.579V131H157.13ZM158.579 125.859H160.961C162.392 125.859 163.107 125.269 163.107 124.089C163.107 122.919 162.392 122.333 160.961 122.333H158.579V125.859ZM170.755 131.125C169.817 131.125 169.004 130.921 168.317 130.512C167.629 130.094 167.095 129.509 166.714 128.757C166.343 127.995 166.157 127.103 166.157 126.082C166.157 125.05 166.343 124.159 166.714 123.406C167.095 122.654 167.629 122.073 168.317 121.665C169.004 121.256 169.817 121.052 170.755 121.052C171.684 121.052 172.492 121.256 173.179 121.665C173.876 122.073 174.41 122.654 174.782 123.406C175.162 124.159 175.353 125.046 175.353 126.068C175.353 127.099 175.162 127.995 174.782 128.757C174.41 129.509 173.876 130.094 173.179 130.512C172.492 130.921 171.684 131.125 170.755 131.125ZM170.755 129.871C171.73 129.871 172.487 129.542 173.026 128.882C173.574 128.213 173.848 127.28 173.848 126.082C173.848 124.883 173.579 123.954 173.04 123.295C172.501 122.635 171.739 122.306 170.755 122.306C169.78 122.306 169.018 122.635 168.47 123.295C167.931 123.954 167.662 124.883 167.662 126.082C167.662 127.28 167.931 128.213 168.47 128.882C169.018 129.542 169.78 129.871 170.755 129.871ZM177.295 131V121.177H180.764C182.381 121.177 183.625 121.6 184.499 122.445C185.381 123.29 185.822 124.502 185.822 126.082C185.822 127.661 185.381 128.877 184.499 129.732C183.625 130.577 182.381 131 180.764 131H177.295ZM178.744 129.788H180.681C183.105 129.788 184.317 128.552 184.317 126.082C184.317 123.62 183.105 122.389 180.681 122.389H178.744V129.788ZM191.73 131.125C190.42 131.125 189.417 130.782 188.72 130.094C188.033 129.398 187.689 128.381 187.689 127.043V121.177H189.138V127.015C189.138 128.919 190.002 129.871 191.73 129.871C193.457 129.871 194.321 128.919 194.321 127.015V121.177H195.742V127.043C195.742 128.381 195.403 129.398 194.725 130.094C194.047 130.782 193.049 131.125 191.73 131.125ZM202.38 131.125C201.386 131.125 200.536 130.921 199.83 130.512C199.124 130.104 198.581 129.523 198.2 128.771C197.829 128.009 197.643 127.113 197.643 126.082C197.643 125.05 197.829 124.159 198.2 123.406C198.581 122.654 199.124 122.073 199.83 121.665C200.536 121.256 201.386 121.052 202.38 121.052C203.049 121.052 203.671 121.158 204.247 121.372C204.833 121.576 205.32 121.874 205.71 122.264L205.209 123.42C204.781 123.039 204.34 122.765 203.885 122.598C203.439 122.422 202.952 122.333 202.422 122.333C201.363 122.333 200.555 122.659 199.998 123.309C199.44 123.959 199.162 124.883 199.162 126.082C199.162 127.28 199.44 128.209 199.998 128.868C200.555 129.518 201.363 129.844 202.422 129.844C202.952 129.844 203.439 129.76 203.885 129.593C204.34 129.416 204.781 129.138 205.209 128.757L205.71 129.913C205.32 130.294 204.833 130.591 204.247 130.805C203.671 131.019 203.049 131.125 202.38 131.125ZM209.654 131V122.389H206.17V121.177H214.572V122.389H211.089V131H209.654ZM218.709 131.125C217.938 131.125 217.232 131.028 216.591 130.833C215.95 130.628 215.407 130.345 214.961 129.983L215.421 128.84C215.885 129.193 216.382 129.458 216.912 129.635C217.441 129.811 218.04 129.899 218.709 129.899C219.499 129.899 220.079 129.76 220.451 129.481C220.832 129.193 221.022 128.822 221.022 128.367C221.022 127.995 220.887 127.702 220.618 127.489C220.349 127.266 219.898 127.089 219.266 126.959L217.776 126.653C216.893 126.467 216.234 126.16 215.797 125.733C215.37 125.306 215.156 124.73 215.156 124.005C215.156 123.42 215.309 122.905 215.616 122.459C215.932 122.013 216.368 121.669 216.926 121.428C217.483 121.177 218.124 121.052 218.848 121.052C219.517 121.052 220.135 121.154 220.702 121.358C221.278 121.553 221.765 121.841 222.165 122.222L221.691 123.323C220.901 122.626 219.949 122.278 218.835 122.278C218.147 122.278 217.599 122.431 217.19 122.738C216.791 123.044 216.591 123.453 216.591 123.964C216.591 124.354 216.717 124.665 216.967 124.897C217.218 125.129 217.636 125.306 218.221 125.427L219.698 125.733C220.627 125.928 221.319 126.23 221.774 126.639C222.23 127.038 222.457 127.582 222.457 128.269C222.457 128.845 222.304 129.347 221.997 129.774C221.691 130.201 221.259 130.536 220.702 130.777C220.144 131.009 219.48 131.125 218.709 131.125Z" fill="white"/>
<path d="M1 125.606L7.51429 130.933L16.2 120.8" stroke="url(#paint3_linear_2_1954)" stroke-width="1.9" stroke-linecap="round"/>
<path d="M39.6168 170.125C38.8458 170.125 38.1399 170.028 37.499 169.833C36.858 169.628 36.3146 169.345 35.8688 168.983L36.3286 167.84C36.793 168.193 37.29 168.458 37.8194 168.635C38.3489 168.811 38.948 168.899 39.6168 168.899C40.4064 168.899 40.9869 168.76 41.3585 168.481C41.7393 168.193 41.9298 167.822 41.9298 167.367C41.9298 166.995 41.7951 166.702 41.5257 166.489C41.2563 166.266 40.8058 166.089 40.1742 165.959L38.6833 165.653C37.8008 165.467 37.1413 165.16 36.7048 164.733C36.2775 164.306 36.0638 163.73 36.0638 163.005C36.0638 162.42 36.2171 161.905 36.5236 161.459C36.8394 161.013 37.276 160.669 37.8334 160.428C38.3907 160.177 39.0316 160.052 39.7562 160.052C40.425 160.052 41.0427 160.154 41.6093 160.358C42.1852 160.553 42.6729 160.841 43.0723 161.222L42.5986 162.323C41.809 161.626 40.8569 161.278 39.7422 161.278C39.0548 161.278 38.5068 161.431 38.0981 161.738C37.6987 162.044 37.499 162.453 37.499 162.964C37.499 163.354 37.6244 163.665 37.8752 163.897C38.126 164.129 38.544 164.306 39.1292 164.427L40.6061 164.733C41.535 164.928 42.227 165.23 42.6822 165.639C43.1373 166.038 43.3649 166.582 43.3649 167.269C43.3649 167.845 43.2116 168.347 42.9051 168.774C42.5986 169.201 42.1666 169.536 41.6093 169.777C41.052 170.009 40.3878 170.125 39.6168 170.125ZM45.01 170V160.177H51.3636V161.347H46.4033V164.427H51.071V165.597H46.4033V168.83H51.3636V170H45.01ZM57.4513 170.125C56.5131 170.125 55.7003 169.921 55.0129 169.512C54.3256 169.094 53.7914 168.509 53.4106 167.757C53.039 166.995 52.8533 166.103 52.8533 165.082C52.8533 164.05 53.039 163.159 53.4106 162.406C53.7914 161.654 54.3256 161.073 55.0129 160.665C55.7003 160.256 56.5131 160.052 57.4513 160.052C58.3802 160.052 59.1883 160.256 59.8757 160.665C60.5723 161.073 61.1064 161.654 61.478 162.406C61.8588 163.159 62.0493 164.046 62.0493 165.068C62.0493 166.099 61.8588 166.995 61.478 167.757C61.1064 168.509 60.5723 169.094 59.8757 169.512C59.1883 169.921 58.3802 170.125 57.4513 170.125ZM57.4513 168.871C58.4266 168.871 59.1836 168.542 59.7224 167.882C60.2704 167.213 60.5445 166.28 60.5445 165.082C60.5445 163.883 60.2751 162.954 59.7363 162.295C59.1976 161.635 58.4359 161.306 57.4513 161.306C56.4759 161.306 55.7142 161.635 55.1662 162.295C54.6274 162.954 54.3581 163.883 54.3581 165.082C54.3581 166.28 54.6274 167.213 55.1662 167.882C55.7142 168.542 56.4759 168.871 57.4513 168.871ZM67.6517 170V160.177H73.8938V161.347H69.1007V164.482H73.6012V165.653H69.1007V170H67.6517ZM75.3667 170V160.177H79.4352C80.4942 160.177 81.3116 160.432 81.8875 160.943C82.4634 161.445 82.7514 162.151 82.7514 163.061C82.7514 163.795 82.5563 164.399 82.1662 164.873C81.776 165.337 81.2233 165.648 80.5081 165.806C80.954 165.955 81.3302 166.312 81.6367 166.879L83.3366 170H81.7482L80.0483 166.865C79.8532 166.503 79.6257 166.261 79.3656 166.14C79.1148 166.01 78.7897 165.945 78.3902 165.945H76.8158V170H75.3667ZM76.8158 164.859H79.1984C80.6289 164.859 81.3441 164.269 81.3441 163.089C81.3441 161.919 80.6289 161.333 79.1984 161.333H76.8158V164.859ZM84.7962 170V160.177H86.2453V170H84.7962ZM88.5108 170V160.177H94.8644V161.347H89.9042V164.427H94.5718V165.597H89.9042V168.83H94.8644V170H88.5108ZM96.7157 170V160.177H97.8165L103.446 167.603V160.177H104.783V170H103.71L98.0533 162.546V170H96.7157ZM107.07 170V160.177H110.54C112.156 160.177 113.401 160.6 114.274 161.445C115.156 162.29 115.598 163.502 115.598 165.082C115.598 166.661 115.156 167.877 114.274 168.732C113.401 169.577 112.156 170 110.54 170H107.07ZM108.52 168.788H110.456C112.881 168.788 114.093 167.552 114.093 165.082C114.093 162.62 112.881 161.389 110.456 161.389H108.52V168.788ZM119.277 170V165.416L115.515 160.177H117.187L120.029 164.148L122.871 160.177H124.474L120.712 165.43V170H119.277ZM132.306 170.125C131.535 170.125 130.829 170.028 130.188 169.833C129.547 169.628 129.004 169.345 128.558 168.983L129.018 167.84C129.482 168.193 129.979 168.458 130.509 168.635C131.038 168.811 131.637 168.899 132.306 168.899C133.096 168.899 133.676 168.76 134.048 168.481C134.429 168.193 134.619 167.822 134.619 167.367C134.619 166.995 134.484 166.702 134.215 166.489C133.946 166.266 133.495 166.089 132.863 165.959L131.373 165.653C130.49 165.467 129.831 165.16 129.394 164.733C128.967 164.306 128.753 163.73 128.753 163.005C128.753 162.42 128.906 161.905 129.213 161.459C129.529 161.013 129.965 160.669 130.523 160.428C131.08 160.177 131.721 160.052 132.445 160.052C133.114 160.052 133.732 160.154 134.299 160.358C134.875 160.553 135.362 160.841 135.762 161.222L135.288 162.323C134.498 161.626 133.546 161.278 132.432 161.278C131.744 161.278 131.196 161.431 130.787 161.738C130.388 162.044 130.188 162.453 130.188 162.964C130.188 163.354 130.314 163.665 130.564 163.897C130.815 164.129 131.233 164.306 131.818 164.427L133.295 164.733C134.224 164.928 134.916 165.23 135.371 165.639C135.827 166.038 136.054 166.582 136.054 167.269C136.054 167.845 135.901 168.347 135.594 168.774C135.288 169.201 134.856 169.536 134.299 169.777C133.741 170.009 133.077 170.125 132.306 170.125ZM139.892 170V161.389H136.408V160.177H144.81V161.389H141.327V170H139.892ZM149.664 170.125C148.726 170.125 147.913 169.921 147.226 169.512C146.539 169.094 146.005 168.509 145.624 167.757C145.252 166.995 145.066 166.103 145.066 165.082C145.066 164.05 145.252 163.159 145.624 162.406C146.005 161.654 146.539 161.073 147.226 160.665C147.913 160.256 148.726 160.052 149.664 160.052C150.593 160.052 151.401 160.256 152.089 160.665C152.785 161.073 153.32 161.654 153.691 162.406C154.072 163.159 154.262 164.046 154.262 165.068C154.262 166.099 154.072 166.995 153.691 167.757C153.32 168.509 152.785 169.094 152.089 169.512C151.401 169.921 150.593 170.125 149.664 170.125ZM149.664 168.871C150.64 168.871 151.397 168.542 151.935 167.882C152.484 167.213 152.758 166.28 152.758 165.082C152.758 163.883 152.488 162.954 151.949 162.295C151.411 161.635 150.649 161.306 149.664 161.306C148.689 161.306 147.927 161.635 147.379 162.295C146.841 162.954 146.571 163.883 146.571 165.082C146.571 166.28 146.841 167.213 147.379 167.882C147.927 168.542 148.689 168.871 149.664 168.871ZM156.205 170V160.177H160.273C161.332 160.177 162.149 160.432 162.725 160.943C163.301 161.445 163.589 162.151 163.589 163.061C163.589 163.795 163.394 164.399 163.004 164.873C162.614 165.337 162.061 165.648 161.346 165.806C161.792 165.955 162.168 166.312 162.475 166.879L164.174 170H162.586L160.886 166.865C160.691 166.503 160.463 166.261 160.203 166.14C159.953 166.01 159.627 165.945 159.228 165.945H157.654V170H156.205ZM157.654 164.859H160.036C161.467 164.859 162.182 164.269 162.182 163.089C162.182 161.919 161.467 161.333 160.036 161.333H157.654V164.859ZM165.634 170V160.177H171.988V161.347H167.027V164.427H171.695V165.597H167.027V168.83H171.988V170H165.634Z" fill="white"/>
<path d="M1 164.606L7.51429 169.933L16.2 159.8" stroke="url(#paint4_linear_2_1954)" stroke-width="1.9" stroke-linecap="round"/>
<path d="M36.8302 209V207.788H39.0595V200.849L37.3178 201.936L36.7326 200.863L39.4775 199.177H40.4946V207.788H42.5846V209H36.8302ZM48.3573 209V199.177H54.5994V200.347H49.8063V203.482H54.3068V204.653H49.8063V209H48.3573ZM56.0723 209V199.177H60.1408C61.1998 199.177 62.0172 199.432 62.5931 199.943C63.169 200.445 63.457 201.151 63.457 202.061C63.457 202.795 63.2619 203.399 62.8718 203.873C62.4816 204.337 61.9289 204.648 61.2137 204.806C61.6596 204.955 62.0358 205.312 62.3423 205.879L64.0422 209H62.4538L60.7539 205.865C60.5588 205.503 60.3313 205.261 60.0712 205.14C59.8204 205.01 59.4953 204.945 59.0958 204.945H57.5214V209H56.0723ZM57.5214 203.859H59.904C61.3345 203.859 62.0497 203.269 62.0497 202.089C62.0497 200.919 61.3345 200.333 59.904 200.333H57.5214V203.859ZM65.5018 209V199.177H71.8554V200.347H66.8951V203.427H71.5628V204.597H66.8951V207.83H71.8554V209H65.5018ZM73.7067 209V199.177H80.0603V200.347H75.1V203.427H79.7677V204.597H75.1V207.83H80.0603V209H73.7067ZM89.9747 209.125C88.9808 209.125 88.1309 208.921 87.4249 208.512C86.719 208.104 86.1756 207.523 85.7947 206.771C85.4232 206.009 85.2374 205.113 85.2374 204.082C85.2374 203.05 85.4232 202.159 85.7947 201.406C86.1756 200.654 86.719 200.073 87.4249 199.665C88.1309 199.256 88.9808 199.052 89.9747 199.052C90.6435 199.052 91.2659 199.158 91.8418 199.372C92.427 199.576 92.9146 199.874 93.3048 200.264L92.8032 201.42C92.3759 201.039 91.9347 200.765 91.4795 200.598C91.0336 200.422 90.546 200.333 90.0165 200.333C88.9576 200.333 88.1494 200.659 87.5921 201.309C87.0348 201.959 86.7561 202.883 86.7561 204.082C86.7561 205.28 87.0348 206.209 87.5921 206.868C88.1494 207.518 88.9576 207.844 90.0165 207.844C90.546 207.844 91.0336 207.76 91.4795 207.593C91.9347 207.416 92.3759 207.138 92.8032 206.757L93.3048 207.913C92.9146 208.294 92.427 208.591 91.8418 208.805C91.2659 209.019 90.6435 209.125 89.9747 209.125ZM98.9383 209.125C98.0001 209.125 97.1874 208.921 96.5 208.512C95.8126 208.094 95.2785 207.509 94.8976 206.757C94.5261 205.995 94.3403 205.103 94.3403 204.082C94.3403 203.05 94.5261 202.159 94.8976 201.406C95.2785 200.654 95.8126 200.073 96.5 199.665C97.1874 199.256 98.0001 199.052 98.9383 199.052C99.8672 199.052 100.675 199.256 101.363 199.665C102.059 200.073 102.593 200.654 102.965 201.406C103.346 202.159 103.536 203.046 103.536 204.068C103.536 205.099 103.346 205.995 102.965 206.757C102.593 207.509 102.059 208.094 101.363 208.512C100.675 208.921 99.8672 209.125 98.9383 209.125ZM98.9383 207.871C99.9136 207.871 100.671 207.542 101.209 206.882C101.757 206.213 102.032 205.28 102.032 204.082C102.032 202.883 101.762 201.954 101.223 201.295C100.685 200.635 99.9229 200.306 98.9383 200.306C97.963 200.306 97.2013 200.635 96.6532 201.295C96.1145 201.954 95.8451 202.883 95.8451 204.082C95.8451 205.28 96.1145 206.213 96.6532 206.882C97.2013 207.542 97.963 207.871 98.9383 207.871ZM105.478 209V199.177H108.948C110.564 199.177 111.809 199.6 112.682 200.445C113.564 201.29 114.006 202.502 114.006 204.082C114.006 205.661 113.564 206.877 112.682 207.732C111.809 208.577 110.564 209 108.948 209H105.478ZM106.928 207.788H108.864C111.289 207.788 112.501 206.552 112.501 204.082C112.501 201.62 111.289 200.389 108.864 200.389H106.928V207.788ZM115.942 209V199.177H117.391V209H115.942ZM119.657 209V199.177H120.757L126.387 206.603V199.177H127.724V209H126.651L120.994 201.546V209H119.657ZM134.609 209.125C133.541 209.125 132.64 208.926 131.906 208.526C131.173 208.118 130.615 207.537 130.234 206.785C129.863 206.032 129.677 205.136 129.677 204.095C129.677 203.064 129.868 202.173 130.248 201.42C130.629 200.659 131.182 200.073 131.906 199.665C132.631 199.256 133.499 199.052 134.512 199.052C135.209 199.052 135.854 199.154 136.449 199.358C137.043 199.562 137.54 199.855 137.94 200.236L137.424 201.365C136.978 200.993 136.523 200.728 136.059 200.57C135.594 200.403 135.079 200.32 134.512 200.32C133.425 200.32 132.598 200.649 132.032 201.309C131.465 201.959 131.182 202.888 131.182 204.095C131.182 205.331 131.47 206.269 132.046 206.91C132.631 207.551 133.504 207.871 134.665 207.871C135.371 207.871 136.072 207.755 136.769 207.523V204.89H134.373V203.803H137.981V208.429C137.563 208.633 137.043 208.8 136.421 208.93C135.808 209.06 135.204 209.125 134.609 209.125ZM146.26 209V200.389H142.776V199.177H151.178V200.389H147.695V209H146.26ZM150.317 209L154.692 199.177H155.89L160.279 209H158.802L157.771 206.603H152.797L151.78 209H150.317ZM155.277 200.779L153.312 205.433H157.283L155.305 200.779H155.277ZM164.745 209.125C163.974 209.125 163.268 209.028 162.627 208.833C161.986 208.628 161.442 208.345 160.997 207.983L161.456 206.84C161.921 207.193 162.418 207.458 162.947 207.635C163.477 207.811 164.076 207.899 164.745 207.899C165.534 207.899 166.115 207.76 166.486 207.481C166.867 207.193 167.058 206.822 167.058 206.367C167.058 205.995 166.923 205.702 166.654 205.489C166.384 205.266 165.934 205.089 165.302 204.959L163.811 204.653C162.929 204.467 162.269 204.16 161.833 203.733C161.405 203.306 161.192 202.73 161.192 202.005C161.192 201.42 161.345 200.905 161.651 200.459C161.967 200.013 162.404 199.669 162.961 199.428C163.519 199.177 164.159 199.052 164.884 199.052C165.553 199.052 166.171 199.154 166.737 199.358C167.313 199.553 167.801 199.841 168.2 200.222L167.726 201.323C166.937 200.626 165.985 200.278 164.87 200.278C164.183 200.278 163.635 200.431 163.226 200.738C162.827 201.044 162.627 201.453 162.627 201.964C162.627 202.354 162.752 202.665 163.003 202.897C163.254 203.129 163.672 203.306 164.257 203.427L165.734 203.733C166.663 203.928 167.355 204.23 167.81 204.639C168.265 205.038 168.493 205.582 168.493 206.269C168.493 206.845 168.339 207.347 168.033 207.774C167.726 208.201 167.294 208.536 166.737 208.777C166.18 209.009 165.516 209.125 164.745 209.125ZM170.138 209V199.177H171.587V203.594H171.615L176.171 199.177H177.954L172.994 203.928L178.233 209H176.422L171.615 204.416H171.587V209H170.138Z" fill="white"/>
<path d="M1 203.606L7.51429 208.933L16.2 198.8" stroke="url(#paint5_linear_2_1954)" stroke-width="1.9" stroke-linecap="round"/>
<path d="M36.8302 248V246.788H39.0595V239.849L37.3178 240.936L36.7326 239.863L39.4775 238.177H40.4946V246.788H42.5846V248H36.8302ZM48.3851 248V238.177H49.5973L53.2339 244.963L56.8566 238.177H58.0409V248H56.7451V240.796L53.6659 246.495H52.7881L49.6949 240.824V248H48.3851ZM64.622 248.125C63.6839 248.125 62.8711 247.921 62.1837 247.512C61.4963 247.094 60.9622 246.509 60.5814 245.757C60.2098 244.995 60.024 244.103 60.024 243.082C60.024 242.05 60.2098 241.159 60.5814 240.406C60.9622 239.654 61.4963 239.073 62.1837 238.665C62.8711 238.256 63.6839 238.052 64.622 238.052C65.5509 238.052 66.3591 238.256 67.0464 238.665C67.7431 239.073 68.2772 239.654 68.6488 240.406C69.0296 241.159 69.22 242.046 69.22 243.068C69.22 244.099 69.0296 244.995 68.6488 245.757C68.2772 246.509 67.7431 247.094 67.0464 247.512C66.3591 247.921 65.5509 248.125 64.622 248.125ZM64.622 246.871C65.5974 246.871 66.3544 246.542 66.8932 245.882C67.4412 245.213 67.7152 244.28 67.7152 243.082C67.7152 241.883 67.4459 240.954 66.9071 240.295C66.3683 239.635 65.6067 239.306 64.622 239.306C63.6467 239.306 62.885 239.635 62.337 240.295C61.7982 240.954 61.5288 241.883 61.5288 243.082C61.5288 244.28 61.7982 245.213 62.337 245.882C62.885 246.542 63.6467 246.871 64.622 246.871ZM71.1622 248V238.177H72.2629L77.892 245.603V238.177H79.2296V248H78.1567L72.4998 240.546V248H71.1622ZM83.9135 248V239.389H80.4302V238.177H88.832V239.389H85.3486V248H83.9135ZM90.0348 248V238.177H91.4839V242.413H96.9875V238.177H98.4227V248H96.9875V243.625H91.4839V248H90.0348ZM107.651 248.125C106.88 248.125 106.174 248.028 105.533 247.833C104.892 247.628 104.348 247.345 103.903 246.983L104.362 245.84C104.827 246.193 105.324 246.458 105.853 246.635C106.383 246.811 106.982 246.899 107.651 246.899C108.44 246.899 109.021 246.76 109.392 246.481C109.773 246.193 109.964 245.822 109.964 245.367C109.964 244.995 109.829 244.702 109.56 244.489C109.29 244.266 108.84 244.089 108.208 243.959L106.717 243.653C105.835 243.467 105.175 243.16 104.739 242.733C104.311 242.306 104.098 241.73 104.098 241.005C104.098 240.42 104.251 239.905 104.557 239.459C104.873 239.013 105.31 238.669 105.867 238.428C106.425 238.177 107.065 238.052 107.79 238.052C108.459 238.052 109.077 238.154 109.643 238.358C110.219 238.553 110.707 238.841 111.106 239.222L110.632 240.323C109.843 239.626 108.891 239.278 107.776 239.278C107.089 239.278 106.541 239.431 106.132 239.738C105.733 240.044 105.533 240.453 105.533 240.964C105.533 241.354 105.658 241.665 105.909 241.897C106.16 242.129 106.578 242.306 107.163 242.427L108.64 242.733C109.569 242.928 110.261 243.23 110.716 243.639C111.171 244.038 111.399 244.582 111.399 245.269C111.399 245.845 111.245 246.347 110.939 246.774C110.632 247.201 110.2 247.536 109.643 247.777C109.086 248.009 108.422 248.125 107.651 248.125ZM117.015 248.125C115.705 248.125 114.702 247.782 114.005 247.094C113.318 246.398 112.974 245.381 112.974 244.043V238.177H114.423V244.015C114.423 245.919 115.287 246.871 117.015 246.871C118.743 246.871 119.606 245.919 119.606 244.015V238.177H121.028V244.043C121.028 245.381 120.689 246.398 120.011 247.094C119.332 247.782 118.334 248.125 117.015 248.125ZM123.263 248V238.177H127.331C128.39 238.177 129.207 238.442 129.783 238.971C130.359 239.491 130.647 240.225 130.647 241.173C130.647 242.129 130.359 242.873 129.783 243.402C129.207 243.922 128.39 244.182 127.331 244.182H124.712V248H123.263ZM124.712 243.026H127.122C128.534 243.026 129.24 242.408 129.24 241.173C129.24 239.947 128.534 239.333 127.122 239.333H124.712V243.026ZM132.202 248V238.177H136.271C137.33 238.177 138.147 238.442 138.723 238.971C139.299 239.491 139.587 240.225 139.587 241.173C139.587 242.129 139.299 242.873 138.723 243.402C138.147 243.922 137.33 244.182 136.271 244.182H133.651V248H132.202ZM133.651 243.026H136.062C137.474 243.026 138.18 242.408 138.18 241.173C138.18 239.947 137.474 239.333 136.062 239.333H133.651V243.026ZM145.324 248.125C144.386 248.125 143.573 247.921 142.885 247.512C142.198 247.094 141.664 246.509 141.283 245.757C140.912 244.995 140.726 244.103 140.726 243.082C140.726 242.05 140.912 241.159 141.283 240.406C141.664 239.654 142.198 239.073 142.885 238.665C143.573 238.256 144.386 238.052 145.324 238.052C146.253 238.052 147.061 238.256 147.748 238.665C148.445 239.073 148.979 239.654 149.351 240.406C149.731 241.159 149.922 242.046 149.922 243.068C149.922 244.099 149.731 244.995 149.351 245.757C148.979 246.509 148.445 247.094 147.748 247.512C147.061 247.921 146.253 248.125 145.324 248.125ZM145.324 246.871C146.299 246.871 147.056 246.542 147.595 245.882C148.143 245.213 148.417 244.28 148.417 243.082C148.417 241.883 148.148 240.954 147.609 240.295C147.07 239.635 146.308 239.306 145.324 239.306C144.348 239.306 143.587 239.635 143.039 240.295C142.5 240.954 142.231 241.883 142.231 243.082C142.231 244.28 142.5 245.213 143.039 245.882C143.587 246.542 144.348 246.871 145.324 246.871ZM151.864 248V238.177H155.933C156.991 238.177 157.809 238.432 158.385 238.943C158.961 239.445 159.249 240.151 159.249 241.061C159.249 241.795 159.054 242.399 158.663 242.873C158.273 243.337 157.721 243.648 157.005 243.806C157.451 243.955 157.827 244.312 158.134 244.879L159.834 248H158.245L156.546 244.865C156.351 244.503 156.123 244.261 155.863 244.14C155.612 244.01 155.287 243.945 154.888 243.945H153.313V248H151.864ZM153.313 242.859H155.696C157.126 242.859 157.841 242.269 157.841 241.089C157.841 239.919 157.126 239.333 155.696 239.333H153.313V242.859ZM163.418 248V239.389H159.935V238.177H168.336V239.389H164.853V248H163.418Z" fill="white"/>
<path d="M1 242.606L7.51429 247.933L16.2 237.8" stroke="url(#paint6_linear_2_1954)" stroke-width="1.9" stroke-linecap="round"/>
<defs>
<linearGradient id="paint0_linear_2_1954" x1="2.33317" y1="3.80005" x2="18.2034" y2="6.70837" gradientUnits="userSpaceOnUse">
<stop stop-color="#F79E0E"/>
<stop offset="1" stop-color="#EEBD23"/>
</linearGradient>
<linearGradient id="paint1_linear_2_1954" x1="2.33317" y1="42.8" x2="18.2034" y2="45.7084" gradientUnits="userSpaceOnUse">
<stop stop-color="#F79E0E"/>
<stop offset="1" stop-color="#EEBD23"/>
</linearGradient>
<linearGradient id="paint2_linear_2_1954" x1="2.33317" y1="81.8" x2="18.2034" y2="84.7084" gradientUnits="userSpaceOnUse">
<stop stop-color="#F79E0E"/>
<stop offset="1" stop-color="#EEBD23"/>
</linearGradient>
<linearGradient id="paint3_linear_2_1954" x1="2.33317" y1="120.8" x2="18.2034" y2="123.708" gradientUnits="userSpaceOnUse">
<stop stop-color="#F79E0E"/>
<stop offset="1" stop-color="#EEBD23"/>
</linearGradient>
<linearGradient id="paint4_linear_2_1954" x1="2.33317" y1="159.8" x2="18.2034" y2="162.708" gradientUnits="userSpaceOnUse">
<stop stop-color="#F79E0E"/>
<stop offset="1" stop-color="#EEBD23"/>
</linearGradient>
<linearGradient id="paint5_linear_2_1954" x1="2.33317" y1="198.8" x2="18.2034" y2="201.708" gradientUnits="userSpaceOnUse">
<stop stop-color="#F79E0E"/>
<stop offset="1" stop-color="#EEBD23"/>
</linearGradient>
<linearGradient id="paint6_linear_2_1954" x1="2.33317" y1="237.8" x2="18.2034" y2="240.708" gradientUnits="userSpaceOnUse">
<stop stop-color="#F79E0E"/>
<stop offset="1" stop-color="#EEBD23"/>
</linearGradient>
</defs>
</svg>
