<svg width="260" height="97" viewBox="0 0 260 97" fill="none" xmlns="http://www.w3.org/2000/svg">
<path d="M36.3425 14V4.177H40.411C41.47 4.177 42.2874 4.44173 42.8633 4.9712C43.4392 5.49138 43.7272 6.2252 43.7272 7.17267C43.7272 8.12942 43.4392 8.87253 42.8633 9.402C42.2874 9.92218 41.47 10.1823 40.411 10.1823H37.7916V14H36.3425ZM37.7916 9.0258H40.202C41.6139 9.0258 42.3199 8.40809 42.3199 7.17267C42.3199 5.94653 41.6139 5.33347 40.202 5.33347H37.7916V9.0258ZM45.2821 14V4.177H49.3507C50.4096 4.177 51.227 4.43244 51.8029 4.94333C52.3788 5.44493 52.6668 6.15089 52.6668 7.0612C52.6668 7.79502 52.4717 8.3988 52.0816 8.87253C51.6915 9.33698 51.1388 9.64816 50.4235 9.80607C50.8694 9.95469 51.2456 10.3123 51.5521 10.8789L53.252 14H51.6636L49.9637 10.865C49.7687 10.5027 49.5411 10.2612 49.281 10.1405C49.0302 10.0104 48.7051 9.9454 48.3057 9.9454H46.7312V14H45.2821ZM46.7312 8.8586H49.1138C50.5443 8.8586 51.2595 8.26876 51.2595 7.08907C51.2595 5.91867 50.5443 5.33347 49.1138 5.33347H46.7312V8.8586ZM54.7116 14V4.177H61.0652V5.3474H56.105V8.42667H60.7726V9.59707H56.105V12.8296H61.0652V14H54.7116ZM62.9444 14V4.177H64.1566L67.7932 10.9625L71.4158 4.177H72.6002V14H71.3044V6.79647L68.2251 12.4952H67.3473L64.2541 6.82433V14H62.9444ZM74.9177 14V4.177H76.3667V14H74.9177ZM82.6033 14.1254C81.2936 14.1254 80.2904 13.7817 79.5937 13.0943C78.9064 12.3977 78.5627 11.3805 78.5627 10.0429V4.177H80.0117V10.0151C80.0117 11.9193 80.8756 12.8714 82.6033 12.8714C84.3311 12.8714 85.1949 11.9193 85.1949 10.0151V4.177H86.6161V10.0429C86.6161 11.3805 86.2771 12.3977 85.599 13.0943C84.9209 13.7817 83.9224 14.1254 82.6033 14.1254ZM88.8789 14V4.177H90.0911L93.7277 10.9625L97.3503 4.177H98.5347V14H97.2389V6.79647L94.1596 12.4952H93.2818L90.1886 6.82433V14H88.8789ZM106.909 14V5.3892H103.426V4.177H111.827V5.3892H108.344V14H106.909ZM113.03 14V4.177H114.479V8.41273H119.983V4.177H121.418V14H119.983V9.62493H114.479V14H113.03ZM123.712 14V4.177H130.065V5.3474H125.105V8.42667H129.773V9.59707H125.105V12.8296H130.065V14H123.712ZM131.944 14V4.177H133.157L136.793 10.9625L140.416 4.177H141.6V14H140.304V6.79647L137.225 12.4952H136.347L133.254 6.82433V14H131.944ZM143.918 14V4.177H150.271V5.3474H145.311V8.42667H149.979V9.59707H145.311V12.8296H150.271V14H143.918Z" fill="#6A6A6A"/>
<path d="M1 8.60623L7.51429 13.9334L16.2 3.80005" stroke="url(#paint0_linear_2_1944)" stroke-width="1.9" stroke-linecap="round"/>
<path d="M36.3425 53V43.177H42.5846V44.3474H37.7916V47.4824H42.292V48.6528H37.7916V53H36.3425ZM44.0575 53V43.177H48.1261C49.185 43.177 50.0024 43.4324 50.5783 43.9433C51.1542 44.4449 51.4422 45.1509 51.4422 46.0612C51.4422 46.795 51.2471 47.3988 50.857 47.8725C50.4669 48.337 49.9142 48.6482 49.1989 48.8061C49.6448 48.9547 50.021 49.3123 50.3275 49.8789L52.0274 53H50.439L48.7391 49.865C48.5441 49.5027 48.3165 49.2612 48.0564 49.1405C47.8056 49.0104 47.4805 48.9454 47.0811 48.9454H45.5066V53H44.0575ZM45.5066 47.8586H47.8892C49.3197 47.8586 50.0349 47.2688 50.0349 46.0891C50.0349 44.9187 49.3197 44.3335 47.8892 44.3335H45.5066V47.8586ZM53.487 53V43.177H59.8406V44.3474H54.8803V47.4267H59.548V48.5971H54.8803V51.8296H59.8406V53H53.487ZM61.6919 53V43.177H68.0455V44.3474H63.0852V47.4267H67.7529V48.5971H63.0852V51.8296H68.0455V53H61.6919ZM73.557 53V43.177H77.6534C78.6752 43.177 79.4647 43.4046 80.0221 43.8597C80.5887 44.3056 80.872 44.9326 80.872 45.7407C80.872 46.2702 80.7327 46.7254 80.454 47.1062C80.1753 47.487 79.7945 47.7657 79.3115 47.9422C79.8781 48.0908 80.3193 48.3648 80.6351 48.7643C80.951 49.1637 81.1089 49.6699 81.1089 50.283C81.1089 51.1562 80.8163 51.8296 80.2311 52.3033C79.6552 52.7678 78.8517 53 77.8206 53H73.557ZM74.9503 47.4685H77.4305C78.7866 47.4685 79.4647 46.939 79.4647 45.8801C79.4647 44.8211 78.7866 44.2917 77.4305 44.2917H74.9503V47.4685ZM74.9503 51.8853H77.6534C79.0189 51.8853 79.7016 51.3326 79.7016 50.2273C79.7016 49.1312 79.0189 48.5831 77.6534 48.5831H74.9503V51.8853ZM83.0545 53V43.177H87.1231C88.182 43.177 88.9994 43.4324 89.5753 43.9433C90.1512 44.4449 90.4392 45.1509 90.4392 46.0612C90.4392 46.795 90.2441 47.3988 89.854 47.8725C89.4639 48.337 88.9112 48.6482 88.1959 48.8061C88.6418 48.9547 89.018 49.3123 89.3245 49.8789L91.0244 53H89.436L87.7361 49.865C87.5411 49.5027 87.3135 49.2612 87.0534 49.1405C86.8026 49.0104 86.4775 48.9454 86.0781 48.9454H84.5036V53H83.0545ZM84.5036 47.8586H86.8862C88.3167 47.8586 89.0319 47.2688 89.0319 46.0891C89.0319 44.9187 88.3167 44.3335 86.8862 44.3335H84.5036V47.8586ZM91.3315 53L95.7065 43.177H96.9048L101.294 53H99.8169L98.7858 50.6035H93.8116L92.7945 53H91.3315ZM96.2917 44.7793L94.3271 49.4331H98.2981L96.3196 44.7793H96.2917ZM102.58 53V43.177H103.681L109.31 50.6035V43.177H110.648V53H109.575L103.918 45.5457V53H102.58ZM112.935 53V43.177H116.404C118.021 43.177 119.265 43.5996 120.139 44.4449C121.021 45.2902 121.462 46.5024 121.462 48.0815C121.462 49.6606 121.021 50.8775 120.139 51.7321C119.265 52.5774 118.021 53 116.404 53H112.935ZM114.384 51.7878H116.321C118.745 51.7878 119.957 50.5524 119.957 48.0815C119.957 45.62 118.745 44.3892 116.321 44.3892H114.384V51.7878ZM123.399 53V43.177H129.752V44.3474H124.792V47.4267H129.46V48.5971H124.792V51.8296H129.752V53H123.399ZM131.603 53V43.177H135.073C136.689 43.177 137.934 43.5996 138.807 44.4449C139.689 45.2902 140.131 46.5024 140.131 48.0815C140.131 49.6606 139.689 50.8775 138.807 51.7321C137.934 52.5774 136.689 53 135.073 53H131.603ZM133.053 51.7878H134.989C137.414 51.7878 138.626 50.5524 138.626 48.0815C138.626 45.62 137.414 44.3892 134.989 44.3892H133.053V51.7878ZM145.727 53V43.177H147.176V51.7599H152.039V53H145.727ZM157.162 53.1254C156.224 53.1254 155.411 52.921 154.723 52.5123C154.036 52.0943 153.502 51.5091 153.121 50.7567C152.749 49.995 152.564 49.1033 152.564 48.0815C152.564 47.0505 152.749 46.1587 153.121 45.4063C153.502 44.6539 154.036 44.0734 154.723 43.6647C155.411 43.256 156.224 43.0516 157.162 43.0516C158.091 43.0516 158.899 43.256 159.586 43.6647C160.283 44.0734 160.817 44.6539 161.188 45.4063C161.569 46.1587 161.76 47.0458 161.76 48.0676C161.76 49.0987 161.569 49.995 161.188 50.7567C160.817 51.5091 160.283 52.0943 159.586 52.5123C158.899 52.921 158.091 53.1254 157.162 53.1254ZM157.162 51.8714C158.137 51.8714 158.894 51.5416 159.433 50.8821C159.981 50.2133 160.255 49.2798 160.255 48.0815C160.255 46.8833 159.986 45.9544 159.447 45.2949C158.908 44.6354 158.146 44.3056 157.162 44.3056C156.186 44.3056 155.425 44.6354 154.877 45.2949C154.338 45.9544 154.068 46.8833 154.068 48.0815C154.068 49.2798 154.338 50.2133 154.877 50.8821C155.425 51.5416 156.186 51.8714 157.162 51.8714ZM168.3 53.1254C167.232 53.1254 166.331 52.9257 165.597 52.5263C164.863 52.1176 164.306 51.537 163.925 50.7846C163.553 50.0322 163.367 49.1358 163.367 48.0955C163.367 47.0644 163.558 46.1727 163.939 45.4203C164.32 44.6586 164.872 44.0734 165.597 43.6647C166.321 43.256 167.19 43.0516 168.202 43.0516C168.899 43.0516 169.545 43.1538 170.139 43.3581C170.734 43.5625 171.231 43.8551 171.63 44.2359L171.114 45.3645C170.669 44.993 170.213 44.7282 169.749 44.5703C169.284 44.4031 168.769 44.3195 168.202 44.3195C167.116 44.3195 166.289 44.6493 165.722 45.3088C165.156 45.959 164.872 46.8879 164.872 48.0955C164.872 49.3309 165.16 50.2691 165.736 50.91C166.321 51.5509 167.194 51.8714 168.356 51.8714C169.062 51.8714 169.763 51.7553 170.46 51.5231V48.8897H168.063V47.8029H171.672V52.4287C171.254 52.6331 170.734 52.8003 170.111 52.9303C169.498 53.0604 168.894 53.1254 168.3 53.1254ZM178.157 53.1254C177.219 53.1254 176.406 52.921 175.719 52.5123C175.031 52.0943 174.497 51.5091 174.116 50.7567C173.745 49.995 173.559 49.1033 173.559 48.0815C173.559 47.0505 173.745 46.1587 174.116 45.4063C174.497 44.6539 175.031 44.0734 175.719 43.6647C176.406 43.256 177.219 43.0516 178.157 43.0516C179.086 43.0516 179.894 43.256 180.581 43.6647C181.278 44.0734 181.812 44.6539 182.184 45.4063C182.565 46.1587 182.755 47.0458 182.755 48.0676C182.755 49.0987 182.565 49.995 182.184 50.7567C181.812 51.5091 181.278 52.0943 180.581 52.5123C179.894 52.921 179.086 53.1254 178.157 53.1254ZM178.157 51.8714C179.132 51.8714 179.889 51.5416 180.428 50.8821C180.976 50.2133 181.25 49.2798 181.25 48.0815C181.25 46.8833 180.981 45.9544 180.442 45.2949C179.903 44.6354 179.142 44.3056 178.157 44.3056C177.182 44.3056 176.42 44.6354 175.872 45.2949C175.333 45.9544 175.064 46.8833 175.064 48.0815C175.064 49.2798 175.333 50.2133 175.872 50.8821C176.42 51.5416 177.182 51.8714 178.157 51.8714ZM191.297 53.1254C190.285 53.1254 189.491 52.8932 188.915 52.4287C188.339 51.9643 188.051 51.3466 188.051 50.5756C188.051 49.944 188.223 49.3959 188.566 48.9315C188.91 48.467 189.412 48.0304 190.071 47.6217L190.238 47.5242C189.839 47.1062 189.556 46.7254 189.388 46.3817C189.23 46.0287 189.152 45.6664 189.152 45.2949C189.152 44.6261 189.384 44.0873 189.848 43.6786C190.313 43.2606 190.93 43.0516 191.701 43.0516C192.398 43.0516 192.96 43.2374 193.387 43.6089C193.815 43.9805 194.028 44.4821 194.028 45.1137C194.028 45.5968 193.884 46.0473 193.596 46.4653C193.318 46.874 192.83 47.2966 192.133 47.7332L194.237 50.0461C194.423 49.6653 194.572 49.2287 194.683 48.7364C194.795 48.2348 194.864 47.7146 194.892 47.1759H196.076C196.058 47.8911 195.96 48.5692 195.784 49.2101C195.607 49.8418 195.37 50.4038 195.073 50.8961L197.094 53H195.38L194.321 51.8435C193.931 52.2522 193.476 52.5681 192.955 52.791C192.435 53.0139 191.882 53.1254 191.297 53.1254ZM191.701 44.0827C191.33 44.0827 191.028 44.1941 190.796 44.4171C190.573 44.6307 190.461 44.914 190.461 45.267C190.461 45.5364 190.522 45.7825 190.642 46.0055C190.772 46.2284 191.009 46.5349 191.353 46.9251C191.892 46.5907 192.273 46.2934 192.496 46.0333C192.718 45.7732 192.83 45.4853 192.83 45.1695C192.83 44.8258 192.723 44.561 192.509 44.3753C192.305 44.1802 192.036 44.0827 191.701 44.0827ZM191.367 51.9968C192.24 51.9968 192.96 51.6763 193.527 51.0354L191.005 48.3463L190.921 48.402C190.382 48.7457 190.001 49.0708 189.779 49.3773C189.556 49.6746 189.444 50.0368 189.444 50.4641C189.444 50.9472 189.607 51.3234 189.932 51.5927C190.266 51.8621 190.745 51.9968 191.367 51.9968ZM201.882 53V43.177H205.979C207.001 43.177 207.79 43.4046 208.348 43.8597C208.914 44.3056 209.197 44.9326 209.197 45.7407C209.197 46.2702 209.058 46.7254 208.779 47.1062C208.501 47.487 208.12 47.7657 207.637 47.9422C208.204 48.0908 208.645 48.3648 208.961 48.7643C209.276 49.1637 209.434 49.6699 209.434 50.283C209.434 51.1562 209.142 51.8296 208.557 52.3033C207.981 52.7678 207.177 53 206.146 53H201.882ZM203.276 47.4685H205.756C207.112 47.4685 207.79 46.939 207.79 45.8801C207.79 44.8211 207.112 44.2917 205.756 44.2917H203.276V47.4685ZM203.276 51.8853H205.979C207.344 51.8853 208.027 51.3326 208.027 50.2273C208.027 49.1312 207.344 48.5831 205.979 48.5831H203.276V51.8853ZM210.309 53L214.684 43.177H215.882L220.271 53H218.794L217.763 50.6035H212.789L211.772 53H210.309ZM215.269 44.7793L213.305 49.4331H217.276L215.297 44.7793H215.269ZM221.558 53V43.177H222.659L228.288 50.6035V43.177H229.625V53H228.552L222.895 45.5457V53H221.558ZM231.913 53V43.177H233.013L238.642 50.6035V43.177H239.98V53H238.907L233.25 45.5457V53H231.913ZM242.267 53V43.177H248.621V44.3474H243.661V47.4267H248.328V48.5971H243.661V51.8296H248.621V53H242.267ZM250.472 53V43.177H254.541C255.6 43.177 256.417 43.4324 256.993 43.9433C257.569 44.4449 257.857 45.1509 257.857 46.0612C257.857 46.795 257.662 47.3988 257.272 47.8725C256.882 48.337 256.329 48.6482 255.614 48.8061C256.059 48.9547 256.436 49.3123 256.742 49.8789L258.442 53H256.854L255.154 49.865C254.959 49.5027 254.731 49.2612 254.471 49.1405C254.22 49.0104 253.895 48.9454 253.496 48.9454H251.921V53H250.472ZM251.921 47.8586H254.304C255.734 47.8586 256.45 47.2688 256.45 46.0891C256.45 44.9187 255.734 44.3335 254.304 44.3335H251.921V47.8586Z" fill="#6A6A6A"/>
<path d="M1 47.6062L7.51429 52.9334L16.2 42.8" stroke="url(#paint1_linear_2_1944)" stroke-width="1.9" stroke-linecap="round"/>
<path d="M39.5332 92.1254C38.9016 92.1254 38.2885 92.0279 37.694 91.8328C37.1088 91.6284 36.6212 91.3451 36.231 90.9829L36.7187 89.8682C37.5733 90.5556 38.5022 90.8993 39.5054 90.8993C40.1463 90.8993 40.6479 90.7274 41.0102 90.3837C41.3724 90.0308 41.5536 89.571 41.5536 89.0043C41.5536 88.4191 41.3817 87.9408 41.038 87.5692C40.6943 87.1976 40.216 87.0119 39.6029 87.0119C38.739 87.0119 38.047 87.3695 37.5268 88.0847H36.5236V82.177H42.3756V83.3892H37.9309V86.4963C38.4511 86.0412 39.1106 85.8136 39.9094 85.8136C40.5318 85.8136 41.0705 85.9436 41.5257 86.2037C41.9808 86.4638 42.3338 86.8307 42.5846 87.3045C42.8354 87.7689 42.9608 88.3123 42.9608 88.9347C42.9608 89.5663 42.8215 90.1236 42.5428 90.6067C42.2642 91.0804 41.8694 91.452 41.3585 91.7213C40.8476 91.9907 40.2392 92.1254 39.5332 92.1254ZM50.7538 92V83.3892H47.2705V82.177H55.6723V83.3892H52.1889V92H50.7538ZM56.8751 92V82.177H60.9436C62.0026 82.177 62.82 82.4324 63.3959 82.9433C63.9718 83.4449 64.2598 84.1509 64.2598 85.0612C64.2598 85.795 64.0647 86.3988 63.6746 86.8725C63.2844 87.337 62.7317 87.6482 62.0165 87.8061C62.4624 87.9547 62.8386 88.3123 63.1451 88.8789L64.845 92H63.2566L61.5567 88.865C61.3616 88.5027 61.1341 88.2612 60.874 88.1405C60.6232 88.0104 60.2981 87.9454 59.8986 87.9454H58.3242V92H56.8751ZM58.3242 86.8586H60.7068C62.1373 86.8586 62.8525 86.2688 62.8525 85.0891C62.8525 83.9187 62.1373 83.3335 60.7068 83.3335H58.3242V86.8586ZM66.3046 92V82.177H72.6582V83.3474H67.6979V86.4267H72.3656V87.5971H67.6979V90.8296H72.6582V92H66.3046ZM74.5095 92V82.177H75.6102L81.2393 89.6035V82.177H82.5769V92H81.504L75.8471 84.5457V92H74.5095ZM84.8642 92V82.177H88.3336C89.9499 82.177 91.1946 82.5996 92.0678 83.4449C92.9502 84.2902 93.3914 85.5024 93.3914 87.0815C93.3914 88.6606 92.9502 89.8775 92.0678 90.7321C91.1946 91.5774 89.9499 92 88.3336 92H84.8642ZM86.3133 90.7878H88.25C90.6744 90.7878 91.8866 89.5524 91.8866 87.0815C91.8866 84.62 90.6744 83.3892 88.25 83.3892H86.3133V90.7878ZM95.3278 92V82.177H96.7769V92H95.3278ZM99.0425 92V82.177H100.143L105.772 89.6035V82.177H107.11V92H106.037L100.38 84.5457V92H99.0425ZM113.995 92.1254C112.927 92.1254 112.026 91.9257 111.292 91.5263C110.558 91.1176 110.001 90.537 109.62 89.7846C109.249 89.0322 109.063 88.1358 109.063 87.0955C109.063 86.0644 109.253 85.1727 109.634 84.4203C110.015 83.6586 110.568 83.0734 111.292 82.6647C112.017 82.256 112.885 82.0516 113.898 82.0516C114.594 82.0516 115.24 82.1538 115.834 82.3581C116.429 82.5625 116.926 82.8551 117.325 83.2359L116.81 84.3645C116.364 83.993 115.909 83.7282 115.444 83.5703C114.98 83.4031 114.464 83.3195 113.898 83.3195C112.811 83.3195 111.984 83.6493 111.418 84.3088C110.851 84.959 110.568 85.8879 110.568 87.0955C110.568 88.3309 110.856 89.2691 111.431 89.91C112.017 90.5509 112.89 90.8714 114.051 90.8714C114.757 90.8714 115.458 90.7553 116.155 90.5231V87.8897H113.758V86.8029H117.367V91.4287C116.949 91.6331 116.429 91.8003 115.807 91.9303C115.194 92.0604 114.59 92.1254 113.995 92.1254ZM123.249 92V82.177H127.317C128.376 82.177 129.194 82.4417 129.77 82.9712C130.346 83.4914 130.634 84.2252 130.634 85.1727C130.634 86.1294 130.346 86.8725 129.77 87.402C129.194 87.9222 128.376 88.1823 127.317 88.1823H124.698V92H123.249ZM124.698 87.0258H127.108C128.52 87.0258 129.226 86.4081 129.226 85.1727C129.226 83.9465 128.52 83.3335 127.108 83.3335H124.698V87.0258ZM132.189 92V82.177H136.257C137.316 82.177 138.133 82.4324 138.709 82.9433C139.285 83.4449 139.573 84.1509 139.573 85.0612C139.573 85.795 139.378 86.3988 138.988 86.8725C138.598 87.337 138.045 87.6482 137.33 87.8061C137.776 87.9547 138.152 88.3123 138.459 88.8789L140.158 92H138.57L136.87 88.865C136.675 88.5027 136.448 88.2612 136.187 88.1405C135.937 88.0104 135.612 87.9454 135.212 87.9454H133.638V92H132.189ZM133.638 86.8586H136.02C137.451 86.8586 138.166 86.2688 138.166 85.0891C138.166 83.9187 137.451 83.3335 136.02 83.3335H133.638V86.8586ZM145.814 92.1254C144.875 92.1254 144.063 91.921 143.375 91.5123C142.688 91.0943 142.154 90.5091 141.773 89.7567C141.401 88.995 141.216 88.1033 141.216 87.0815C141.216 86.0505 141.401 85.1587 141.773 84.4063C142.154 83.6539 142.688 83.0734 143.375 82.6647C144.063 82.256 144.875 82.0516 145.814 82.0516C146.743 82.0516 147.551 82.256 148.238 82.6647C148.935 83.0734 149.469 83.6539 149.84 84.4063C150.221 85.1587 150.412 86.0458 150.412 87.0676C150.412 88.0987 150.221 88.995 149.84 89.7567C149.469 90.5091 148.935 91.0943 148.238 91.5123C147.551 91.921 146.743 92.1254 145.814 92.1254ZM145.814 90.8714C146.789 90.8714 147.546 90.5416 148.085 89.8821C148.633 89.2133 148.907 88.2798 148.907 87.0815C148.907 85.8833 148.637 84.9544 148.099 84.2949C147.56 83.6354 146.798 83.3056 145.814 83.3056C144.838 83.3056 144.077 83.6354 143.529 84.2949C142.99 84.9544 142.72 85.8833 142.72 87.0815C142.72 88.2798 142.99 89.2133 143.529 89.8821C144.077 90.5416 144.838 90.8714 145.814 90.8714ZM152.354 92V82.177H155.823C157.439 82.177 158.684 82.5996 159.557 83.4449C160.44 84.2902 160.881 85.5024 160.881 87.0815C160.881 88.6606 160.44 89.8775 159.557 90.7321C158.684 91.5774 157.439 92 155.823 92H152.354ZM153.803 90.7878H155.74C158.164 90.7878 159.376 89.5524 159.376 87.0815C159.376 84.62 158.164 83.3892 155.74 83.3892H153.803V90.7878ZM166.788 92.1254C165.479 92.1254 164.475 91.7817 163.779 91.0943C163.091 90.3977 162.748 89.3805 162.748 88.0429V82.177H164.197V88.0151C164.197 89.9193 165.061 90.8714 166.788 90.8714C168.516 90.8714 169.38 89.9193 169.38 88.0151V82.177H170.801V88.0429C170.801 89.3805 170.462 90.3977 169.784 91.0943C169.106 91.7817 168.107 92.1254 166.788 92.1254ZM177.439 92.1254C176.445 92.1254 175.595 91.921 174.889 91.5123C174.183 91.1036 173.64 90.5231 173.259 89.7707C172.887 89.009 172.702 88.1126 172.702 87.0815C172.702 86.0505 172.887 85.1587 173.259 84.4063C173.64 83.6539 174.183 83.0734 174.889 82.6647C175.595 82.256 176.445 82.0516 177.439 82.0516C178.108 82.0516 178.73 82.1584 179.306 82.3721C179.891 82.5764 180.379 82.8737 180.769 83.2638L180.268 84.4203C179.84 84.0394 179.399 83.7654 178.944 83.5982C178.498 83.4217 178.01 83.3335 177.481 83.3335C176.422 83.3335 175.614 83.6586 175.056 84.3088C174.499 84.959 174.22 85.8833 174.22 87.0815C174.22 88.2798 174.499 89.2087 175.056 89.8682C175.614 90.5184 176.422 90.8435 177.481 90.8435C178.01 90.8435 178.498 90.7599 178.944 90.5927C179.399 90.4162 179.84 90.1376 180.268 89.7567L180.769 90.9132C180.379 91.294 179.891 91.5913 179.306 91.8049C178.73 92.0186 178.108 92.1254 177.439 92.1254ZM184.712 92V83.3892H181.229V82.177H189.631V83.3892H186.148V92H184.712ZM193.768 92.1254C192.997 92.1254 192.291 92.0279 191.65 91.8328C191.009 91.6284 190.466 91.3451 190.02 90.9829L190.48 89.8403C190.944 90.1933 191.441 90.458 191.971 90.6345C192.5 90.811 193.099 90.8993 193.768 90.8993C194.557 90.8993 195.138 90.7599 195.51 90.4813C195.89 90.1933 196.081 89.8218 196.081 89.3666C196.081 88.995 195.946 88.7024 195.677 88.4888C195.407 88.2659 194.957 88.0894 194.325 87.9593L192.834 87.6528C191.952 87.467 191.292 87.1605 190.856 86.7332C190.429 86.3059 190.215 85.73 190.215 85.0055C190.215 84.4203 190.368 83.9047 190.675 83.4589C190.991 83.013 191.427 82.6693 191.984 82.4278C192.542 82.177 193.183 82.0516 193.907 82.0516C194.576 82.0516 195.194 82.1538 195.76 82.3581C196.336 82.5532 196.824 82.8412 197.223 83.222L196.75 84.3227C195.96 83.6261 195.008 83.2777 193.893 83.2777C193.206 83.2777 192.658 83.431 192.249 83.7375C191.85 84.0441 191.65 84.4528 191.65 84.9637C191.65 85.3538 191.775 85.665 192.026 85.8972C192.277 86.1294 192.695 86.3059 193.28 86.4267L194.757 86.7332C195.686 86.9283 196.378 87.2302 196.833 87.6389C197.288 88.0383 197.516 88.5817 197.516 89.2691C197.516 89.845 197.363 90.3466 197.056 90.7739C196.75 91.2012 196.318 91.5356 195.76 91.7771C195.203 92.0093 194.539 92.1254 193.768 92.1254Z" fill="#6A6A6A"/>
<path d="M1 86.6062L7.51429 91.9334L16.2 81.8" stroke="url(#paint2_linear_2_1944)" stroke-width="1.9" stroke-linecap="round"/>
<defs>
<linearGradient id="paint0_linear_2_1944" x1="2.33317" y1="3.80005" x2="18.2034" y2="6.70837" gradientUnits="userSpaceOnUse">
<stop stop-color="#F79E0E"/>
<stop offset="1" stop-color="#EEBD23"/>
</linearGradient>
<linearGradient id="paint1_linear_2_1944" x1="2.33317" y1="42.8" x2="18.2034" y2="45.7084" gradientUnits="userSpaceOnUse">
<stop stop-color="#F79E0E"/>
<stop offset="1" stop-color="#EEBD23"/>
</linearGradient>
<linearGradient id="paint2_linear_2_1944" x1="2.33317" y1="81.8" x2="18.2034" y2="84.7084" gradientUnits="userSpaceOnUse">
<stop stop-color="#F79E0E"/>
<stop offset="1" stop-color="#EEBD23"/>
</linearGradient>
</defs>
</svg>
