<svg width="100" height="15" viewBox="0 0 100 15" fill="none" xmlns="http://www.w3.org/2000/svg">
<path d="M28.7594 11V3.245H29.9034V10.021H33.7424V11H28.7594ZM36.986 11.099C36.4434 11.099 35.974 10.9853 35.578 10.758C35.182 10.5307 34.874 10.2117 34.654 9.801C34.4414 9.383 34.335 8.888 34.335 8.316C34.335 7.744 34.4414 7.25267 34.654 6.842C34.874 6.424 35.182 6.10133 35.578 5.874C35.974 5.64667 36.4434 5.533 36.986 5.533C37.514 5.533 37.976 5.64667 38.372 5.874C38.768 6.10133 39.076 6.424 39.296 6.842C39.516 7.25267 39.626 7.744 39.626 8.316C39.626 8.888 39.516 9.383 39.296 9.801C39.076 10.2117 38.768 10.5307 38.372 10.758C37.976 10.9853 37.514 11.099 36.986 11.099ZM36.986 10.241C37.4407 10.241 37.8074 10.076 38.086 9.746C38.3647 9.416 38.504 8.93933 38.504 8.316C38.504 7.69267 38.3647 7.21967 38.086 6.897C37.8074 6.567 37.4407 6.402 36.986 6.402C36.524 6.402 36.1537 6.567 35.875 6.897C35.5964 7.21967 35.457 7.69267 35.457 8.316C35.457 8.93933 35.5964 9.416 35.875 9.746C36.1537 10.076 36.524 10.241 36.986 10.241ZM40.8738 11V5.632H41.9518V6.589C42.2304 5.951 42.8098 5.59533 43.6898 5.522L44.0528 5.5L44.1298 6.446L43.4588 6.512C42.4834 6.60733 41.9958 7.10967 41.9958 8.019V11H40.8738ZM47.4211 11.099C46.5411 11.099 45.8481 10.8533 45.3421 10.362C44.8361 9.86333 44.5831 9.185 44.5831 8.327C44.5831 7.777 44.6931 7.293 44.9131 6.875C45.1404 6.44967 45.4521 6.11967 45.8481 5.885C46.2441 5.65033 46.6988 5.533 47.2121 5.533C47.9528 5.533 48.5358 5.77133 48.9611 6.248C49.3864 6.71733 49.5991 7.36633 49.5991 8.195V8.569H45.6611C45.7418 9.68367 46.3321 10.241 47.4321 10.241C47.7401 10.241 48.0408 10.1933 48.3341 10.098C48.6348 10.0027 48.9171 9.845 49.1811 9.625L49.5111 10.395C49.2691 10.615 48.9574 10.7873 48.5761 10.912C48.1948 11.0367 47.8098 11.099 47.4211 11.099ZM47.2561 6.314C46.7941 6.314 46.4274 6.457 46.1561 6.743C45.8848 7.029 45.7198 7.41033 45.6611 7.887H48.6641C48.6421 7.38833 48.5101 7.00333 48.2681 6.732C48.0261 6.45333 47.6888 6.314 47.2561 6.314ZM50.8323 11V5.632H51.9103V6.501C52.0716 6.193 52.2953 5.95467 52.5813 5.786C52.8673 5.61733 53.201 5.533 53.5823 5.533C54.4036 5.533 54.9353 5.89233 55.1773 6.611C55.346 6.27367 55.588 6.00967 55.9033 5.819C56.2186 5.62833 56.578 5.533 56.9813 5.533C58.184 5.533 58.7853 6.25167 58.7853 7.689V11H57.6743V7.744C57.6743 7.28933 57.5936 6.95567 57.4323 6.743C57.2783 6.53033 57.0216 6.424 56.6623 6.424C56.259 6.424 55.94 6.567 55.7053 6.853C55.4706 7.13167 55.3533 7.513 55.3533 7.997V11H54.2423V7.744C54.2423 7.28933 54.1653 6.95567 54.0113 6.743C53.8573 6.53033 53.6006 6.424 53.2413 6.424C52.838 6.424 52.519 6.567 52.2843 6.853C52.057 7.13167 51.9433 7.513 51.9433 7.997V11H50.8323ZM63.3493 11V3.245H64.4933V11H63.3493ZM66.1609 12.98V5.632H67.2499V6.545C67.4039 6.237 67.6385 5.99133 67.9539 5.808C68.2692 5.62467 68.6322 5.533 69.0429 5.533C69.5195 5.533 69.9339 5.64667 70.2859 5.874C70.6452 6.10133 70.9202 6.424 71.1109 6.842C71.3089 7.25267 71.4079 7.744 71.4079 8.316C71.4079 8.888 71.3089 9.383 71.1109 9.801C70.9202 10.219 70.6452 10.5417 70.2859 10.769C69.9339 10.989 69.5195 11.099 69.0429 11.099C68.6469 11.099 68.2912 11.0147 67.9759 10.846C67.6679 10.67 67.4332 10.4317 67.2719 10.131V12.98H66.1609ZM68.7679 10.241C69.2299 10.241 69.5965 10.076 69.8679 9.746C70.1465 9.416 70.2859 8.93933 70.2859 8.316C70.2859 7.69267 70.1465 7.21967 69.8679 6.897C69.5965 6.567 69.2299 6.402 68.7679 6.402C68.3059 6.402 67.9355 6.567 67.6569 6.897C67.3855 7.21967 67.2499 7.69267 67.2499 8.316C67.2499 8.93933 67.3855 9.416 67.6569 9.746C67.9355 10.076 68.3059 10.241 68.7679 10.241ZM74.5739 11.099C73.2759 11.099 72.6269 10.3767 72.6269 8.932V5.632H73.7379V8.943C73.7379 9.37567 73.8259 9.69467 74.0019 9.9C74.1779 10.1053 74.4566 10.208 74.8379 10.208C75.2559 10.208 75.5932 10.0687 75.8499 9.79C76.1139 9.51133 76.2459 9.13733 76.2459 8.668V5.632H77.3569V11H76.2789V10.142C76.1029 10.4573 75.8682 10.6957 75.5749 10.857C75.2816 11.0183 74.9479 11.099 74.5739 11.099ZM80.8036 11.099C80.3636 11.099 79.9529 11.044 79.5716 10.934C79.1903 10.8167 78.8713 10.6553 78.6146 10.45L78.9336 9.702C79.2049 9.89267 79.5019 10.0393 79.8246 10.142C80.1546 10.2447 80.4846 10.296 80.8146 10.296C81.2033 10.296 81.4966 10.2263 81.6946 10.087C81.8926 9.94767 81.9916 9.76067 81.9916 9.526C81.9916 9.33533 81.9256 9.18867 81.7936 9.086C81.6616 8.976 81.4636 8.89167 81.1996 8.833L80.1546 8.624C79.2306 8.43333 78.7686 7.95667 78.7686 7.194C78.7686 6.688 78.9703 6.28467 79.3736 5.984C79.7769 5.68333 80.3049 5.533 80.9576 5.533C81.3316 5.533 81.6873 5.588 82.0246 5.698C82.3693 5.808 82.6553 5.973 82.8826 6.193L82.5636 6.941C82.3436 6.75033 82.0906 6.60367 81.8046 6.501C81.5186 6.39833 81.2363 6.347 80.9576 6.347C80.5763 6.347 80.2866 6.42033 80.0886 6.567C79.8906 6.70633 79.7916 6.897 79.7916 7.139C79.7916 7.50567 80.0336 7.74033 80.5176 7.843L81.5626 8.052C82.0393 8.14733 82.3986 8.30867 82.6406 8.536C82.8899 8.76333 83.0146 9.07133 83.0146 9.46C83.0146 9.97333 82.8129 10.3767 82.4096 10.67C82.0063 10.956 81.4709 11.099 80.8036 11.099ZM86.1647 11.099C84.8667 11.099 84.2177 10.3767 84.2177 8.932V5.632H85.3287V8.943C85.3287 9.37567 85.4167 9.69467 85.5927 9.9C85.7687 10.1053 86.0474 10.208 86.4287 10.208C86.8467 10.208 87.1841 10.0687 87.4407 9.79C87.7047 9.51133 87.8367 9.13733 87.8367 8.668V5.632H88.9477V11H87.8697V10.142C87.6937 10.4573 87.4591 10.6957 87.1657 10.857C86.8724 11.0183 86.5387 11.099 86.1647 11.099ZM90.5354 11V5.632H91.6134V6.501C91.7748 6.193 91.9984 5.95467 92.2844 5.786C92.5704 5.61733 92.9041 5.533 93.2854 5.533C94.1068 5.533 94.6384 5.89233 94.8804 6.611C95.0491 6.27367 95.2911 6.00967 95.6064 5.819C95.9218 5.62833 96.2811 5.533 96.6844 5.533C97.8871 5.533 98.4884 6.25167 98.4884 7.689V11H97.3774V7.744C97.3774 7.28933 97.2968 6.95567 97.1354 6.743C96.9814 6.53033 96.7248 6.424 96.3654 6.424C95.9621 6.424 95.6431 6.567 95.4084 6.853C95.1738 7.13167 95.0564 7.513 95.0564 7.997V11H93.9454V7.744C93.9454 7.28933 93.8684 6.95567 93.7144 6.743C93.5604 6.53033 93.3038 6.424 92.9444 6.424C92.5411 6.424 92.2221 6.567 91.9874 6.853C91.7601 7.13167 91.6464 7.513 91.6464 7.997V11H90.5354Z" fill="#262626"/>
<path d="M0.857422 6.79436L6.00028 11L12.8574 3" stroke="url(#paint0_linear_2_1488)" stroke-width="1.5" stroke-linecap="round"/>
<defs>
<linearGradient id="paint0_linear_2_1488" x1="1.90993" y1="3" x2="14.439" y2="5.29605" gradientUnits="userSpaceOnUse">
<stop stop-color="#F79E0E"/>
<stop offset="1" stop-color="#EEBD23"/>
</linearGradient>
</defs>
</svg>
