<svg width="260" height="292" viewBox="0 0 260 292" fill="none" xmlns="http://www.w3.org/2000/svg">
<path d="M40.3135 14.1254C39.0038 14.1254 38.0006 13.7817 37.3039 13.0943C36.6165 12.3977 36.2728 11.3805 36.2728 10.0429V4.177H37.7219V10.0151C37.7219 11.9193 38.5858 12.8714 40.3135 12.8714C42.0412 12.8714 42.9051 11.9193 42.9051 10.0151V4.177H44.3263V10.0429C44.3263 11.3805 43.9872 12.3977 43.3092 13.0943C42.6311 13.7817 41.6325 14.1254 40.3135 14.1254ZM46.5612 14V4.177H47.6619L53.291 11.6035V4.177H54.6286V14H53.5557L47.8988 6.54567V14H46.5612ZM56.9159 14V4.177H58.365V14H56.9159ZM67.5833 16.8703L66.3293 14.8499C66.0321 14.3669 65.549 14.1254 64.8802 14.1254C63.9513 14.1254 63.1432 13.921 62.4558 13.5123C61.7685 13.0943 61.2343 12.5091 60.8535 11.7567C60.4819 10.995 60.2962 10.1033 60.2962 9.08153C60.2962 8.05047 60.4819 7.15873 60.8535 6.40633C61.2343 5.65393 61.7685 5.07338 62.4558 4.66467C63.1432 4.25596 63.956 4.0516 64.8942 4.0516C65.8231 4.0516 66.6312 4.25596 67.3186 4.66467C68.0152 5.07338 68.5493 5.65393 68.9209 6.40633C69.3017 7.15873 69.4922 8.04582 69.4922 9.0676C69.4922 10.2287 69.2507 11.218 68.7676 12.0354C68.2939 12.8435 67.639 13.4241 66.803 13.7771C67.1839 13.8978 67.5229 14.2136 67.8202 14.7245L68.7955 16.2711L67.5833 16.8703ZM64.8942 12.8714C65.8695 12.8714 66.6265 12.5416 67.1653 11.8821C67.7133 11.2133 67.9874 10.2798 67.9874 9.08153C67.9874 7.88327 67.718 6.95438 67.1792 6.29487C66.6405 5.63536 65.8788 5.3056 64.8942 5.3056C63.9188 5.3056 63.1571 5.63536 62.6091 6.29487C62.0703 6.95438 61.801 7.88327 61.801 9.08153C61.801 10.2798 62.0703 11.2133 62.6091 11.8821C63.1571 12.5416 63.9188 12.8714 64.8942 12.8714ZM75.4053 14.1254C74.0956 14.1254 73.0924 13.7817 72.3957 13.0943C71.7084 12.3977 71.3647 11.3805 71.3647 10.0429V4.177H72.8137V10.0151C72.8137 11.9193 73.6776 12.8714 75.4053 12.8714C77.1331 12.8714 77.9969 11.9193 77.9969 10.0151V4.177H79.4181V10.0429C79.4181 11.3805 79.0791 12.3977 78.401 13.0943C77.7229 13.7817 76.7244 14.1254 75.4053 14.1254ZM81.653 14V4.177H88.0066V5.3474H83.0464V8.42667H87.714V9.59707H83.0464V12.8296H88.0066V14H81.653ZM93.5181 14V4.177H97.5867C98.6456 4.177 99.463 4.44173 100.039 4.9712C100.615 5.49138 100.903 6.2252 100.903 7.17267C100.903 8.12942 100.615 8.87253 100.039 9.402C99.463 9.92218 98.6456 10.1823 97.5867 10.1823H94.9672V14H93.5181ZM94.9672 9.0258H97.3777C98.7896 9.0258 99.4955 8.40809 99.4955 7.17267C99.4955 5.94653 98.7896 5.33347 97.3777 5.33347H94.9672V9.0258ZM102.458 14V4.177H106.526C107.585 4.177 108.403 4.43244 108.979 4.94333C109.554 5.44493 109.842 6.15089 109.842 7.0612C109.842 7.79502 109.647 8.3988 109.257 8.87253C108.867 9.33698 108.314 9.64816 107.599 9.80607C108.045 9.95469 108.421 10.3123 108.728 10.8789L110.428 14H108.839L107.139 10.865C106.944 10.5027 106.717 10.2612 106.457 10.1405C106.206 10.0104 105.881 9.9454 105.481 9.9454H103.907V14H102.458ZM103.907 8.8586H106.289C107.72 8.8586 108.435 8.26876 108.435 7.08907C108.435 5.91867 107.72 5.33347 106.289 5.33347H103.907V8.8586ZM111.887 14V4.177H118.241V5.3474H113.281V8.42667H117.948V9.59707H113.281V12.8296H118.241V14H111.887ZM120.12 14V4.177H121.332L124.969 10.9625L128.591 4.177H129.776V14H128.48V6.79647L125.401 12.4952H124.523L121.43 6.82433V14H120.12ZM132.093 14V4.177H133.542V14H132.093ZM139.779 14.1254C138.469 14.1254 137.466 13.7817 136.769 13.0943C136.082 12.3977 135.738 11.3805 135.738 10.0429V4.177H137.187V10.0151C137.187 11.9193 138.051 12.8714 139.779 12.8714C141.507 12.8714 142.371 11.9193 142.371 10.0151V4.177H143.792V10.0429C143.792 11.3805 143.453 12.3977 142.775 13.0943C142.097 13.7817 141.098 14.1254 139.779 14.1254ZM146.055 14V4.177H147.267L150.903 10.9625L154.526 4.177H155.71V14H154.415V6.79647L151.335 12.4952H150.457L147.364 6.82433V14H146.055ZM161.688 14V4.177H165.157C166.774 4.177 168.018 4.59964 168.892 5.44493C169.774 6.29022 170.215 7.50242 170.215 9.08153C170.215 10.6606 169.774 11.8775 168.892 12.7321C168.018 13.5774 166.774 14 165.157 14H161.688ZM163.137 12.7878H165.074C167.498 12.7878 168.71 11.5524 168.71 9.08153C168.71 6.61998 167.498 5.3892 165.074 5.3892H163.137V12.7878ZM172.152 14V4.177H178.505V5.3474H173.545V8.42667H178.213V9.59707H173.545V12.8296H178.505V14H172.152ZM183.495 14.1254C182.724 14.1254 182.018 14.0279 181.377 13.8328C180.736 13.6284 180.193 13.3451 179.747 12.9829L180.207 11.8403C180.671 12.1933 181.168 12.458 181.697 12.6345C182.227 12.811 182.826 12.8993 183.495 12.8993C184.284 12.8993 184.865 12.7599 185.236 12.4813C185.617 12.1933 185.808 11.8218 185.808 11.3666C185.808 10.995 185.673 10.7024 185.404 10.4888C185.134 10.2659 184.684 10.0894 184.052 9.95933L182.561 9.6528C181.679 9.46702 181.019 9.16049 180.583 8.7332C180.155 8.30591 179.942 7.73 179.942 7.00547C179.942 6.42027 180.095 5.90473 180.402 5.45887C180.717 5.013 181.154 4.66931 181.711 4.4278C182.269 4.177 182.91 4.0516 183.634 4.0516C184.303 4.0516 184.921 4.15378 185.487 4.35813C186.063 4.5532 186.551 4.84116 186.95 5.222L186.477 6.32273C185.687 5.62607 184.735 5.27773 183.62 5.27773C182.933 5.27773 182.385 5.431 181.976 5.73753C181.577 6.04407 181.377 6.45278 181.377 6.96367C181.377 7.3538 181.502 7.66498 181.753 7.8972C182.004 8.12942 182.422 8.30591 183.007 8.42667L184.484 8.7332C185.413 8.92827 186.105 9.23016 186.56 9.63887C187.015 10.0383 187.243 10.5817 187.243 11.2691C187.243 11.845 187.09 12.3466 186.783 12.7739C186.477 13.2012 186.045 13.5356 185.487 13.7771C184.93 14.0093 184.266 14.1254 183.495 14.1254ZM188.888 14V4.177H190.337V14H188.888ZM197.201 14.1254C196.132 14.1254 195.231 13.9257 194.498 13.5263C193.764 13.1176 193.206 12.537 192.826 11.7846C192.454 11.0322 192.268 10.1358 192.268 9.09547C192.268 8.0644 192.459 7.17267 192.84 6.42027C193.22 5.65858 193.773 5.07338 194.498 4.66467C195.222 4.25596 196.091 4.0516 197.103 4.0516C197.8 4.0516 198.445 4.15378 199.04 4.35813C199.634 4.56249 200.131 4.85509 200.531 5.23593L200.015 6.36453C199.569 5.99298 199.114 5.72824 198.65 5.57033C198.185 5.40313 197.67 5.31953 197.103 5.31953C196.016 5.31953 195.19 5.64929 194.623 6.3088C194.056 6.95902 193.773 7.88791 193.773 9.09547C193.773 10.3309 194.061 11.2691 194.637 11.91C195.222 12.5509 196.095 12.8714 197.256 12.8714C197.962 12.8714 198.664 12.7553 199.36 12.5231V9.88967H196.964V8.80287H200.573V13.4287C200.155 13.6331 199.634 13.8003 199.012 13.9303C198.399 14.0604 197.795 14.1254 197.201 14.1254ZM202.794 14V4.177H203.895L209.524 11.6035V4.177H210.862V14H209.789L204.132 6.54567V14H202.794Z" fill="#6A6A6A"/>
<path d="M1 8.60623L7.51429 13.9334L16.2 3.80005" stroke="url(#paint0_linear_2_1976)" stroke-width="1.9" stroke-linecap="round"/>
<path d="M36.3425 47V37.177H42.5846V38.3474H37.7916V41.4824H42.292V42.6528H37.7916V47H36.3425ZM44.0575 47V37.177H48.1261C49.185 37.177 50.0024 37.4324 50.5783 37.9433C51.1542 38.4449 51.4422 39.1509 51.4422 40.0612C51.4422 40.795 51.2471 41.3988 50.857 41.8725C50.4669 42.337 49.9142 42.6482 49.1989 42.8061C49.6448 42.9547 50.021 43.3123 50.3275 43.8789L52.0274 47H50.439L48.7391 43.865C48.5441 43.5027 48.3165 43.2612 48.0564 43.1405C47.8056 43.0104 47.4805 42.9454 47.0811 42.9454H45.5066V47H44.0575ZM45.5066 41.8586H47.8892C49.3197 41.8586 50.0349 41.2688 50.0349 40.0891C50.0349 38.9187 49.3197 38.3335 47.8892 38.3335H45.5066V41.8586ZM53.487 47V37.177H59.8406V38.3474H54.8803V41.4267H59.548V42.5971H54.8803V45.8296H59.8406V47H53.487ZM61.6919 47V37.177H68.0455V38.3474H63.0852V41.4267H67.7529V42.5971H63.0852V45.8296H68.0455V47H61.6919ZM73.557 47V37.177H77.6534C78.6752 37.177 79.4647 37.4046 80.0221 37.8597C80.5887 38.3056 80.872 38.9326 80.872 39.7407C80.872 40.2702 80.7327 40.7254 80.454 41.1062C80.1753 41.487 79.7945 41.7657 79.3115 41.9422C79.8781 42.0908 80.3193 42.3648 80.6351 42.7643C80.951 43.1637 81.1089 43.6699 81.1089 44.283C81.1089 45.1562 80.8163 45.8296 80.2311 46.3033C79.6552 46.7678 78.8517 47 77.8206 47H73.557ZM74.9503 41.4685H77.4305C78.7866 41.4685 79.4647 40.939 79.4647 39.8801C79.4647 38.8211 78.7866 38.2917 77.4305 38.2917H74.9503V41.4685ZM74.9503 45.8853H77.6534C79.0189 45.8853 79.7016 45.3326 79.7016 44.2273C79.7016 43.1312 79.0189 42.5831 77.6534 42.5831H74.9503V45.8853ZM83.0545 47V37.177H87.1231C88.182 37.177 88.9994 37.4324 89.5753 37.9433C90.1512 38.4449 90.4392 39.1509 90.4392 40.0612C90.4392 40.795 90.2441 41.3988 89.854 41.8725C89.4639 42.337 88.9112 42.6482 88.1959 42.8061C88.6418 42.9547 89.018 43.3123 89.3245 43.8789L91.0244 47H89.436L87.7361 43.865C87.5411 43.5027 87.3135 43.2612 87.0534 43.1405C86.8026 43.0104 86.4775 42.9454 86.0781 42.9454H84.5036V47H83.0545ZM84.5036 41.8586H86.8862C88.3167 41.8586 89.0319 41.2688 89.0319 40.0891C89.0319 38.9187 88.3167 38.3335 86.8862 38.3335H84.5036V41.8586ZM91.3315 47L95.7065 37.177H96.9048L101.294 47H99.8169L98.7858 44.6035H93.8116L92.7945 47H91.3315ZM96.2917 38.7793L94.3271 43.4331H98.2981L96.3196 38.7793H96.2917ZM102.58 47V37.177H103.681L109.31 44.6035V37.177H110.648V47H109.575L103.918 39.5457V47H102.58ZM112.935 47V37.177H116.404C118.021 37.177 119.265 37.5996 120.139 38.4449C121.021 39.2902 121.462 40.5024 121.462 42.0815C121.462 43.6606 121.021 44.8775 120.139 45.7321C119.265 46.5774 118.021 47 116.404 47H112.935ZM114.384 45.7878H116.321C118.745 45.7878 119.957 44.5524 119.957 42.0815C119.957 39.62 118.745 38.3892 116.321 38.3892H114.384V45.7878ZM123.399 47V37.177H129.752V38.3474H124.792V41.4267H129.46V42.5971H124.792V45.8296H129.752V47H123.399ZM131.603 47V37.177H135.073C136.689 37.177 137.934 37.5996 138.807 38.4449C139.689 39.2902 140.131 40.5024 140.131 42.0815C140.131 43.6606 139.689 44.8775 138.807 45.7321C137.934 46.5774 136.689 47 135.073 47H131.603ZM133.053 45.7878H134.989C137.414 45.7878 138.626 44.5524 138.626 42.0815C138.626 39.62 137.414 38.3892 134.989 38.3892H133.053V45.7878ZM145.727 47V37.177H147.176V45.7599H152.039V47H145.727ZM157.162 47.1254C156.224 47.1254 155.411 46.921 154.723 46.5123C154.036 46.0943 153.502 45.5091 153.121 44.7567C152.749 43.995 152.564 43.1033 152.564 42.0815C152.564 41.0505 152.749 40.1587 153.121 39.4063C153.502 38.6539 154.036 38.0734 154.723 37.6647C155.411 37.256 156.224 37.0516 157.162 37.0516C158.091 37.0516 158.899 37.256 159.586 37.6647C160.283 38.0734 160.817 38.6539 161.188 39.4063C161.569 40.1587 161.76 41.0458 161.76 42.0676C161.76 43.0987 161.569 43.995 161.188 44.7567C160.817 45.5091 160.283 46.0943 159.586 46.5123C158.899 46.921 158.091 47.1254 157.162 47.1254ZM157.162 45.8714C158.137 45.8714 158.894 45.5416 159.433 44.8821C159.981 44.2133 160.255 43.2798 160.255 42.0815C160.255 40.8833 159.986 39.9544 159.447 39.2949C158.908 38.6354 158.146 38.3056 157.162 38.3056C156.186 38.3056 155.425 38.6354 154.877 39.2949C154.338 39.9544 154.068 40.8833 154.068 42.0815C154.068 43.2798 154.338 44.2133 154.877 44.8821C155.425 45.5416 156.186 45.8714 157.162 45.8714ZM168.3 47.1254C167.232 47.1254 166.331 46.9257 165.597 46.5263C164.863 46.1176 164.306 45.537 163.925 44.7846C163.553 44.0322 163.367 43.1358 163.367 42.0955C163.367 41.0644 163.558 40.1727 163.939 39.4203C164.32 38.6586 164.872 38.0734 165.597 37.6647C166.321 37.256 167.19 37.0516 168.202 37.0516C168.899 37.0516 169.545 37.1538 170.139 37.3581C170.734 37.5625 171.231 37.8551 171.63 38.2359L171.114 39.3645C170.669 38.993 170.213 38.7282 169.749 38.5703C169.284 38.4031 168.769 38.3195 168.202 38.3195C167.116 38.3195 166.289 38.6493 165.722 39.3088C165.156 39.959 164.872 40.8879 164.872 42.0955C164.872 43.3309 165.16 44.2691 165.736 44.91C166.321 45.5509 167.194 45.8714 168.356 45.8714C169.062 45.8714 169.763 45.7553 170.46 45.5231V42.8897H168.063V41.8029H171.672V46.4287C171.254 46.6331 170.734 46.8003 170.111 46.9303C169.498 47.0604 168.894 47.1254 168.3 47.1254ZM178.157 47.1254C177.219 47.1254 176.406 46.921 175.719 46.5123C175.031 46.0943 174.497 45.5091 174.116 44.7567C173.745 43.995 173.559 43.1033 173.559 42.0815C173.559 41.0505 173.745 40.1587 174.116 39.4063C174.497 38.6539 175.031 38.0734 175.719 37.6647C176.406 37.256 177.219 37.0516 178.157 37.0516C179.086 37.0516 179.894 37.256 180.581 37.6647C181.278 38.0734 181.812 38.6539 182.184 39.4063C182.565 40.1587 182.755 41.0458 182.755 42.0676C182.755 43.0987 182.565 43.995 182.184 44.7567C181.812 45.5091 181.278 46.0943 180.581 46.5123C179.894 46.921 179.086 47.1254 178.157 47.1254ZM178.157 45.8714C179.132 45.8714 179.889 45.5416 180.428 44.8821C180.976 44.2133 181.25 43.2798 181.25 42.0815C181.25 40.8833 180.981 39.9544 180.442 39.2949C179.903 38.6354 179.142 38.3056 178.157 38.3056C177.182 38.3056 176.42 38.6354 175.872 39.2949C175.333 39.9544 175.064 40.8833 175.064 42.0815C175.064 43.2798 175.333 44.2133 175.872 44.8821C176.42 45.5416 177.182 45.8714 178.157 45.8714ZM191.297 47.1254C190.285 47.1254 189.491 46.8932 188.915 46.4287C188.339 45.9643 188.051 45.3466 188.051 44.5756C188.051 43.944 188.223 43.3959 188.566 42.9315C188.91 42.467 189.412 42.0304 190.071 41.6217L190.238 41.5242C189.839 41.1062 189.556 40.7254 189.388 40.3817C189.23 40.0287 189.152 39.6664 189.152 39.2949C189.152 38.6261 189.384 38.0873 189.848 37.6786C190.313 37.2606 190.93 37.0516 191.701 37.0516C192.398 37.0516 192.96 37.2374 193.387 37.6089C193.815 37.9805 194.028 38.4821 194.028 39.1137C194.028 39.5968 193.884 40.0473 193.596 40.4653C193.318 40.874 192.83 41.2966 192.133 41.7332L194.237 44.0461C194.423 43.6653 194.572 43.2287 194.683 42.7364C194.795 42.2348 194.864 41.7146 194.892 41.1759H196.076C196.058 41.8911 195.96 42.5692 195.784 43.2101C195.607 43.8418 195.37 44.4038 195.073 44.8961L197.094 47H195.38L194.321 45.8435C193.931 46.2522 193.476 46.5681 192.955 46.791C192.435 47.0139 191.882 47.1254 191.297 47.1254ZM191.701 38.0827C191.33 38.0827 191.028 38.1941 190.796 38.4171C190.573 38.6307 190.461 38.914 190.461 39.267C190.461 39.5364 190.522 39.7825 190.642 40.0055C190.772 40.2284 191.009 40.5349 191.353 40.9251C191.892 40.5907 192.273 40.2934 192.496 40.0333C192.718 39.7732 192.83 39.4853 192.83 39.1695C192.83 38.8258 192.723 38.561 192.509 38.3753C192.305 38.1802 192.036 38.0827 191.701 38.0827ZM191.367 45.9968C192.24 45.9968 192.96 45.6763 193.527 45.0354L191.005 42.3463L190.921 42.402C190.382 42.7457 190.001 43.0708 189.779 43.3773C189.556 43.6746 189.444 44.0368 189.444 44.4641C189.444 44.9472 189.607 45.3234 189.932 45.5927C190.266 45.8621 190.745 45.9968 191.367 45.9968ZM201.882 47V37.177H205.979C207.001 37.177 207.79 37.4046 208.348 37.8597C208.914 38.3056 209.197 38.9326 209.197 39.7407C209.197 40.2702 209.058 40.7254 208.779 41.1062C208.501 41.487 208.12 41.7657 207.637 41.9422C208.204 42.0908 208.645 42.3648 208.961 42.7643C209.276 43.1637 209.434 43.6699 209.434 44.283C209.434 45.1562 209.142 45.8296 208.557 46.3033C207.981 46.7678 207.177 47 206.146 47H201.882ZM203.276 41.4685H205.756C207.112 41.4685 207.79 40.939 207.79 39.8801C207.79 38.8211 207.112 38.2917 205.756 38.2917H203.276V41.4685ZM203.276 45.8853H205.979C207.344 45.8853 208.027 45.3326 208.027 44.2273C208.027 43.1312 207.344 42.5831 205.979 42.5831H203.276V45.8853ZM210.309 47L214.684 37.177H215.882L220.271 47H218.794L217.763 44.6035H212.789L211.772 47H210.309ZM215.269 38.7793L213.305 43.4331H217.276L215.297 38.7793H215.269ZM221.558 47V37.177H222.659L228.288 44.6035V37.177H229.625V47H228.552L222.895 39.5457V47H221.558ZM231.913 47V37.177H233.013L238.642 44.6035V37.177H239.98V47H238.907L233.25 39.5457V47H231.913ZM242.267 47V37.177H248.621V38.3474H243.661V41.4267H248.328V42.5971H243.661V45.8296H248.621V47H242.267ZM250.472 47V37.177H254.541C255.6 37.177 256.417 37.4324 256.993 37.9433C257.569 38.4449 257.857 39.1509 257.857 40.0612C257.857 40.795 257.662 41.3988 257.272 41.8725C256.882 42.337 256.329 42.6482 255.614 42.8061C256.059 42.9547 256.436 43.3123 256.742 43.8789L258.442 47H256.854L255.154 43.865C254.959 43.5027 254.731 43.2612 254.471 43.1405C254.22 43.0104 253.895 42.9454 253.496 42.9454H251.921V47H250.472ZM251.921 41.8586H254.304C255.734 41.8586 256.45 41.2688 256.45 40.0891C256.45 38.9187 255.734 38.3335 254.304 38.3335H251.921V41.8586Z" fill="#6A6A6A"/>
<path d="M1 41.6062L7.51429 46.9334L16.2 36.8" stroke="url(#paint1_linear_2_1976)" stroke-width="1.9" stroke-linecap="round"/>
<path d="M36.3425 81V71.177H40.411C41.47 71.177 42.2874 71.4417 42.8633 71.9712C43.4392 72.4914 43.7272 73.2252 43.7272 74.1727C43.7272 75.1294 43.4392 75.8725 42.8633 76.402C42.2874 76.9222 41.47 77.1823 40.411 77.1823H37.7916V81H36.3425ZM37.7916 76.0258H40.202C41.6139 76.0258 42.3199 75.4081 42.3199 74.1727C42.3199 72.9465 41.6139 72.3335 40.202 72.3335H37.7916V76.0258ZM48.5565 81.1254C47.7855 81.1254 47.0795 81.0279 46.4386 80.8328C45.7977 80.6284 45.2543 80.3451 44.8084 79.9829L45.2682 78.8403C45.7326 79.1933 46.2296 79.458 46.7591 79.6345C47.2885 79.811 47.8877 79.8993 48.5565 79.8993C49.346 79.8993 49.9266 79.7599 50.2981 79.4813C50.679 79.1933 50.8694 78.8218 50.8694 78.3666C50.8694 77.995 50.7347 77.7024 50.4653 77.4888C50.196 77.2659 49.7454 77.0894 49.1138 76.9593L47.6229 76.6528C46.7405 76.467 46.081 76.1605 45.6444 75.7332C45.2171 75.3059 45.0035 74.73 45.0035 74.0055C45.0035 73.4203 45.1567 72.9047 45.4633 72.4589C45.7791 72.013 46.2157 71.6693 46.773 71.4278C47.3303 71.177 47.9713 71.0516 48.6958 71.0516C49.3646 71.0516 49.9823 71.1538 50.5489 71.3581C51.1248 71.5532 51.6125 71.8412 52.0119 72.222L51.5382 73.3227C50.7486 72.6261 49.7965 72.2777 48.6819 72.2777C47.9945 72.2777 47.4464 72.431 47.0377 72.7375C46.6383 73.0441 46.4386 73.4528 46.4386 73.9637C46.4386 74.3538 46.564 74.665 46.8148 74.8972C47.0656 75.1294 47.4836 75.3059 48.0688 75.4267L49.5457 75.7332C50.4746 75.9283 51.1666 76.2302 51.6218 76.6389C52.077 77.0383 52.3045 77.5817 52.3045 78.2691C52.3045 78.845 52.1513 79.3466 51.8447 79.7739C51.5382 80.2012 51.1063 80.5356 50.5489 80.7771C49.9916 81.0093 49.3274 81.1254 48.5565 81.1254ZM56.0731 81V76.4159L52.3111 71.177H53.9831L56.8255 75.148L59.6679 71.177H61.2702L57.5082 76.4299V81H56.0731ZM65.9588 81.1254C64.9649 81.1254 64.1149 80.921 63.409 80.5123C62.703 80.1036 62.1596 79.5231 61.7788 78.7707C61.4072 78.009 61.2214 77.1126 61.2214 76.0815C61.2214 75.0505 61.4072 74.1587 61.7788 73.4063C62.1596 72.6539 62.703 72.0734 63.409 71.6647C64.1149 71.256 64.9649 71.0516 65.9588 71.0516C66.6276 71.0516 67.2499 71.1584 67.8258 71.3721C68.411 71.5764 68.8987 71.8737 69.2888 72.2638L68.7872 73.4203C68.3599 73.0394 67.9187 72.7654 67.4636 72.5982C67.0177 72.4217 66.53 72.3335 66.0006 72.3335C64.9416 72.3335 64.1335 72.6586 63.5762 73.3088C63.0188 73.959 62.7402 74.8833 62.7402 76.0815C62.7402 77.2798 63.0188 78.2087 63.5762 78.8682C64.1335 79.5184 64.9416 79.8435 66.0006 79.8435C66.53 79.8435 67.0177 79.7599 67.4636 79.5927C67.9187 79.4162 68.3599 79.1376 68.7872 78.7567L69.2888 79.9132C68.8987 80.294 68.411 80.5913 67.8258 80.8049C67.2499 81.0186 66.6276 81.1254 65.9588 81.1254ZM70.9717 81V71.177H72.4208V75.4127H77.9245V71.177H79.3596V81H77.9245V76.6249H72.4208V81H70.9717ZM85.9166 81.1254C84.9785 81.1254 84.1657 80.921 83.4783 80.5123C82.7909 80.0943 82.2568 79.5091 81.876 78.7567C81.5044 77.995 81.3186 77.1033 81.3186 76.0815C81.3186 75.0505 81.5044 74.1587 81.876 73.4063C82.2568 72.6539 82.7909 72.0734 83.4783 71.6647C84.1657 71.256 84.9785 71.0516 85.9166 71.0516C86.8455 71.0516 87.6537 71.256 88.341 71.6647C89.0377 72.0734 89.5718 72.6539 89.9434 73.4063C90.3242 74.1587 90.5146 75.0458 90.5146 76.0676C90.5146 77.0987 90.3242 77.995 89.9434 78.7567C89.5718 79.5091 89.0377 80.0943 88.341 80.5123C87.6537 80.921 86.8455 81.1254 85.9166 81.1254ZM85.9166 79.8714C86.892 79.8714 87.649 79.5416 88.1878 78.8821C88.7358 78.2133 89.0098 77.2798 89.0098 76.0815C89.0098 74.8833 88.7405 73.9544 88.2017 73.2949C87.6629 72.6354 86.9013 72.3056 85.9166 72.3056C84.9413 72.3056 84.1796 72.6354 83.6316 73.2949C83.0928 73.9544 82.8234 74.8833 82.8234 76.0815C82.8234 77.2798 83.0928 78.2133 83.6316 78.8821C84.1796 79.5416 84.9413 79.8714 85.9166 79.8714ZM92.4568 81V71.177H93.9059V79.7599H98.7686V81H92.4568ZM103.891 81.1254C102.953 81.1254 102.14 80.921 101.453 80.5123C100.765 80.0943 100.231 79.5091 99.8505 78.7567C99.479 77.995 99.2932 77.1033 99.2932 76.0815C99.2932 75.0505 99.479 74.1587 99.8505 73.4063C100.231 72.6539 100.765 72.0734 101.453 71.6647C102.14 71.256 102.953 71.0516 103.891 71.0516C104.82 71.0516 105.628 71.256 106.316 71.6647C107.012 72.0734 107.546 72.6539 107.918 73.4063C108.299 74.1587 108.489 75.0458 108.489 76.0676C108.489 77.0987 108.299 77.995 107.918 78.7567C107.546 79.5091 107.012 80.0943 106.316 80.5123C105.628 80.921 104.82 81.1254 103.891 81.1254ZM103.891 79.8714C104.867 79.8714 105.624 79.5416 106.162 78.8821C106.71 78.2133 106.984 77.2798 106.984 76.0815C106.984 74.8833 106.715 73.9544 106.176 73.2949C105.637 72.6354 104.876 72.3056 103.891 72.3056C102.916 72.3056 102.154 72.6354 101.606 73.2949C101.067 73.9544 100.798 74.8833 100.798 76.0815C100.798 77.2798 101.067 78.2133 101.606 78.8821C102.154 79.5416 102.916 79.8714 103.891 79.8714ZM115.029 81.1254C113.961 81.1254 113.06 80.9257 112.326 80.5263C111.592 80.1176 111.035 79.537 110.654 78.7846C110.283 78.0322 110.097 77.1358 110.097 76.0955C110.097 75.0644 110.287 74.1727 110.668 73.4203C111.049 72.6586 111.602 72.0734 112.326 71.6647C113.051 71.256 113.919 71.0516 114.932 71.0516C115.628 71.0516 116.274 71.1538 116.869 71.3581C117.463 71.5625 117.96 71.8551 118.359 72.2359L117.844 73.3645C117.398 72.993 116.943 72.7282 116.478 72.5703C116.014 72.4031 115.498 72.3195 114.932 72.3195C113.845 72.3195 113.018 72.6493 112.452 73.3088C111.885 73.959 111.602 74.8879 111.602 76.0955C111.602 77.3309 111.89 78.2691 112.466 78.91C113.051 79.5509 113.924 79.8714 115.085 79.8714C115.791 79.8714 116.492 79.7553 117.189 79.5231V76.8897H114.792V75.8029H118.401V80.4287C117.983 80.6331 117.463 80.8003 116.841 80.9303C116.228 81.0604 115.624 81.1254 115.029 81.1254ZM120.623 81V71.177H122.072V81H120.623ZM128.74 81.1254C127.746 81.1254 126.897 80.921 126.191 80.5123C125.485 80.1036 124.941 79.5231 124.56 78.7707C124.189 78.009 124.003 77.1126 124.003 76.0815C124.003 75.0505 124.189 74.1587 124.56 73.4063C124.941 72.6539 125.485 72.0734 126.191 71.6647C126.897 71.256 127.746 71.0516 128.74 71.0516C129.409 71.0516 130.032 71.1584 130.607 71.3721C131.193 71.5764 131.68 71.8737 132.07 72.2638L131.569 73.4203C131.142 73.0394 130.7 72.7654 130.245 72.5982C129.799 72.4217 129.312 72.3335 128.782 72.3335C127.723 72.3335 126.915 72.6586 126.358 73.3088C125.8 73.959 125.522 74.8833 125.522 76.0815C125.522 77.2798 125.8 78.2087 126.358 78.8682C126.915 79.5184 127.723 79.8435 128.782 79.8435C129.312 79.8435 129.799 79.7599 130.245 79.5927C130.7 79.4162 131.142 79.1376 131.569 78.7567L132.07 79.9132C131.68 80.294 131.193 80.5913 130.607 80.8049C130.032 81.0186 129.409 81.1254 128.74 81.1254ZM132.546 81L136.921 71.177H138.12L142.509 81H141.032L140.001 78.6035H135.027L134.009 81H132.546ZM137.507 72.7793L135.542 77.4331H139.513L137.535 72.7793H137.507ZM143.795 81V71.177H145.244V79.7599H150.107V81H143.795ZM157.54 81V72.3892H154.056V71.177H162.458V72.3892H158.975V81H157.54ZM163.661 81V71.177H167.73C168.789 71.177 169.606 71.4324 170.182 71.9433C170.758 72.4449 171.046 73.1509 171.046 74.0612C171.046 74.795 170.851 75.3988 170.461 75.8725C170.07 76.337 169.518 76.6482 168.802 76.8061C169.248 76.9547 169.625 77.3123 169.931 77.8789L171.631 81H170.043L168.343 77.865C168.148 77.5027 167.92 77.2612 167.66 77.1405C167.409 77.0104 167.084 76.9454 166.685 76.9454H165.11V81H163.661ZM165.11 75.8586H167.493C168.923 75.8586 169.638 75.2688 169.638 74.0891C169.638 72.9187 168.923 72.3335 167.493 72.3335H165.11V75.8586ZM173.091 81V71.177H174.54V81H173.091ZM181.403 81.1254C180.335 81.1254 179.434 80.9257 178.7 80.5263C177.966 80.1176 177.409 79.537 177.028 78.7846C176.657 78.0322 176.471 77.1358 176.471 76.0955C176.471 75.0644 176.661 74.1727 177.042 73.4203C177.423 72.6586 177.976 72.0734 178.7 71.6647C179.425 71.256 180.293 71.0516 181.306 71.0516C182.002 71.0516 182.648 71.1538 183.242 71.3581C183.837 71.5625 184.334 71.8551 184.733 72.2359L184.218 73.3645C183.772 72.993 183.317 72.7282 182.852 72.5703C182.388 72.4031 181.872 72.3195 181.306 72.3195C180.219 72.3195 179.392 72.6493 178.826 73.3088C178.259 73.959 177.976 74.8879 177.976 76.0955C177.976 77.3309 178.264 78.2691 178.839 78.91C179.425 79.5509 180.298 79.8714 181.459 79.8714C182.165 79.8714 182.866 79.7553 183.563 79.5231V76.8897H181.166V75.8029H184.775V80.4287C184.357 80.6331 183.837 80.8003 183.215 80.9303C182.601 81.0604 181.998 81.1254 181.403 81.1254ZM191.595 81.1254C190.526 81.1254 189.625 80.9257 188.892 80.5263C188.158 80.1176 187.6 79.537 187.22 78.7846C186.848 78.0322 186.662 77.1358 186.662 76.0955C186.662 75.0644 186.853 74.1727 187.234 73.4203C187.614 72.6586 188.167 72.0734 188.892 71.6647C189.616 71.256 190.485 71.0516 191.497 71.0516C192.194 71.0516 192.839 71.1538 193.434 71.3581C194.028 71.5625 194.525 71.8551 194.925 72.2359L194.409 73.3645C193.963 72.993 193.508 72.7282 193.044 72.5703C192.579 72.4031 192.064 72.3195 191.497 72.3195C190.41 72.3195 189.584 72.6493 189.017 73.3088C188.45 73.959 188.167 74.8879 188.167 76.0955C188.167 77.3309 188.455 78.2691 189.031 78.91C189.616 79.5509 190.489 79.8714 191.65 79.8714C192.356 79.8714 193.058 79.7553 193.754 79.5231V76.8897H191.358V75.8029H194.967V80.4287C194.549 80.6331 194.028 80.8003 193.406 80.9303C192.793 81.0604 192.189 81.1254 191.595 81.1254ZM197.188 81V71.177H203.542V72.3474H198.581V75.4267H203.249V76.5971H198.581V79.8296H203.542V81H197.188ZM205.393 81V71.177H209.462C210.52 71.177 211.338 71.4324 211.914 71.9433C212.49 72.4449 212.778 73.1509 212.778 74.0612C212.778 74.795 212.583 75.3988 212.192 75.8725C211.802 76.337 211.25 76.6482 210.534 76.8061C210.98 76.9547 211.356 77.3123 211.663 77.8789L213.363 81H211.774L210.075 77.865C209.88 77.5027 209.652 77.2612 209.392 77.1405C209.141 77.0104 208.816 76.9454 208.417 76.9454H206.842V81H205.393ZM206.842 75.8586H209.225C210.655 75.8586 211.37 75.2688 211.37 74.0891C211.37 72.9187 210.655 72.3335 209.225 72.3335H206.842V75.8586ZM218.083 81.1254C217.312 81.1254 216.606 81.0279 215.965 80.8328C215.324 80.6284 214.781 80.3451 214.335 79.9829L214.795 78.8403C215.259 79.1933 215.756 79.458 216.286 79.6345C216.815 79.811 217.414 79.8993 218.083 79.8993C218.873 79.8993 219.453 79.7599 219.825 79.4813C220.206 79.1933 220.396 78.8218 220.396 78.3666C220.396 77.995 220.261 77.7024 219.992 77.4888C219.723 77.2659 219.272 77.0894 218.641 76.9593L217.15 76.6528C216.267 76.467 215.608 76.1605 215.171 75.7332C214.744 75.3059 214.53 74.73 214.53 74.0055C214.53 73.4203 214.683 72.9047 214.99 72.4589C215.306 72.013 215.742 71.6693 216.3 71.4278C216.857 71.177 217.498 71.0516 218.223 71.0516C218.891 71.0516 219.509 71.1538 220.076 71.3581C220.652 71.5532 221.139 71.8412 221.539 72.222L221.065 73.3227C220.275 72.6261 219.323 72.2777 218.209 72.2777C217.521 72.2777 216.973 72.431 216.564 72.7375C216.165 73.0441 215.965 73.4528 215.965 73.9637C215.965 74.3538 216.091 74.665 216.342 74.8972C216.592 75.1294 217.01 75.3059 217.596 75.4267L219.072 75.7332C220.001 75.9283 220.693 76.2302 221.149 76.6389C221.604 77.0383 221.831 77.5817 221.831 78.2691C221.831 78.845 221.678 79.3466 221.371 79.7739C221.065 80.2012 220.633 80.5356 220.076 80.7771C219.518 81.0093 218.854 81.1254 218.083 81.1254ZM36.3425 100V90.177H42.5846V91.3474H37.7916V94.4824H42.292V95.6528H37.7916V100H36.3425ZM48.117 100.125C47.1788 100.125 46.3661 99.921 45.6787 99.5123C44.9913 99.0943 44.4572 98.5091 44.0764 97.7567C43.7048 96.995 43.519 96.1033 43.519 95.0815C43.519 94.0505 43.7048 93.1587 44.0764 92.4063C44.4572 91.6539 44.9913 91.0734 45.6787 90.6647C46.3661 90.256 47.1788 90.0516 48.117 90.0516C49.0459 90.0516 49.854 90.256 50.5414 90.6647C51.2381 91.0734 51.7722 91.6539 52.1438 92.4063C52.5246 93.1587 52.715 94.0458 52.715 95.0676C52.715 96.0987 52.5246 96.995 52.1438 97.7567C51.7722 98.5091 51.2381 99.0943 50.5414 99.5123C49.854 99.921 49.0459 100.125 48.117 100.125ZM48.117 98.8714C49.0924 98.8714 49.8494 98.5416 50.3882 97.8821C50.9362 97.2133 51.2102 96.2798 51.2102 95.0815C51.2102 93.8833 50.9408 92.9544 50.4021 92.2949C49.8633 91.6354 49.1016 91.3056 48.117 91.3056C47.1417 91.3056 46.38 91.6354 45.832 92.2949C45.2932 92.9544 45.0238 93.8833 45.0238 95.0815C45.0238 96.2798 45.2932 97.2133 45.832 97.8821C46.38 98.5416 47.1417 98.8714 48.117 98.8714ZM54.6572 100V90.177H58.7257C59.7847 90.177 60.6021 90.4324 61.178 90.9433C61.7539 91.4449 62.0419 92.1509 62.0419 93.0612C62.0419 93.795 61.8468 94.3988 61.4567 94.8725C61.0665 95.337 60.5138 95.6482 59.7986 95.8061C60.2445 95.9547 60.6207 96.3123 60.9272 96.8789L62.6271 100H61.0387L59.3388 96.865C59.1437 96.5027 58.9162 96.2612 58.6561 96.1405C58.4053 96.0104 58.0802 95.9454 57.6807 95.9454H56.1063V100H54.6572ZM56.1063 94.8586H58.4889C59.9194 94.8586 60.6346 94.2688 60.6346 93.0891C60.6346 91.9187 59.9194 91.3335 58.4889 91.3335H56.1063V94.8586ZM67.7748 100V90.177H68.987L72.6236 96.9625L76.2462 90.177H77.4306V100H76.1348V92.7965L73.0555 98.4952H72.1777L69.0845 92.8243V100H67.7748ZM78.7588 100L83.1339 90.177H84.3321L88.7211 100H87.2442L86.2131 97.6035H81.2389L80.2218 100H78.7588ZM83.7191 91.7793L81.7545 96.4331H85.7255L83.7469 91.7793H83.7191ZM88.6891 100L92.4372 94.984L88.8424 90.177H90.5144L93.2593 93.9251L95.9763 90.177H97.6622L94.0674 94.984L97.8015 100H96.1156L93.2453 96.0708L90.389 100H88.6891ZM98.9881 100V90.177H100.437V100H98.9881ZM102.731 100V90.177H103.943L107.579 96.9625L111.202 90.177H112.386V100H111.091V92.7965L108.011 98.4952H107.134L104.04 92.8243V100H102.731ZM118.675 100.125C117.365 100.125 116.362 99.7817 115.665 99.0943C114.978 98.3977 114.634 97.3805 114.634 96.0429V90.177H116.083V96.0151C116.083 97.9193 116.947 98.8714 118.675 98.8714C120.403 98.8714 121.266 97.9193 121.266 96.0151V90.177H122.688V96.0429C122.688 97.3805 122.349 98.3977 121.671 99.0943C120.992 99.7817 119.994 100.125 118.675 100.125ZM124.95 100V90.177H126.163L129.799 96.9625L133.422 90.177H134.606V100H133.31V92.7965L130.231 98.4952H129.353L126.26 92.8243V100H124.95ZM143.858 100.125C143.087 100.125 142.381 100.028 141.74 99.8328C141.099 99.6284 140.556 99.3451 140.11 98.9829L140.57 97.8403C141.034 98.1933 141.531 98.458 142.061 98.6345C142.59 98.811 143.189 98.8993 143.858 98.8993C144.648 98.8993 145.228 98.7599 145.6 98.4813C145.981 98.1933 146.171 97.8218 146.171 97.3666C146.171 96.995 146.037 96.7024 145.767 96.4888C145.498 96.2659 145.047 96.0894 144.416 95.9593L142.925 95.6528C142.042 95.467 141.383 95.1605 140.946 94.7332C140.519 94.3059 140.305 93.73 140.305 93.0055C140.305 92.4203 140.459 91.9047 140.765 91.4589C141.081 91.013 141.517 90.6693 142.075 90.4278C142.632 90.177 143.273 90.0516 143.998 90.0516C144.666 90.0516 145.284 90.1538 145.851 90.3581C146.427 90.5532 146.914 90.8412 147.314 91.222L146.84 92.3227C146.05 91.6261 145.098 91.2777 143.984 91.2777C143.296 91.2777 142.748 91.431 142.34 91.7375C141.94 92.0441 141.74 92.4528 141.74 92.9637C141.74 93.3538 141.866 93.665 142.117 93.8972C142.367 94.1294 142.785 94.3059 143.371 94.4267L144.848 94.7332C145.776 94.9283 146.468 95.2302 146.924 95.6389C147.379 96.0383 147.606 96.5817 147.606 97.2691C147.606 97.845 147.453 98.3466 147.147 98.7739C146.84 99.2012 146.408 99.5356 145.851 99.7771C145.293 100.009 144.629 100.125 143.858 100.125ZM148.221 100L152.596 90.177H153.795L158.184 100H156.707L155.676 97.6035H150.702L149.684 100H148.221ZM153.182 91.7793L151.217 96.4331H155.188L153.21 91.7793H153.182ZM159.47 100V90.177H160.919V98.7599H165.782V100H159.47ZM167.158 100V90.177H173.512V91.3474H168.551V94.4267H173.219V95.5971H168.551V98.8296H173.512V100H167.158ZM178.501 100.125C177.73 100.125 177.024 100.028 176.383 99.8328C175.742 99.6284 175.199 99.3451 174.753 98.9829L175.213 97.8403C175.677 98.1933 176.174 98.458 176.704 98.6345C177.233 98.811 177.832 98.8993 178.501 98.8993C179.291 98.8993 179.871 98.7599 180.243 98.4813C180.624 98.1933 180.814 97.8218 180.814 97.3666C180.814 96.995 180.679 96.7024 180.41 96.4888C180.141 96.2659 179.69 96.0894 179.058 95.9593L177.568 95.6528C176.685 95.467 176.026 95.1605 175.589 94.7332C175.162 94.3059 174.948 93.73 174.948 93.0055C174.948 92.4203 175.101 91.9047 175.408 91.4589C175.724 91.013 176.16 90.6693 176.718 90.4278C177.275 90.177 177.916 90.0516 178.64 90.0516C179.309 90.0516 179.927 90.1538 180.494 90.3581C181.07 90.5532 181.557 90.8412 181.957 91.222L181.483 92.3227C180.693 91.6261 179.741 91.2777 178.627 91.2777C177.939 91.2777 177.391 91.431 176.982 91.7375C176.583 92.0441 176.383 92.4528 176.383 92.9637C176.383 93.3538 176.509 93.665 176.759 93.8972C177.01 94.1294 177.428 94.3059 178.013 94.4267L179.49 94.7332C180.419 94.9283 181.111 95.2302 181.566 95.6389C182.022 96.0383 182.249 96.5817 182.249 97.2691C182.249 97.845 182.096 98.3466 181.789 98.7739C181.483 99.2012 181.051 99.5356 180.494 99.7771C179.936 100.009 179.272 100.125 178.501 100.125Z" fill="#6A6A6A"/>
<path d="M1 75.6062L7.51429 80.9334L16.2 70.8" stroke="url(#paint2_linear_2_1976)" stroke-width="1.9" stroke-linecap="round"/>
<path d="M39.6168 127.125C38.8458 127.125 38.1399 127.028 37.499 126.833C36.858 126.628 36.3146 126.345 35.8688 125.983L36.3286 124.84C36.793 125.193 37.29 125.458 37.8194 125.635C38.3489 125.811 38.948 125.899 39.6168 125.899C40.4064 125.899 40.9869 125.76 41.3585 125.481C41.7393 125.193 41.9298 124.822 41.9298 124.367C41.9298 123.995 41.7951 123.702 41.5257 123.489C41.2563 123.266 40.8058 123.089 40.1742 122.959L38.6833 122.653C37.8008 122.467 37.1413 122.16 36.7048 121.733C36.2775 121.306 36.0638 120.73 36.0638 120.005C36.0638 119.42 36.2171 118.905 36.5236 118.459C36.8394 118.013 37.276 117.669 37.8334 117.428C38.3907 117.177 39.0316 117.052 39.7562 117.052C40.425 117.052 41.0427 117.154 41.6093 117.358C42.1852 117.553 42.6729 117.841 43.0723 118.222L42.5986 119.323C41.809 118.626 40.8569 118.278 39.7422 118.278C39.0548 118.278 38.5068 118.431 38.0981 118.738C37.6987 119.044 37.499 119.453 37.499 119.964C37.499 120.354 37.6244 120.665 37.8752 120.897C38.126 121.129 38.544 121.306 39.1292 121.427L40.6061 121.733C41.535 121.928 42.227 122.23 42.6822 122.639C43.1373 123.038 43.3649 123.582 43.3649 124.269C43.3649 124.845 43.2116 125.347 42.9051 125.774C42.5986 126.201 42.1666 126.536 41.6093 126.777C41.052 127.009 40.3878 127.125 39.6168 127.125ZM45.01 127V117.177H46.4591V121.594H46.4869L51.0431 117.177H52.8266L47.8663 121.928L53.1053 127H51.2939L46.4869 122.416H46.4591V127H45.01ZM55.9234 127V122.416L52.1614 117.177H53.8334L56.6758 121.148L59.5182 117.177H61.1205L57.3585 122.43V127H55.9234ZM62.3722 127V117.177H66.4408C67.4997 117.177 68.3171 117.432 68.893 117.943C69.4689 118.445 69.7569 119.151 69.7569 120.061C69.7569 120.795 69.5618 121.399 69.1717 121.873C68.7816 122.337 68.2289 122.648 67.5136 122.806C67.9595 122.955 68.3357 123.312 68.6422 123.879L70.3421 127H68.7537L67.0538 123.865C66.8588 123.503 66.6312 123.261 66.3711 123.14C66.1203 123.01 65.7952 122.945 65.3958 122.945H63.8213V127H62.3722ZM63.8213 121.859H66.2039C67.6344 121.859 68.3496 121.269 68.3496 120.089C68.3496 118.919 67.6344 118.333 66.2039 118.333H63.8213V121.859ZM75.9973 127.125C75.0591 127.125 74.2463 126.921 73.559 126.512C72.8716 126.094 72.3375 125.509 71.9566 124.757C71.5851 123.995 71.3993 123.103 71.3993 122.082C71.3993 121.05 71.5851 120.159 71.9566 119.406C72.3375 118.654 72.8716 118.073 73.559 117.665C74.2463 117.256 75.0591 117.052 75.9973 117.052C76.9262 117.052 77.7343 117.256 78.4217 117.665C79.1184 118.073 79.6525 118.654 80.024 119.406C80.4049 120.159 80.5953 121.046 80.5953 122.068C80.5953 123.099 80.4049 123.995 80.024 124.757C79.6525 125.509 79.1184 126.094 78.4217 126.512C77.7343 126.921 76.9262 127.125 75.9973 127.125ZM75.9973 125.871C76.9726 125.871 77.7297 125.542 78.2684 124.882C78.8165 124.213 79.0905 123.28 79.0905 122.082C79.0905 120.883 78.8211 119.954 78.2824 119.295C77.7436 118.635 76.9819 118.306 75.9973 118.306C75.022 118.306 74.2603 118.635 73.7122 119.295C73.1735 119.954 72.9041 120.883 72.9041 122.082C72.9041 123.28 73.1735 124.213 73.7122 124.882C74.2603 125.542 75.022 125.871 75.9973 125.871ZM86.9404 127.125C85.9465 127.125 85.0966 126.921 84.3906 126.512C83.6847 126.104 83.1413 125.523 82.7604 124.771C82.3889 124.009 82.2031 123.113 82.2031 122.082C82.2031 121.05 82.3889 120.159 82.7604 119.406C83.1413 118.654 83.6847 118.073 84.3906 117.665C85.0966 117.256 85.9465 117.052 86.9404 117.052C87.6092 117.052 88.2316 117.158 88.8075 117.372C89.3927 117.576 89.8803 117.874 90.2705 118.264L89.7689 119.42C89.3416 119.039 88.9004 118.765 88.4452 118.598C87.9993 118.422 87.5117 118.333 86.9822 118.333C85.9233 118.333 85.1151 118.659 84.5578 119.309C84.0005 119.959 83.7218 120.883 83.7218 122.082C83.7218 123.28 84.0005 124.209 84.5578 124.868C85.1151 125.518 85.9233 125.844 86.9822 125.844C87.5117 125.844 87.9993 125.76 88.4452 125.593C88.9004 125.416 89.3416 125.138 89.7689 124.757L90.2705 125.913C89.8803 126.294 89.3927 126.591 88.8075 126.805C88.2316 127.019 87.6092 127.125 86.9404 127.125ZM91.9534 127V117.177H93.4024V121.594H93.4303L97.9865 117.177H99.77L94.8097 121.928L100.049 127H98.2373L93.4303 122.416H93.4024V127H91.9534ZM100.907 127V117.177H107.26V118.347H102.3V121.427H106.968V122.597H102.3V125.83H107.26V127H100.907ZM111.386 127V118.389H107.902V117.177H116.304V118.389H112.821V127H111.386ZM124.441 127.125C123.67 127.125 122.964 127.028 122.324 126.833C121.683 126.628 121.139 126.345 120.693 125.983L121.153 124.84C121.618 125.193 122.115 125.458 122.644 125.635C123.173 125.811 123.773 125.899 124.441 125.899C125.231 125.899 125.812 125.76 126.183 125.481C126.564 125.193 126.754 124.822 126.754 124.367C126.754 123.995 126.62 123.702 126.35 123.489C126.081 123.266 125.63 123.089 124.999 122.959L123.508 122.653C122.625 122.467 121.966 122.16 121.529 121.733C121.102 121.306 120.888 120.73 120.888 120.005C120.888 119.42 121.042 118.905 121.348 118.459C121.664 118.013 122.101 117.669 122.658 117.428C123.215 117.177 123.856 117.052 124.581 117.052C125.25 117.052 125.867 117.154 126.434 117.358C127.01 117.553 127.497 117.841 127.897 118.222L127.423 119.323C126.634 118.626 125.681 118.278 124.567 118.278C123.879 118.278 123.331 118.431 122.923 118.738C122.523 119.044 122.324 119.453 122.324 119.964C122.324 120.354 122.449 120.665 122.7 120.897C122.951 121.129 123.369 121.306 123.954 121.427L125.431 121.733C126.36 121.928 127.052 122.23 127.507 122.639C127.962 123.038 128.189 123.582 128.189 124.269C128.189 124.845 128.036 125.347 127.73 125.774C127.423 126.201 126.991 126.536 126.434 126.777C125.877 127.009 125.212 127.125 124.441 127.125ZM128.805 127L133.18 117.177H134.378L138.767 127H137.29L136.259 124.603H131.285L130.268 127H128.805ZM133.765 118.779L131.8 123.433H135.771L133.793 118.779H133.765ZM140.053 127V117.177H141.502V125.76H146.365V127H140.053ZM147.741 127V117.177H154.095V118.347H149.134V121.427H153.802V122.597H149.134V125.83H154.095V127H147.741ZM159.084 127.125C158.313 127.125 157.607 127.028 156.966 126.833C156.325 126.628 155.782 126.345 155.336 125.983L155.796 124.84C156.26 125.193 156.757 125.458 157.287 125.635C157.816 125.811 158.415 125.899 159.084 125.899C159.874 125.899 160.454 125.76 160.826 125.481C161.207 125.193 161.397 124.822 161.397 124.367C161.397 123.995 161.263 123.702 160.993 123.489C160.724 123.266 160.273 123.089 159.642 122.959L158.151 122.653C157.268 122.467 156.609 122.16 156.172 121.733C155.745 121.306 155.531 120.73 155.531 120.005C155.531 119.42 155.685 118.905 155.991 118.459C156.307 118.013 156.743 117.669 157.301 117.428C157.858 117.177 158.499 117.052 159.224 117.052C159.892 117.052 160.51 117.154 161.077 117.358C161.653 117.553 162.14 117.841 162.54 118.222L162.066 119.323C161.276 118.626 160.324 118.278 159.21 118.278C158.522 118.278 157.974 118.431 157.566 118.738C157.166 119.044 156.966 119.453 156.966 119.964C156.966 120.354 157.092 120.665 157.343 120.897C157.593 121.129 158.011 121.306 158.597 121.427L160.074 121.733C161.002 121.928 161.694 122.23 162.15 122.639C162.605 123.038 162.832 123.582 162.832 124.269C162.832 124.845 162.679 125.347 162.373 125.774C162.066 126.201 161.634 126.536 161.077 126.777C160.519 127.009 159.855 127.125 159.084 127.125ZM168.138 127V117.177H172.234C173.256 117.177 174.045 117.405 174.603 117.86C175.169 118.306 175.453 118.933 175.453 119.741C175.453 120.27 175.313 120.725 175.035 121.106C174.756 121.487 174.375 121.766 173.892 121.942C174.459 122.091 174.9 122.365 175.216 122.764C175.532 123.164 175.69 123.67 175.69 124.283C175.69 125.156 175.397 125.83 174.812 126.303C174.236 126.768 173.432 127 172.401 127H168.138ZM169.531 121.468H172.011C173.367 121.468 174.045 120.939 174.045 119.88C174.045 118.821 173.367 118.292 172.011 118.292H169.531V121.468ZM169.531 125.885H172.234C173.6 125.885 174.282 125.333 174.282 124.227C174.282 123.131 173.6 122.583 172.234 122.583H169.531V125.885ZM181.899 127.125C180.961 127.125 180.148 126.921 179.46 126.512C178.773 126.094 178.239 125.509 177.858 124.757C177.487 123.995 177.301 123.103 177.301 122.082C177.301 121.05 177.487 120.159 177.858 119.406C178.239 118.654 178.773 118.073 179.46 117.665C180.148 117.256 180.961 117.052 181.899 117.052C182.828 117.052 183.636 117.256 184.323 117.665C185.02 118.073 185.554 118.654 185.926 119.406C186.306 120.159 186.497 121.046 186.497 122.068C186.497 123.099 186.306 123.995 185.926 124.757C185.554 125.509 185.02 126.094 184.323 126.512C183.636 126.921 182.828 127.125 181.899 127.125ZM181.899 125.871C182.874 125.871 183.631 125.542 184.17 124.882C184.718 124.213 184.992 123.28 184.992 122.082C184.992 120.883 184.723 119.954 184.184 119.295C183.645 118.635 182.883 118.306 181.899 118.306C180.923 118.306 180.162 118.635 179.614 119.295C179.075 119.954 178.806 120.883 178.806 122.082C178.806 123.28 179.075 124.213 179.614 124.882C180.162 125.542 180.923 125.871 181.899 125.871ZM192.703 127.125C191.764 127.125 190.952 126.921 190.264 126.512C189.577 126.094 189.043 125.509 188.662 124.757C188.29 123.995 188.105 123.103 188.105 122.082C188.105 121.05 188.29 120.159 188.662 119.406C189.043 118.654 189.577 118.073 190.264 117.665C190.952 117.256 191.764 117.052 192.703 117.052C193.631 117.052 194.44 117.256 195.127 117.665C195.824 118.073 196.358 118.654 196.729 119.406C197.11 120.159 197.301 121.046 197.301 122.068C197.301 123.099 197.11 123.995 196.729 124.757C196.358 125.509 195.824 126.094 195.127 126.512C194.44 126.921 193.631 127.125 192.703 127.125ZM192.703 125.871C193.678 125.871 194.435 125.542 194.974 124.882C195.522 124.213 195.796 123.28 195.796 122.082C195.796 120.883 195.526 119.954 194.988 119.295C194.449 118.635 193.687 118.306 192.703 118.306C191.727 118.306 190.966 118.635 190.417 119.295C189.879 119.954 189.609 120.883 189.609 122.082C189.609 123.28 189.879 124.213 190.417 124.882C190.966 125.542 191.727 125.871 192.703 125.871ZM202.517 127.125C201.746 127.125 201.04 127.028 200.399 126.833C199.758 126.628 199.215 126.345 198.769 125.983L199.229 124.84C199.693 125.193 200.19 125.458 200.72 125.635C201.249 125.811 201.848 125.899 202.517 125.899C203.307 125.899 203.887 125.76 204.259 125.481C204.64 125.193 204.83 124.822 204.83 124.367C204.83 123.995 204.695 123.702 204.426 123.489C204.157 123.266 203.706 123.089 203.074 122.959L201.584 122.653C200.701 122.467 200.042 122.16 199.605 121.733C199.178 121.306 198.964 120.73 198.964 120.005C198.964 119.42 199.117 118.905 199.424 118.459C199.74 118.013 200.176 117.669 200.734 117.428C201.291 117.177 201.932 117.052 202.656 117.052C203.325 117.052 203.943 117.154 204.51 117.358C205.085 117.553 205.573 117.841 205.973 118.222L205.499 119.323C204.709 118.626 203.757 118.278 202.642 118.278C201.955 118.278 201.407 118.431 200.998 118.738C200.599 119.044 200.399 119.453 200.399 119.964C200.399 120.354 200.525 120.665 200.775 120.897C201.026 121.129 201.444 121.306 202.029 121.427L203.506 121.733C204.435 121.928 205.127 122.23 205.582 122.639C206.038 123.038 206.265 123.582 206.265 124.269C206.265 124.845 206.112 125.347 205.805 125.774C205.499 126.201 205.067 126.536 204.51 126.777C203.952 127.009 203.288 127.125 202.517 127.125ZM210.103 127V118.389H206.619V117.177H215.021V118.389H211.538V127H210.103ZM216.224 127V117.177H217.673V127H216.224ZM219.939 127V117.177H221.039L226.668 124.603V117.177H228.006V127H226.933L221.276 119.546V127H219.939ZM234.891 127.125C233.823 127.125 232.922 126.926 232.188 126.526C231.455 126.118 230.897 125.537 230.516 124.785C230.145 124.032 229.959 123.136 229.959 122.095C229.959 121.064 230.149 120.173 230.53 119.42C230.911 118.659 231.464 118.073 232.188 117.665C232.913 117.256 233.781 117.052 234.794 117.052C235.491 117.052 236.136 117.154 236.731 117.358C237.325 117.562 237.822 117.855 238.221 118.236L237.706 119.365C237.26 118.993 236.805 118.728 236.34 118.57C235.876 118.403 235.36 118.32 234.794 118.32C233.707 118.32 232.88 118.649 232.314 119.309C231.747 119.959 231.464 120.888 231.464 122.095C231.464 123.331 231.752 124.269 232.328 124.91C232.913 125.551 233.786 125.871 234.947 125.871C235.653 125.871 236.354 125.755 237.051 125.523V122.89H234.655V121.803H238.263V126.429C237.845 126.633 237.325 126.8 236.703 126.93C236.09 127.06 235.486 127.125 234.891 127.125ZM38.739 146V137.389H35.2557V136.177H43.6575V137.389H40.1742V146H38.739ZM44.8603 146V136.177H51.2139V137.347H46.2537V140.427H50.9213V141.597H46.2537V144.83H51.2139V146H44.8603ZM57.4409 146.125C56.447 146.125 55.5971 145.921 54.8911 145.512C54.1852 145.104 53.6418 144.523 53.2609 143.771C52.8894 143.009 52.7036 142.113 52.7036 141.082C52.7036 140.05 52.8894 139.159 53.2609 138.406C53.6418 137.654 54.1852 137.073 54.8911 136.665C55.5971 136.256 56.447 136.052 57.4409 136.052C58.1097 136.052 58.7321 136.158 59.308 136.372C59.8932 136.576 60.3809 136.874 60.771 137.264L60.2694 138.42C59.8421 138.039 59.4009 137.765 58.9457 137.598C58.4999 137.422 58.0122 137.333 57.4827 137.333C56.4238 137.333 55.6157 137.659 55.0583 138.309C54.501 138.959 54.2223 139.883 54.2223 141.082C54.2223 142.28 54.501 143.209 55.0583 143.868C55.6157 144.518 56.4238 144.844 57.4827 144.844C58.0122 144.844 58.4999 144.76 58.9457 144.593C59.4009 144.416 59.8421 144.138 60.2694 143.757L60.771 144.913C60.3809 145.294 59.8932 145.591 59.308 145.805C58.7321 146.019 58.1097 146.125 57.4409 146.125ZM62.4539 146V136.177H63.9029V140.413H69.4066V136.177H70.8417V146H69.4066V141.625H63.9029V146H62.4539ZM73.1352 146V136.177H74.2359L79.865 143.603V136.177H81.2026V146H80.1297L74.4728 138.546V146H73.1352ZM83.4899 146V136.177H84.939V146H83.4899ZM94.1573 148.87L92.9033 146.85C92.6061 146.367 92.1231 146.125 91.4543 146.125C90.5254 146.125 89.7172 145.921 89.0299 145.512C88.3425 145.094 87.8084 144.509 87.4275 143.757C87.056 142.995 86.8702 142.103 86.8702 141.082C86.8702 140.05 87.056 139.159 87.4275 138.406C87.8084 137.654 88.3425 137.073 89.0299 136.665C89.7172 136.256 90.53 136.052 91.4682 136.052C92.3971 136.052 93.2052 136.256 93.8926 136.665C94.5893 137.073 95.1234 137.654 95.4949 138.406C95.8758 139.159 96.0662 140.046 96.0662 141.068C96.0662 142.229 95.8247 143.218 95.3417 144.035C94.8679 144.844 94.2131 145.424 93.3771 145.777C93.7579 145.898 94.097 146.214 94.3942 146.725L95.3695 148.271L94.1573 148.87ZM91.4682 144.871C92.4435 144.871 93.2006 144.542 93.7393 143.882C94.2874 143.213 94.5614 142.28 94.5614 141.082C94.5614 139.883 94.292 138.954 93.7533 138.295C93.2145 137.635 92.4528 137.306 91.4682 137.306C90.4929 137.306 89.7312 137.635 89.1831 138.295C88.6444 138.954 88.375 139.883 88.375 141.082C88.375 142.28 88.6444 143.213 89.1831 143.882C89.7312 144.542 90.4929 144.871 91.4682 144.871ZM101.979 146.125C100.67 146.125 99.6664 145.782 98.9698 145.094C98.2824 144.398 97.9387 143.381 97.9387 142.043V136.177H99.3878V142.015C99.3878 143.919 100.252 144.871 101.979 144.871C103.707 144.871 104.571 143.919 104.571 142.015V136.177H105.992V142.043C105.992 143.381 105.653 144.398 104.975 145.094C104.297 145.782 103.298 146.125 101.979 146.125ZM108.227 146V136.177H114.581V137.347H109.62V140.427H114.288V141.597H109.62V144.83H114.581V146H108.227ZM119.57 146.125C118.799 146.125 118.093 146.028 117.452 145.833C116.811 145.628 116.268 145.345 115.822 144.983L116.282 143.84C116.746 144.193 117.243 144.458 117.773 144.635C118.302 144.811 118.901 144.899 119.57 144.899C120.36 144.899 120.94 144.76 121.312 144.481C121.693 144.193 121.883 143.822 121.883 143.367C121.883 142.995 121.748 142.702 121.479 142.489C121.21 142.266 120.759 142.089 120.128 141.959L118.637 141.653C117.754 141.467 117.095 141.16 116.658 140.733C116.231 140.306 116.017 139.73 116.017 139.005C116.017 138.42 116.17 137.905 116.477 137.459C116.793 137.013 117.229 136.669 117.787 136.428C118.344 136.177 118.985 136.052 119.71 136.052C120.378 136.052 120.996 136.154 121.563 136.358C122.139 136.553 122.626 136.841 123.026 137.222L122.552 138.323C121.762 137.626 120.81 137.278 119.696 137.278C119.008 137.278 118.46 137.431 118.051 137.738C117.652 138.044 117.452 138.453 117.452 138.964C117.452 139.354 117.578 139.665 117.829 139.897C118.079 140.129 118.497 140.306 119.083 140.427L120.559 140.733C121.488 140.928 122.18 141.23 122.636 141.639C123.091 142.038 123.318 142.582 123.318 143.269C123.318 143.845 123.165 144.347 122.858 144.774C122.552 145.201 122.12 145.536 121.563 145.777C121.005 146.009 120.341 146.125 119.57 146.125Z" fill="#6A6A6A"/>
<path d="M1 121.606L7.51429 126.933L16.2 116.8" stroke="url(#paint3_linear_2_1976)" stroke-width="1.9" stroke-linecap="round"/>
<path d="M40.6061 175.125C39.6679 175.125 38.8551 174.921 38.1678 174.512C37.4804 174.094 36.9463 173.509 36.5654 172.757C36.1939 171.995 36.0081 171.103 36.0081 170.082C36.0081 169.05 36.1939 168.159 36.5654 167.406C36.9463 166.654 37.4804 166.073 38.1678 165.665C38.8551 165.256 39.6679 165.052 40.6061 165.052C41.535 165.052 42.3431 165.256 43.0305 165.665C43.7272 166.073 44.2613 166.654 44.6328 167.406C45.0137 168.159 45.2041 169.046 45.2041 170.068C45.2041 171.099 45.0137 171.995 44.6328 172.757C44.2613 173.509 43.7272 174.094 43.0305 174.512C42.3431 174.921 41.535 175.125 40.6061 175.125ZM40.6061 173.871C41.5814 173.871 42.3385 173.542 42.8772 172.882C43.4253 172.213 43.6993 171.28 43.6993 170.082C43.6993 168.883 43.4299 167.954 42.8912 167.295C42.3524 166.635 41.5907 166.306 40.6061 166.306C39.6308 166.306 38.8691 166.635 38.321 167.295C37.7823 167.954 37.5129 168.883 37.5129 170.082C37.5129 171.28 37.7823 172.213 38.321 172.882C38.8691 173.542 39.6308 173.871 40.6061 173.871ZM47.1463 175V165.177H51.2148C52.2737 165.177 53.0911 165.442 53.6671 165.971C54.243 166.491 54.5309 167.225 54.5309 168.173C54.5309 169.129 54.243 169.873 53.6671 170.402C53.0911 170.922 52.2737 171.182 51.2148 171.182H48.5953V175H47.1463ZM48.5953 170.026H51.0058C52.4177 170.026 53.1237 169.408 53.1237 168.173C53.1237 166.947 52.4177 166.333 51.0058 166.333H48.5953V170.026ZM58.2239 175V166.389H54.7406V165.177H63.1424V166.389H59.659V175H58.2239ZM64.3452 175V165.177H65.7943V175H64.3452ZM68.0877 175V165.177H69.2999L72.9365 171.963L76.5592 165.177H77.7435V175H76.4477V167.796L73.3685 173.495H72.4907L69.3975 167.824V175H68.0877ZM79.0718 175L83.4468 165.177H84.6451L89.0341 175H87.5572L86.5261 172.603H81.5519L80.5348 175H79.0718ZM84.032 166.779L82.0674 171.433H86.0384L84.0599 166.779H84.032ZM90.3205 175V165.177H91.7696V173.76H96.6323V175H90.3205ZM106.072 175.125C105.078 175.125 104.228 174.921 103.522 174.512C102.816 174.104 102.272 173.523 101.892 172.771C101.52 172.009 101.334 171.113 101.334 170.082C101.334 169.05 101.52 168.159 101.892 167.406C102.272 166.654 102.816 166.073 103.522 165.665C104.228 165.256 105.078 165.052 106.072 165.052C106.74 165.052 107.363 165.158 107.939 165.372C108.524 165.576 109.011 165.874 109.402 166.264L108.9 167.42C108.473 167.039 108.031 166.765 107.576 166.598C107.13 166.422 106.643 166.333 106.113 166.333C105.054 166.333 104.246 166.659 103.689 167.309C103.132 167.959 102.853 168.883 102.853 170.082C102.853 171.28 103.132 172.209 103.689 172.868C104.246 173.518 105.054 173.844 106.113 173.844C106.643 173.844 107.13 173.76 107.576 173.593C108.031 173.416 108.473 173.138 108.9 172.757L109.402 173.913C109.011 174.294 108.524 174.591 107.939 174.805C107.363 175.019 106.74 175.125 106.072 175.125ZM115.035 175.125C114.097 175.125 113.284 174.921 112.597 174.512C111.909 174.094 111.375 173.509 110.994 172.757C110.623 171.995 110.437 171.103 110.437 170.082C110.437 169.05 110.623 168.159 110.994 167.406C111.375 166.654 111.909 166.073 112.597 165.665C113.284 165.256 114.097 165.052 115.035 165.052C115.964 165.052 116.772 165.256 117.46 165.665C118.156 166.073 118.69 166.654 119.062 167.406C119.443 168.159 119.633 169.046 119.633 170.068C119.633 171.099 119.443 171.995 119.062 172.757C118.69 173.509 118.156 174.094 117.46 174.512C116.772 174.921 115.964 175.125 115.035 175.125ZM115.035 173.871C116.01 173.871 116.768 173.542 117.306 172.882C117.854 172.213 118.128 171.28 118.128 170.082C118.128 168.883 117.859 167.954 117.32 167.295C116.781 166.635 116.02 166.306 115.035 166.306C114.06 166.306 113.298 166.635 112.75 167.295C112.211 167.954 111.942 168.883 111.942 170.082C111.942 171.28 112.211 172.213 112.75 172.882C113.298 173.542 114.06 173.871 115.035 173.871ZM121.575 175V165.177H122.676L128.305 172.603V165.177H129.643V175H128.57L122.913 167.546V175H121.575ZM135.037 175L130.704 165.177H132.251L135.692 173.175L139.134 165.177H140.611L136.277 175H135.037ZM141.686 175V165.177H148.04V166.347H143.079V169.427H147.747V170.597H143.079V173.83H148.04V175H141.686ZM149.891 175V165.177H153.96C155.018 165.177 155.836 165.432 156.412 165.943C156.988 166.445 157.276 167.151 157.276 168.061C157.276 168.795 157.081 169.399 156.69 169.873C156.3 170.337 155.748 170.648 155.032 170.806C155.478 170.955 155.854 171.312 156.161 171.879L157.861 175H156.272L154.573 171.865C154.378 171.503 154.15 171.261 153.89 171.14C153.639 171.01 153.314 170.945 152.915 170.945H151.34V175H149.891ZM151.34 169.859H153.723C155.153 169.859 155.868 169.269 155.868 168.089C155.868 166.919 155.153 166.333 153.723 166.333H151.34V169.859ZM162.581 175.125C161.81 175.125 161.104 175.028 160.463 174.833C159.822 174.628 159.279 174.345 158.833 173.983L159.293 172.84C159.757 173.193 160.254 173.458 160.784 173.635C161.313 173.811 161.912 173.899 162.581 173.899C163.371 173.899 163.951 173.76 164.323 173.481C164.704 173.193 164.894 172.822 164.894 172.367C164.894 171.995 164.759 171.702 164.49 171.489C164.221 171.266 163.77 171.089 163.139 170.959L161.648 170.653C160.765 170.467 160.106 170.16 159.669 169.733C159.242 169.306 159.028 168.73 159.028 168.005C159.028 167.42 159.181 166.905 159.488 166.459C159.804 166.013 160.24 165.669 160.798 165.428C161.355 165.177 161.996 165.052 162.721 165.052C163.389 165.052 164.007 165.154 164.574 165.358C165.15 165.553 165.637 165.841 166.037 166.222L165.563 167.323C164.773 166.626 163.821 166.278 162.707 166.278C162.019 166.278 161.471 166.431 161.062 166.738C160.663 167.044 160.463 167.453 160.463 167.964C160.463 168.354 160.589 168.665 160.84 168.897C161.09 169.129 161.508 169.306 162.094 169.427L163.57 169.733C164.499 169.928 165.191 170.23 165.647 170.639C166.102 171.038 166.329 171.582 166.329 172.269C166.329 172.845 166.176 173.347 165.869 173.774C165.563 174.201 165.131 174.536 164.574 174.777C164.016 175.009 163.352 175.125 162.581 175.125ZM167.974 175V165.177H169.423V175H167.974ZM175.953 175.125C175.014 175.125 174.202 174.921 173.514 174.512C172.827 174.094 172.293 173.509 171.912 172.757C171.54 171.995 171.355 171.103 171.355 170.082C171.355 169.05 171.54 168.159 171.912 167.406C172.293 166.654 172.827 166.073 173.514 165.665C174.202 165.256 175.014 165.052 175.953 165.052C176.882 165.052 177.69 165.256 178.377 165.665C179.074 166.073 179.608 166.654 179.979 167.406C180.36 168.159 180.551 169.046 180.551 170.068C180.551 171.099 180.36 171.995 179.979 172.757C179.608 173.509 179.074 174.094 178.377 174.512C177.69 174.921 176.882 175.125 175.953 175.125ZM175.953 173.871C176.928 173.871 177.685 173.542 178.224 172.882C178.772 172.213 179.046 171.28 179.046 170.082C179.046 168.883 178.776 167.954 178.238 167.295C177.699 166.635 176.937 166.306 175.953 166.306C174.977 166.306 174.216 166.635 173.668 167.295C173.129 167.954 172.859 168.883 172.859 170.082C172.859 171.28 173.129 172.213 173.668 172.882C174.216 173.542 174.977 173.871 175.953 173.871ZM182.493 175V165.177H183.594L189.223 172.603V165.177H190.56V175H189.487L183.83 167.546V175H182.493ZM40.6061 194.125C39.6679 194.125 38.8551 193.921 38.1678 193.512C37.4804 193.094 36.9463 192.509 36.5654 191.757C36.1939 190.995 36.0081 190.103 36.0081 189.082C36.0081 188.05 36.1939 187.159 36.5654 186.406C36.9463 185.654 37.4804 185.073 38.1678 184.665C38.8551 184.256 39.6679 184.052 40.6061 184.052C41.535 184.052 42.3431 184.256 43.0305 184.665C43.7272 185.073 44.2613 185.654 44.6328 186.406C45.0137 187.159 45.2041 188.046 45.2041 189.068C45.2041 190.099 45.0137 190.995 44.6328 191.757C44.2613 192.509 43.7272 193.094 43.0305 193.512C42.3431 193.921 41.535 194.125 40.6061 194.125ZM40.6061 192.871C41.5814 192.871 42.3385 192.542 42.8772 191.882C43.4253 191.213 43.6993 190.28 43.6993 189.082C43.6993 187.883 43.4299 186.954 42.8912 186.295C42.3524 185.635 41.5907 185.306 40.6061 185.306C39.6308 185.306 38.8691 185.635 38.321 186.295C37.7823 186.954 37.5129 187.883 37.5129 189.082C37.5129 190.28 37.7823 191.213 38.321 191.882C38.8691 192.542 39.6308 192.871 40.6061 192.871ZM47.1463 194V184.177H51.2148C52.2737 184.177 53.0911 184.442 53.6671 184.971C54.243 185.491 54.5309 186.225 54.5309 187.173C54.5309 188.129 54.243 188.873 53.6671 189.402C53.0911 189.922 52.2737 190.182 51.2148 190.182H48.5953V194H47.1463ZM48.5953 189.026H51.0058C52.4177 189.026 53.1237 188.408 53.1237 187.173C53.1237 185.947 52.4177 185.333 51.0058 185.333H48.5953V189.026ZM58.2239 194V185.389H54.7406V184.177H63.1424V185.389H59.659V194H58.2239ZM64.3452 194V184.177H65.7943V194H64.3452ZM68.0877 194V184.177H69.2999L72.9365 190.963L76.5592 184.177H77.7435V194H76.4477V186.796L73.3685 192.495H72.4907L69.3975 186.824V194H68.0877ZM80.061 194V184.177H81.5101V194H80.061ZM83.302 194V192.941L88.736 185.389H83.302V184.177H90.4358V185.236L84.9879 192.788H90.6448V194H83.302ZM90.9505 194L95.3256 184.177H96.5238L100.913 194H99.4359L98.4048 191.603H93.4306L92.4135 194H90.9505ZM95.9108 185.779L93.9462 190.433H97.9172L95.9386 185.779H95.9108ZM103.521 194V185.389H100.038V184.177H108.439V185.389H104.956V194H103.521ZM109.642 194V184.177H111.091V194H109.642ZM117.62 194.125C116.682 194.125 115.869 193.921 115.182 193.512C114.495 193.094 113.961 192.509 113.58 191.757C113.208 190.995 113.022 190.103 113.022 189.082C113.022 188.05 113.208 187.159 113.58 186.406C113.961 185.654 114.495 185.073 115.182 184.665C115.869 184.256 116.682 184.052 117.62 184.052C118.549 184.052 119.357 184.256 120.045 184.665C120.741 185.073 121.276 185.654 121.647 186.406C122.028 187.159 122.218 188.046 122.218 189.068C122.218 190.099 122.028 190.995 121.647 191.757C121.276 192.509 120.741 193.094 120.045 193.512C119.357 193.921 118.549 194.125 117.62 194.125ZM117.62 192.871C118.596 192.871 119.353 192.542 119.892 191.882C120.44 191.213 120.714 190.28 120.714 189.082C120.714 187.883 120.444 186.954 119.905 186.295C119.367 185.635 118.605 185.306 117.62 185.306C116.645 185.306 115.883 185.635 115.335 186.295C114.797 186.954 114.527 187.883 114.527 189.082C114.527 190.28 114.797 191.213 115.335 191.882C115.883 192.542 116.645 192.871 117.62 192.871ZM124.161 194V184.177H125.261L130.89 191.603V184.177H132.228V194H131.155L125.498 186.546V194H124.161Z" fill="#6A6A6A"/>
<path d="M1 169.606L7.51429 174.933L16.2 164.8" stroke="url(#paint4_linear_2_1976)" stroke-width="1.9" stroke-linecap="round"/>
<path d="M36.3425 222V212.177H40.411C41.47 212.177 42.2874 212.442 42.8633 212.971C43.4392 213.491 43.7272 214.225 43.7272 215.173C43.7272 216.129 43.4392 216.873 42.8633 217.402C42.2874 217.922 41.47 218.182 40.411 218.182H37.7916V222H36.3425ZM37.7916 217.026H40.202C41.6139 217.026 42.3199 216.408 42.3199 215.173C42.3199 213.947 41.6139 213.333 40.202 213.333H37.7916V217.026ZM45.2821 222V212.177H49.3507C50.4096 212.177 51.227 212.432 51.8029 212.943C52.3788 213.445 52.6668 214.151 52.6668 215.061C52.6668 215.795 52.4717 216.399 52.0816 216.873C51.6915 217.337 51.1388 217.648 50.4235 217.806C50.8694 217.955 51.2456 218.312 51.5521 218.879L53.252 222H51.6636L49.9637 218.865C49.7687 218.503 49.5411 218.261 49.281 218.14C49.0302 218.01 48.7051 217.945 48.3057 217.945H46.7312V222H45.2821ZM46.7312 216.859H49.1138C50.5443 216.859 51.2595 216.269 51.2595 215.089C51.2595 213.919 50.5443 213.333 49.1138 213.333H46.7312V216.859ZM58.9072 222.125C57.969 222.125 57.1562 221.921 56.4689 221.512C55.7815 221.094 55.2474 220.509 54.8665 219.757C54.495 218.995 54.3092 218.103 54.3092 217.082C54.3092 216.05 54.495 215.159 54.8665 214.406C55.2474 213.654 55.7815 213.073 56.4689 212.665C57.1562 212.256 57.969 212.052 58.9072 212.052C59.8361 212.052 60.6442 212.256 61.3316 212.665C62.0283 213.073 62.5624 213.654 62.9339 214.406C63.3148 215.159 63.5052 216.046 63.5052 217.068C63.5052 218.099 63.3148 218.995 62.9339 219.757C62.5624 220.509 62.0283 221.094 61.3316 221.512C60.6442 221.921 59.8361 222.125 58.9072 222.125ZM58.9072 220.871C59.8825 220.871 60.6396 220.542 61.1783 219.882C61.7264 219.213 62.0004 218.28 62.0004 217.082C62.0004 215.883 61.731 214.954 61.1923 214.295C60.6535 213.635 59.8918 213.306 58.9072 213.306C57.9319 213.306 57.1702 213.635 56.6221 214.295C56.0834 214.954 55.814 215.883 55.814 217.082C55.814 218.28 56.0834 219.213 56.6221 219.882C57.1702 220.542 57.9319 220.871 58.9072 220.871ZM65.4474 222V212.177H71.6895V213.347H66.8964V216.482H71.3969V217.653H66.8964V222H65.4474ZM73.1624 222V212.177H74.6115V222H73.1624ZM79.2736 222V213.389H75.7903V212.177H84.1921V213.389H80.7087V222H79.2736ZM89.083 222V212.177H90.2952L93.9318 218.963L97.5544 212.177H98.7388V222H97.443V214.796L94.3637 220.495H93.4859L90.3927 214.824V222H89.083ZM100.067 222L104.442 212.177H105.64L110.029 222H108.552L107.521 219.603H102.547L101.53 222H100.067ZM105.027 213.779L103.063 218.433H107.034L105.055 213.779H105.027ZM109.997 222L113.745 216.984L110.151 212.177H111.823L114.567 215.925L117.284 212.177H118.97L115.376 216.984L119.11 222H117.424L114.554 218.071L111.697 222H109.997ZM120.296 222V212.177H121.745V222H120.296ZM124.039 222V212.177H125.251L128.888 218.963L132.51 212.177H133.695V222H132.399V214.796L129.32 220.495H128.442L125.349 214.824V222H124.039ZM136.012 222V212.177H137.461V222H136.012ZM139.253 222V220.941L144.687 213.389H139.253V212.177H146.387V213.236L140.939 220.788H146.596V222H139.253ZM146.902 222L151.277 212.177H152.475L156.864 222H155.387L154.356 219.603H149.382L148.365 222H146.902ZM151.862 213.779L149.897 218.433H153.868L151.89 213.779H151.862ZM159.472 222V213.389H155.989V212.177H164.39V213.389H160.907V222H159.472ZM165.593 222V212.177H167.042V222H165.593ZM173.571 222.125C172.633 222.125 171.82 221.921 171.133 221.512C170.446 221.094 169.912 220.509 169.531 219.757C169.159 218.995 168.973 218.103 168.973 217.082C168.973 216.05 169.159 215.159 169.531 214.406C169.912 213.654 170.446 213.073 171.133 212.665C171.82 212.256 172.633 212.052 173.571 212.052C174.5 212.052 175.308 212.256 175.996 212.665C176.693 213.073 177.227 213.654 177.598 214.406C177.979 215.159 178.169 216.046 178.169 217.068C178.169 218.099 177.979 218.995 177.598 219.757C177.227 220.509 176.693 221.094 175.996 221.512C175.308 221.921 174.5 222.125 173.571 222.125ZM173.571 220.871C174.547 220.871 175.304 220.542 175.843 219.882C176.391 219.213 176.665 218.28 176.665 217.082C176.665 215.883 176.395 214.954 175.857 214.295C175.318 213.635 174.556 213.306 173.571 213.306C172.596 213.306 171.834 213.635 171.286 214.295C170.748 214.954 170.478 215.883 170.478 217.082C170.478 218.28 170.748 219.213 171.286 219.882C171.834 220.542 172.596 220.871 173.571 220.871ZM180.112 222V212.177H181.212L186.841 219.603V212.177H188.179V222H187.106L181.449 214.546V222H180.112ZM193.137 222L197.512 212.177H198.711L203.1 222H201.623L200.592 219.603H195.617L194.6 222H193.137ZM198.098 213.779L196.133 218.433H200.104L198.125 213.779H198.098ZM204.386 222V212.177H208.455C209.514 212.177 210.331 212.442 210.907 212.971C211.483 213.491 211.771 214.225 211.771 215.173C211.771 216.129 211.483 216.873 210.907 217.402C210.331 217.922 209.514 218.182 208.455 218.182H205.835V222H204.386ZM205.835 217.026H208.246C209.658 217.026 210.364 216.408 210.364 215.173C210.364 213.947 209.658 213.333 208.246 213.333H205.835V217.026ZM213.326 222V212.177H217.394C218.453 212.177 219.271 212.442 219.847 212.971C220.422 213.491 220.71 214.225 220.71 215.173C220.71 216.129 220.422 216.873 219.847 217.402C219.271 217.922 218.453 218.182 217.394 218.182H214.775V222H213.326ZM214.775 217.026H217.185C218.597 217.026 219.303 216.408 219.303 215.173C219.303 213.947 218.597 213.333 217.185 213.333H214.775V217.026ZM225.54 222.125C224.769 222.125 224.063 222.028 223.422 221.833C222.781 221.628 222.238 221.345 221.792 220.983L222.251 219.84C222.716 220.193 223.213 220.458 223.742 220.635C224.272 220.811 224.871 220.899 225.54 220.899C226.329 220.899 226.91 220.76 227.281 220.481C227.662 220.193 227.853 219.822 227.853 219.367C227.853 218.995 227.718 218.702 227.449 218.489C227.179 218.266 226.729 218.089 226.097 217.959L224.606 217.653C223.724 217.467 223.064 217.16 222.628 216.733C222.2 216.306 221.987 215.73 221.987 215.005C221.987 214.42 222.14 213.905 222.447 213.459C222.762 213.013 223.199 212.669 223.756 212.428C224.314 212.177 224.955 212.052 225.679 212.052C226.348 212.052 226.966 212.154 227.532 212.358C228.108 212.553 228.596 212.841 228.995 213.222L228.521 214.323C227.732 213.626 226.78 213.278 225.665 213.278C224.978 213.278 224.43 213.431 224.021 213.738C223.622 214.044 223.422 214.453 223.422 214.964C223.422 215.354 223.547 215.665 223.798 215.897C224.049 216.129 224.467 216.306 225.052 216.427L226.529 216.733C227.458 216.928 228.15 217.23 228.605 217.639C229.06 218.038 229.288 218.582 229.288 219.269C229.288 219.845 229.135 220.347 228.828 220.774C228.521 221.201 228.09 221.536 227.532 221.777C226.975 222.009 226.311 222.125 225.54 222.125Z" fill="#6A6A6A"/>
<path d="M1 216.606L7.51429 221.933L16.2 211.8" stroke="url(#paint5_linear_2_1976)" stroke-width="1.9" stroke-linecap="round"/>
<path d="M39.2267 254.125C38.5672 254.125 37.9402 254.028 37.3457 253.833C36.7512 253.628 36.2542 253.345 35.8548 252.983L36.3564 251.868C36.793 252.221 37.2435 252.481 37.708 252.648C38.1724 252.816 38.6647 252.899 39.1849 252.899C39.8537 252.899 40.3599 252.755 40.7036 252.467C41.0566 252.179 41.2331 251.766 41.2331 251.227C41.2331 250.689 41.0566 250.289 40.7036 250.029C40.3599 249.769 39.8583 249.639 39.1988 249.639H37.6801V248.427H39.0595C39.6447 248.427 40.1045 248.278 40.4389 247.981C40.7826 247.684 40.9544 247.275 40.9544 246.755C40.9544 246.281 40.7965 245.919 40.4807 245.668C40.1649 245.408 39.7144 245.278 39.1292 245.278C38.1352 245.278 37.2667 245.635 36.5236 246.351L36.022 245.25C36.4029 244.869 36.8766 244.576 37.4432 244.372C38.0191 244.158 38.6183 244.052 39.2406 244.052C40.2252 244.052 40.9916 244.279 41.5396 244.734C42.0877 245.18 42.3617 245.803 42.3617 246.601C42.3617 247.14 42.2224 247.614 41.9437 248.023C41.6743 248.431 41.2981 248.729 40.8151 248.914C41.4003 249.063 41.8508 249.351 42.1666 249.778C42.4824 250.196 42.6404 250.712 42.6404 251.325C42.6404 252.189 42.3338 252.871 41.7208 253.373C41.117 253.875 40.2856 254.125 39.2267 254.125ZM47.7345 254.125C46.592 254.125 45.7188 253.693 45.115 252.83C44.5206 251.956 44.2233 250.707 44.2233 249.082C44.2233 247.428 44.5206 246.179 45.115 245.333C45.7188 244.479 46.592 244.052 47.7345 244.052C48.8863 244.052 49.7595 244.479 50.354 245.333C50.9485 246.179 51.2457 247.423 51.2457 249.068C51.2457 250.702 50.9438 251.956 50.34 252.83C49.7456 253.693 48.877 254.125 47.7345 254.125ZM47.7345 252.927C48.4405 252.927 48.9653 252.616 49.309 251.994C49.6527 251.371 49.8245 250.396 49.8245 249.068C49.8245 247.739 49.6527 246.773 49.309 246.169C48.9746 245.556 48.4498 245.25 47.7345 245.25C47.0286 245.25 46.5037 245.556 46.16 246.169C45.8164 246.783 45.6445 247.749 45.6445 249.068C45.6445 250.396 45.8164 251.371 46.16 251.994C46.5037 252.616 47.0286 252.927 47.7345 252.927ZM56.7118 254V244.177H58.1609V248.413H63.6646V244.177H65.0997V254H63.6646V249.625H58.1609V254H56.7118ZM71.6567 254.125C70.7186 254.125 69.9058 253.921 69.2184 253.512C68.531 253.094 67.9969 252.509 67.6161 251.757C67.2445 250.995 67.0587 250.103 67.0587 249.082C67.0587 248.05 67.2445 247.159 67.6161 246.406C67.9969 245.654 68.531 245.073 69.2184 244.665C69.9058 244.256 70.7186 244.052 71.6567 244.052C72.5856 244.052 73.3938 244.256 74.0811 244.665C74.7778 245.073 75.3119 245.654 75.6835 246.406C76.0643 247.159 76.2547 248.046 76.2547 249.068C76.2547 250.099 76.0643 250.995 75.6835 251.757C75.3119 252.509 74.7778 253.094 74.0811 253.512C73.3938 253.921 72.5856 254.125 71.6567 254.125ZM71.6567 252.871C72.6321 252.871 73.3891 252.542 73.9279 251.882C74.4759 251.213 74.7499 250.28 74.7499 249.082C74.7499 247.883 74.4806 246.954 73.9418 246.295C73.403 245.635 72.6414 245.306 71.6567 245.306C70.6814 245.306 69.9197 245.635 69.3717 246.295C68.8329 246.954 68.5635 247.883 68.5635 249.082C68.5635 250.28 68.8329 251.213 69.3717 251.882C69.9197 252.542 70.6814 252.871 71.6567 252.871ZM79.9811 254V245.389H76.4978V244.177H84.8996V245.389H81.4163V254H79.9811ZM93.037 254.125C92.266 254.125 91.5601 254.028 90.9191 253.833C90.2782 253.628 89.7348 253.345 89.2889 252.983L89.7487 251.84C90.2132 252.193 90.7101 252.458 91.2396 252.635C91.7691 252.811 92.3682 252.899 93.037 252.899C93.8266 252.899 94.4071 252.76 94.7787 252.481C95.1595 252.193 95.3499 251.822 95.3499 251.367C95.3499 250.995 95.2152 250.702 94.9459 250.489C94.6765 250.266 94.226 250.089 93.5943 249.959L92.1035 249.653C91.221 249.467 90.5615 249.16 90.1249 248.733C89.6976 248.306 89.484 247.73 89.484 247.005C89.484 246.42 89.6373 245.905 89.9438 245.459C90.2596 245.013 90.6962 244.669 91.2535 244.428C91.8109 244.177 92.4518 244.052 93.1763 244.052C93.8451 244.052 94.4628 244.154 95.0295 244.358C95.6054 244.553 96.093 244.841 96.4925 245.222L96.0187 246.323C95.2292 245.626 94.2771 245.278 93.1624 245.278C92.475 245.278 91.927 245.431 91.5183 245.738C91.1188 246.044 90.9191 246.453 90.9191 246.964C90.9191 247.354 91.0445 247.665 91.2953 247.897C91.5461 248.129 91.9641 248.306 92.5493 248.427L94.0263 248.733C94.9552 248.928 95.6472 249.23 96.1023 249.639C96.5575 250.038 96.7851 250.582 96.7851 251.269C96.7851 251.845 96.6318 252.347 96.3253 252.774C96.0187 253.201 95.5868 253.536 95.0295 253.777C94.4721 254.009 93.808 254.125 93.037 254.125ZM98.4302 254V244.177H104.784V245.347H99.8235V248.427H104.491V249.597H99.8235V252.83H104.784V254H98.4302ZM106.635 254V244.177H108.084V252.76H112.947V254H106.635ZM114.323 254V244.177H115.772V252.76H120.635V254H114.323ZM122.011 254V244.177H123.46V254H122.011ZM125.725 254V244.177H126.826L132.455 251.603V244.177H133.793V254H132.72L127.063 246.546V254H125.725ZM140.678 254.125C139.61 254.125 138.709 253.926 137.975 253.526C137.241 253.118 136.684 252.537 136.303 251.785C135.931 251.032 135.746 250.136 135.746 249.095C135.746 248.064 135.936 247.173 136.317 246.42C136.698 245.659 137.251 245.073 137.975 244.665C138.7 244.256 139.568 244.052 140.581 244.052C141.277 244.052 141.923 244.154 142.517 244.358C143.112 244.562 143.609 244.855 144.008 245.236L143.493 246.365C143.047 245.993 142.592 245.728 142.127 245.57C141.663 245.403 141.147 245.32 140.581 245.32C139.494 245.32 138.667 245.649 138.1 246.309C137.534 246.959 137.251 247.888 137.251 249.095C137.251 250.331 137.538 251.269 138.114 251.91C138.7 252.551 139.573 252.871 140.734 252.871C141.44 252.871 142.141 252.755 142.838 252.523V249.89H140.441V248.803H144.05V253.429C143.632 253.633 143.112 253.8 142.489 253.93C141.876 254.06 141.273 254.125 140.678 254.125ZM149.932 254V244.177H154C155.059 244.177 155.877 244.442 156.453 244.971C157.029 245.491 157.316 246.225 157.316 247.173C157.316 248.129 157.029 248.873 156.453 249.402C155.877 249.922 155.059 250.182 154 250.182H151.381V254H149.932ZM151.381 249.026H153.791C155.203 249.026 155.909 248.408 155.909 247.173C155.909 245.947 155.203 245.333 153.791 245.333H151.381V249.026ZM158.871 254V244.177H162.94C163.999 244.177 164.816 244.432 165.392 244.943C165.968 245.445 166.256 246.151 166.256 247.061C166.256 247.795 166.061 248.399 165.671 248.873C165.281 249.337 164.728 249.648 164.013 249.806C164.459 249.955 164.835 250.312 165.141 250.879L166.841 254H165.253L163.553 250.865C163.358 250.503 163.13 250.261 162.87 250.14C162.62 250.01 162.294 249.945 161.895 249.945H160.321V254H158.871ZM160.321 248.859H162.703C164.134 248.859 164.849 248.269 164.849 247.089C164.849 245.919 164.134 245.333 162.703 245.333H160.321V248.859ZM172.497 254.125C171.558 254.125 170.746 253.921 170.058 253.512C169.371 253.094 168.837 252.509 168.456 251.757C168.084 250.995 167.899 250.103 167.899 249.082C167.899 248.05 168.084 247.159 168.456 246.406C168.837 245.654 169.371 245.073 170.058 244.665C170.746 244.256 171.558 244.052 172.497 244.052C173.425 244.052 174.234 244.256 174.921 244.665C175.618 245.073 176.152 245.654 176.523 246.406C176.904 247.159 177.095 248.046 177.095 249.068C177.095 250.099 176.904 250.995 176.523 251.757C176.152 252.509 175.618 253.094 174.921 253.512C174.234 253.921 173.425 254.125 172.497 254.125ZM172.497 252.871C173.472 252.871 174.229 252.542 174.768 251.882C175.316 251.213 175.59 250.28 175.59 249.082C175.59 247.883 175.32 246.954 174.782 246.295C174.243 245.635 173.481 245.306 172.497 245.306C171.521 245.306 170.759 245.635 170.211 246.295C169.673 246.954 169.403 247.883 169.403 249.082C169.403 250.28 169.673 251.213 170.211 251.882C170.759 252.542 171.521 252.871 172.497 252.871ZM179.037 254V244.177H182.506C184.122 244.177 185.367 244.6 186.24 245.445C187.123 246.29 187.564 247.502 187.564 249.082C187.564 250.661 187.123 251.877 186.24 252.732C185.367 253.577 184.122 254 182.506 254H179.037ZM180.486 252.788H182.422C184.847 252.788 186.059 251.552 186.059 249.082C186.059 246.62 184.847 245.389 182.422 245.389H180.486V252.788ZM193.471 254.125C192.162 254.125 191.158 253.782 190.462 253.094C189.774 252.398 189.431 251.381 189.431 250.043V244.177H190.88V250.015C190.88 251.919 191.744 252.871 193.471 252.871C195.199 252.871 196.063 251.919 196.063 250.015V244.177H197.484V250.043C197.484 251.381 197.145 252.398 196.467 253.094C195.789 253.782 194.79 254.125 193.471 254.125ZM204.122 254.125C203.128 254.125 202.278 253.921 201.572 253.512C200.866 253.104 200.323 252.523 199.942 251.771C199.57 251.009 199.385 250.113 199.385 249.082C199.385 248.05 199.57 247.159 199.942 246.406C200.323 245.654 200.866 245.073 201.572 244.665C202.278 244.256 203.128 244.052 204.122 244.052C204.791 244.052 205.413 244.158 205.989 244.372C206.574 244.576 207.062 244.874 207.452 245.264L206.95 246.42C206.523 246.039 206.082 245.765 205.627 245.598C205.181 245.422 204.693 245.333 204.164 245.333C203.105 245.333 202.297 245.659 201.739 246.309C201.182 246.959 200.903 247.883 200.903 249.082C200.903 250.28 201.182 251.209 201.739 251.868C202.297 252.518 203.105 252.844 204.164 252.844C204.693 252.844 205.181 252.76 205.627 252.593C206.082 252.416 206.523 252.138 206.95 251.757L207.452 252.913C207.062 253.294 206.574 253.591 205.989 253.805C205.413 254.019 204.791 254.125 204.122 254.125ZM211.395 254V245.389H207.912V244.177H216.314V245.389H212.83V254H211.395ZM220.451 254.125C219.68 254.125 218.974 254.028 218.333 253.833C217.692 253.628 217.149 253.345 216.703 252.983L217.163 251.84C217.627 252.193 218.124 252.458 218.653 252.635C219.183 252.811 219.782 252.899 220.451 252.899C221.24 252.899 221.821 252.76 222.192 252.481C222.573 252.193 222.764 251.822 222.764 251.367C222.764 250.995 222.629 250.702 222.36 250.489C222.09 250.266 221.64 250.089 221.008 249.959L219.517 249.653C218.635 249.467 217.975 249.16 217.539 248.733C217.111 248.306 216.898 247.73 216.898 247.005C216.898 246.42 217.051 245.905 217.358 245.459C217.673 245.013 218.11 244.669 218.667 244.428C219.225 244.177 219.866 244.052 220.59 244.052C221.259 244.052 221.877 244.154 222.443 244.358C223.019 244.553 223.507 244.841 223.906 245.222L223.433 246.323C222.643 245.626 221.691 245.278 220.576 245.278C219.889 245.278 219.341 245.431 218.932 245.738C218.533 246.044 218.333 246.453 218.333 246.964C218.333 247.354 218.458 247.665 218.709 247.897C218.96 248.129 219.378 248.306 219.963 248.427L221.44 248.733C222.369 248.928 223.061 249.23 223.516 249.639C223.971 250.038 224.199 250.582 224.199 251.269C224.199 251.845 224.046 252.347 223.739 252.774C223.433 253.201 223.001 253.536 222.443 253.777C221.886 254.009 221.222 254.125 220.451 254.125Z" fill="#6A6A6A"/>
<path d="M1 248.606L7.51429 253.933L16.2 243.8" stroke="url(#paint6_linear_2_1976)" stroke-width="1.9" stroke-linecap="round"/>
<path d="M36.8302 287V285.788H39.0595V278.849L37.3178 279.936L36.7326 278.863L39.4775 277.177H40.4946V285.788H42.5846V287H36.8302ZM50.712 287V282.416L46.95 277.177H48.622L51.4644 281.148L54.3068 277.177H55.9091L52.1471 282.43V287H50.712ZM57.1608 287V277.177H63.5144V278.347H58.5542V281.427H63.2218V282.597H58.5542V285.83H63.5144V287H57.1608ZM64.186 287L68.561 277.177H69.7593L74.1483 287H72.6714L71.6403 284.603H66.6661L65.649 287H64.186ZM69.1462 278.779L67.1816 283.433H71.1526L69.1741 278.779H69.1462ZM75.4347 287V277.177H79.5033C80.5622 277.177 81.3796 277.432 81.9555 277.943C82.5315 278.445 82.8194 279.151 82.8194 280.061C82.8194 280.795 82.6243 281.399 82.2342 281.873C81.8441 282.337 81.2914 282.648 80.5761 282.806C81.022 282.955 81.3982 283.312 81.7047 283.879L83.4046 287H81.8162L80.1163 283.865C79.9213 283.503 79.6937 283.261 79.4336 283.14C79.1828 283.01 78.8577 282.945 78.4583 282.945H76.8838V287H75.4347ZM76.8838 281.859H79.2664C80.6969 281.859 81.4121 281.269 81.4121 280.089C81.4121 278.919 80.6969 278.333 79.2664 278.333H76.8838V281.859ZM91.7988 287.125C91.0278 287.125 90.3218 287.028 89.6809 286.833C89.04 286.628 88.4966 286.345 88.0507 285.983L88.5105 284.84C88.975 285.193 89.4719 285.458 90.0014 285.635C90.5308 285.811 91.13 285.899 91.7988 285.899C92.5883 285.899 93.1689 285.76 93.5404 285.481C93.9213 285.193 94.1117 284.822 94.1117 284.367C94.1117 283.995 93.977 283.702 93.7076 283.489C93.4383 283.266 92.9878 283.089 92.3561 282.959L90.8652 282.653C89.9828 282.467 89.3233 282.16 88.8867 281.733C88.4594 281.306 88.2458 280.73 88.2458 280.005C88.2458 279.42 88.399 278.905 88.7056 278.459C89.0214 278.013 89.458 277.669 90.0153 277.428C90.5726 277.177 91.2136 277.052 91.9381 277.052C92.6069 277.052 93.2246 277.154 93.7912 277.358C94.3672 277.553 94.8548 277.841 95.2542 278.222L94.7805 279.323C93.991 278.626 93.0388 278.278 91.9242 278.278C91.2368 278.278 90.6888 278.431 90.28 278.738C89.8806 279.044 89.6809 279.453 89.6809 279.964C89.6809 280.354 89.8063 280.665 90.0571 280.897C90.3079 281.129 90.7259 281.306 91.3111 281.427L92.788 281.733C93.7169 281.928 94.409 282.23 94.8641 282.639C95.3193 283.038 95.5468 283.582 95.5468 284.269C95.5468 284.845 95.3936 285.347 95.087 285.774C94.7805 286.201 94.3486 286.536 93.7912 286.777C93.2339 287.009 92.5698 287.125 91.7988 287.125ZM101.163 287.125C99.8532 287.125 98.85 286.782 98.1534 286.094C97.466 285.398 97.1223 284.381 97.1223 283.043V277.177H98.5714V283.015C98.5714 284.919 99.4352 285.871 101.163 285.871C102.891 285.871 103.755 284.919 103.755 283.015V277.177H105.176V283.043C105.176 284.381 104.837 285.398 104.159 286.094C103.481 286.782 102.482 287.125 101.163 287.125ZM107.411 287V277.177H111.479C112.538 277.177 113.356 277.442 113.931 277.971C114.507 278.491 114.795 279.225 114.795 280.173C114.795 281.129 114.507 281.873 113.931 282.402C113.356 282.922 112.538 283.182 111.479 283.182H108.86V287H107.411ZM108.86 282.026H111.27C112.682 282.026 113.388 281.408 113.388 280.173C113.388 278.947 112.682 278.333 111.27 278.333H108.86V282.026ZM116.35 287V277.177H120.419C121.478 277.177 122.295 277.442 122.871 277.971C123.447 278.491 123.735 279.225 123.735 280.173C123.735 281.129 123.447 281.873 122.871 282.402C122.295 282.922 121.478 283.182 120.419 283.182H117.799V287H116.35ZM117.799 282.026H120.21C121.622 282.026 122.328 281.408 122.328 280.173C122.328 278.947 121.622 278.333 120.21 278.333H117.799V282.026ZM129.472 287.125C128.534 287.125 127.721 286.921 127.034 286.512C126.346 286.094 125.812 285.509 125.431 284.757C125.06 283.995 124.874 283.103 124.874 282.082C124.874 281.05 125.06 280.159 125.431 279.406C125.812 278.654 126.346 278.073 127.034 277.665C127.721 277.256 128.534 277.052 129.472 277.052C130.401 277.052 131.209 277.256 131.896 277.665C132.593 278.073 133.127 278.654 133.499 279.406C133.879 280.159 134.07 281.046 134.07 282.068C134.07 283.099 133.879 283.995 133.499 284.757C133.127 285.509 132.593 286.094 131.896 286.512C131.209 286.921 130.401 287.125 129.472 287.125ZM129.472 285.871C130.447 285.871 131.204 285.542 131.743 284.882C132.291 284.213 132.565 283.28 132.565 282.082C132.565 280.883 132.296 279.954 131.757 279.295C131.218 278.635 130.457 278.306 129.472 278.306C128.497 278.306 127.735 278.635 127.187 279.295C126.648 279.954 126.379 280.883 126.379 282.082C126.379 283.28 126.648 284.213 127.187 284.882C127.735 285.542 128.497 285.871 129.472 285.871ZM136.012 287V277.177H140.081C141.14 277.177 141.957 277.432 142.533 277.943C143.109 278.445 143.397 279.151 143.397 280.061C143.397 280.795 143.202 281.399 142.812 281.873C142.421 282.337 141.869 282.648 141.153 282.806C141.599 282.955 141.976 283.312 142.282 283.879L143.982 287H142.394L140.694 283.865C140.499 283.503 140.271 283.261 140.011 283.14C139.76 283.01 139.435 282.945 139.036 282.945H137.461V287H136.012ZM137.461 281.859H139.844C141.274 281.859 141.989 281.269 141.989 280.089C141.989 278.919 141.274 278.333 139.844 278.333H137.461V281.859ZM147.566 287V278.389H144.083V277.177H152.484V278.389H149.001V287H147.566Z" fill="#6A6A6A"/>
<path d="M1 281.606L7.51429 286.933L16.2 276.8" stroke="url(#paint7_linear_2_1976)" stroke-width="1.9" stroke-linecap="round"/>
<defs>
<linearGradient id="paint0_linear_2_1976" x1="2.33317" y1="3.80005" x2="18.2034" y2="6.70837" gradientUnits="userSpaceOnUse">
<stop stop-color="#F79E0E"/>
<stop offset="1" stop-color="#EEBD23"/>
</linearGradient>
<linearGradient id="paint1_linear_2_1976" x1="2.33317" y1="36.8" x2="18.2034" y2="39.7084" gradientUnits="userSpaceOnUse">
<stop stop-color="#F79E0E"/>
<stop offset="1" stop-color="#EEBD23"/>
</linearGradient>
<linearGradient id="paint2_linear_2_1976" x1="2.33317" y1="70.8" x2="18.2034" y2="73.7084" gradientUnits="userSpaceOnUse">
<stop stop-color="#F79E0E"/>
<stop offset="1" stop-color="#EEBD23"/>
</linearGradient>
<linearGradient id="paint3_linear_2_1976" x1="2.33317" y1="116.8" x2="18.2034" y2="119.708" gradientUnits="userSpaceOnUse">
<stop stop-color="#F79E0E"/>
<stop offset="1" stop-color="#EEBD23"/>
</linearGradient>
<linearGradient id="paint4_linear_2_1976" x1="2.33317" y1="164.8" x2="18.2034" y2="167.708" gradientUnits="userSpaceOnUse">
<stop stop-color="#F79E0E"/>
<stop offset="1" stop-color="#EEBD23"/>
</linearGradient>
<linearGradient id="paint5_linear_2_1976" x1="2.33317" y1="211.8" x2="18.2034" y2="214.708" gradientUnits="userSpaceOnUse">
<stop stop-color="#F79E0E"/>
<stop offset="1" stop-color="#EEBD23"/>
</linearGradient>
<linearGradient id="paint6_linear_2_1976" x1="2.33317" y1="243.8" x2="18.2034" y2="246.708" gradientUnits="userSpaceOnUse">
<stop stop-color="#F79E0E"/>
<stop offset="1" stop-color="#EEBD23"/>
</linearGradient>
<linearGradient id="paint7_linear_2_1976" x1="2.33317" y1="276.8" x2="18.2034" y2="279.708" gradientUnits="userSpaceOnUse">
<stop stop-color="#F79E0E"/>
<stop offset="1" stop-color="#EEBD23"/>
</linearGradient>
</defs>
</svg>
