<svg width="310" height="188" viewBox="0 0 310 188" fill="none" xmlns="http://www.w3.org/2000/svg">
<rect x="111" width="88" height="88" rx="44" fill="url(#paint0_linear_2_1503)"/>
<path d="M170.375 22.25H140.625C139.451 22.25 138.5 23.2014 138.5 24.375V62.625C138.5 63.7986 139.451 64.75 140.625 64.75H170.375C171.549 64.75 172.5 63.7986 172.5 62.625V24.375C172.5 23.2014 171.549 22.25 170.375 22.25Z" stroke="white" stroke-width="4" stroke-linecap="round" stroke-linejoin="round"/>
<path d="M147 22.25H156.562V39.25L151.781 35L147 39.25V22.25Z" stroke="white" stroke-width="4" stroke-linecap="round" stroke-linejoin="round"/>
<path d="M147 47.75H157.625" stroke="white" stroke-width="4" stroke-linecap="round"/>
<path d="M147 54.125H164" stroke="white" stroke-width="4" stroke-linecap="round"/>
<path d="M76.328 130.24C74.152 130.24 72.456 129.688 71.24 128.584C70.024 127.48 69.384 125.84 69.32 123.664C69.304 123.2 69.296 122.52 69.296 121.624C69.296 120.712 69.304 120.024 69.32 119.56C69.384 117.432 70.04 115.8 71.288 114.664C72.536 113.528 74.216 112.96 76.328 112.96C78.44 112.96 80.12 113.528 81.368 114.664C82.632 115.8 83.296 117.432 83.36 119.56C83.392 120.488 83.408 121.176 83.408 121.624C83.408 122.056 83.392 122.736 83.36 123.664C83.28 125.84 82.632 127.48 81.416 128.584C80.2 129.688 78.504 130.24 76.328 130.24ZM76.328 127.48C77.4 127.48 78.256 127.16 78.896 126.52C79.536 125.864 79.88 124.872 79.928 123.544C79.96 122.584 79.976 121.936 79.976 121.6C79.976 121.232 79.96 120.584 79.928 119.656C79.88 118.328 79.536 117.344 78.896 116.704C78.256 116.048 77.4 115.72 76.328 115.72C75.272 115.72 74.424 116.048 73.784 116.704C73.144 117.344 72.8 118.328 72.752 119.656C72.736 120.12 72.728 120.768 72.728 121.6C72.728 122.416 72.736 123.064 72.752 123.544C72.8 124.872 73.136 125.864 73.76 126.52C74.4 127.16 75.256 127.48 76.328 127.48ZM87.5675 130C87.4075 130 87.2715 129.944 87.1595 129.832C87.0475 129.72 86.9915 129.584 86.9915 129.424V118.12C86.9915 117.96 87.0475 117.824 87.1595 117.712C87.2715 117.584 87.4075 117.52 87.5675 117.52H89.5115C89.6875 117.52 89.8315 117.576 89.9435 117.688C90.0555 117.8 90.1115 117.944 90.1115 118.12V119.104C90.4955 118.592 90.9755 118.2 91.5515 117.928C92.1435 117.656 92.8155 117.52 93.5675 117.52H94.5515C94.7275 117.52 94.8635 117.576 94.9595 117.688C95.0715 117.784 95.1275 117.92 95.1275 118.096V119.824C95.1275 119.984 95.0715 120.12 94.9595 120.232C94.8635 120.344 94.7275 120.4 94.5515 120.4H92.6795C91.9275 120.4 91.3355 120.616 90.9035 121.048C90.4715 121.48 90.2555 122.072 90.2555 122.824V129.424C90.2555 129.584 90.1995 129.72 90.0875 129.832C89.9755 129.944 89.8315 130 89.6555 130H87.5675ZM103.172 135.28C101.748 135.28 100.596 135.04 99.7158 134.56C98.8358 134.096 98.2118 133.56 97.8438 132.952C97.4758 132.344 97.2918 131.824 97.2918 131.392C97.2918 131.248 97.3478 131.12 97.4598 131.008C97.5878 130.896 97.7238 130.84 97.8678 130.84H99.9558C100.1 130.84 100.22 130.872 100.316 130.936C100.428 131.016 100.516 131.152 100.58 131.344C100.74 131.776 100.996 132.136 101.348 132.424C101.716 132.728 102.284 132.88 103.052 132.88C104.012 132.88 104.716 132.664 105.164 132.232C105.628 131.8 105.86 131.056 105.86 130V128.368C104.98 129.408 103.748 129.928 102.164 129.928C100.5 129.928 99.2438 129.416 98.3958 128.392C97.5638 127.368 97.1158 125.992 97.0518 124.264L97.0278 123.616L97.0518 122.968C97.1158 121.272 97.5718 119.904 98.4198 118.864C99.2678 117.808 100.516 117.28 102.164 117.28C103.012 117.28 103.756 117.44 104.396 117.76C105.036 118.08 105.572 118.52 106.004 119.08V118.12C106.004 117.944 106.06 117.8 106.172 117.688C106.284 117.576 106.42 117.52 106.58 117.52H108.524C108.684 117.52 108.82 117.584 108.932 117.712C109.044 117.824 109.1 117.96 109.1 118.12L109.124 129.688C109.124 131.464 108.628 132.84 107.636 133.816C106.644 134.792 105.156 135.28 103.172 135.28ZM103.052 127.384C103.964 127.384 104.644 127.096 105.092 126.52C105.556 125.944 105.812 125.24 105.86 124.408C105.876 124.28 105.884 124.016 105.884 123.616C105.884 123.232 105.876 122.976 105.86 122.848C105.812 122 105.556 121.288 105.092 120.712C104.644 120.136 103.964 119.848 103.052 119.848C101.324 119.848 100.412 120.912 100.316 123.04L100.292 123.616C100.292 124.752 100.492 125.664 100.892 126.352C101.308 127.04 102.028 127.384 103.052 127.384ZM116.665 130.24C115.849 130.24 115.097 130.08 114.409 129.76C113.737 129.424 113.201 128.976 112.801 128.416C112.417 127.856 112.225 127.24 112.225 126.568C112.225 125.48 112.665 124.6 113.545 123.928C114.425 123.256 115.633 122.8 117.169 122.56L120.457 122.08V121.576C120.457 120.872 120.281 120.344 119.929 119.992C119.577 119.64 119.009 119.464 118.225 119.464C117.697 119.464 117.265 119.568 116.929 119.776C116.609 119.968 116.353 120.16 116.161 120.352C115.969 120.56 115.841 120.696 115.777 120.76C115.713 120.952 115.593 121.048 115.417 121.048H113.569C113.425 121.048 113.297 121 113.185 120.904C113.089 120.808 113.041 120.68 113.041 120.52C113.057 120.12 113.249 119.664 113.617 119.152C114.001 118.64 114.585 118.2 115.369 117.832C116.153 117.464 117.113 117.28 118.249 117.28C120.137 117.28 121.513 117.704 122.377 118.552C123.241 119.4 123.673 120.512 123.673 121.888V129.424C123.673 129.584 123.617 129.72 123.505 129.832C123.409 129.944 123.273 130 123.097 130H121.153C120.993 130 120.857 129.944 120.745 129.832C120.633 129.72 120.577 129.584 120.577 129.424V128.488C120.225 129 119.721 129.424 119.065 129.76C118.425 130.08 117.625 130.24 116.665 130.24ZM117.481 127.96C118.361 127.96 119.081 127.672 119.641 127.096C120.201 126.52 120.481 125.68 120.481 124.576V124.072L118.081 124.456C117.153 124.6 116.449 124.832 115.969 125.152C115.505 125.472 115.273 125.864 115.273 126.328C115.273 126.84 115.489 127.24 115.921 127.528C116.353 127.816 116.873 127.96 117.481 127.96ZM128.048 130C127.888 130 127.752 129.944 127.64 129.832C127.528 129.72 127.472 129.584 127.472 129.424V118.096C127.472 117.936 127.528 117.8 127.64 117.688C127.752 117.576 127.888 117.52 128.048 117.52H130.016C130.176 117.52 130.312 117.576 130.424 117.688C130.536 117.8 130.592 117.936 130.592 118.096V119.08C131.536 117.88 132.872 117.28 134.6 117.28C136.072 117.28 137.24 117.768 138.104 118.744C138.968 119.704 139.4 121.016 139.4 122.68V129.424C139.4 129.584 139.344 129.72 139.232 129.832C139.136 129.944 139 130 138.824 130H136.712C136.552 130 136.416 129.944 136.304 129.832C136.192 129.72 136.136 129.584 136.136 129.424V122.824C136.136 121.88 135.904 121.152 135.44 120.64C134.992 120.112 134.336 119.848 133.472 119.848C132.624 119.848 131.952 120.112 131.456 120.64C130.976 121.168 130.736 121.896 130.736 122.824V129.424C130.736 129.584 130.68 129.72 130.568 129.832C130.472 129.944 130.336 130 130.16 130H128.048ZM143.648 115.456C143.488 115.456 143.352 115.4 143.24 115.288C143.128 115.176 143.072 115.04 143.072 114.88V113.152C143.072 112.992 143.128 112.856 143.24 112.744C143.352 112.632 143.488 112.576 143.648 112.576H145.832C145.992 112.576 146.128 112.632 146.24 112.744C146.368 112.856 146.432 112.992 146.432 113.152V114.88C146.432 115.04 146.376 115.176 146.264 115.288C146.152 115.4 146.008 115.456 145.832 115.456H143.648ZM143.744 130C143.584 130 143.448 129.944 143.336 129.832C143.224 129.72 143.168 129.584 143.168 129.424V118.096C143.168 117.936 143.224 117.8 143.336 117.688C143.448 117.576 143.584 117.52 143.744 117.52H145.736C145.912 117.52 146.048 117.576 146.144 117.688C146.256 117.784 146.312 117.92 146.312 118.096V129.424C146.312 129.584 146.256 129.72 146.144 129.832C146.048 129.944 145.912 130 145.736 130H143.744ZM155.616 130.24C153.856 130.24 152.448 129.752 151.392 128.776C150.352 127.8 149.8 126.448 149.736 124.72L149.712 123.76L149.736 122.8C149.8 121.072 150.352 119.72 151.392 118.744C152.448 117.768 153.856 117.28 155.616 117.28C156.865 117.28 157.921 117.504 158.784 117.952C159.664 118.4 160.312 118.952 160.728 119.608C161.161 120.248 161.393 120.856 161.425 121.432C161.441 121.592 161.385 121.728 161.257 121.84C161.145 121.952 161.009 122.008 160.848 122.008H158.737C158.577 122.008 158.449 121.976 158.353 121.912C158.273 121.832 158.192 121.704 158.112 121.528C157.873 120.904 157.553 120.456 157.153 120.184C156.769 119.912 156.273 119.776 155.664 119.776C154.849 119.776 154.209 120.04 153.745 120.568C153.281 121.08 153.033 121.864 153 122.92L152.976 123.808L153 124.6C153.064 126.696 153.952 127.744 155.664 127.744C156.289 127.744 156.793 127.608 157.176 127.336C157.561 127.064 157.873 126.616 158.112 125.992C158.192 125.816 158.273 125.696 158.353 125.632C158.449 125.552 158.577 125.512 158.737 125.512H160.848C161.009 125.512 161.145 125.568 161.257 125.68C161.385 125.792 161.441 125.928 161.425 126.088C161.393 126.648 161.168 127.248 160.752 127.888C160.337 128.528 159.697 129.08 158.832 129.544C157.969 130.008 156.897 130.24 155.616 130.24ZM171.716 130C171.556 130 171.42 129.944 171.308 129.832C171.196 129.72 171.14 129.584 171.14 129.424V113.8C171.14 113.624 171.188 113.48 171.284 113.368C171.396 113.256 171.54 113.2 171.716 113.2H182.132C182.308 113.2 182.452 113.256 182.564 113.368C182.676 113.48 182.732 113.624 182.732 113.8V115.48C182.732 115.656 182.676 115.8 182.564 115.912C182.452 116.008 182.308 116.056 182.132 116.056H174.428V120.616H181.652C181.828 120.616 181.972 120.672 182.084 120.784C182.196 120.896 182.252 121.04 182.252 121.216V122.896C182.252 123.072 182.196 123.216 182.084 123.328C181.972 123.424 181.828 123.472 181.652 123.472H174.428V129.424C174.428 129.6 174.372 129.744 174.26 129.856C174.148 129.952 174.004 130 173.828 130H171.716ZM186.281 130C186.121 130 185.985 129.944 185.873 129.832C185.761 129.72 185.705 129.584 185.705 129.424V118.12C185.705 117.96 185.761 117.824 185.873 117.712C185.985 117.584 186.121 117.52 186.281 117.52H188.225C188.401 117.52 188.545 117.576 188.657 117.688C188.769 117.8 188.825 117.944 188.825 118.12V119.104C189.209 118.592 189.689 118.2 190.265 117.928C190.857 117.656 191.529 117.52 192.281 117.52H193.265C193.441 117.52 193.577 117.576 193.673 117.688C193.785 117.784 193.841 117.92 193.841 118.096V119.824C193.841 119.984 193.785 120.12 193.673 120.232C193.577 120.344 193.441 120.4 193.265 120.4H191.393C190.641 120.4 190.049 120.616 189.617 121.048C189.185 121.48 188.969 122.072 188.969 122.824V129.424C188.969 129.584 188.913 129.72 188.801 129.832C188.689 129.944 188.545 130 188.369 130H186.281ZM201.064 130.24C199.592 130.24 198.432 129.76 197.584 128.8C196.736 127.824 196.312 126.504 196.312 124.84V118.096C196.312 117.936 196.368 117.8 196.48 117.688C196.592 117.576 196.728 117.52 196.888 117.52H199C199.176 117.52 199.312 117.576 199.408 117.688C199.52 117.784 199.576 117.92 199.576 118.096V124.696C199.576 126.68 200.448 127.672 202.192 127.672C203.024 127.672 203.68 127.408 204.16 126.88C204.656 126.352 204.904 125.624 204.904 124.696V118.096C204.904 117.936 204.96 117.8 205.072 117.688C205.184 117.576 205.32 117.52 205.48 117.52H207.592C207.768 117.52 207.904 117.576 208 117.688C208.112 117.784 208.168 117.92 208.168 118.096V129.424C208.168 129.584 208.112 129.72 208 129.832C207.904 129.944 207.768 130 207.592 130H205.648C205.488 130 205.352 129.944 205.24 129.832C205.128 129.72 205.072 129.584 205.072 129.424V128.44C204.176 129.64 202.84 130.24 201.064 130.24ZM212.539 115.456C212.379 115.456 212.243 115.4 212.131 115.288C212.019 115.176 211.963 115.04 211.963 114.88V113.152C211.963 112.992 212.019 112.856 212.131 112.744C212.243 112.632 212.379 112.576 212.539 112.576H214.723C214.883 112.576 215.019 112.632 215.131 112.744C215.259 112.856 215.323 112.992 215.323 113.152V114.88C215.323 115.04 215.267 115.176 215.155 115.288C215.043 115.4 214.899 115.456 214.723 115.456H212.539ZM212.635 130C212.475 130 212.339 129.944 212.227 129.832C212.115 129.72 212.059 129.584 212.059 129.424V118.096C212.059 117.936 212.115 117.8 212.227 117.688C212.339 117.576 212.475 117.52 212.635 117.52H214.627C214.803 117.52 214.939 117.576 215.035 117.688C215.147 117.784 215.203 117.92 215.203 118.096V129.424C215.203 129.584 215.147 129.72 215.035 129.832C214.939 129.944 214.803 130 214.627 130H212.635ZM224.747 130C223.291 130 222.195 129.624 221.459 128.872C220.739 128.104 220.379 126.984 220.379 125.512V120.064H218.483C218.323 120.064 218.187 120.008 218.075 119.896C217.963 119.768 217.907 119.624 217.907 119.464V118.096C217.907 117.936 217.963 117.8 218.075 117.688C218.187 117.576 218.323 117.52 218.483 117.52H220.379V113.536C220.379 113.36 220.435 113.224 220.547 113.128C220.659 113.016 220.795 112.96 220.955 112.96H222.899C223.075 112.96 223.211 113.016 223.307 113.128C223.419 113.224 223.475 113.36 223.475 113.536V117.52H226.475C226.651 117.52 226.787 117.576 226.883 117.688C226.995 117.784 227.051 117.92 227.051 118.096V119.464C227.051 119.64 226.995 119.784 226.883 119.896C226.771 120.008 226.635 120.064 226.475 120.064H223.475V125.272C223.475 125.96 223.595 126.48 223.835 126.832C224.075 127.184 224.475 127.36 225.035 127.36H226.691C226.851 127.36 226.987 127.416 227.099 127.528C227.211 127.64 227.267 127.776 227.267 127.936V129.424C227.267 129.584 227.211 129.72 227.099 129.832C227.003 129.944 226.867 130 226.691 130H224.747ZM234.844 130.24C233.644 130.24 232.636 130.064 231.82 129.712C231.004 129.344 230.396 128.92 229.996 128.44C229.612 127.944 229.42 127.52 229.42 127.168C229.42 127.008 229.476 126.88 229.588 126.784C229.7 126.688 229.828 126.64 229.972 126.64H231.868C232.012 126.64 232.132 126.696 232.228 126.808C232.292 126.856 232.46 127 232.732 127.24C233.004 127.496 233.324 127.696 233.692 127.84C234.06 127.984 234.468 128.056 234.916 128.056C235.556 128.056 236.084 127.928 236.5 127.672C236.916 127.416 237.124 127.064 237.124 126.616C237.124 126.28 237.028 126.008 236.836 125.8C236.66 125.592 236.332 125.408 235.852 125.248C235.372 125.072 234.66 124.888 233.716 124.696C232.356 124.408 231.348 123.968 230.692 123.376C230.052 122.784 229.732 122 229.732 121.024C229.732 120.384 229.924 119.784 230.308 119.224C230.692 118.648 231.26 118.184 232.012 117.832C232.78 117.464 233.692 117.28 234.748 117.28C235.82 117.28 236.748 117.456 237.532 117.808C238.316 118.144 238.908 118.552 239.308 119.032C239.724 119.496 239.932 119.912 239.932 120.28C239.932 120.424 239.876 120.552 239.764 120.664C239.668 120.76 239.548 120.808 239.404 120.808H237.628C237.5 120.808 237.364 120.752 237.22 120.64C237.108 120.56 236.932 120.408 236.692 120.184C236.452 119.96 236.172 119.784 235.852 119.656C235.532 119.528 235.156 119.464 234.724 119.464C234.132 119.464 233.668 119.592 233.332 119.848C233.012 120.104 232.852 120.44 232.852 120.856C232.852 121.16 232.932 121.408 233.092 121.6C233.252 121.792 233.564 121.976 234.028 122.152C234.492 122.328 235.188 122.504 236.116 122.68C237.652 122.984 238.748 123.456 239.404 124.096C240.076 124.736 240.412 125.52 240.412 126.448C240.412 127.568 239.924 128.48 238.948 129.184C237.972 129.888 236.604 130.24 234.844 130.24Z" fill="#616161"/>
<path d="M6.53663 163.12C5.53663 163.12 4.66663 162.9 3.92663 162.46C3.19663 162.02 2.63163 161.395 2.23163 160.585C1.83163 159.775 1.63163 158.82 1.63163 157.72C1.63163 156.61 1.82663 155.65 2.21663 154.84C2.61663 154.02 3.18663 153.395 3.92663 152.965C4.66663 152.525 5.53663 152.305 6.53663 152.305C7.54663 152.305 8.42163 152.525 9.16163 152.965C9.90163 153.395 10.4666 154.02 10.8566 154.84C11.2566 155.65 11.4566 156.605 11.4566 157.705C11.4566 158.805 11.2566 159.765 10.8566 160.585C10.4666 161.395 9.90163 162.02 9.16163 162.46C8.42163 162.9 7.54663 163.12 6.53663 163.12ZM6.53663 161.86C7.59663 161.86 8.42163 161.5 9.01163 160.78C9.60163 160.06 9.89663 159.035 9.89663 157.705C9.89663 156.375 9.60163 155.355 9.01163 154.645C8.43163 153.925 7.60663 153.565 6.53663 153.565C5.48663 153.565 4.66663 153.925 4.07663 154.645C3.49663 155.355 3.20663 156.375 3.20663 157.705C3.20663 159.035 3.49663 160.06 4.07663 160.78C4.66663 161.5 5.48663 161.86 6.53663 161.86ZM19.5039 155.53C19.7339 155.53 19.9139 155.595 20.0439 155.725C20.1839 155.855 20.2539 156.035 20.2539 156.265V162.37C20.2539 162.58 20.1839 162.75 20.0439 162.88C19.9039 163.01 19.7189 163.075 19.4889 163.075C19.2789 163.075 19.1089 163.015 18.9789 162.895C18.8489 162.765 18.7839 162.595 18.7839 162.385V161.815C18.5539 162.235 18.2339 162.555 17.8239 162.775C17.4239 162.995 16.9739 163.105 16.4739 163.105C14.6939 163.105 13.8039 162.125 13.8039 160.165V156.265C13.8039 156.035 13.8689 155.855 13.9989 155.725C14.1389 155.595 14.3289 155.53 14.5689 155.53C14.7989 155.53 14.9789 155.595 15.1089 155.725C15.2489 155.855 15.3189 156.035 15.3189 156.265V160.15C15.3189 160.74 15.4389 161.175 15.6789 161.455C15.9189 161.735 16.2889 161.875 16.7889 161.875C17.3789 161.875 17.8489 161.685 18.1989 161.305C18.5589 160.925 18.7389 160.42 18.7389 159.79V156.265C18.7389 156.045 18.8089 155.87 18.9489 155.74C19.0889 155.6 19.2739 155.53 19.5039 155.53ZM26.6639 155.53C27.1439 155.5 27.3839 155.705 27.3839 156.145C27.3839 156.365 27.3289 156.53 27.2189 156.64C27.1089 156.75 26.9189 156.815 26.6489 156.835L26.1989 156.88C25.5689 156.94 25.0989 157.16 24.7889 157.54C24.4889 157.92 24.3389 158.38 24.3389 158.92V162.355C24.3389 162.595 24.2689 162.775 24.1289 162.895C23.9889 163.015 23.8089 163.075 23.5889 163.075C23.3689 163.075 23.1839 163.015 23.0339 162.895C22.8939 162.775 22.8239 162.595 22.8239 162.355V156.25C22.8239 156.02 22.8939 155.845 23.0339 155.725C23.1839 155.595 23.3689 155.53 23.5889 155.53C23.7889 155.53 23.9539 155.595 24.0839 155.725C24.2239 155.845 24.2939 156.015 24.2939 156.235V156.955C24.4939 156.515 24.7839 156.18 25.1639 155.95C25.5439 155.72 25.9739 155.585 26.4539 155.545L26.6639 155.53ZM36.6222 153.58C36.1222 153.62 35.7522 153.78 35.5122 154.06C35.2722 154.33 35.1522 154.73 35.1522 155.26V155.68H36.6372C36.8472 155.68 37.0072 155.735 37.1172 155.845C37.2372 155.945 37.2972 156.085 37.2972 156.265C37.2972 156.445 37.2372 156.59 37.1172 156.7C37.0072 156.8 36.8472 156.85 36.6372 156.85H35.1522V162.34C35.1522 162.58 35.0772 162.765 34.9272 162.895C34.7872 163.015 34.6072 163.075 34.3872 163.075C34.1672 163.075 33.9872 163.015 33.8472 162.895C33.7072 162.765 33.6372 162.58 33.6372 162.34V156.85H32.7372C32.5272 156.85 32.3622 156.8 32.2422 156.7C32.1322 156.59 32.0772 156.445 32.0772 156.265C32.0772 156.085 32.1322 155.945 32.2422 155.845C32.3622 155.735 32.5272 155.68 32.7372 155.68H33.6372V155.485C33.6372 154.565 33.8722 153.845 34.3422 153.325C34.8122 152.795 35.4772 152.5 36.3372 152.44L36.7272 152.41C37.0472 152.39 37.2772 152.425 37.4172 152.515C37.5672 152.605 37.6422 152.75 37.6422 152.95C37.6422 153.3 37.4322 153.5 37.0122 153.55L36.6222 153.58ZM42.5891 155.53C43.0691 155.5 43.3091 155.705 43.3091 156.145C43.3091 156.365 43.2541 156.53 43.1441 156.64C43.0341 156.75 42.8441 156.815 42.5741 156.835L42.1241 156.88C41.4941 156.94 41.0241 157.16 40.7141 157.54C40.4141 157.92 40.2641 158.38 40.2641 158.92V162.355C40.2641 162.595 40.1941 162.775 40.0541 162.895C39.9141 163.015 39.7341 163.075 39.5141 163.075C39.2941 163.075 39.1091 163.015 38.9591 162.895C38.8191 162.775 38.7491 162.595 38.7491 162.355V156.25C38.7491 156.02 38.8191 155.845 38.9591 155.725C39.1091 155.595 39.2941 155.53 39.5141 155.53C39.7141 155.53 39.8791 155.595 40.0091 155.725C40.1491 155.845 40.2191 156.015 40.2191 156.235V156.955C40.4191 156.515 40.7091 156.18 41.0891 155.95C41.4691 155.72 41.8991 155.585 42.3791 155.545L42.5891 155.53ZM50.3623 155.53C50.5923 155.53 50.7723 155.595 50.9023 155.725C51.0423 155.855 51.1123 156.035 51.1123 156.265V162.37C51.1123 162.58 51.0423 162.75 50.9023 162.88C50.7623 163.01 50.5773 163.075 50.3473 163.075C50.1373 163.075 49.9673 163.015 49.8373 162.895C49.7073 162.765 49.6423 162.595 49.6423 162.385V161.815C49.4123 162.235 49.0923 162.555 48.6823 162.775C48.2823 162.995 47.8323 163.105 47.3323 163.105C45.5523 163.105 44.6623 162.125 44.6623 160.165V156.265C44.6623 156.035 44.7273 155.855 44.8573 155.725C44.9973 155.595 45.1873 155.53 45.4273 155.53C45.6573 155.53 45.8373 155.595 45.9673 155.725C46.1073 155.855 46.1773 156.035 46.1773 156.265V160.15C46.1773 160.74 46.2973 161.175 46.5373 161.455C46.7773 161.735 47.1473 161.875 47.6473 161.875C48.2373 161.875 48.7073 161.685 49.0573 161.305C49.4173 160.925 49.5973 160.42 49.5973 159.79V156.265C49.5973 156.045 49.6673 155.87 49.8073 155.74C49.9473 155.6 50.1323 155.53 50.3623 155.53ZM54.4473 163.075C54.2273 163.075 54.0423 163.015 53.8923 162.895C53.7523 162.775 53.6823 162.595 53.6823 162.355V156.265C53.6823 156.025 53.7523 155.845 53.8923 155.725C54.0423 155.595 54.2273 155.53 54.4473 155.53C54.6673 155.53 54.8473 155.595 54.9873 155.725C55.1273 155.845 55.1973 156.025 55.1973 156.265V162.355C55.1973 162.595 55.1273 162.775 54.9873 162.895C54.8473 163.015 54.6673 163.075 54.4473 163.075ZM54.4473 154.06C54.1573 154.06 53.9273 153.98 53.7573 153.82C53.5873 153.66 53.5023 153.45 53.5023 153.19C53.5023 152.93 53.5873 152.725 53.7573 152.575C53.9273 152.415 54.1573 152.335 54.4473 152.335C54.7273 152.335 54.9523 152.415 55.1223 152.575C55.3023 152.725 55.3923 152.93 55.3923 153.19C55.3923 153.45 55.3073 153.66 55.1373 153.82C54.9673 153.98 54.7373 154.06 54.4473 154.06ZM61.5552 161.92C61.7752 161.94 61.9302 162 62.0202 162.1C62.1202 162.19 62.1702 162.32 62.1702 162.49C62.1702 162.69 62.0902 162.845 61.9302 162.955C61.7802 163.055 61.5552 163.095 61.2552 163.075L60.8502 163.045C60.0402 162.985 59.4352 162.74 59.0352 162.31C58.6352 161.87 58.4352 161.225 58.4352 160.375V156.85H57.5352C57.0952 156.85 56.8752 156.655 56.8752 156.265C56.8752 156.085 56.9302 155.945 57.0402 155.845C57.1602 155.735 57.3252 155.68 57.5352 155.68H58.4352V154.135C58.4352 153.905 58.5002 153.725 58.6302 153.595C58.7702 153.465 58.9552 153.4 59.1852 153.4C59.4152 153.4 59.6002 153.465 59.7402 153.595C59.8802 153.725 59.9502 153.905 59.9502 154.135V155.68H61.4352C61.6452 155.68 61.8052 155.735 61.9152 155.845C62.0352 155.945 62.0952 156.085 62.0952 156.265C62.0952 156.455 62.0352 156.6 61.9152 156.7C61.8052 156.8 61.6452 156.85 61.4352 156.85H59.9502V160.48C59.9502 160.95 60.0452 161.295 60.2352 161.515C60.4352 161.735 60.7352 161.86 61.1352 161.89L61.5552 161.92ZM66.2583 163.105C65.2383 163.105 64.4033 162.895 63.7533 162.475C63.5733 162.365 63.4433 162.25 63.3633 162.13C63.2933 162.01 63.2583 161.875 63.2583 161.725C63.2583 161.565 63.3033 161.43 63.3933 161.32C63.4833 161.21 63.5983 161.155 63.7383 161.155C63.8683 161.155 64.0733 161.235 64.3533 161.395C64.6533 161.555 64.9433 161.685 65.2233 161.785C65.5133 161.885 65.8733 161.935 66.3033 161.935C66.7833 161.935 67.1583 161.85 67.4283 161.68C67.6983 161.51 67.8333 161.27 67.8333 160.96C67.8333 160.76 67.7783 160.6 67.6683 160.48C67.5683 160.36 67.3883 160.255 67.1283 160.165C66.8683 160.065 66.4833 159.96 65.9733 159.85C65.0933 159.66 64.4583 159.405 64.0683 159.085C63.6883 158.755 63.4983 158.31 63.4983 157.75C63.4983 157.32 63.6233 156.935 63.8733 156.595C64.1233 156.245 64.4683 155.975 64.9083 155.785C65.3483 155.595 65.8483 155.5 66.4083 155.5C66.8083 155.5 67.1983 155.555 67.5783 155.665C67.9583 155.765 68.2933 155.915 68.5833 156.115C68.9133 156.335 69.0783 156.59 69.0783 156.88C69.0783 157.04 69.0283 157.175 68.9283 157.285C68.8383 157.395 68.7283 157.45 68.5983 157.45C68.5083 157.45 68.4183 157.43 68.3283 157.39C68.2383 157.35 68.1183 157.285 67.9683 157.195C67.6983 157.035 67.4433 156.91 67.2033 156.82C66.9733 156.73 66.6833 156.685 66.3333 156.685C65.9133 156.685 65.5733 156.775 65.3133 156.955C65.0633 157.135 64.9383 157.38 64.9383 157.69C64.9383 157.97 65.0533 158.19 65.2833 158.35C65.5233 158.5 65.9683 158.645 66.6183 158.785C67.2883 158.925 67.8133 159.085 68.1933 159.265C68.5733 159.445 68.8433 159.67 69.0033 159.94C69.1733 160.2 69.2583 160.535 69.2583 160.945C69.2583 161.595 68.9833 162.12 68.4333 162.52C67.8933 162.91 67.1683 163.105 66.2583 163.105ZM78.8747 155.5C79.8447 155.5 80.5647 155.745 81.0347 156.235C81.5147 156.725 81.7547 157.47 81.7547 158.47V162.355C81.7547 162.585 81.6897 162.765 81.5597 162.895C81.4297 163.015 81.2497 163.075 81.0197 163.075C80.7997 163.075 80.6247 163.01 80.4947 162.88C80.3647 162.75 80.2997 162.575 80.2997 162.355V161.8C80.1097 162.22 79.8247 162.545 79.4447 162.775C79.0747 162.995 78.6397 163.105 78.1397 163.105C77.6597 163.105 77.2197 163.01 76.8197 162.82C76.4297 162.62 76.1197 162.35 75.8897 162.01C75.6597 161.67 75.5447 161.285 75.5447 160.855C75.5347 160.315 75.6697 159.895 75.9497 159.595C76.2297 159.285 76.6847 159.065 77.3147 158.935C77.9447 158.795 78.8197 158.725 79.9397 158.725H80.2847V158.29C80.2847 157.73 80.1697 157.325 79.9397 157.075C79.7097 156.825 79.3397 156.7 78.8297 156.7C78.4797 156.7 78.1497 156.745 77.8397 156.835C77.5297 156.925 77.1897 157.055 76.8197 157.225C76.5497 157.375 76.3597 157.45 76.2497 157.45C76.0997 157.45 75.9747 157.395 75.8747 157.285C75.7847 157.175 75.7397 157.035 75.7397 156.865C75.7397 156.715 75.7797 156.585 75.8597 156.475C75.9497 156.355 76.0897 156.24 76.2797 156.13C76.6297 155.94 77.0397 155.79 77.5097 155.68C77.9797 155.56 78.4347 155.5 78.8747 155.5ZM78.4097 161.98C78.9597 161.98 79.4097 161.795 79.7597 161.425C80.1097 161.045 80.2847 160.56 80.2847 159.97V159.58H80.0147C79.2347 159.58 78.6347 159.615 78.2147 159.685C77.7947 159.755 77.4947 159.875 77.3147 160.045C77.1347 160.205 77.0447 160.44 77.0447 160.75C77.0447 161.11 77.1747 161.405 77.4347 161.635C77.6947 161.865 78.0197 161.98 78.4097 161.98ZM88.1171 155.53C88.5971 155.5 88.8371 155.705 88.8371 156.145C88.8371 156.365 88.7821 156.53 88.6721 156.64C88.5621 156.75 88.3721 156.815 88.1021 156.835L87.6521 156.88C87.0221 156.94 86.5521 157.16 86.2421 157.54C85.9421 157.92 85.7921 158.38 85.7921 158.92V162.355C85.7921 162.595 85.7221 162.775 85.5821 162.895C85.4421 163.015 85.2621 163.075 85.0421 163.075C84.8221 163.075 84.6371 163.015 84.4871 162.895C84.3471 162.775 84.2771 162.595 84.2771 162.355V156.25C84.2771 156.02 84.3471 155.845 84.4871 155.725C84.6371 155.595 84.8221 155.53 85.0421 155.53C85.2421 155.53 85.4071 155.595 85.5371 155.725C85.6771 155.845 85.7471 156.015 85.7471 156.235V156.955C85.9471 156.515 86.2371 156.18 86.6171 155.95C86.9971 155.72 87.4271 155.585 87.9071 155.545L88.1171 155.53ZM95.8037 161.155C95.9437 161.155 96.0587 161.21 96.1487 161.32C96.2387 161.43 96.2837 161.57 96.2837 161.74C96.2837 162.03 96.1037 162.275 95.7437 162.475C95.3937 162.675 95.0087 162.83 94.5887 162.94C94.1787 163.05 93.7837 163.105 93.4037 163.105C92.2437 163.105 91.3287 162.77 90.6587 162.1C89.9887 161.42 89.6537 160.495 89.6537 159.325C89.6537 158.575 89.7987 157.91 90.0887 157.33C90.3887 156.75 90.8037 156.3 91.3337 155.98C91.8737 155.66 92.4837 155.5 93.1637 155.5C94.1437 155.5 94.9187 155.815 95.4887 156.445C96.0587 157.075 96.3437 157.925 96.3437 158.995C96.3437 159.395 96.1637 159.595 95.8037 159.595H91.1687C91.2687 161.145 92.0137 161.92 93.4037 161.92C93.7737 161.92 94.0937 161.87 94.3637 161.77C94.6337 161.67 94.9187 161.54 95.2187 161.38C95.2487 161.36 95.3287 161.32 95.4587 161.26C95.5987 161.19 95.7137 161.155 95.8037 161.155ZM93.1937 156.61C92.6137 156.61 92.1487 156.795 91.7987 157.165C91.4487 157.535 91.2387 158.055 91.1687 158.725H95.0387C95.0087 158.045 94.8337 157.525 94.5137 157.165C94.2037 156.795 93.7637 156.61 93.1937 156.61ZM106.318 153.58C105.818 153.62 105.448 153.78 105.208 154.06C104.968 154.33 104.848 154.73 104.848 155.26V155.68H106.333C106.543 155.68 106.703 155.735 106.813 155.845C106.933 155.945 106.993 156.085 106.993 156.265C106.993 156.445 106.933 156.59 106.813 156.7C106.703 156.8 106.543 156.85 106.333 156.85H104.848V162.34C104.848 162.58 104.773 162.765 104.623 162.895C104.483 163.015 104.303 163.075 104.083 163.075C103.863 163.075 103.683 163.015 103.543 162.895C103.403 162.765 103.333 162.58 103.333 162.34V156.85H102.433C102.223 156.85 102.058 156.8 101.938 156.7C101.828 156.59 101.773 156.445 101.773 156.265C101.773 156.085 101.828 155.945 101.938 155.845C102.058 155.735 102.223 155.68 102.433 155.68H103.333V155.485C103.333 154.565 103.568 153.845 104.038 153.325C104.508 152.795 105.173 152.5 106.033 152.44L106.423 152.41C106.743 152.39 106.973 152.425 107.113 152.515C107.263 152.605 107.338 152.75 107.338 152.95C107.338 153.3 107.128 153.5 106.708 153.55L106.318 153.58ZM114.115 155.53C114.345 155.53 114.525 155.595 114.655 155.725C114.795 155.855 114.865 156.035 114.865 156.265V162.37C114.865 162.58 114.795 162.75 114.655 162.88C114.515 163.01 114.33 163.075 114.1 163.075C113.89 163.075 113.72 163.015 113.59 162.895C113.46 162.765 113.395 162.595 113.395 162.385V161.815C113.165 162.235 112.845 162.555 112.435 162.775C112.035 162.995 111.585 163.105 111.085 163.105C109.305 163.105 108.415 162.125 108.415 160.165V156.265C108.415 156.035 108.48 155.855 108.61 155.725C108.75 155.595 108.94 155.53 109.18 155.53C109.41 155.53 109.59 155.595 109.72 155.725C109.86 155.855 109.93 156.035 109.93 156.265V160.15C109.93 160.74 110.05 161.175 110.29 161.455C110.53 161.735 110.9 161.875 111.4 161.875C111.99 161.875 112.46 161.685 112.81 161.305C113.17 160.925 113.35 160.42 113.35 159.79V156.265C113.35 156.045 113.42 155.87 113.56 155.74C113.7 155.6 113.885 155.53 114.115 155.53ZM118.2 163.075C117.98 163.075 117.795 163.015 117.645 162.895C117.505 162.775 117.435 162.595 117.435 162.355V153.085C117.435 152.845 117.505 152.665 117.645 152.545C117.795 152.415 117.98 152.35 118.2 152.35C118.42 152.35 118.6 152.415 118.74 152.545C118.88 152.665 118.95 152.845 118.95 153.085V162.355C118.95 162.595 118.88 162.775 118.74 162.895C118.6 163.015 118.42 163.075 118.2 163.075ZM122.283 163.075C122.063 163.075 121.878 163.015 121.728 162.895C121.588 162.775 121.518 162.595 121.518 162.355V153.085C121.518 152.845 121.588 152.665 121.728 152.545C121.878 152.415 122.063 152.35 122.283 152.35C122.503 152.35 122.683 152.415 122.823 152.545C122.963 152.665 123.033 152.845 123.033 153.085V162.355C123.033 162.595 122.963 162.775 122.823 162.895C122.683 163.015 122.503 163.075 122.283 163.075ZM130.806 155.98C130.866 155.83 130.951 155.72 131.061 155.65C131.181 155.58 131.306 155.545 131.436 155.545C131.626 155.545 131.791 155.61 131.931 155.74C132.081 155.87 132.156 156.025 132.156 156.205C132.156 156.305 132.136 156.4 132.096 156.49L127.926 165.34C127.866 165.48 127.776 165.585 127.656 165.655C127.546 165.735 127.426 165.775 127.296 165.775C127.116 165.775 126.951 165.715 126.801 165.595C126.661 165.475 126.591 165.325 126.591 165.145C126.591 165.065 126.616 164.965 126.666 164.845L127.701 162.64L124.806 156.49C124.766 156.41 124.746 156.32 124.746 156.22C124.746 156.03 124.826 155.87 124.986 155.74C125.146 155.61 125.326 155.545 125.526 155.545C125.826 155.545 126.041 155.685 126.171 155.965L128.496 161.125L130.806 155.98ZM141.384 163.105C140.674 163.105 140.049 162.95 139.509 162.64C138.979 162.33 138.564 161.89 138.264 161.32C137.974 160.75 137.829 160.09 137.829 159.34C137.829 158.58 137.979 157.91 138.279 157.33C138.589 156.75 139.019 156.3 139.569 155.98C140.119 155.66 140.749 155.5 141.459 155.5C141.839 155.5 142.219 155.555 142.599 155.665C142.989 155.775 143.334 155.925 143.634 156.115C143.954 156.335 144.114 156.59 144.114 156.88C144.114 157.05 144.069 157.195 143.979 157.315C143.889 157.425 143.774 157.48 143.634 157.48C143.544 157.48 143.454 157.46 143.364 157.42C143.274 157.37 143.159 157.3 143.019 157.21C142.769 157.05 142.534 156.93 142.314 156.85C142.104 156.76 141.849 156.715 141.549 156.715C140.869 156.715 140.339 156.945 139.959 157.405C139.589 157.865 139.404 158.505 139.404 159.325C139.404 160.145 139.589 160.78 139.959 161.23C140.329 161.67 140.854 161.89 141.534 161.89C141.834 161.89 142.099 161.845 142.329 161.755C142.559 161.665 142.794 161.545 143.034 161.395C143.144 161.325 143.254 161.265 143.364 161.215C143.474 161.165 143.574 161.14 143.664 161.14C143.804 161.14 143.919 161.2 144.009 161.32C144.099 161.43 144.144 161.57 144.144 161.74C144.144 161.88 144.104 162.01 144.024 162.13C143.954 162.24 143.829 162.355 143.649 162.475C143.349 162.675 142.999 162.83 142.599 162.94C142.199 163.05 141.794 163.105 141.384 163.105ZM151.68 161.155C151.82 161.155 151.935 161.21 152.025 161.32C152.115 161.43 152.16 161.57 152.16 161.74C152.16 162.03 151.98 162.275 151.62 162.475C151.27 162.675 150.885 162.83 150.465 162.94C150.055 163.05 149.66 163.105 149.28 163.105C148.12 163.105 147.205 162.77 146.535 162.1C145.865 161.42 145.53 160.495 145.53 159.325C145.53 158.575 145.675 157.91 145.965 157.33C146.265 156.75 146.68 156.3 147.21 155.98C147.75 155.66 148.36 155.5 149.04 155.5C150.02 155.5 150.795 155.815 151.365 156.445C151.935 157.075 152.22 157.925 152.22 158.995C152.22 159.395 152.04 159.595 151.68 159.595H147.045C147.145 161.145 147.89 161.92 149.28 161.92C149.65 161.92 149.97 161.87 150.24 161.77C150.51 161.67 150.795 161.54 151.095 161.38C151.125 161.36 151.205 161.32 151.335 161.26C151.475 161.19 151.59 161.155 151.68 161.155ZM149.07 156.61C148.49 156.61 148.025 156.795 147.675 157.165C147.325 157.535 147.115 158.055 147.045 158.725H150.915C150.885 158.045 150.71 157.525 150.39 157.165C150.08 156.795 149.64 156.61 149.07 156.61ZM158.179 155.53C158.659 155.5 158.899 155.705 158.899 156.145C158.899 156.365 158.844 156.53 158.734 156.64C158.624 156.75 158.434 156.815 158.164 156.835L157.714 156.88C157.084 156.94 156.614 157.16 156.304 157.54C156.004 157.92 155.854 158.38 155.854 158.92V162.355C155.854 162.595 155.784 162.775 155.644 162.895C155.504 163.015 155.324 163.075 155.104 163.075C154.884 163.075 154.699 163.015 154.549 162.895C154.409 162.775 154.339 162.595 154.339 162.355V156.25C154.339 156.02 154.409 155.845 154.549 155.725C154.699 155.595 154.884 155.53 155.104 155.53C155.304 155.53 155.469 155.595 155.599 155.725C155.739 155.845 155.809 156.015 155.809 156.235V156.955C156.009 156.515 156.299 156.18 156.679 155.95C157.059 155.72 157.489 155.585 157.969 155.545L158.179 155.53ZM164.497 161.92C164.717 161.94 164.872 162 164.962 162.1C165.062 162.19 165.112 162.32 165.112 162.49C165.112 162.69 165.032 162.845 164.872 162.955C164.722 163.055 164.497 163.095 164.197 163.075L163.792 163.045C162.982 162.985 162.377 162.74 161.977 162.31C161.577 161.87 161.377 161.225 161.377 160.375V156.85H160.477C160.037 156.85 159.817 156.655 159.817 156.265C159.817 156.085 159.872 155.945 159.982 155.845C160.102 155.735 160.267 155.68 160.477 155.68H161.377V154.135C161.377 153.905 161.442 153.725 161.572 153.595C161.712 153.465 161.897 153.4 162.127 153.4C162.357 153.4 162.542 153.465 162.682 153.595C162.822 153.725 162.892 153.905 162.892 154.135V155.68H164.377C164.587 155.68 164.747 155.735 164.857 155.845C164.977 155.945 165.037 156.085 165.037 156.265C165.037 156.455 164.977 156.6 164.857 156.7C164.747 156.8 164.587 156.85 164.377 156.85H162.892V160.48C162.892 160.95 162.987 161.295 163.177 161.515C163.377 161.735 163.677 161.86 164.077 161.89L164.497 161.92ZM167.415 163.075C167.195 163.075 167.01 163.015 166.86 162.895C166.72 162.775 166.65 162.595 166.65 162.355V156.265C166.65 156.025 166.72 155.845 166.86 155.725C167.01 155.595 167.195 155.53 167.415 155.53C167.635 155.53 167.815 155.595 167.955 155.725C168.095 155.845 168.165 156.025 168.165 156.265V162.355C168.165 162.595 168.095 162.775 167.955 162.895C167.815 163.015 167.635 163.075 167.415 163.075ZM167.415 154.06C167.125 154.06 166.895 153.98 166.725 153.82C166.555 153.66 166.47 153.45 166.47 153.19C166.47 152.93 166.555 152.725 166.725 152.575C166.895 152.415 167.125 152.335 167.415 152.335C167.695 152.335 167.92 152.415 168.09 152.575C168.27 152.725 168.36 152.93 168.36 153.19C168.36 153.45 168.275 153.66 168.105 153.82C167.935 153.98 167.705 154.06 167.415 154.06ZM176.613 154.06C176.323 154.06 176.093 153.98 175.923 153.82C175.753 153.66 175.668 153.45 175.668 153.19C175.668 152.93 175.753 152.725 175.923 152.575C176.093 152.415 176.323 152.335 176.613 152.335C176.893 152.335 177.118 152.415 177.288 152.575C177.468 152.725 177.558 152.93 177.558 153.19C177.558 153.45 177.473 153.66 177.303 153.82C177.133 153.98 176.903 154.06 176.613 154.06ZM176.703 155.68C176.913 155.68 177.073 155.735 177.183 155.845C177.303 155.945 177.363 156.085 177.363 156.265V162.355C177.363 162.595 177.293 162.775 177.153 162.895C177.013 163.015 176.833 163.075 176.613 163.075C176.393 163.075 176.208 163.015 176.058 162.895C175.918 162.775 175.848 162.595 175.848 162.355V156.85H172.713V162.34C172.713 162.58 172.638 162.765 172.488 162.895C172.348 163.015 172.168 163.075 171.948 163.075C171.728 163.075 171.548 163.015 171.408 162.895C171.268 162.765 171.198 162.58 171.198 162.34V156.85H170.298C170.088 156.85 169.923 156.8 169.803 156.7C169.693 156.59 169.638 156.445 169.638 156.265C169.638 156.085 169.693 155.945 169.803 155.845C169.923 155.735 170.088 155.68 170.298 155.68H171.198V155.515C171.198 154.595 171.433 153.875 171.903 153.355C172.373 152.825 173.038 152.52 173.898 152.44L174.258 152.41L174.453 152.395C174.893 152.395 175.113 152.58 175.113 152.95C175.113 153.3 174.918 153.5 174.528 153.55L174.183 153.58C173.683 153.62 173.313 153.78 173.073 154.06C172.833 154.33 172.713 154.73 172.713 155.26V155.68H176.703ZM185.658 161.155C185.798 161.155 185.913 161.21 186.003 161.32C186.093 161.43 186.138 161.57 186.138 161.74C186.138 162.03 185.958 162.275 185.598 162.475C185.248 162.675 184.863 162.83 184.443 162.94C184.033 163.05 183.638 163.105 183.258 163.105C182.098 163.105 181.183 162.77 180.513 162.1C179.843 161.42 179.508 160.495 179.508 159.325C179.508 158.575 179.653 157.91 179.943 157.33C180.243 156.75 180.658 156.3 181.188 155.98C181.728 155.66 182.338 155.5 183.018 155.5C183.998 155.5 184.773 155.815 185.343 156.445C185.913 157.075 186.198 157.925 186.198 158.995C186.198 159.395 186.018 159.595 185.658 159.595H181.023C181.123 161.145 181.868 161.92 183.258 161.92C183.628 161.92 183.948 161.87 184.218 161.77C184.488 161.67 184.773 161.54 185.073 161.38C185.103 161.36 185.183 161.32 185.313 161.26C185.453 161.19 185.568 161.155 185.658 161.155ZM183.048 156.61C182.468 156.61 182.003 156.795 181.653 157.165C181.303 157.535 181.093 158.055 181.023 158.725H184.893C184.863 158.045 184.688 157.525 184.368 157.165C184.058 156.795 183.618 156.61 183.048 156.61ZM194.303 152.35C194.533 152.35 194.718 152.415 194.858 152.545C194.998 152.675 195.068 152.85 195.068 153.07V162.34C195.068 162.57 194.998 162.75 194.858 162.88C194.728 163.01 194.548 163.075 194.318 163.075C194.088 163.075 193.903 163.01 193.763 162.88C193.633 162.75 193.568 162.57 193.568 162.34V161.74C193.348 162.18 193.028 162.52 192.608 162.76C192.188 162.99 191.703 163.105 191.153 163.105C190.523 163.105 189.958 162.945 189.458 162.625C188.968 162.305 188.583 161.855 188.303 161.275C188.033 160.695 187.898 160.03 187.898 159.28C187.898 158.52 188.033 157.855 188.303 157.285C188.583 156.715 188.968 156.275 189.458 155.965C189.948 155.655 190.513 155.5 191.153 155.5C191.703 155.5 192.183 155.62 192.593 155.86C193.013 156.09 193.333 156.42 193.553 156.85V153.04C193.553 152.83 193.618 152.665 193.748 152.545C193.888 152.415 194.073 152.35 194.303 152.35ZM191.513 161.905C192.163 161.905 192.668 161.68 193.028 161.23C193.388 160.78 193.568 160.14 193.568 159.31C193.568 158.48 193.388 157.84 193.028 157.39C192.678 156.94 192.173 156.715 191.513 156.715C190.853 156.715 190.338 156.94 189.968 157.39C189.608 157.83 189.428 158.46 189.428 159.28C189.428 160.1 189.613 160.745 189.983 161.215C190.353 161.675 190.863 161.905 191.513 161.905ZM205.215 163.105C204.495 163.105 203.86 162.95 203.31 162.64C202.77 162.33 202.35 161.89 202.05 161.32C201.76 160.74 201.615 160.07 201.615 159.31C201.615 158.54 201.76 157.87 202.05 157.3C202.35 156.72 202.77 156.275 203.31 155.965C203.86 155.655 204.495 155.5 205.215 155.5C205.935 155.5 206.565 155.655 207.105 155.965C207.655 156.275 208.075 156.72 208.365 157.3C208.665 157.87 208.815 158.54 208.815 159.31C208.815 160.07 208.665 160.74 208.365 161.32C208.075 161.89 207.655 162.33 207.105 162.64C206.565 162.95 205.935 163.105 205.215 163.105ZM205.215 161.905C205.885 161.905 206.395 161.685 206.745 161.245C207.105 160.805 207.285 160.16 207.285 159.31C207.285 158.47 207.105 157.83 206.745 157.39C206.385 156.94 205.875 156.715 205.215 156.715C204.555 156.715 204.045 156.94 203.685 157.39C203.325 157.83 203.145 158.47 203.145 159.31C203.145 160.16 203.32 160.805 203.67 161.245C204.03 161.685 204.545 161.905 205.215 161.905ZM214.792 155.53C215.272 155.5 215.512 155.705 215.512 156.145C215.512 156.365 215.457 156.53 215.347 156.64C215.237 156.75 215.047 156.815 214.777 156.835L214.327 156.88C213.697 156.94 213.227 157.16 212.917 157.54C212.617 157.92 212.467 158.38 212.467 158.92V162.355C212.467 162.595 212.397 162.775 212.257 162.895C212.117 163.015 211.937 163.075 211.717 163.075C211.497 163.075 211.312 163.015 211.162 162.895C211.022 162.775 210.952 162.595 210.952 162.355V156.25C210.952 156.02 211.022 155.845 211.162 155.725C211.312 155.595 211.497 155.53 211.717 155.53C211.917 155.53 212.082 155.595 212.212 155.725C212.352 155.845 212.422 156.015 212.422 156.235V156.955C212.622 156.515 212.912 156.18 213.292 155.95C213.672 155.72 214.102 155.585 214.582 155.545L214.792 155.53ZM222.809 155.53C223.039 155.53 223.219 155.6 223.349 155.74C223.489 155.87 223.559 156.045 223.559 156.265V162.415C223.559 163.535 223.259 164.38 222.659 164.95C222.069 165.52 221.194 165.805 220.034 165.805C218.954 165.805 218.054 165.6 217.334 165.19C216.964 164.98 216.779 164.73 216.779 164.44C216.779 164.27 216.824 164.13 216.914 164.02C217.014 163.91 217.134 163.855 217.274 163.855C217.404 163.855 217.609 163.93 217.889 164.08C218.249 164.25 218.584 164.38 218.894 164.47C219.204 164.57 219.574 164.62 220.004 164.62C221.384 164.62 222.074 163.925 222.074 162.535V161.38C221.864 161.82 221.544 162.165 221.114 162.415C220.684 162.655 220.184 162.775 219.614 162.775C218.974 162.775 218.404 162.625 217.904 162.325C217.404 162.025 217.014 161.6 216.734 161.05C216.464 160.5 216.329 159.865 216.329 159.145C216.329 158.425 216.469 157.79 216.749 157.24C217.029 156.69 217.414 156.265 217.904 155.965C218.404 155.655 218.974 155.5 219.614 155.5C220.174 155.5 220.664 155.62 221.084 155.86C221.514 156.1 221.839 156.44 222.059 156.88V156.25C222.059 156.03 222.124 155.855 222.254 155.725C222.394 155.595 222.579 155.53 222.809 155.53ZM219.974 161.575C220.624 161.575 221.134 161.36 221.504 160.93C221.874 160.5 222.059 159.905 222.059 159.145C222.059 158.395 221.874 157.805 221.504 157.375C221.144 156.935 220.634 156.715 219.974 156.715C219.314 156.715 218.794 156.93 218.414 157.36C218.044 157.79 217.859 158.385 217.859 159.145C217.859 159.905 218.049 160.5 218.429 160.93C218.809 161.36 219.324 161.575 219.974 161.575ZM229.195 155.5C230.165 155.5 230.885 155.745 231.355 156.235C231.835 156.725 232.075 157.47 232.075 158.47V162.355C232.075 162.585 232.01 162.765 231.88 162.895C231.75 163.015 231.57 163.075 231.34 163.075C231.12 163.075 230.945 163.01 230.815 162.88C230.685 162.75 230.62 162.575 230.62 162.355V161.8C230.43 162.22 230.145 162.545 229.765 162.775C229.395 162.995 228.96 163.105 228.46 163.105C227.98 163.105 227.54 163.01 227.14 162.82C226.75 162.62 226.44 162.35 226.21 162.01C225.98 161.67 225.865 161.285 225.865 160.855C225.855 160.315 225.99 159.895 226.27 159.595C226.55 159.285 227.005 159.065 227.635 158.935C228.265 158.795 229.14 158.725 230.26 158.725H230.605V158.29C230.605 157.73 230.49 157.325 230.26 157.075C230.03 156.825 229.66 156.7 229.15 156.7C228.8 156.7 228.47 156.745 228.16 156.835C227.85 156.925 227.51 157.055 227.14 157.225C226.87 157.375 226.68 157.45 226.57 157.45C226.42 157.45 226.295 157.395 226.195 157.285C226.105 157.175 226.06 157.035 226.06 156.865C226.06 156.715 226.1 156.585 226.18 156.475C226.27 156.355 226.41 156.24 226.6 156.13C226.95 155.94 227.36 155.79 227.83 155.68C228.3 155.56 228.755 155.5 229.195 155.5ZM228.73 161.98C229.28 161.98 229.73 161.795 230.08 161.425C230.43 161.045 230.605 160.56 230.605 159.97V159.58H230.335C229.555 159.58 228.955 159.615 228.535 159.685C228.115 159.755 227.815 159.875 227.635 160.045C227.455 160.205 227.365 160.44 227.365 160.75C227.365 161.11 227.495 161.405 227.755 161.635C228.015 161.865 228.34 161.98 228.73 161.98ZM238.542 155.5C240.292 155.5 241.167 156.485 241.167 158.455V162.355C241.167 162.585 241.097 162.765 240.957 162.895C240.827 163.015 240.642 163.075 240.402 163.075C240.172 163.075 239.987 163.01 239.847 162.88C239.717 162.75 239.652 162.575 239.652 162.355V158.53C239.652 157.91 239.527 157.455 239.277 157.165C239.037 156.875 238.657 156.73 238.137 156.73C237.527 156.73 237.037 156.92 236.667 157.3C236.297 157.68 236.112 158.19 236.112 158.83V162.355C236.112 162.575 236.042 162.75 235.902 162.88C235.772 163.01 235.592 163.075 235.362 163.075C235.132 163.075 234.947 163.01 234.807 162.88C234.667 162.75 234.597 162.575 234.597 162.355V156.25C234.597 156.04 234.667 155.87 234.807 155.74C234.957 155.6 235.142 155.53 235.362 155.53C235.582 155.53 235.757 155.595 235.887 155.725C236.017 155.855 236.082 156.025 236.082 156.235V156.85C236.322 156.41 236.657 156.075 237.087 155.845C237.517 155.615 238.002 155.5 238.542 155.5ZM244.455 163.075C244.235 163.075 244.05 163.015 243.9 162.895C243.76 162.775 243.69 162.595 243.69 162.355V156.265C243.69 156.025 243.76 155.845 243.9 155.725C244.05 155.595 244.235 155.53 244.455 155.53C244.675 155.53 244.855 155.595 244.995 155.725C245.135 155.845 245.205 156.025 245.205 156.265V162.355C245.205 162.595 245.135 162.775 244.995 162.895C244.855 163.015 244.675 163.075 244.455 163.075ZM244.455 154.06C244.165 154.06 243.935 153.98 243.765 153.82C243.595 153.66 243.51 153.45 243.51 153.19C243.51 152.93 243.595 152.725 243.765 152.575C243.935 152.415 244.165 152.335 244.455 152.335C244.735 152.335 244.96 152.415 245.13 152.575C245.31 152.725 245.4 152.93 245.4 153.19C245.4 153.45 245.315 153.66 245.145 153.82C244.975 153.98 244.745 154.06 244.455 154.06ZM250.907 163.105C250.197 163.105 249.572 162.95 249.032 162.64C248.502 162.33 248.087 161.89 247.787 161.32C247.497 160.75 247.352 160.09 247.352 159.34C247.352 158.58 247.502 157.91 247.802 157.33C248.112 156.75 248.542 156.3 249.092 155.98C249.642 155.66 250.272 155.5 250.982 155.5C251.362 155.5 251.742 155.555 252.122 155.665C252.512 155.775 252.857 155.925 253.157 156.115C253.477 156.335 253.637 156.59 253.637 156.88C253.637 157.05 253.592 157.195 253.502 157.315C253.412 157.425 253.297 157.48 253.157 157.48C253.067 157.48 252.977 157.46 252.887 157.42C252.797 157.37 252.682 157.3 252.542 157.21C252.292 157.05 252.057 156.93 251.837 156.85C251.627 156.76 251.372 156.715 251.072 156.715C250.392 156.715 249.862 156.945 249.482 157.405C249.112 157.865 248.927 158.505 248.927 159.325C248.927 160.145 249.112 160.78 249.482 161.23C249.852 161.67 250.377 161.89 251.057 161.89C251.357 161.89 251.622 161.845 251.852 161.755C252.082 161.665 252.317 161.545 252.557 161.395C252.667 161.325 252.777 161.265 252.887 161.215C252.997 161.165 253.097 161.14 253.187 161.14C253.327 161.14 253.442 161.2 253.532 161.32C253.622 161.43 253.667 161.57 253.667 161.74C253.667 161.88 253.627 162.01 253.547 162.13C253.477 162.24 253.352 162.355 253.172 162.475C252.872 162.675 252.522 162.83 252.122 162.94C251.722 163.05 251.317 163.105 250.907 163.105ZM256.325 161.14C256.625 161.14 256.86 161.25 257.03 161.47C257.21 161.69 257.3 162.015 257.3 162.445C257.3 163.295 257.015 164.03 256.445 164.65C256.325 164.77 256.195 164.83 256.055 164.83C255.925 164.83 255.815 164.785 255.725 164.695C255.635 164.615 255.59 164.515 255.59 164.395C255.59 164.295 255.635 164.19 255.725 164.08C256.005 163.79 256.185 163.445 256.265 163.045C256.015 163.025 255.805 162.93 255.635 162.76C255.475 162.59 255.395 162.375 255.395 162.115C255.395 161.835 255.485 161.605 255.665 161.425C255.845 161.235 256.065 161.14 256.325 161.14ZM270.109 155.53C270.339 155.53 270.519 155.6 270.649 155.74C270.789 155.87 270.859 156.045 270.859 156.265V162.415C270.859 163.535 270.559 164.38 269.959 164.95C269.369 165.52 268.494 165.805 267.334 165.805C266.254 165.805 265.354 165.6 264.634 165.19C264.264 164.98 264.079 164.73 264.079 164.44C264.079 164.27 264.124 164.13 264.214 164.02C264.314 163.91 264.434 163.855 264.574 163.855C264.704 163.855 264.909 163.93 265.189 164.08C265.549 164.25 265.884 164.38 266.194 164.47C266.504 164.57 266.874 164.62 267.304 164.62C268.684 164.62 269.374 163.925 269.374 162.535V161.38C269.164 161.82 268.844 162.165 268.414 162.415C267.984 162.655 267.484 162.775 266.914 162.775C266.274 162.775 265.704 162.625 265.204 162.325C264.704 162.025 264.314 161.6 264.034 161.05C263.764 160.5 263.629 159.865 263.629 159.145C263.629 158.425 263.769 157.79 264.049 157.24C264.329 156.69 264.714 156.265 265.204 155.965C265.704 155.655 266.274 155.5 266.914 155.5C267.474 155.5 267.964 155.62 268.384 155.86C268.814 156.1 269.139 156.44 269.359 156.88V156.25C269.359 156.03 269.424 155.855 269.554 155.725C269.694 155.595 269.879 155.53 270.109 155.53ZM267.274 161.575C267.924 161.575 268.434 161.36 268.804 160.93C269.174 160.5 269.359 159.905 269.359 159.145C269.359 158.395 269.174 157.805 268.804 157.375C268.444 156.935 267.934 156.715 267.274 156.715C266.614 156.715 266.094 156.93 265.714 157.36C265.344 157.79 265.159 158.385 265.159 159.145C265.159 159.905 265.349 160.5 265.729 160.93C266.109 161.36 266.624 161.575 267.274 161.575ZM277.26 155.53C277.74 155.5 277.98 155.705 277.98 156.145C277.98 156.365 277.925 156.53 277.815 156.64C277.705 156.75 277.515 156.815 277.245 156.835L276.795 156.88C276.165 156.94 275.695 157.16 275.385 157.54C275.085 157.92 274.935 158.38 274.935 158.92V162.355C274.935 162.595 274.865 162.775 274.725 162.895C274.585 163.015 274.405 163.075 274.185 163.075C273.965 163.075 273.78 163.015 273.63 162.895C273.49 162.775 273.42 162.595 273.42 162.355V156.25C273.42 156.02 273.49 155.845 273.63 155.725C273.78 155.595 273.965 155.53 274.185 155.53C274.385 155.53 274.55 155.595 274.68 155.725C274.82 155.845 274.89 156.015 274.89 156.235V156.955C275.09 156.515 275.38 156.18 275.76 155.95C276.14 155.72 276.57 155.585 277.05 155.545L277.26 155.53ZM282.397 163.105C281.677 163.105 281.042 162.95 280.492 162.64C279.952 162.33 279.532 161.89 279.232 161.32C278.942 160.74 278.797 160.07 278.797 159.31C278.797 158.54 278.942 157.87 279.232 157.3C279.532 156.72 279.952 156.275 280.492 155.965C281.042 155.655 281.677 155.5 282.397 155.5C283.117 155.5 283.747 155.655 284.287 155.965C284.837 156.275 285.257 156.72 285.547 157.3C285.847 157.87 285.997 158.54 285.997 159.31C285.997 160.07 285.847 160.74 285.547 161.32C285.257 161.89 284.837 162.33 284.287 162.64C283.747 162.95 283.117 163.105 282.397 163.105ZM282.397 161.905C283.067 161.905 283.577 161.685 283.927 161.245C284.287 160.805 284.467 160.16 284.467 159.31C284.467 158.47 284.287 157.83 283.927 157.39C283.567 156.94 283.057 156.715 282.397 156.715C281.737 156.715 281.227 156.94 280.867 157.39C280.507 157.83 280.327 158.47 280.327 159.31C280.327 160.16 280.502 160.805 280.852 161.245C281.212 161.685 281.727 161.905 282.397 161.905ZM297.991 155.995C298.101 155.695 298.306 155.545 298.606 155.545C298.796 155.545 298.966 155.61 299.116 155.74C299.266 155.87 299.341 156.03 299.341 156.22C299.341 156.32 299.321 156.41 299.281 156.49L296.791 162.565C296.731 162.725 296.631 162.85 296.491 162.94C296.351 163.02 296.196 163.06 296.026 163.06C295.866 163.06 295.716 163.02 295.576 162.94C295.436 162.85 295.336 162.725 295.276 162.565L293.326 157.75L291.421 162.565C291.361 162.725 291.261 162.85 291.121 162.94C290.991 163.02 290.841 163.06 290.671 163.06C290.511 163.06 290.356 163.02 290.206 162.94C290.066 162.85 289.961 162.725 289.891 162.565L287.416 156.49C287.376 156.41 287.356 156.325 287.356 156.235C287.356 156.035 287.436 155.87 287.596 155.74C287.766 155.61 287.951 155.545 288.151 155.545C288.451 155.545 288.656 155.69 288.766 155.98L290.701 161.095L292.681 156.025C292.741 155.865 292.836 155.745 292.966 155.665C293.096 155.585 293.236 155.545 293.386 155.545C293.526 155.545 293.661 155.585 293.791 155.665C293.921 155.745 294.016 155.865 294.076 156.025L296.056 161.065L297.991 155.995ZM305.141 155.5C306.891 155.5 307.766 156.485 307.766 158.455V162.355C307.766 162.585 307.696 162.765 307.556 162.895C307.426 163.015 307.241 163.075 307.001 163.075C306.771 163.075 306.586 163.01 306.446 162.88C306.316 162.75 306.251 162.575 306.251 162.355V158.53C306.251 157.91 306.126 157.455 305.876 157.165C305.636 156.875 305.256 156.73 304.736 156.73C304.126 156.73 303.636 156.92 303.266 157.3C302.896 157.68 302.711 158.19 302.711 158.83V162.355C302.711 162.575 302.641 162.75 302.501 162.88C302.371 163.01 302.191 163.075 301.961 163.075C301.731 163.075 301.546 163.01 301.406 162.88C301.266 162.75 301.196 162.575 301.196 162.355V156.25C301.196 156.04 301.266 155.87 301.406 155.74C301.556 155.6 301.741 155.53 301.961 155.53C302.181 155.53 302.356 155.595 302.486 155.725C302.616 155.855 302.681 156.025 302.681 156.235V156.85C302.921 156.41 303.256 156.075 303.686 155.845C304.116 155.615 304.601 155.5 305.141 155.5ZM28.833 175.5C29.803 175.5 30.523 175.745 30.993 176.235C31.473 176.725 31.713 177.47 31.713 178.47V182.355C31.713 182.585 31.648 182.765 31.518 182.895C31.388 183.015 31.208 183.075 30.978 183.075C30.758 183.075 30.583 183.01 30.453 182.88C30.323 182.75 30.258 182.575 30.258 182.355V181.8C30.068 182.22 29.783 182.545 29.403 182.775C29.033 182.995 28.598 183.105 28.098 183.105C27.618 183.105 27.178 183.01 26.778 182.82C26.388 182.62 26.078 182.35 25.848 182.01C25.618 181.67 25.503 181.285 25.503 180.855C25.493 180.315 25.628 179.895 25.908 179.595C26.188 179.285 26.643 179.065 27.273 178.935C27.903 178.795 28.778 178.725 29.898 178.725H30.243V178.29C30.243 177.73 30.128 177.325 29.898 177.075C29.668 176.825 29.298 176.7 28.788 176.7C28.438 176.7 28.108 176.745 27.798 176.835C27.488 176.925 27.148 177.055 26.778 177.225C26.508 177.375 26.318 177.45 26.208 177.45C26.058 177.45 25.933 177.395 25.833 177.285C25.743 177.175 25.698 177.035 25.698 176.865C25.698 176.715 25.738 176.585 25.818 176.475C25.908 176.355 26.048 176.24 26.238 176.13C26.588 175.94 26.998 175.79 27.468 175.68C27.938 175.56 28.393 175.5 28.833 175.5ZM28.368 181.98C28.918 181.98 29.368 181.795 29.718 181.425C30.068 181.045 30.243 180.56 30.243 179.97V179.58H29.973C29.193 179.58 28.593 179.615 28.173 179.685C27.753 179.755 27.453 179.875 27.273 180.045C27.093 180.205 27.003 180.44 27.003 180.75C27.003 181.11 27.133 181.405 27.393 181.635C27.653 181.865 27.978 181.98 28.368 181.98ZM37.3704 183.105C36.6604 183.105 36.0354 182.95 35.4954 182.64C34.9654 182.33 34.5504 181.89 34.2504 181.32C33.9604 180.75 33.8154 180.09 33.8154 179.34C33.8154 178.58 33.9654 177.91 34.2654 177.33C34.5754 176.75 35.0054 176.3 35.5554 175.98C36.1054 175.66 36.7354 175.5 37.4454 175.5C37.8254 175.5 38.2054 175.555 38.5854 175.665C38.9754 175.775 39.3204 175.925 39.6204 176.115C39.9404 176.335 40.1004 176.59 40.1004 176.88C40.1004 177.05 40.0554 177.195 39.9654 177.315C39.8754 177.425 39.7604 177.48 39.6204 177.48C39.5304 177.48 39.4404 177.46 39.3504 177.42C39.2604 177.37 39.1454 177.3 39.0054 177.21C38.7554 177.05 38.5204 176.93 38.3004 176.85C38.0904 176.76 37.8354 176.715 37.5354 176.715C36.8554 176.715 36.3254 176.945 35.9454 177.405C35.5754 177.865 35.3904 178.505 35.3904 179.325C35.3904 180.145 35.5754 180.78 35.9454 181.23C36.3154 181.67 36.8404 181.89 37.5204 181.89C37.8204 181.89 38.0854 181.845 38.3154 181.755C38.5454 181.665 38.7804 181.545 39.0204 181.395C39.1304 181.325 39.2404 181.265 39.3504 181.215C39.4604 181.165 39.5604 181.14 39.6504 181.14C39.7904 181.14 39.9054 181.2 39.9954 181.32C40.0854 181.43 40.1304 181.57 40.1304 181.74C40.1304 181.88 40.0904 182.01 40.0104 182.13C39.9404 182.24 39.8154 182.355 39.6354 182.475C39.3354 182.675 38.9854 182.83 38.5854 182.94C38.1854 183.05 37.7804 183.105 37.3704 183.105ZM45.0713 183.105C44.3613 183.105 43.7363 182.95 43.1963 182.64C42.6663 182.33 42.2513 181.89 41.9513 181.32C41.6613 180.75 41.5163 180.09 41.5163 179.34C41.5163 178.58 41.6663 177.91 41.9663 177.33C42.2763 176.75 42.7063 176.3 43.2563 175.98C43.8063 175.66 44.4363 175.5 45.1463 175.5C45.5263 175.5 45.9063 175.555 46.2863 175.665C46.6763 175.775 47.0213 175.925 47.3213 176.115C47.6413 176.335 47.8013 176.59 47.8013 176.88C47.8013 177.05 47.7563 177.195 47.6663 177.315C47.5763 177.425 47.4613 177.48 47.3213 177.48C47.2313 177.48 47.1413 177.46 47.0513 177.42C46.9613 177.37 46.8463 177.3 46.7063 177.21C46.4563 177.05 46.2213 176.93 46.0013 176.85C45.7913 176.76 45.5363 176.715 45.2363 176.715C44.5563 176.715 44.0263 176.945 43.6463 177.405C43.2763 177.865 43.0913 178.505 43.0913 179.325C43.0913 180.145 43.2763 180.78 43.6463 181.23C44.0163 181.67 44.5413 181.89 45.2213 181.89C45.5213 181.89 45.7863 181.845 46.0163 181.755C46.2463 181.665 46.4813 181.545 46.7213 181.395C46.8313 181.325 46.9413 181.265 47.0513 181.215C47.1613 181.165 47.2613 181.14 47.3513 181.14C47.4913 181.14 47.6063 181.2 47.6963 181.32C47.7863 181.43 47.8313 181.57 47.8313 181.74C47.8313 181.88 47.7913 182.01 47.7113 182.13C47.6413 182.24 47.5163 182.355 47.3363 182.475C47.0363 182.675 46.6863 182.83 46.2863 182.94C45.8863 183.05 45.4813 183.105 45.0713 183.105ZM52.8173 183.105C52.0973 183.105 51.4623 182.95 50.9123 182.64C50.3723 182.33 49.9523 181.89 49.6523 181.32C49.3623 180.74 49.2173 180.07 49.2173 179.31C49.2173 178.54 49.3623 177.87 49.6523 177.3C49.9523 176.72 50.3723 176.275 50.9123 175.965C51.4623 175.655 52.0973 175.5 52.8173 175.5C53.5373 175.5 54.1673 175.655 54.7073 175.965C55.2573 176.275 55.6773 176.72 55.9673 177.3C56.2673 177.87 56.4173 178.54 56.4173 179.31C56.4173 180.07 56.2673 180.74 55.9673 181.32C55.6773 181.89 55.2573 182.33 54.7073 182.64C54.1673 182.95 53.5373 183.105 52.8173 183.105ZM52.8173 181.905C53.4873 181.905 53.9973 181.685 54.3473 181.245C54.7073 180.805 54.8873 180.16 54.8873 179.31C54.8873 178.47 54.7073 177.83 54.3473 177.39C53.9873 176.94 53.4773 176.715 52.8173 176.715C52.1573 176.715 51.6473 176.94 51.2873 177.39C50.9273 177.83 50.7473 178.47 50.7473 179.31C50.7473 180.16 50.9223 180.805 51.2723 181.245C51.6323 181.685 52.1473 181.905 52.8173 181.905ZM62.3941 175.53C62.8741 175.5 63.1141 175.705 63.1141 176.145C63.1141 176.365 63.0591 176.53 62.9491 176.64C62.8391 176.75 62.6491 176.815 62.3791 176.835L61.9291 176.88C61.2991 176.94 60.8291 177.16 60.5191 177.54C60.2191 177.92 60.0691 178.38 60.0691 178.92V182.355C60.0691 182.595 59.9991 182.775 59.8591 182.895C59.7191 183.015 59.5391 183.075 59.3191 183.075C59.0991 183.075 58.9141 183.015 58.7641 182.895C58.6241 182.775 58.5541 182.595 58.5541 182.355V176.25C58.5541 176.02 58.6241 175.845 58.7641 175.725C58.9141 175.595 59.0991 175.53 59.3191 175.53C59.5191 175.53 59.6841 175.595 59.8141 175.725C59.9541 175.845 60.0241 176.015 60.0241 176.235V176.955C60.2241 176.515 60.5141 176.18 60.8941 175.95C61.2741 175.72 61.7041 175.585 62.1841 175.545L62.3941 175.53ZM70.3358 172.35C70.5658 172.35 70.7508 172.415 70.8908 172.545C71.0308 172.675 71.1008 172.85 71.1008 173.07V182.34C71.1008 182.57 71.0308 182.75 70.8908 182.88C70.7608 183.01 70.5808 183.075 70.3508 183.075C70.1208 183.075 69.9358 183.01 69.7958 182.88C69.6658 182.75 69.6008 182.57 69.6008 182.34V181.74C69.3808 182.18 69.0608 182.52 68.6408 182.76C68.2208 182.99 67.7358 183.105 67.1858 183.105C66.5558 183.105 65.9908 182.945 65.4908 182.625C65.0008 182.305 64.6158 181.855 64.3358 181.275C64.0658 180.695 63.9308 180.03 63.9308 179.28C63.9308 178.52 64.0658 177.855 64.3358 177.285C64.6158 176.715 65.0008 176.275 65.4908 175.965C65.9808 175.655 66.5458 175.5 67.1858 175.5C67.7358 175.5 68.2158 175.62 68.6258 175.86C69.0458 176.09 69.3658 176.42 69.5858 176.85V173.04C69.5858 172.83 69.6508 172.665 69.7808 172.545C69.9208 172.415 70.1058 172.35 70.3358 172.35ZM67.5458 181.905C68.1958 181.905 68.7008 181.68 69.0608 181.23C69.4208 180.78 69.6008 180.14 69.6008 179.31C69.6008 178.48 69.4208 177.84 69.0608 177.39C68.7108 176.94 68.2058 176.715 67.5458 176.715C66.8858 176.715 66.3708 176.94 66.0008 177.39C65.6408 177.83 65.4608 178.46 65.4608 179.28C65.4608 180.1 65.6458 180.745 66.0158 181.215C66.3858 181.675 66.8958 181.905 67.5458 181.905ZM74.4281 183.075C74.2081 183.075 74.0231 183.015 73.8731 182.895C73.7331 182.775 73.6631 182.595 73.6631 182.355V176.265C73.6631 176.025 73.7331 175.845 73.8731 175.725C74.0231 175.595 74.2081 175.53 74.4281 175.53C74.6481 175.53 74.8281 175.595 74.9681 175.725C75.1081 175.845 75.1781 176.025 75.1781 176.265V182.355C75.1781 182.595 75.1081 182.775 74.9681 182.895C74.8281 183.015 74.6481 183.075 74.4281 183.075ZM74.4281 174.06C74.1381 174.06 73.9081 173.98 73.7381 173.82C73.5681 173.66 73.4831 173.45 73.4831 173.19C73.4831 172.93 73.5681 172.725 73.7381 172.575C73.9081 172.415 74.1381 172.335 74.4281 172.335C74.7081 172.335 74.9331 172.415 75.1031 172.575C75.2831 172.725 75.3731 172.93 75.3731 173.19C75.3731 173.45 75.2881 173.66 75.1181 173.82C74.9481 173.98 74.7181 174.06 74.4281 174.06ZM81.6909 175.5C83.4409 175.5 84.3159 176.485 84.3159 178.455V182.355C84.3159 182.585 84.2459 182.765 84.1059 182.895C83.9759 183.015 83.7909 183.075 83.5509 183.075C83.3209 183.075 83.1359 183.01 82.9959 182.88C82.8659 182.75 82.8009 182.575 82.8009 182.355V178.53C82.8009 177.91 82.6759 177.455 82.4259 177.165C82.1859 176.875 81.8059 176.73 81.2859 176.73C80.6759 176.73 80.1859 176.92 79.8159 177.3C79.4459 177.68 79.2609 178.19 79.2609 178.83V182.355C79.2609 182.575 79.1909 182.75 79.0509 182.88C78.9209 183.01 78.7409 183.075 78.5109 183.075C78.2809 183.075 78.0959 183.01 77.9559 182.88C77.8159 182.75 77.7459 182.575 77.7459 182.355V176.25C77.7459 176.04 77.8159 175.87 77.9559 175.74C78.1059 175.6 78.2909 175.53 78.5109 175.53C78.7309 175.53 78.9059 175.595 79.0359 175.725C79.1659 175.855 79.2309 176.025 79.2309 176.235V176.85C79.4709 176.41 79.8059 176.075 80.2359 175.845C80.6659 175.615 81.1509 175.5 81.6909 175.5ZM92.8985 175.53C93.1285 175.53 93.3085 175.6 93.4385 175.74C93.5785 175.87 93.6485 176.045 93.6485 176.265V182.415C93.6485 183.535 93.3485 184.38 92.7485 184.95C92.1585 185.52 91.2835 185.805 90.1235 185.805C89.0435 185.805 88.1435 185.6 87.4235 185.19C87.0535 184.98 86.8685 184.73 86.8685 184.44C86.8685 184.27 86.9135 184.13 87.0035 184.02C87.1035 183.91 87.2235 183.855 87.3635 183.855C87.4935 183.855 87.6985 183.93 87.9785 184.08C88.3385 184.25 88.6735 184.38 88.9835 184.47C89.2935 184.57 89.6635 184.62 90.0935 184.62C91.4735 184.62 92.1635 183.925 92.1635 182.535V181.38C91.9535 181.82 91.6335 182.165 91.2035 182.415C90.7735 182.655 90.2735 182.775 89.7035 182.775C89.0635 182.775 88.4935 182.625 87.9935 182.325C87.4935 182.025 87.1035 181.6 86.8235 181.05C86.5535 180.5 86.4185 179.865 86.4185 179.145C86.4185 178.425 86.5585 177.79 86.8385 177.24C87.1185 176.69 87.5035 176.265 87.9935 175.965C88.4935 175.655 89.0635 175.5 89.7035 175.5C90.2635 175.5 90.7535 175.62 91.1735 175.86C91.6035 176.1 91.9285 176.44 92.1485 176.88V176.25C92.1485 176.03 92.2135 175.855 92.3435 175.725C92.4835 175.595 92.6685 175.53 92.8985 175.53ZM90.0635 181.575C90.7135 181.575 91.2235 181.36 91.5935 180.93C91.9635 180.5 92.1485 179.905 92.1485 179.145C92.1485 178.395 91.9635 177.805 91.5935 177.375C91.2335 176.935 90.7235 176.715 90.0635 176.715C89.4035 176.715 88.8835 176.93 88.5035 177.36C88.1335 177.79 87.9485 178.385 87.9485 179.145C87.9485 179.905 88.1385 180.5 88.5185 180.93C88.8985 181.36 89.4135 181.575 90.0635 181.575ZM104.199 181.92C104.419 181.94 104.574 182 104.664 182.1C104.764 182.19 104.814 182.32 104.814 182.49C104.814 182.69 104.734 182.845 104.574 182.955C104.424 183.055 104.199 183.095 103.899 183.075L103.494 183.045C102.684 182.985 102.079 182.74 101.679 182.31C101.279 181.87 101.079 181.225 101.079 180.375V176.85H100.179C99.7395 176.85 99.5195 176.655 99.5195 176.265C99.5195 176.085 99.5745 175.945 99.6845 175.845C99.8045 175.735 99.9695 175.68 100.179 175.68H101.079V174.135C101.079 173.905 101.144 173.725 101.274 173.595C101.414 173.465 101.599 173.4 101.829 173.4C102.059 173.4 102.244 173.465 102.384 173.595C102.524 173.725 102.594 173.905 102.594 174.135V175.68H104.079C104.289 175.68 104.449 175.735 104.559 175.845C104.679 175.945 104.739 176.085 104.739 176.265C104.739 176.455 104.679 176.6 104.559 176.7C104.449 176.8 104.289 176.85 104.079 176.85H102.594V180.48C102.594 180.95 102.689 181.295 102.879 181.515C103.079 181.735 103.379 181.86 103.779 181.89L104.199 181.92ZM109.533 183.105C108.813 183.105 108.178 182.95 107.628 182.64C107.088 182.33 106.668 181.89 106.368 181.32C106.078 180.74 105.933 180.07 105.933 179.31C105.933 178.54 106.078 177.87 106.368 177.3C106.668 176.72 107.088 176.275 107.628 175.965C108.178 175.655 108.813 175.5 109.533 175.5C110.253 175.5 110.883 175.655 111.423 175.965C111.973 176.275 112.393 176.72 112.683 177.3C112.983 177.87 113.133 178.54 113.133 179.31C113.133 180.07 112.983 180.74 112.683 181.32C112.393 181.89 111.973 182.33 111.423 182.64C110.883 182.95 110.253 183.105 109.533 183.105ZM109.533 181.905C110.203 181.905 110.713 181.685 111.063 181.245C111.423 180.805 111.603 180.16 111.603 179.31C111.603 178.47 111.423 177.83 111.063 177.39C110.703 176.94 110.193 176.715 109.533 176.715C108.873 176.715 108.363 176.94 108.003 177.39C107.643 177.83 107.463 178.47 107.463 179.31C107.463 180.16 107.638 180.805 107.988 181.245C108.348 181.685 108.863 181.905 109.533 181.905ZM120.439 183.075C120.219 183.075 120.034 183.015 119.884 182.895C119.744 182.775 119.674 182.595 119.674 182.355V176.265C119.674 176.025 119.744 175.845 119.884 175.725C120.034 175.595 120.219 175.53 120.439 175.53C120.659 175.53 120.839 175.595 120.979 175.725C121.119 175.845 121.189 176.025 121.189 176.265V182.355C121.189 182.595 121.119 182.775 120.979 182.895C120.839 183.015 120.659 183.075 120.439 183.075ZM120.439 174.06C120.149 174.06 119.919 173.98 119.749 173.82C119.579 173.66 119.494 173.45 119.494 173.19C119.494 172.93 119.579 172.725 119.749 172.575C119.919 172.415 120.149 172.335 120.439 172.335C120.719 172.335 120.944 172.415 121.114 172.575C121.294 172.725 121.384 172.93 121.384 173.19C121.384 173.45 121.299 173.66 121.129 173.82C120.959 173.98 120.729 174.06 120.439 174.06ZM127.702 175.5C129.452 175.5 130.327 176.485 130.327 178.455V182.355C130.327 182.585 130.257 182.765 130.117 182.895C129.987 183.015 129.802 183.075 129.562 183.075C129.332 183.075 129.147 183.01 129.007 182.88C128.877 182.75 128.812 182.575 128.812 182.355V178.53C128.812 177.91 128.687 177.455 128.437 177.165C128.197 176.875 127.817 176.73 127.297 176.73C126.687 176.73 126.197 176.92 125.827 177.3C125.457 177.68 125.272 178.19 125.272 178.83V182.355C125.272 182.575 125.202 182.75 125.062 182.88C124.932 183.01 124.752 183.075 124.522 183.075C124.292 183.075 124.107 183.01 123.967 182.88C123.827 182.75 123.757 182.575 123.757 182.355V176.25C123.757 176.04 123.827 175.87 123.967 175.74C124.117 175.6 124.302 175.53 124.522 175.53C124.742 175.53 124.917 175.595 125.047 175.725C125.177 175.855 125.242 176.025 125.242 176.235V176.85C125.482 176.41 125.817 176.075 126.247 175.845C126.677 175.615 127.162 175.5 127.702 175.5ZM136.435 181.92C136.655 181.94 136.81 182 136.9 182.1C137 182.19 137.05 182.32 137.05 182.49C137.05 182.69 136.97 182.845 136.81 182.955C136.66 183.055 136.435 183.095 136.135 183.075L135.73 183.045C134.92 182.985 134.315 182.74 133.915 182.31C133.515 181.87 133.315 181.225 133.315 180.375V176.85H132.415C131.975 176.85 131.755 176.655 131.755 176.265C131.755 176.085 131.81 175.945 131.92 175.845C132.04 175.735 132.205 175.68 132.415 175.68H133.315V174.135C133.315 173.905 133.38 173.725 133.51 173.595C133.65 173.465 133.835 173.4 134.065 173.4C134.295 173.4 134.48 173.465 134.62 173.595C134.76 173.725 134.83 173.905 134.83 174.135V175.68H136.315C136.525 175.68 136.685 175.735 136.795 175.845C136.915 175.945 136.975 176.085 136.975 176.265C136.975 176.455 136.915 176.6 136.795 176.7C136.685 176.8 136.525 176.85 136.315 176.85H134.83V180.48C134.83 180.95 134.925 181.295 135.115 181.515C135.315 181.735 135.615 181.86 136.015 181.89L136.435 181.92ZM144.318 181.155C144.458 181.155 144.573 181.21 144.663 181.32C144.753 181.43 144.798 181.57 144.798 181.74C144.798 182.03 144.618 182.275 144.258 182.475C143.908 182.675 143.523 182.83 143.103 182.94C142.693 183.05 142.298 183.105 141.918 183.105C140.758 183.105 139.843 182.77 139.173 182.1C138.503 181.42 138.168 180.495 138.168 179.325C138.168 178.575 138.313 177.91 138.603 177.33C138.903 176.75 139.318 176.3 139.848 175.98C140.388 175.66 140.998 175.5 141.678 175.5C142.658 175.5 143.433 175.815 144.003 176.445C144.573 177.075 144.858 177.925 144.858 178.995C144.858 179.395 144.678 179.595 144.318 179.595H139.683C139.783 181.145 140.528 181.92 141.918 181.92C142.288 181.92 142.608 181.87 142.878 181.77C143.148 181.67 143.433 181.54 143.733 181.38C143.763 181.36 143.843 181.32 143.973 181.26C144.113 181.19 144.228 181.155 144.318 181.155ZM141.708 176.61C141.128 176.61 140.663 176.795 140.313 177.165C139.963 177.535 139.753 178.055 139.683 178.725H143.553C143.523 178.045 143.348 177.525 143.028 177.165C142.718 176.795 142.278 176.61 141.708 176.61ZM150.817 175.53C151.297 175.5 151.537 175.705 151.537 176.145C151.537 176.365 151.482 176.53 151.372 176.64C151.262 176.75 151.072 176.815 150.802 176.835L150.352 176.88C149.722 176.94 149.252 177.16 148.942 177.54C148.642 177.92 148.492 178.38 148.492 178.92V182.355C148.492 182.595 148.422 182.775 148.282 182.895C148.142 183.015 147.962 183.075 147.742 183.075C147.522 183.075 147.337 183.015 147.187 182.895C147.047 182.775 146.977 182.595 146.977 182.355V176.25C146.977 176.02 147.047 175.845 147.187 175.725C147.337 175.595 147.522 175.53 147.742 175.53C147.942 175.53 148.107 175.595 148.237 175.725C148.377 175.845 148.447 176.015 148.447 176.235V176.955C148.647 176.515 148.937 176.18 149.317 175.95C149.697 175.72 150.127 175.585 150.607 175.545L150.817 175.53ZM156.866 175.5C158.616 175.5 159.491 176.485 159.491 178.455V182.355C159.491 182.585 159.421 182.765 159.281 182.895C159.151 183.015 158.966 183.075 158.726 183.075C158.496 183.075 158.311 183.01 158.171 182.88C158.041 182.75 157.976 182.575 157.976 182.355V178.53C157.976 177.91 157.851 177.455 157.601 177.165C157.361 176.875 156.981 176.73 156.461 176.73C155.851 176.73 155.361 176.92 154.991 177.3C154.621 177.68 154.436 178.19 154.436 178.83V182.355C154.436 182.575 154.366 182.75 154.226 182.88C154.096 183.01 153.916 183.075 153.686 183.075C153.456 183.075 153.271 183.01 153.131 182.88C152.991 182.75 152.921 182.575 152.921 182.355V176.25C152.921 176.04 152.991 175.87 153.131 175.74C153.281 175.6 153.466 175.53 153.686 175.53C153.906 175.53 154.081 175.595 154.211 175.725C154.341 175.855 154.406 176.025 154.406 176.235V176.85C154.646 176.41 154.981 176.075 155.411 175.845C155.841 175.615 156.326 175.5 156.866 175.5ZM165.088 175.5C166.058 175.5 166.778 175.745 167.248 176.235C167.728 176.725 167.968 177.47 167.968 178.47V182.355C167.968 182.585 167.903 182.765 167.773 182.895C167.643 183.015 167.463 183.075 167.233 183.075C167.013 183.075 166.838 183.01 166.708 182.88C166.578 182.75 166.513 182.575 166.513 182.355V181.8C166.323 182.22 166.038 182.545 165.658 182.775C165.288 182.995 164.853 183.105 164.353 183.105C163.873 183.105 163.433 183.01 163.033 182.82C162.643 182.62 162.333 182.35 162.103 182.01C161.873 181.67 161.758 181.285 161.758 180.855C161.748 180.315 161.883 179.895 162.163 179.595C162.443 179.285 162.898 179.065 163.528 178.935C164.158 178.795 165.033 178.725 166.153 178.725H166.498V178.29C166.498 177.73 166.383 177.325 166.153 177.075C165.923 176.825 165.553 176.7 165.043 176.7C164.693 176.7 164.363 176.745 164.053 176.835C163.743 176.925 163.403 177.055 163.033 177.225C162.763 177.375 162.573 177.45 162.463 177.45C162.313 177.45 162.188 177.395 162.088 177.285C161.998 177.175 161.953 177.035 161.953 176.865C161.953 176.715 161.993 176.585 162.073 176.475C162.163 176.355 162.303 176.24 162.493 176.13C162.843 175.94 163.253 175.79 163.723 175.68C164.193 175.56 164.648 175.5 165.088 175.5ZM164.623 181.98C165.173 181.98 165.623 181.795 165.973 181.425C166.323 181.045 166.498 180.56 166.498 179.97V179.58H166.228C165.448 179.58 164.848 179.615 164.428 179.685C164.008 179.755 163.708 179.875 163.528 180.045C163.348 180.205 163.258 180.44 163.258 180.75C163.258 181.11 163.388 181.405 163.648 181.635C163.908 181.865 164.233 181.98 164.623 181.98ZM174.075 181.92C174.295 181.94 174.45 182 174.54 182.1C174.64 182.19 174.69 182.32 174.69 182.49C174.69 182.69 174.61 182.845 174.45 182.955C174.3 183.055 174.075 183.095 173.775 183.075L173.37 183.045C172.56 182.985 171.955 182.74 171.555 182.31C171.155 181.87 170.955 181.225 170.955 180.375V176.85H170.055C169.615 176.85 169.395 176.655 169.395 176.265C169.395 176.085 169.45 175.945 169.56 175.845C169.68 175.735 169.845 175.68 170.055 175.68H170.955V174.135C170.955 173.905 171.02 173.725 171.15 173.595C171.29 173.465 171.475 173.4 171.705 173.4C171.935 173.4 172.12 173.465 172.26 173.595C172.4 173.725 172.47 173.905 172.47 174.135V175.68H173.955C174.165 175.68 174.325 175.735 174.435 175.845C174.555 175.945 174.615 176.085 174.615 176.265C174.615 176.455 174.555 176.6 174.435 176.7C174.325 176.8 174.165 176.85 173.955 176.85H172.47V180.48C172.47 180.95 172.565 181.295 172.755 181.515C172.955 181.735 173.255 181.86 173.655 181.89L174.075 181.92ZM176.994 183.075C176.774 183.075 176.589 183.015 176.439 182.895C176.299 182.775 176.229 182.595 176.229 182.355V176.265C176.229 176.025 176.299 175.845 176.439 175.725C176.589 175.595 176.774 175.53 176.994 175.53C177.214 175.53 177.394 175.595 177.534 175.725C177.674 175.845 177.744 176.025 177.744 176.265V182.355C177.744 182.595 177.674 182.775 177.534 182.895C177.394 183.015 177.214 183.075 176.994 183.075ZM176.994 174.06C176.704 174.06 176.474 173.98 176.304 173.82C176.134 173.66 176.049 173.45 176.049 173.19C176.049 172.93 176.134 172.725 176.304 172.575C176.474 172.415 176.704 172.335 176.994 172.335C177.274 172.335 177.499 172.415 177.669 172.575C177.849 172.725 177.939 172.93 177.939 173.19C177.939 173.45 177.854 173.66 177.684 173.82C177.514 173.98 177.284 174.06 176.994 174.06ZM183.491 183.105C182.771 183.105 182.136 182.95 181.586 182.64C181.046 182.33 180.626 181.89 180.326 181.32C180.036 180.74 179.891 180.07 179.891 179.31C179.891 178.54 180.036 177.87 180.326 177.3C180.626 176.72 181.046 176.275 181.586 175.965C182.136 175.655 182.771 175.5 183.491 175.5C184.211 175.5 184.841 175.655 185.381 175.965C185.931 176.275 186.351 176.72 186.641 177.3C186.941 177.87 187.091 178.54 187.091 179.31C187.091 180.07 186.941 180.74 186.641 181.32C186.351 181.89 185.931 182.33 185.381 182.64C184.841 182.95 184.211 183.105 183.491 183.105ZM183.491 181.905C184.161 181.905 184.671 181.685 185.021 181.245C185.381 180.805 185.561 180.16 185.561 179.31C185.561 178.47 185.381 177.83 185.021 177.39C184.661 176.94 184.151 176.715 183.491 176.715C182.831 176.715 182.321 176.94 181.961 177.39C181.601 177.83 181.421 178.47 181.421 179.31C181.421 180.16 181.596 180.805 181.946 181.245C182.306 181.685 182.821 181.905 183.491 181.905ZM193.173 175.5C194.923 175.5 195.798 176.485 195.798 178.455V182.355C195.798 182.585 195.728 182.765 195.588 182.895C195.458 183.015 195.273 183.075 195.033 183.075C194.803 183.075 194.618 183.01 194.478 182.88C194.348 182.75 194.283 182.575 194.283 182.355V178.53C194.283 177.91 194.158 177.455 193.908 177.165C193.668 176.875 193.288 176.73 192.768 176.73C192.158 176.73 191.668 176.92 191.298 177.3C190.928 177.68 190.743 178.19 190.743 178.83V182.355C190.743 182.575 190.673 182.75 190.533 182.88C190.403 183.01 190.223 183.075 189.993 183.075C189.763 183.075 189.578 183.01 189.438 182.88C189.298 182.75 189.228 182.575 189.228 182.355V176.25C189.228 176.04 189.298 175.87 189.438 175.74C189.588 175.6 189.773 175.53 189.993 175.53C190.213 175.53 190.388 175.595 190.518 175.725C190.648 175.855 190.713 176.025 190.713 176.235V176.85C190.953 176.41 191.288 176.075 191.718 175.845C192.148 175.615 192.633 175.5 193.173 175.5ZM201.396 175.5C202.366 175.5 203.086 175.745 203.556 176.235C204.036 176.725 204.276 177.47 204.276 178.47V182.355C204.276 182.585 204.211 182.765 204.081 182.895C203.951 183.015 203.771 183.075 203.541 183.075C203.321 183.075 203.146 183.01 203.016 182.88C202.886 182.75 202.821 182.575 202.821 182.355V181.8C202.631 182.22 202.346 182.545 201.966 182.775C201.596 182.995 201.161 183.105 200.661 183.105C200.181 183.105 199.741 183.01 199.341 182.82C198.951 182.62 198.641 182.35 198.411 182.01C198.181 181.67 198.066 181.285 198.066 180.855C198.056 180.315 198.191 179.895 198.471 179.595C198.751 179.285 199.206 179.065 199.836 178.935C200.466 178.795 201.341 178.725 202.461 178.725H202.806V178.29C202.806 177.73 202.691 177.325 202.461 177.075C202.231 176.825 201.861 176.7 201.351 176.7C201.001 176.7 200.671 176.745 200.361 176.835C200.051 176.925 199.711 177.055 199.341 177.225C199.071 177.375 198.881 177.45 198.771 177.45C198.621 177.45 198.496 177.395 198.396 177.285C198.306 177.175 198.261 177.035 198.261 176.865C198.261 176.715 198.301 176.585 198.381 176.475C198.471 176.355 198.611 176.24 198.801 176.13C199.151 175.94 199.561 175.79 200.031 175.68C200.501 175.56 200.956 175.5 201.396 175.5ZM200.931 181.98C201.481 181.98 201.931 181.795 202.281 181.425C202.631 181.045 202.806 180.56 202.806 179.97V179.58H202.536C201.756 179.58 201.156 179.615 200.736 179.685C200.316 179.755 200.016 179.875 199.836 180.045C199.656 180.205 199.566 180.44 199.566 180.75C199.566 181.11 199.696 181.405 199.956 181.635C200.216 181.865 200.541 181.98 200.931 181.98ZM207.563 183.075C207.343 183.075 207.158 183.015 207.008 182.895C206.868 182.775 206.798 182.595 206.798 182.355V173.085C206.798 172.845 206.868 172.665 207.008 172.545C207.158 172.415 207.343 172.35 207.563 172.35C207.783 172.35 207.963 172.415 208.103 172.545C208.243 172.665 208.313 172.845 208.313 173.085V182.355C208.313 182.595 208.243 182.775 208.103 182.895C207.963 183.015 207.783 183.075 207.563 183.075ZM217.836 183.105C216.816 183.105 215.981 182.895 215.331 182.475C215.151 182.365 215.021 182.25 214.941 182.13C214.871 182.01 214.836 181.875 214.836 181.725C214.836 181.565 214.881 181.43 214.971 181.32C215.061 181.21 215.176 181.155 215.316 181.155C215.446 181.155 215.651 181.235 215.931 181.395C216.231 181.555 216.521 181.685 216.801 181.785C217.091 181.885 217.451 181.935 217.881 181.935C218.361 181.935 218.736 181.85 219.006 181.68C219.276 181.51 219.411 181.27 219.411 180.96C219.411 180.76 219.356 180.6 219.246 180.48C219.146 180.36 218.966 180.255 218.706 180.165C218.446 180.065 218.061 179.96 217.551 179.85C216.671 179.66 216.036 179.405 215.646 179.085C215.266 178.755 215.076 178.31 215.076 177.75C215.076 177.32 215.201 176.935 215.451 176.595C215.701 176.245 216.046 175.975 216.486 175.785C216.926 175.595 217.426 175.5 217.986 175.5C218.386 175.5 218.776 175.555 219.156 175.665C219.536 175.765 219.871 175.915 220.161 176.115C220.491 176.335 220.656 176.59 220.656 176.88C220.656 177.04 220.606 177.175 220.506 177.285C220.416 177.395 220.306 177.45 220.176 177.45C220.086 177.45 219.996 177.43 219.906 177.39C219.816 177.35 219.696 177.285 219.546 177.195C219.276 177.035 219.021 176.91 218.781 176.82C218.551 176.73 218.261 176.685 217.911 176.685C217.491 176.685 217.151 176.775 216.891 176.955C216.641 177.135 216.516 177.38 216.516 177.69C216.516 177.97 216.631 178.19 216.861 178.35C217.101 178.5 217.546 178.645 218.196 178.785C218.866 178.925 219.391 179.085 219.771 179.265C220.151 179.445 220.421 179.67 220.581 179.94C220.751 180.2 220.836 180.535 220.836 180.945C220.836 181.595 220.561 182.12 220.011 182.52C219.471 182.91 218.746 183.105 217.836 183.105ZM226.484 181.92C226.704 181.94 226.859 182 226.949 182.1C227.049 182.19 227.099 182.32 227.099 182.49C227.099 182.69 227.019 182.845 226.859 182.955C226.709 183.055 226.484 183.095 226.184 183.075L225.779 183.045C224.969 182.985 224.364 182.74 223.964 182.31C223.564 181.87 223.364 181.225 223.364 180.375V176.85H222.464C222.024 176.85 221.804 176.655 221.804 176.265C221.804 176.085 221.859 175.945 221.969 175.845C222.089 175.735 222.254 175.68 222.464 175.68H223.364V174.135C223.364 173.905 223.429 173.725 223.559 173.595C223.699 173.465 223.884 173.4 224.114 173.4C224.344 173.4 224.529 173.465 224.669 173.595C224.809 173.725 224.879 173.905 224.879 174.135V175.68H226.364C226.574 175.68 226.734 175.735 226.844 175.845C226.964 175.945 227.024 176.085 227.024 176.265C227.024 176.455 226.964 176.6 226.844 176.7C226.734 176.8 226.574 176.85 226.364 176.85H224.879V180.48C224.879 180.95 224.974 181.295 225.164 181.515C225.364 181.735 225.664 181.86 226.064 181.89L226.484 181.92ZM231.712 175.5C232.682 175.5 233.402 175.745 233.872 176.235C234.352 176.725 234.592 177.47 234.592 178.47V182.355C234.592 182.585 234.527 182.765 234.397 182.895C234.267 183.015 234.087 183.075 233.857 183.075C233.637 183.075 233.462 183.01 233.332 182.88C233.202 182.75 233.137 182.575 233.137 182.355V181.8C232.947 182.22 232.662 182.545 232.282 182.775C231.912 182.995 231.477 183.105 230.977 183.105C230.497 183.105 230.057 183.01 229.657 182.82C229.267 182.62 228.957 182.35 228.727 182.01C228.497 181.67 228.382 181.285 228.382 180.855C228.372 180.315 228.507 179.895 228.787 179.595C229.067 179.285 229.522 179.065 230.152 178.935C230.782 178.795 231.657 178.725 232.777 178.725H233.122V178.29C233.122 177.73 233.007 177.325 232.777 177.075C232.547 176.825 232.177 176.7 231.667 176.7C231.317 176.7 230.987 176.745 230.677 176.835C230.367 176.925 230.027 177.055 229.657 177.225C229.387 177.375 229.197 177.45 229.087 177.45C228.937 177.45 228.812 177.395 228.712 177.285C228.622 177.175 228.577 177.035 228.577 176.865C228.577 176.715 228.617 176.585 228.697 176.475C228.787 176.355 228.927 176.24 229.117 176.13C229.467 175.94 229.877 175.79 230.347 175.68C230.817 175.56 231.272 175.5 231.712 175.5ZM231.247 181.98C231.797 181.98 232.247 181.795 232.597 181.425C232.947 181.045 233.122 180.56 233.122 179.97V179.58H232.852C232.072 179.58 231.472 179.615 231.052 179.685C230.632 179.755 230.332 179.875 230.152 180.045C229.972 180.205 229.882 180.44 229.882 180.75C229.882 181.11 230.012 181.405 230.272 181.635C230.532 181.865 230.857 181.98 231.247 181.98ZM241.059 175.5C242.809 175.5 243.684 176.485 243.684 178.455V182.355C243.684 182.585 243.614 182.765 243.474 182.895C243.344 183.015 243.159 183.075 242.919 183.075C242.689 183.075 242.504 183.01 242.364 182.88C242.234 182.75 242.169 182.575 242.169 182.355V178.53C242.169 177.91 242.044 177.455 241.794 177.165C241.554 176.875 241.174 176.73 240.654 176.73C240.044 176.73 239.554 176.92 239.184 177.3C238.814 177.68 238.629 178.19 238.629 178.83V182.355C238.629 182.575 238.559 182.75 238.419 182.88C238.289 183.01 238.109 183.075 237.879 183.075C237.649 183.075 237.464 183.01 237.324 182.88C237.184 182.75 237.114 182.575 237.114 182.355V176.25C237.114 176.04 237.184 175.87 237.324 175.74C237.474 175.6 237.659 175.53 237.879 175.53C238.099 175.53 238.274 175.595 238.404 175.725C238.534 175.855 238.599 176.025 238.599 176.235V176.85C238.839 176.41 239.174 176.075 239.604 175.845C240.034 175.615 240.519 175.5 241.059 175.5ZM252.192 172.35C252.422 172.35 252.607 172.415 252.747 172.545C252.887 172.675 252.957 172.85 252.957 173.07V182.34C252.957 182.57 252.887 182.75 252.747 182.88C252.617 183.01 252.437 183.075 252.207 183.075C251.977 183.075 251.792 183.01 251.652 182.88C251.522 182.75 251.457 182.57 251.457 182.34V181.74C251.237 182.18 250.917 182.52 250.497 182.76C250.077 182.99 249.592 183.105 249.042 183.105C248.412 183.105 247.847 182.945 247.347 182.625C246.857 182.305 246.472 181.855 246.192 181.275C245.922 180.695 245.787 180.03 245.787 179.28C245.787 178.52 245.922 177.855 246.192 177.285C246.472 176.715 246.857 176.275 247.347 175.965C247.837 175.655 248.402 175.5 249.042 175.5C249.592 175.5 250.072 175.62 250.482 175.86C250.902 176.09 251.222 176.42 251.442 176.85V173.04C251.442 172.83 251.507 172.665 251.637 172.545C251.777 172.415 251.962 172.35 252.192 172.35ZM249.402 181.905C250.052 181.905 250.557 181.68 250.917 181.23C251.277 180.78 251.457 180.14 251.457 179.31C251.457 178.48 251.277 177.84 250.917 177.39C250.567 176.94 250.062 176.715 249.402 176.715C248.742 176.715 248.227 176.94 247.857 177.39C247.497 177.83 247.317 178.46 247.317 179.28C247.317 180.1 247.502 180.745 247.872 181.215C248.242 181.675 248.752 181.905 249.402 181.905ZM258.594 175.5C259.564 175.5 260.284 175.745 260.754 176.235C261.234 176.725 261.474 177.47 261.474 178.47V182.355C261.474 182.585 261.409 182.765 261.279 182.895C261.149 183.015 260.969 183.075 260.739 183.075C260.519 183.075 260.344 183.01 260.214 182.88C260.084 182.75 260.019 182.575 260.019 182.355V181.8C259.829 182.22 259.544 182.545 259.164 182.775C258.794 182.995 258.359 183.105 257.859 183.105C257.379 183.105 256.939 183.01 256.539 182.82C256.149 182.62 255.839 182.35 255.609 182.01C255.379 181.67 255.264 181.285 255.264 180.855C255.254 180.315 255.389 179.895 255.669 179.595C255.949 179.285 256.404 179.065 257.034 178.935C257.664 178.795 258.539 178.725 259.659 178.725H260.004V178.29C260.004 177.73 259.889 177.325 259.659 177.075C259.429 176.825 259.059 176.7 258.549 176.7C258.199 176.7 257.869 176.745 257.559 176.835C257.249 176.925 256.909 177.055 256.539 177.225C256.269 177.375 256.079 177.45 255.969 177.45C255.819 177.45 255.694 177.395 255.594 177.285C255.504 177.175 255.459 177.035 255.459 176.865C255.459 176.715 255.499 176.585 255.579 176.475C255.669 176.355 255.809 176.24 255.999 176.13C256.349 175.94 256.759 175.79 257.229 175.68C257.699 175.56 258.154 175.5 258.594 175.5ZM258.129 181.98C258.679 181.98 259.129 181.795 259.479 181.425C259.829 181.045 260.004 180.56 260.004 179.97V179.58H259.734C258.954 179.58 258.354 179.615 257.934 179.685C257.514 179.755 257.214 179.875 257.034 180.045C256.854 180.205 256.764 180.44 256.764 180.75C256.764 181.11 256.894 181.405 257.154 181.635C257.414 181.865 257.739 181.98 258.129 181.98ZM267.837 175.53C268.317 175.5 268.557 175.705 268.557 176.145C268.557 176.365 268.502 176.53 268.392 176.64C268.282 176.75 268.092 176.815 267.822 176.835L267.372 176.88C266.742 176.94 266.272 177.16 265.962 177.54C265.662 177.92 265.512 178.38 265.512 178.92V182.355C265.512 182.595 265.442 182.775 265.302 182.895C265.162 183.015 264.982 183.075 264.762 183.075C264.542 183.075 264.357 183.015 264.207 182.895C264.067 182.775 263.997 182.595 263.997 182.355V176.25C263.997 176.02 264.067 175.845 264.207 175.725C264.357 175.595 264.542 175.53 264.762 175.53C264.962 175.53 265.127 175.595 265.257 175.725C265.397 175.845 265.467 176.015 265.467 176.235V176.955C265.667 176.515 265.957 176.18 266.337 175.95C266.717 175.72 267.147 175.585 267.627 175.545L267.837 175.53ZM275.778 172.35C276.008 172.35 276.193 172.415 276.333 172.545C276.473 172.675 276.543 172.85 276.543 173.07V182.34C276.543 182.57 276.473 182.75 276.333 182.88C276.203 183.01 276.023 183.075 275.793 183.075C275.563 183.075 275.378 183.01 275.238 182.88C275.108 182.75 275.043 182.57 275.043 182.34V181.74C274.823 182.18 274.503 182.52 274.083 182.76C273.663 182.99 273.178 183.105 272.628 183.105C271.998 183.105 271.433 182.945 270.933 182.625C270.443 182.305 270.058 181.855 269.778 181.275C269.508 180.695 269.373 180.03 269.373 179.28C269.373 178.52 269.508 177.855 269.778 177.285C270.058 176.715 270.443 176.275 270.933 175.965C271.423 175.655 271.988 175.5 272.628 175.5C273.178 175.5 273.658 175.62 274.068 175.86C274.488 176.09 274.808 176.42 275.028 176.85V173.04C275.028 172.83 275.093 172.665 275.223 172.545C275.363 172.415 275.548 172.35 275.778 172.35ZM272.988 181.905C273.638 181.905 274.143 181.68 274.503 181.23C274.863 180.78 275.043 180.14 275.043 179.31C275.043 178.48 274.863 177.84 274.503 177.39C274.153 176.94 273.648 176.715 272.988 176.715C272.328 176.715 271.813 176.94 271.443 177.39C271.083 177.83 270.903 178.46 270.903 179.28C270.903 180.1 271.088 180.745 271.458 181.215C271.828 181.675 272.338 181.905 272.988 181.905ZM281.656 183.105C280.636 183.105 279.801 182.895 279.151 182.475C278.971 182.365 278.841 182.25 278.761 182.13C278.691 182.01 278.656 181.875 278.656 181.725C278.656 181.565 278.701 181.43 278.791 181.32C278.881 181.21 278.996 181.155 279.136 181.155C279.266 181.155 279.471 181.235 279.751 181.395C280.051 181.555 280.341 181.685 280.621 181.785C280.911 181.885 281.271 181.935 281.701 181.935C282.181 181.935 282.556 181.85 282.826 181.68C283.096 181.51 283.231 181.27 283.231 180.96C283.231 180.76 283.176 180.6 283.066 180.48C282.966 180.36 282.786 180.255 282.526 180.165C282.266 180.065 281.881 179.96 281.371 179.85C280.491 179.66 279.856 179.405 279.466 179.085C279.086 178.755 278.896 178.31 278.896 177.75C278.896 177.32 279.021 176.935 279.271 176.595C279.521 176.245 279.866 175.975 280.306 175.785C280.746 175.595 281.246 175.5 281.806 175.5C282.206 175.5 282.596 175.555 282.976 175.665C283.356 175.765 283.691 175.915 283.981 176.115C284.311 176.335 284.476 176.59 284.476 176.88C284.476 177.04 284.426 177.175 284.326 177.285C284.236 177.395 284.126 177.45 283.996 177.45C283.906 177.45 283.816 177.43 283.726 177.39C283.636 177.35 283.516 177.285 283.366 177.195C283.096 177.035 282.841 176.91 282.601 176.82C282.371 176.73 282.081 176.685 281.731 176.685C281.311 176.685 280.971 176.775 280.711 176.955C280.461 177.135 280.336 177.38 280.336 177.69C280.336 177.97 280.451 178.19 280.681 178.35C280.921 178.5 281.366 178.645 282.016 178.785C282.686 178.925 283.211 179.085 283.591 179.265C283.971 179.445 284.241 179.67 284.401 179.94C284.571 180.2 284.656 180.535 284.656 180.945C284.656 181.595 284.381 182.12 283.831 182.52C283.291 182.91 282.566 183.105 281.656 183.105Z" fill="#949494"/>
<defs>
<linearGradient id="paint0_linear_2_1503" x1="118.718" y1="9.42568e-06" x2="212.288" y2="11.4315" gradientUnits="userSpaceOnUse">
<stop stop-color="#F79E0E"/>
<stop offset="1" stop-color="#EEBD23"/>
</linearGradient>
</defs>
</svg>
